<svg width="254" height="50" viewBox="0 0 254 50" fill="none" xmlns="http://www.w3.org/2000/svg">
<path fill-rule="evenodd" clip-rule="evenodd" d="M246.792 38.0959C246.945 39.8412 248.341 42.0626 250.76 42.0626H252.175C252.724 42.0626 253.174 41.613 253.174 41.0641V9.94193H253.167C253.139 9.41764 252.705 8.9977 252.175 8.9977H247.79C247.26 8.9977 246.827 9.41764 246.798 9.94193H246.792V12.4708C244.106 9.1592 239.87 7.78467 235.623 7.78467C225.967 7.78467 218.141 15.6175 218.141 25.2803C218.141 34.9436 225.967 42.7765 235.623 42.7765V42.7776C239.87 42.7776 244.499 41.1284 246.792 38.0918L246.792 38.0959ZM235.639 36.6533C229.499 36.6533 224.521 31.562 224.521 25.2803C224.521 18.9997 229.499 13.9081 235.639 13.9081C241.78 13.9081 246.757 18.9997 246.757 25.2803C246.757 31.562 241.78 36.6533 235.639 36.6533Z" fill="#0D0E10"/>
<path fill-rule="evenodd" clip-rule="evenodd" d="M212.597 39.1663L212.595 23.0619H212.596C212.596 13.984 206.873 7.85986 197.747 7.85986C193.391 7.85986 189.82 10.3808 188.559 12.5463C188.287 10.853 187.388 9.07317 184.603 9.07317H183.183C182.634 9.07317 182.185 9.52311 182.185 10.0721V38.1739C182.185 38.1746 182.185 38.1769 182.185 38.1782V41.1968H182.191C182.219 41.7203 182.653 42.1409 183.183 42.1409H187.568C187.635 42.1409 187.701 42.1328 187.765 42.1203C187.794 42.1148 187.821 42.1034 187.849 42.0953C187.882 42.0854 187.916 42.0776 187.947 42.0649C187.986 42.0487 188.021 42.0269 188.057 42.0067C188.075 41.9958 188.094 41.9882 188.111 41.9765C188.155 41.9484 188.195 41.9145 188.234 41.8798C188.24 41.8732 188.248 41.8692 188.254 41.8634C188.297 41.8211 188.337 41.7745 188.373 41.7262C188.373 41.7254 188.373 41.7254 188.373 41.7254C188.483 41.5745 188.549 41.393 188.56 41.1968H188.566V22.8123C188.566 17.9368 192.516 13.984 197.388 13.984C202.26 13.984 206.209 17.9368 206.209 22.8123L206.214 38.1792L206.215 38.1739C206.215 38.1876 206.217 38.2015 206.217 38.2162V41.1968H206.223C206.251 41.7203 206.685 42.1409 207.215 42.1409H211.6C211.667 42.1409 211.733 42.1328 211.796 42.1203C211.822 42.1155 211.846 42.1052 211.872 42.0981C211.908 42.0877 211.944 42.0786 211.979 42.0649C212.015 42.05 212.047 42.0292 212.081 42.0102C212.102 41.9986 212.124 41.99 212.144 41.9765C212.184 41.9502 212.221 41.9181 212.258 41.8862C212.267 41.8776 212.277 41.8712 212.286 41.8624C212.328 41.8224 212.365 41.7791 212.399 41.7337C212.401 41.7302 212.404 41.7274 212.406 41.7241C212.514 41.5745 212.58 41.3942 212.592 41.1996C212.592 41.1983 212.592 41.1968 212.592 41.1968H212.598V39.1668L212.597 39.1663Z" fill="#0D0E10"/>
<path fill-rule="evenodd" clip-rule="evenodd" d="M166.93 38.0959C167.084 39.8412 168.48 42.0626 170.898 42.0626H172.313C172.862 42.0626 173.311 41.613 173.311 41.0641V9.94193H173.305C173.277 9.41764 172.843 8.9977 172.313 8.9977H167.928C167.398 8.9977 166.965 9.41764 166.936 9.94193H166.93V12.4708C164.244 9.1592 160.008 7.78467 155.76 7.78467C146.105 7.78467 138.279 15.6175 138.279 25.2803C138.279 34.9436 146.105 42.7765 155.76 42.7765V42.7776C160.008 42.7776 164.637 41.1284 166.93 38.0918L166.93 38.0959ZM155.777 36.6533C149.637 36.6533 144.659 31.562 144.659 25.2803C144.659 18.9997 149.637 13.9081 155.777 13.9081C161.918 13.9081 166.895 18.9997 166.895 25.2803C166.895 31.562 161.918 36.6533 155.777 36.6533Z" fill="#0D0E10"/>
<path fill-rule="evenodd" clip-rule="evenodd" d="M112.347 33.6385C115.274 35.6679 118.47 36.6535 121.54 36.6535C124.465 36.6535 127.489 35.136 127.489 32.4944C127.489 28.9677 120.9 28.4191 116.759 27.0107C112.619 25.6025 109.052 22.6914 109.052 17.9771C109.052 10.7635 115.475 7.78418 121.469 7.78418C125.267 7.78418 129.186 9.03759 131.727 10.8331C132.602 11.4966 132.069 12.2583 132.069 12.2583L129.643 15.7248C129.371 16.1152 128.894 16.4526 128.21 16.03C127.526 15.6076 125.126 13.9078 121.469 13.9078C117.812 13.9078 115.609 15.5981 115.609 17.6932C115.609 20.2056 118.472 20.9958 121.826 21.8521C127.67 23.4287 134.046 25.3238 134.046 32.4944C134.046 38.8503 128.105 42.7781 121.54 42.7781C116.565 42.7781 112.329 41.3585 108.776 38.7496C108.036 38.0083 108.553 37.3201 108.553 37.3201L110.966 33.8712C111.457 33.2263 112.076 33.4511 112.347 33.6385Z" fill="#0D0E10"/>
<path fill-rule="evenodd" clip-rule="evenodd" d="M95.4903 38.0959C95.6437 39.8412 97.0397 42.0626 99.4583 42.0626H100.873C101.422 42.0626 101.872 41.613 101.872 41.0641V9.94193H101.865C101.837 9.41764 101.404 8.9977 100.873 8.9977H96.4885C95.9584 8.9977 95.5252 9.41764 95.4956 9.94193H95.4903V12.4708C92.8038 9.1592 88.568 7.78467 84.3205 7.78467C74.6657 7.78467 66.8389 15.6175 66.8389 25.2803C66.8389 34.9436 74.6657 42.7765 84.3205 42.7765V42.7776C88.568 42.7776 93.197 41.1284 95.4898 38.0918L95.4903 38.0959ZM84.3377 36.6533C78.1972 36.6533 73.2191 31.562 73.2191 25.2803C73.2191 18.9997 78.1972 13.9081 84.3377 13.9081C90.4779 13.9081 95.4553 18.9997 95.4553 25.2803C95.4553 31.562 90.4779 36.6533 84.3377 36.6533Z" fill="#0D0E10"/>
<path fill-rule="evenodd" clip-rule="evenodd" d="M42.3299 26.4703C35.8324 26.4703 30.5654 31.7376 30.5654 38.2353C30.5654 44.7327 35.8324 50 42.3299 50C48.8273 50 54.0943 44.7327 54.0943 38.2353C54.0943 31.7376 48.8273 26.4703 42.3299 26.4703ZM11.7645 26.4713C5.26722 26.4713 0 31.7376 0 38.2353C0 44.7327 5.26722 50 11.7645 50C18.2621 50 23.5296 44.7327 23.5296 38.2353C23.5296 31.7376 18.2621 26.4713 11.7645 26.4713ZM38.8115 11.7643C38.8115 18.2621 33.5445 23.5299 27.0473 23.5299C20.5496 23.5299 15.2826 18.2621 15.2826 11.7643C15.2826 5.26773 20.5496 0 27.0473 0C33.5445 0 38.8115 5.26773 38.8115 11.7643Z" fill="#F06A6A"/>
</svg>
