<svg width="522" height="468" viewBox="0 0 522 468" fill="none" xmlns="http://www.w3.org/2000/svg">
<g clip-path="url(#clip0_1369_1767)">
<rect x="113.016" y="1.16927" width="263.704" height="141.9" rx="3.07303" fill="white" stroke="black" stroke-width="2.33855"/>
<path d="M214.371 113.48H300.928" stroke="black" stroke-width="2.33855"/>
<mask id="mask0_1369_1767" style="mask-type:alpha" maskUnits="userSpaceOnUse" x="125" y="44" width="72" height="72">
<circle cx="161.269" cy="80.0735" r="34.5425" transform="rotate(-13.248 161.269 80.0735)" fill="#FFC800" stroke="black" stroke-width="1.53522"/>
</mask>
<g mask="url(#mask0_1369_1767)">
<circle cx="161.269" cy="80.0735" r="34.5425" transform="rotate(-13.248 161.269 80.0735)" fill="#FF492C" stroke="black" stroke-width="2.33855"/>
<path d="M152.788 99.9579C152.788 99.9579 139.39 106.667 137.486 112.876C134.43 122.846 158.264 130.32 158.264 130.32L197.363 120.482C197.363 120.482 197.279 113.381 193.179 108.898C187.956 103.187 173.169 99.3477 173.169 99.3477L152.788 99.9579Z" fill="black" stroke="black" stroke-width="1.53522" stroke-linecap="round"/>
</g>
<path d="M130.245 76.2693C129.818 74.9296 129.937 73.5061 130.585 72.2583C131.096 71.2746 131.885 70.5057 132.851 70.01C132.654 69.8495 132.452 69.687 132.279 69.4951C131.324 68.4573 130.832 67.115 130.892 65.7108C130.996 63.1558 132.913 61.0526 135.443 60.711C135.455 60.7151 135.469 60.7133 135.477 60.7094C134.652 59.3321 134.451 57.6063 135.107 56.0098C135.817 54.2732 137.421 53.0427 139.276 52.7935C139.895 52.7085 140.524 52.7464 141.125 52.887C141.078 52.6389 141.025 52.3887 141.016 52.1271C140.951 50.7196 141.439 49.3771 142.381 48.3362C143.212 47.4231 144.343 46.8319 145.568 46.6637C146.82 46.4917 148.065 46.8012 149.106 47.4713C149.356 45.8807 150.312 44.414 151.847 43.6108C152.397 43.323 152.977 43.1385 153.588 43.0573C155.477 42.8065 157.342 43.6075 158.474 45.0909C159.255 43.6898 160.648 42.6455 162.356 42.4186C164.934 42.0735 167.319 43.6703 168.07 46.0692C168.83 45.4031 169.774 44.9527 170.817 44.8084C171.428 44.7273 172.042 44.7531 172.639 44.8858C174.013 45.1867 175.19 46.0028 175.947 47.1911C176.542 48.1184 176.811 49.185 176.763 50.2684C177.145 50.1216 177.532 50.0164 177.949 49.9611C179.171 49.7988 180.423 50.0707 181.46 50.7328C182.646 51.4855 183.476 52.6528 183.778 54.0289C184.017 55.1052 183.911 56.2018 183.495 57.1984C185.142 57.169 186.731 57.9218 187.749 59.2395C188.606 60.3497 188.984 61.7324 188.802 63.1275C188.662 64.2258 188.181 65.2197 187.444 66.0129C188.972 66.5392 190.233 67.7484 190.751 69.3783C191.178 70.718 191.059 72.1414 190.409 73.3952C189.898 74.3789 189.109 75.1478 188.144 75.6435C189.392 76.6564 190.175 78.2116 190.104 79.9368C190 82.4917 188.089 84.597 185.553 84.9365C185.542 84.9325 185.528 84.9343 185.52 84.9382C186.344 86.3155 186.545 88.0413 185.889 89.6378C185.173 91.3723 183.576 92.6049 181.721 92.8541C181.102 92.9391 180.472 92.9012 179.871 92.7605C179.918 93.0087 179.971 93.2589 179.98 93.5205C180.046 94.9279 179.557 96.2705 178.615 97.3113C177.784 98.2245 176.653 98.8157 175.429 98.9839C174.177 99.1558 172.931 98.8463 171.89 98.1763C171.64 99.7668 170.685 101.234 169.149 102.037C168.599 102.325 168.019 102.509 167.408 102.59C165.519 102.841 163.655 102.04 162.522 100.557C161.741 101.958 160.348 103.002 158.64 103.229C156.063 103.574 153.677 101.977 152.926 99.5783C152.166 100.244 151.223 100.695 150.179 100.839C149.568 100.92 148.954 100.894 148.351 100.76C146.977 100.459 145.806 99.6448 145.049 98.4564C144.454 97.5292 144.185 96.4625 144.233 95.3792C143.851 95.526 143.464 95.6312 143.047 95.6865C141.825 95.8488 140.574 95.5769 139.53 94.9127C137.338 93.522 136.535 90.7738 137.499 88.4551C135.853 88.4845 134.261 87.7376 133.24 86.4119C132.383 85.3018 132.004 83.919 132.186 82.5239C132.326 81.4256 132.807 80.4317 133.544 79.6385C132.016 79.1122 130.756 77.903 130.231 76.2711L130.245 76.2693Z" fill="black"/>
<path d="M157.756 58.0775C161.599 56.7985 166.318 56.934 170.191 58.7258L170.563 58.9046L170.934 59.0954C174.745 61.109 177.947 64.5667 179.999 68.8598C184.326 77.9062 182.256 88.2437 174.973 91.7271L174.972 91.7268C173.968 92.2065 172.881 92.5344 171.752 92.7095L171.752 92.7117C171.752 92.7137 171.752 92.7128 171.751 92.7101L173.794 97.7661L173.804 97.7903L173.812 97.8157C174.267 99.3161 174.398 100.643 174.133 101.776C173.863 102.931 173.192 103.831 172.158 104.478L172.159 104.479C170.863 105.291 169.133 105.64 167.302 105.722C165.46 105.805 163.451 105.621 161.548 105.312C159.642 105.004 157.825 104.568 156.362 104.141C154.918 103.72 153.769 103.292 153.227 102.985C153.011 102.863 152.934 102.664 152.928 102.488C152.929 102.498 152.928 102.508 152.928 102.518L151.357 85.9812L149.451 75.3862C147.553 67.4655 151.43 60.1825 157.756 58.0775Z" fill="white" stroke="black" stroke-width="1.18077"/>
<path d="M165.229 92.6356C162.784 91.7938 160.409 90.314 158.3 88.2768C158.065 88.0523 158.058 87.6751 158.288 87.4421C158.512 87.2072 158.888 87.2053 159.123 87.4298C162.762 90.9496 167.217 92.6833 171.327 92.188C171.653 92.1501 171.942 92.3807 171.987 92.7023C172.025 93.0275 171.794 93.3165 171.473 93.3619C169.42 93.6105 167.304 93.3563 165.233 92.6432L165.229 92.6356Z" fill="black"/>
<circle cx="149.406" cy="73.6865" r="5.31348" transform="rotate(19 149.406 73.6865)" fill="black"/>
<circle cx="153.773" cy="66.4482" r="5.31348" transform="rotate(19 153.773 66.4482)" fill="black"/>
<path d="M153.839 82.8255C153.367 84.1956 152.463 85.2941 151.332 86.0208C149.79 87.0112 147.826 87.3115 145.959 86.6686C142.722 85.554 141.001 82.0262 142.116 78.7891C143.231 75.5519 146.758 73.8313 149.996 74.946C151.497 75.4629 152.672 76.4987 153.389 77.7839C154.219 79.2701 154.436 81.0896 153.839 82.8255Z" fill="white"/>
<path d="M151.569 85.7904C150.027 86.7808 147.826 87.3115 145.959 86.6686C142.722 85.554 141.001 82.0262 142.116 78.7891C143.231 75.5519 146.758 73.8313 149.996 74.946C151.497 75.4629 152.672 76.4987 153.389 77.7839" stroke="black" stroke-width="2" stroke-linecap="round"/>
<path d="M168.891 72.4571C168.856 73.1346 168.295 73.6617 167.617 73.6266C166.939 73.6072 166.413 73.0299 166.448 72.3524C166.483 71.6749 167.044 71.1477 167.722 71.1828C168.401 71.2022 168.927 71.7795 168.891 72.4571Z" fill="black"/>
<path d="M163.061 68.971C163.061 68.971 166.097 64.9562 169.939 67.1058" stroke="black" stroke-width="2" stroke-linecap="round" stroke-linejoin="round"/>
<path d="M173.736 84.6929C170.268 86.7024 165.848 85.4813 163.843 81.9443" stroke="black" stroke-width="2" stroke-linecap="round" stroke-linejoin="round"/>
<path d="M173.071 78.4017C176.499 81.1427 180.827 77.6379 178.411 76.4939C175.996 75.3499 174.623 73.1443 174.06 70.7381" stroke="black" stroke-width="2" stroke-linecap="round" stroke-linejoin="round"/>
<circle cx="158.326" cy="58.6514" r="5.31348" transform="rotate(19 158.326 58.6514)" fill="black"/>
<circle cx="167.87" cy="56.3184" r="5.31348" transform="rotate(19 167.87 56.3184)" fill="black"/>
<circle cx="177.186" cy="58.2768" r="5.90387" transform="rotate(19 177.186 58.2768)" fill="black"/>
<path d="M116.089 0.707031H373.647C375.6 0.70713 377.183 2.28984 377.183 4.24219V16.6152H112.554V4.24219C112.554 2.28981 114.136 0.707093 116.089 0.707031Z" fill="black" stroke="black" stroke-width="1.4141"/>
<path d="M209.527 87.5215H359.876" stroke="black" stroke-width="2.33855"/>
<path d="M209.527 100.496H359.876" stroke="black" stroke-width="2.33855"/>
<path d="M220.171 48.9316L216.919 55.5218L209.646 56.5765L214.912 61.7119L213.668 68.9495L220.171 65.5307L226.674 68.9495L225.43 61.7119L230.696 56.5765L223.422 55.5218L220.171 48.9316Z" fill="#FFC800" stroke="black" stroke-width="2.33855"/>
<path d="M251.008 48.9316L247.756 55.5218L240.482 56.5765L245.749 61.7119L244.505 68.9495L251.008 65.5307L257.518 68.9495L256.274 61.7119L261.533 56.5765L254.259 55.5218L251.008 48.9316Z" fill="#FFC800" stroke="black" stroke-width="2.33855"/>
<path d="M281.845 48.9316L278.594 55.5218L271.32 56.5765L276.586 61.7119L275.342 68.9495L281.845 65.5307L288.355 68.9495L287.112 61.7119L292.371 56.5765L285.104 55.5218L281.845 48.9316Z" fill="#FFC800" stroke="black" stroke-width="2.33855"/>
<path d="M312.682 48.9316L309.431 55.5218L302.157 56.5765L307.416 61.7119L306.172 68.9495L312.682 65.5307L319.185 68.9495L317.941 61.7119L323.207 56.5765L315.934 55.5218L312.682 48.9316Z" fill="#FFC800" stroke="black" stroke-width="2.33855"/>
<path d="M343.52 48.9316L340.268 55.5218L332.994 56.5765L338.253 61.7119L337.017 68.9495L343.52 65.5307L350.022 68.9495L348.779 61.7119L354.045 56.5765L346.771 55.5218L343.52 48.9316Z" fill="#FFC800" stroke="black" stroke-width="2.33855"/>
<circle cx="121.747" cy="8.83799" r="3.53525" fill="white"/>
<circle cx="134.472" cy="8.83799" r="3.53525" fill="white"/>
<circle cx="147.199" cy="8.83799" r="3.53525" fill="white"/>
<path d="M232.529 125.943V240.579H174.042V297.411L117.552 240.921L117.209 240.579H0.919922V125.943H232.529Z" fill="#FFC800" stroke="black" stroke-width="2.33855"/>
<path d="M39.0825 175.326L39.355 175.878L39.9634 175.966L49.6968 177.377L42.6489 184.251L42.2085 184.681L42.313 185.286L43.9771 194.969L35.2759 190.395L34.7319 190.108L34.188 190.395L25.4858 194.969L27.1509 185.286L27.2554 184.681L26.8149 184.251L19.7661 177.377L29.5005 175.966L30.1089 175.878L30.3813 175.326L34.7319 166.508L39.0825 175.326Z" fill="white" stroke="black" stroke-width="2.33855"/>
<path d="M80.0806 175.326L80.353 175.878L80.9614 175.966L90.6968 177.377L83.6587 184.252L83.2192 184.681L83.3228 185.286L84.9868 194.97L76.2739 190.395L75.73 190.109L75.186 190.395L66.4839 194.969L68.1489 185.286L68.2534 184.681L67.813 184.251L60.7642 177.377L70.4985 175.966L71.1069 175.878L71.3794 175.326L75.73 166.508L80.0806 175.326Z" fill="white" stroke="black" stroke-width="2.33855"/>
<path d="M121.088 175.327L121.361 175.878L121.968 175.966L131.692 177.377L124.654 184.252L124.214 184.681L124.318 185.286L125.982 194.97L117.269 190.395L116.725 190.109L116.181 190.395L107.479 194.969L109.144 185.286L109.249 184.681L108.808 184.251L101.759 177.377L111.494 175.966L112.102 175.878L112.375 175.326L116.726 166.505L121.088 175.327Z" fill="white" stroke="black" stroke-width="2.33855"/>
<path d="M162.071 175.326L162.344 175.878L162.952 175.966L172.686 177.377L165.638 184.251L165.197 184.681L165.302 185.286L166.966 194.969L158.265 190.395L157.721 190.109L157.177 190.395L148.463 194.97L150.128 185.286L150.231 184.681L149.792 184.252L142.753 177.377L152.489 175.966L153.098 175.878L153.37 175.326L157.721 166.508L162.071 175.326Z" fill="white" stroke="black" stroke-width="2.33855"/>
<path d="M203.069 175.326L203.341 175.878L203.95 175.966L213.683 177.377L206.635 184.251L206.195 184.681L206.299 185.286L207.963 194.969L199.262 190.395L198.718 190.108L198.174 190.395L189.47 194.971L191.125 185.285L191.229 184.681L190.79 184.252L183.75 177.377L193.487 175.966L194.095 175.878L194.368 175.326L198.718 166.508L203.069 175.326Z" fill="white" stroke="black" stroke-width="2.33855"/>
<path d="M362.986 277.83C352.802 269.037 342.021 263.202 332.842 260.548C333.813 254.152 333.158 247.429 330.527 241.01C322.775 222.067 301.131 213.005 282.189 220.758C277.641 222.617 273.677 225.294 270.368 228.533C261.668 224.955 251.613 224.651 242.223 228.498C223.281 236.251 214.219 257.894 221.972 276.836C224.661 283.407 229.046 288.751 234.378 292.656C233.863 300.736 232.67 313.236 229.946 320.263C225.69 331.242 226.777 342.432 234.6 347.659C242.422 352.886 251.975 347.367 258.067 353.704C264.159 360.042 277.652 373.781 300.114 358.171C322.576 342.549 344.395 342.456 349.399 327.957C354.392 313.469 357.724 314.113 360.484 310.172C363.243 306.232 377.181 290.084 362.986 277.83Z" fill="black"/>
<path d="M326.713 351.624L318.139 356.719C312.848 359.863 306.01 358.122 302.867 352.832L277.845 310.724C274.701 305.433 276.442 298.596 281.732 295.452L290.307 290.357C295.597 287.213 302.435 288.954 305.578 294.244L330.6 336.352C333.744 341.642 332.003 348.48 326.713 351.624Z" fill="white"/>
<path d="M312.465 359.444C314.605 359.444 316.768 358.883 318.732 357.713L327.303 352.627C333.138 349.154 335.067 341.589 331.594 335.743L306.572 293.637C303.099 287.802 295.534 285.873 289.687 289.346L281.117 294.432C275.282 297.905 273.353 305.47 276.825 311.317L301.848 353.422C304.151 357.292 308.255 359.444 312.453 359.444H312.465ZM326.11 350.616L317.539 355.702C312.816 358.508 306.677 356.953 303.859 352.218L278.836 310.112C276.03 305.388 277.585 299.25 282.321 296.443L290.892 291.357C295.616 288.551 301.754 290.106 304.572 294.841L329.595 336.947C332.401 341.671 330.846 347.81 326.11 350.616Z" fill="black"/>
<path d="M323.221 347.577L292.656 342.093C283.711 340.491 274.719 344.7 270.229 352.605L210.07 458.4H306.442L323.221 347.588V347.577Z" fill="#FF492C" stroke="black" stroke-width="2.33855" stroke-miterlimit="10"/>
<path d="M307.611 458.401H211.239L252.363 386.069H318.555L307.611 458.401Z" fill="white"/>
<path d="M211.239 459.559H307.611C308.184 459.559 308.687 459.138 308.768 458.565L319.713 386.245C319.76 385.906 319.666 385.567 319.444 385.31C319.222 385.052 318.894 384.9 318.555 384.9H252.351C251.93 384.9 251.544 385.123 251.334 385.497L210.21 457.816C210 458.179 210.012 458.623 210.21 458.986C210.421 459.348 210.807 459.57 211.216 459.57L211.239 459.559ZM306.605 457.22H213.25L253.041 387.239H317.199L306.605 457.22Z" fill="black"/>
<path d="M280.634 359.655L275.127 464.761H403.677L391.423 379.836L359.735 338.163C351.995 327.991 337.414 326.155 327.393 334.094L312.59 345.834" fill="#FF492C"/>
<path d="M280.634 359.655L275.127 464.761H403.677L391.423 379.836L359.735 338.163C351.995 327.991 337.414 326.155 327.393 334.094L312.59 345.834" stroke="black" stroke-width="2.33855" stroke-miterlimit="10"/>
<path d="M268.078 421.076H264.652C260.688 421.076 257.134 418.597 255.777 414.867C254.784 412.131 256.806 409.243 259.718 409.243H288.517L268.078 421.076Z" fill="white"/>
<path d="M264.641 422.246H268.067C268.71 422.246 269.236 421.72 269.236 421.077C269.236 420.433 268.71 419.907 268.067 419.907H264.641C261.18 419.907 258.058 417.721 256.865 414.458C256.526 413.523 256.655 412.517 257.228 411.699C257.801 410.88 258.701 410.413 259.695 410.413H288.494C289.137 410.413 289.664 409.887 289.664 409.243C289.664 408.6 289.137 408.074 288.494 408.074H259.695C257.953 408.074 256.304 408.928 255.31 410.354C254.305 411.781 254.071 413.617 254.667 415.254C256.187 419.428 260.198 422.234 264.641 422.234V422.246Z" fill="black"/>
<path d="M391.413 379.849L422.562 420.89C438.324 441.656 419.861 470.853 394.336 465.521L296.748 445.106L284.974 453.349C281.162 456.015 276.216 456.459 271.995 454.495L268.768 452.998C264.839 455.618 259.729 455.711 255.707 453.232L252.994 451.56L278.356 427.824C275.199 429.566 259.986 435.787 250.737 436.5C248.165 436.699 245.674 435.565 244.072 433.553L243.231 432.489L272.275 415.792C281.466 410.975 284.389 408.379 291.428 409.338L361.994 418.937L343.344 398.499C343.344 398.499 355.177 379.849 391.389 379.849H391.413Z" fill="white"/>
<path d="M400.45 467.333C410.354 467.333 419.381 462.399 424.923 453.629C431.635 443.012 431.097 430.197 423.497 420.2L392.347 379.158C392.125 378.866 391.786 378.69 391.412 378.69C354.977 378.69 342.875 397.095 342.372 397.878C342.092 398.323 342.138 398.907 342.501 399.293L358.976 417.347L291.602 408.191C285.394 407.349 282.05 409.173 275.969 412.494C274.706 413.184 273.315 413.944 271.737 414.774L242.657 431.495C242.364 431.67 242.154 431.951 242.095 432.29C242.037 432.629 242.119 432.968 242.329 433.237L243.171 434.301C245.042 436.651 247.918 437.926 250.842 437.692C257.331 437.177 266.393 434.126 272.555 431.682L252.21 450.729C251.941 450.975 251.812 451.337 251.847 451.7C251.882 452.062 252.093 452.39 252.397 452.577L255.109 454.249C259.319 456.845 264.651 456.856 268.872 454.342L271.514 455.57C276.098 457.698 281.512 457.219 285.651 454.319L297.005 446.368L394.089 466.678C396.229 467.123 398.345 467.345 400.427 467.345L400.45 467.333ZM390.839 381.017L421.637 421.603C428.63 430.817 429.132 442.603 422.947 452.378C416.762 462.153 405.887 466.748 394.58 464.386L296.993 443.971C296.677 443.901 296.35 443.971 296.081 444.158L284.306 452.401C280.845 454.822 276.32 455.219 272.497 453.442L269.281 451.945C268.919 451.77 268.486 451.805 268.135 452.027C264.592 454.389 259.962 454.471 256.337 452.238L254.922 451.372L279.161 428.689C279.594 428.291 279.652 427.625 279.313 427.145C278.963 426.666 278.32 426.525 277.805 426.806C274.438 428.665 259.436 434.664 250.666 435.342C248.503 435.517 246.398 434.57 245.007 432.828L272.871 416.809C274.426 416.002 275.829 415.23 277.092 414.54C283.09 411.255 285.838 409.758 291.287 410.506L361.852 420.106C362.344 420.176 362.811 419.931 363.045 419.486C363.279 419.054 363.209 418.516 362.87 418.153L344.863 398.416C345.985 396.966 349.014 393.505 354.556 390.091C361.174 385.998 372.82 381.134 390.827 381.029L390.839 381.017Z" fill="black"/>
<path d="M268.791 454.166C269.072 454.166 269.341 454.072 269.563 453.874L287.851 437.738C288.33 437.305 288.377 436.568 287.956 436.089C287.523 435.598 286.786 435.563 286.307 435.984L268.02 452.12C267.529 452.552 267.493 453.289 267.914 453.768C268.148 454.026 268.464 454.166 268.791 454.166Z" fill="black"/>
<path d="M277.854 429.506C278.111 429.506 278.369 429.424 278.591 429.249L284.683 424.326C285.185 423.917 285.267 423.18 284.858 422.678C284.449 422.175 283.724 422.093 283.209 422.502L277.117 427.425C276.615 427.834 276.533 428.571 276.942 429.074C277.176 429.354 277.515 429.506 277.854 429.506Z" fill="black"/>
<path d="M343.366 399.656C343.658 399.656 343.951 399.55 344.173 399.328C344.641 398.884 344.652 398.147 344.208 397.68L325.102 377.685C324.658 377.217 323.921 377.206 323.453 377.65C322.986 378.094 322.974 378.831 323.418 379.299L342.524 399.293C342.758 399.539 343.062 399.656 343.366 399.656Z" fill="black"/>
<path d="M203.779 367.301H104.391C96.7003 367.301 91.2644 374.834 93.6802 382.135L121.021 464.772H244.221L244.217 464.761H329.184V463.392C329.184 459.42 325.955 456.201 321.993 456.201H241.337L241.073 455.399L214.491 375.046C212.965 370.427 208.641 367.301 203.779 367.301Z" fill="#5746B2" stroke="black" stroke-width="2.33855"/>
<path d="M389.987 424.397C390.56 424.397 391.051 423.988 391.145 423.403C391.238 422.76 390.805 422.164 390.162 422.07L362.193 417.767C361.55 417.662 360.954 418.106 360.86 418.75C360.767 419.393 361.199 419.989 361.843 420.083L389.812 424.385C389.87 424.385 389.928 424.397 389.987 424.397Z" fill="black"/>
<path d="M325.29 335.019L284.33 342.537L285.055 345.589C288.364 359.421 304.068 363.724 312.755 353.177L325.278 335.019H325.29Z" fill="white"/>
<path d="M65.1396 464.945H386.183" stroke="black" stroke-width="2"/>
<path d="M284.329 342.538L285.054 345.59C285.264 346.455 285.521 347.285 285.814 348.068C290.011 359.165 302.862 362.638 311.152 354.885C312.134 353.973 312.859 352.816 313.397 351.6C314.999 347.987 319.676 338.995 328.679 333.16" fill="white"/>
<path d="M284.329 342.538L285.054 345.59C285.264 346.455 285.521 347.285 285.814 348.068C290.011 359.165 302.862 362.638 311.152 354.885C312.134 353.973 312.859 352.816 313.397 351.6C314.999 347.987 319.676 338.995 328.679 333.16" stroke="black" stroke-width="2.33855" stroke-miterlimit="10"/>
<path d="M284.175 343.462C284.281 343.462 284.386 343.45 284.491 343.415L294.862 340.562C295.482 340.386 295.845 339.743 295.681 339.124C295.506 338.504 294.874 338.13 294.243 338.305L283.871 341.158C283.252 341.333 282.889 341.977 283.053 342.596C283.193 343.111 283.661 343.462 284.175 343.462Z" fill="black"/>
<path d="M299.482 348.291C299.669 348.291 299.867 348.233 300.043 348.128C300.604 347.8 300.779 347.087 300.452 346.526L294.723 336.844C294.395 336.295 293.682 336.108 293.121 336.435C292.559 336.762 292.384 337.476 292.711 338.037L298.441 347.718C298.663 348.093 299.072 348.303 299.482 348.291Z" fill="black"/>
<path d="M285.908 329.348C269.761 335.954 251.31 328.225 244.703 312.078L235.244 288.973C228.637 272.825 236.366 254.374 252.514 247.768C268.662 241.161 287.113 248.89 293.719 265.038L303.179 288.143C309.785 304.29 302.056 322.742 285.908 329.348Z" fill="white" stroke="black" stroke-width="2.33855" stroke-miterlimit="10"/>
<path d="M265.591 290.801C264.106 291.575 262.275 290.999 261.501 289.514C260.727 288.029 261.303 286.198 262.788 285.424C264.273 284.65 266.104 285.226 266.878 286.711C267.652 288.196 267.076 290.027 265.591 290.801Z" fill="black"/>
<path d="M255.2 279.299C260.031 274.431 267.89 274.417 272.758 279.25" stroke="black" stroke-width="2.47035" stroke-linecap="round" stroke-linejoin="round"/>
<path d="M259.854 309.213C256.218 311.012 254.174 311.309 251.783 310.442C249.392 309.575 254.504 302.359 251.917 295.814" stroke="black" stroke-width="2.79729" stroke-linecap="round" stroke-linejoin="round"/>
<path d="M267.546 320.353C277.345 319.654 284.787 311.218 284.18 301.441" stroke="black" stroke-width="2.47035" stroke-linecap="round" stroke-linejoin="round"/>
<path d="M304.593 287.559C307.949 295.744 307.914 304.747 304.488 312.908L304.593 287.559Z" fill="black"/>
<path d="M316.308 277.153C318.951 283.607 315.864 290.985 309.409 293.628C302.955 296.27 295.577 293.183 292.934 286.717C290.292 280.263 293.379 272.885 299.833 270.242C306.287 267.6 313.665 270.687 316.308 277.141V277.153Z" fill="white"/>
<path d="M259.773 237.526C252.71 240.414 246.934 245.126 242.76 250.89C243.169 252.364 243.66 253.825 244.257 255.275C252.535 275.48 275.616 285.162 295.822 276.883C302.884 273.995 308.66 269.283 312.834 263.519C312.425 262.045 311.934 260.584 311.338 259.134C303.059 238.929 279.978 229.259 259.773 237.526Z" fill="black"/>
</g>
<defs>
<clipPath id="clip0_1369_1767">
<rect width="521.496" height="467.71" fill="white"/>
</clipPath>
</defs>
</svg>
