<svg width="48" height="48" viewBox="0 0 48 48" fill="none" xmlns="http://www.w3.org/2000/svg">
<g clip-path="url(#clip0_1499_1026)">
<path fill-rule="evenodd" clip-rule="evenodd" d="M48 24C48 37.2547 37.2547 48 24 48C10.7453 48 0 37.2547 0 24C0 10.7453 10.7453 0 24 0C37.2547 0 48 10.7453 48 24Z" fill="#FF492C"/>
<path d="M24.2476 10.29C25.1662 10.2901 26.0634 10.3807 26.9312 10.5527L24.2476 16.166C19.9247 16.166 16.4078 19.6804 16.4077 24C16.4077 28.32 19.9246 31.835 24.2476 31.835C26.1973 31.8349 27.9821 31.1178 29.355 29.9365L32.3267 35.0801C30.0603 36.7332 27.2684 37.7099 24.2476 37.71C16.6706 37.71 10.5278 31.5721 10.5278 24C10.5279 16.4283 16.6706 10.29 24.2476 10.29ZM37.2339 27.9111L33.8442 33.7842L30.4536 27.9111H23.6724L27.063 22.0371H33.8442L37.2339 27.9111ZM31.3032 11.2715C32.1583 11.2715 32.9021 11.4946 33.5093 11.9521C34.1287 12.4093 34.4389 13.0395 34.439 13.8428C34.439 15.1162 33.7203 15.8959 32.3696 16.5879L31.6138 16.9707C30.808 17.3787 30.4117 17.738 30.3003 18.3809H34.4019V20.0742H28.1929V19.79C28.1929 18.7391 28.4038 17.8615 28.8247 17.1816C29.2461 16.4893 29.9776 15.8832 31.0308 15.3516L31.5142 15.1162C32.3688 14.6835 32.5921 14.3133 32.5923 13.8682C32.5923 13.3368 32.1337 12.9531 31.3901 12.9531C30.5105 12.9532 29.8415 13.4107 29.3833 14.3379L28.1929 13.1504C28.4529 12.5942 28.8746 12.149 29.4321 11.8027C30.0021 11.4443 30.6219 11.2715 31.3032 11.2715Z" fill="white"/>
</g>
<defs>
<clipPath id="clip0_1499_1026">
<rect width="48" height="48" fill="white"/>
</clipPath>
</defs>
</svg>
