<svg width="24" height="24" viewBox="0 0 24 24" fill="none" xmlns="http://www.w3.org/2000/svg">
<path d="M12 7.2002H21.5996V20.4004H2.40039V3.59961H12V7.2002ZM4.2002 18.5996H6V16.7998H4.2002V18.5996ZM8.40039 18.5996H10.2002V16.7998H8.40039V18.5996ZM12 11H13.7998V12.7998H12V14.7998H13.7998V16.5996H12V18.5996H19.7998V9H12V11ZM18 16.5996H16.2002V14.7998H18V16.5996ZM4.2002 14.7998H6V13H4.2002V14.7998ZM8.40039 14.7998H10.2002V13H8.40039V14.7998ZM18 12.7998H16.2002V11H18V12.7998ZM4.2002 11H6V9.2002H4.2002V11ZM8.40039 11H10.2002V9.2002H8.40039V11ZM4.2002 7.2002H6V5.40039H4.2002V7.2002ZM8.40039 7.2002H10.2002V5.40039H8.40039V7.2002Z" fill="#5746B2"/>
</svg>
