<svg width="24" height="24" viewBox="0 0 24 24" fill="none" xmlns="http://www.w3.org/2000/svg">
<path d="M12 13.2002C13.0499 13.2002 14.0874 13.3417 15.1123 13.625C16.1373 13.9083 17.1087 14.3163 18.0254 14.8496C18.392 15.0663 18.6794 15.3502 18.8877 15.7002C19.0959 16.0501 19.2002 16.4166 19.2002 16.7998V19.2002H4.7998V16.7998C4.79984 16.4167 4.90416 16.0544 5.1123 15.7129C5.32062 15.3713 5.60799 15.0829 5.97461 14.8496C6.89128 14.3163 7.8627 13.9083 8.8877 13.625C9.91264 13.3417 10.9501 13.2002 12 13.2002ZM12 4.7998C12.9999 4.7998 13.8499 5.1498 14.5498 5.84961C15.2498 6.54961 15.5996 7.40039 15.5996 8.40039C15.5995 9.40022 15.2497 10.2503 14.5498 10.9502C13.8498 11.6501 12.9999 12 12 12C11.0001 12 10.1502 11.6501 9.4502 10.9502C8.75029 10.2503 8.40048 9.40022 8.40039 8.40039C8.40039 7.40039 8.7502 6.54961 9.4502 5.84961C10.1501 5.1498 11.0001 4.7998 12 4.7998Z" fill="#5746B2"/>
</svg>
