<svg width="24" height="24" viewBox="0 0 24 24" fill="none" xmlns="http://www.w3.org/2000/svg">
<path d="M9.59961 13.2002C10.6996 13.2002 11.7544 13.3417 12.7627 13.625C13.7709 13.9083 14.7251 14.3164 15.625 14.8496C15.9917 15.0663 16.279 15.3546 16.4873 15.7129C16.6956 16.0712 16.7998 16.4671 16.7998 16.9004V19.2002H2.40039V16.9004C2.40039 16.4671 2.5046 16.0712 2.71289 15.7129C2.92122 15.3546 3.20853 15.0663 3.5752 14.8496C4.4751 14.3164 5.42928 13.9083 6.4375 13.625C7.44571 13.3417 8.49975 13.2002 9.59961 13.2002ZM16.7998 13.4746C17.4498 13.6079 18.0792 13.7877 18.6875 14.0127C19.2957 14.2376 19.8749 14.5164 20.4248 14.8496C20.7915 15.0663 21.0788 15.3546 21.2871 15.7129C21.4954 16.0712 21.5996 16.4671 21.5996 16.9004V19.2002H18.5996V16.9004C18.5996 16.2004 18.4373 15.5502 18.1123 14.9502C17.7873 14.3502 17.3498 13.8579 16.7998 13.4746ZM9.59961 4.7998C10.5996 4.7998 11.4504 5.14961 12.1504 5.84961C12.8504 6.54961 13.2002 7.40039 13.2002 8.40039C13.2001 9.40017 12.8502 10.2503 12.1504 10.9502C11.4504 11.6502 10.5996 12 9.59961 12C8.59978 11.9999 7.74971 11.6501 7.0498 10.9502C6.3499 10.2503 6.00009 9.40022 6 8.40039C6 7.40039 6.3498 6.54961 7.0498 5.84961C7.74969 5.14977 8.59983 4.7999 9.59961 4.7998ZM14.4004 4.7998C15.4002 4.7999 16.2503 5.14977 16.9502 5.84961C17.6502 6.54961 18 7.40039 18 8.40039C17.9999 9.40022 17.6501 10.2503 16.9502 10.9502C16.2503 11.6501 15.4002 11.9999 14.4004 12C14.2672 12 14.142 11.9956 14.0254 11.9873C13.9088 11.979 13.7836 11.9581 13.6504 11.9248C14.0669 11.4416 14.3961 10.904 14.6377 10.3125C14.8793 9.72097 15 9.08355 15 8.40039C15 7.71706 14.8794 7.07897 14.6377 6.4873C14.3961 5.89576 14.067 5.35826 13.6504 4.875C13.7836 4.84172 13.9088 4.82083 14.0254 4.8125C14.1419 4.80419 14.2672 4.7998 14.4004 4.7998Z" fill="#5746B2"/>
</svg>
