<svg width="52" height="52" viewBox="0 0 52 52" fill="none" xmlns="http://www.w3.org/2000/svg">
<path fill-rule="evenodd" clip-rule="evenodd" d="M8 18.096H44.019V5H8V18.096Z" fill="#27D3BC"/>
<path fill-rule="evenodd" clip-rule="evenodd" d="M8 46.47H44.019V18.108H8V46.47Z" fill="#A9EDE4"/>
<path fill-rule="evenodd" clip-rule="evenodd" d="M14.603 23.131H23.583V13.515H14.603V23.131Z" fill="white"/>
<path fill-rule="evenodd" clip-rule="evenodd" d="M39.2485 35.0472H13.2195V34.0462H39.2485V35.0472Z" fill="#062846"/>
<path fill-rule="evenodd" clip-rule="evenodd" d="M27.5275 40.292H13.2195V39.291H27.5275V40.292Z" fill="#062846"/>
<path fill-rule="evenodd" clip-rule="evenodd" d="M13.3884 18.6084H8.0769V17.6074H14.3894V22.6304H23.7444V17.6074H44.0189V18.6084H24.7454V23.6314H13.3884V18.6084Z" fill="#062846"/>
<path fill-rule="evenodd" clip-rule="evenodd" d="M39.2485 30.0943H13.2195V29.0933H39.2485V30.0943Z" fill="#062846"/>
<path fill-rule="evenodd" clip-rule="evenodd" d="M39.2298 10.7072H36.1798V9.70621H39.2298V10.7072Z" fill="#062846"/>
<path fill-rule="evenodd" clip-rule="evenodd" d="M33.8702 10.7072H30.8202V9.70621H33.8702V10.7072Z" fill="#062846"/>
</svg>
