<svg width="52" height="52" viewBox="0 0 52 52" fill="none" xmlns="http://www.w3.org/2000/svg">
<path fill-rule="evenodd" clip-rule="evenodd" d="M29.7365 8.01928C30.0124 8.03004 30.2274 8.26245 30.2166 8.53838C30.1505 10.2351 29.5538 11.0885 29.0065 11.8698L29.0046 11.8725C28.4932 12.6026 28.0314 13.2618 27.9766 14.6662C27.9766 14.6663 27.9766 14.6663 27.9766 14.6663M27.9766 14.6664C27.9223 16.0708 28.3316 16.7638 28.7848 17.5313L28.7865 17.5341C29.2716 18.3555 29.8002 19.2525 29.7346 20.9492C29.724 21.2252 29.4916 21.4402 29.2157 21.4295C28.9397 21.4189 28.7247 21.1865 28.7354 20.9106C28.7897 19.506 28.3804 18.813 27.9272 18.0455L27.9255 18.0427C27.4404 17.2213 26.9118 16.3243 26.9774 14.6276L26.9774 14.6274C27.0435 12.9307 27.6402 12.0773 28.1875 11.296L28.1894 11.2933C28.7008 10.5632 29.1626 9.90398 29.2174 8.49942C29.2281 8.22348 29.4606 8.00852 29.7365 8.01928" fill="#062846"/>
<path fill-rule="evenodd" clip-rule="evenodd" d="M42.8549 21.7022C43.6826 22.0331 44.4298 22.3318 45.8094 22.0639C46.0805 22.0112 46.3429 22.1883 46.3955 22.4594C46.4482 22.7304 46.2711 22.9929 46 23.0455C44.3334 23.3692 43.3662 22.9836 42.4805 22.6295L42.4775 22.6283C41.6497 22.2974 40.9022 21.9985 39.522 22.2665C38.1426 22.5345 37.5616 23.0911 36.9181 23.7077L36.9155 23.7102C36.2267 24.3702 35.4742 25.0898 33.807 25.4135C33.5359 25.4662 33.2735 25.2891 33.2209 25.018C33.1682 24.7469 33.3453 24.4845 33.6164 24.4319C34.9967 24.1639 35.5778 23.607 36.2214 22.9903L36.2237 22.9882C36.9123 22.3283 37.6647 21.6086 39.3314 21.2849L39.3314 21.2849C40.9985 20.9612 41.9659 21.3468 42.8517 21.7009L42.8549 21.7022Z" fill="#062846"/>
<path fill-rule="evenodd" clip-rule="evenodd" d="M26.1538 38.5107L14.8438 42.9837L8.29279 36.4177L12.7658 25.1227L26.1538 38.5107Z" fill="#FFCEC2"/>
<path fill-rule="evenodd" clip-rule="evenodd" d="M14.8436 42.9836L4.0006 47.2756L8.29259 36.4176L14.8436 42.9836Z" fill="#FF492C"/>
<path fill-rule="evenodd" clip-rule="evenodd" d="M36.5904 34.3691L26.1534 38.5111L12.7654 25.1221L16.8914 14.6851L36.5904 34.3691Z" fill="#5746B2"/>
<path fill-rule="evenodd" clip-rule="evenodd" d="M44.5686 36.8059L41.6506 36.9809L41.1326 28.3549L44.0506 28.1799L44.5686 36.8059Z" fill="#FFCEC2"/>
<path fill-rule="evenodd" clip-rule="evenodd" d="M22.7845 11.999L20.0785 13.105L16.8085 5.106L19.5145 4L22.7845 11.999Z" fill="#5746B2"/>
<path fill-rule="evenodd" clip-rule="evenodd" d="M40.2191 8.5524L42.0661 10.8184L35.3691 16.2794L33.5211 14.0134L40.2191 8.5524Z" fill="#FF492C"/>
<path fill-rule="evenodd" clip-rule="evenodd" d="M36.6061 33.7527C36.7089 34.009 36.5844 34.3001 36.3281 34.4029L3.09214 47.7339C2.83584 47.8367 2.54474 47.7122 2.44194 47.4559C2.33914 47.1996 2.46357 46.9085 2.71987 46.8057L35.9559 33.4747C36.2122 33.3719 36.5033 33.4964 36.6061 33.7527Z" fill="#062846"/>
</svg>
