<svg width="52" height="52" viewBox="0 0 52 52" fill="none" xmlns="http://www.w3.org/2000/svg">
<path d="M41.3399 25.51C41.3399 28.22 43.5299 30.42 46.2399 30.42V36.01C46.2399 37.12 45.3499 38.01 44.2399 38.01H7.68994C6.58994 38.01 5.68994 37.12 5.68994 36.01V30.42C8.39994 30.42 10.5999 28.22 10.5999 25.51C10.5999 22.8 8.39994 20.6 5.68994 20.6V15C5.68994 13.9 6.58994 13 7.68994 13H44.2399C45.3499 13 46.2399 13.9 46.2399 15V20.6C43.5299 20.6 41.3399 22.8 41.3399 25.51Z" fill="#27D3BC"/>
<mask id="mask0_2231_34450" style="mask-type:luminance" maskUnits="userSpaceOnUse" x="5" y="13" width="42" height="26">
<path d="M41.3399 25.51C41.3399 28.22 43.5299 30.42 46.2399 30.42V36.01C46.2399 37.12 45.3499 38.01 44.2399 38.01H7.68994C6.58994 38.01 5.68994 37.12 5.68994 36.01V30.42C8.39994 30.42 10.5999 28.22 10.5999 25.51C10.5999 22.8 8.39994 20.6 5.68994 20.6V15C5.68994 13.9 6.58994 13 7.68994 13H44.2399C45.3499 13 46.2399 13.9 46.2399 15V20.6C43.5299 20.6 41.3399 22.8 41.3399 25.51Z" fill="white"/>
</mask>
<g mask="url(#mask0_2231_34450)">
<path d="M15.4499 11.24H-4.97006V43.06H15.4499V11.24Z" fill="#D4F3EF"/>
</g>
<path fill-rule="evenodd" clip-rule="evenodd" d="M5.18994 20.6C5.18994 20.3238 5.4138 20.1 5.68994 20.1C8.67608 20.1 11.0999 22.5238 11.0999 25.51C11.0999 28.3275 8.94202 30.6445 6.18994 30.8971V36.01C6.18994 36.8422 6.86445 37.51 7.68994 37.51H44.2399C45.0738 37.51 45.7399 36.8438 45.7399 36.01V30.8971C42.9878 30.6444 40.8399 28.3263 40.8399 25.51C40.8399 22.5252 43.2525 20.1 46.2399 20.1C46.5161 20.1 46.7399 20.3238 46.7399 20.6C46.7399 20.8761 46.5161 21.1 46.2399 21.1C43.8074 21.1 41.8399 23.0748 41.8399 25.51C41.8399 27.9452 43.8074 29.92 46.2399 29.92H46.7399V36.01C46.7399 37.3961 45.6261 38.51 44.2399 38.51H7.68994C6.31543 38.51 5.18994 37.3977 5.18994 36.01V29.92H5.68994C8.1238 29.92 10.0999 27.9438 10.0999 25.51C10.0999 23.0761 8.1238 21.1 5.68994 21.1C5.4138 21.1 5.18994 20.8761 5.18994 20.6Z" fill="#062846"/>
<path fill-rule="evenodd" clip-rule="evenodd" d="M15.45 12.5C15.7261 12.5 15.95 12.7239 15.95 13V38.01C15.95 38.2861 15.7261 38.51 15.45 38.51C15.1738 38.51 14.95 38.2861 14.95 38.01V13C14.95 12.7239 15.1738 12.5 15.45 12.5Z" fill="#062846"/>
<path fill-rule="evenodd" clip-rule="evenodd" d="M35.9033 18.5163C36.0986 18.7115 36.0988 19.0281 35.9036 19.2234L22.6136 32.5234C22.4184 32.7188 22.1018 32.7189 21.9065 32.5237C21.7111 32.3285 21.711 32.0119 21.9062 31.8166L35.1962 18.5166C35.3914 18.3212 35.708 18.3211 35.9033 18.5163Z" fill="#062846"/>
<path fill-rule="evenodd" clip-rule="evenodd" d="M24.9399 18.93C23.6089 18.93 22.5299 20.009 22.5299 21.34C22.5299 22.671 23.6089 23.75 24.9399 23.75C26.2709 23.75 27.3499 22.671 27.3499 21.34C27.3499 20.009 26.2709 18.93 24.9399 18.93ZM21.5299 21.34C21.5299 19.4567 23.0566 17.93 24.9399 17.93C26.8232 17.93 28.3499 19.4567 28.3499 21.34C28.3499 23.2233 26.8232 24.75 24.9399 24.75C23.0566 24.75 21.5299 23.2233 21.5299 21.34Z" fill="#062846"/>
<path fill-rule="evenodd" clip-rule="evenodd" d="M33.5799 26.84C32.2489 26.84 31.1699 27.919 31.1699 29.25C31.1699 30.581 32.2489 31.66 33.5799 31.66C34.9109 31.66 35.9899 30.581 35.9899 29.25C35.9899 27.919 34.9109 26.84 33.5799 26.84ZM30.1699 29.25C30.1699 27.3667 31.6966 25.84 33.5799 25.84C35.4632 25.84 36.9899 27.3667 36.9899 29.25C36.9899 31.1333 35.4632 32.66 33.5799 32.66C31.6966 32.66 30.1699 31.1333 30.1699 29.25Z" fill="#062846"/>
</svg>
