<svg width="52" height="52" viewBox="0 0 52 52" fill="none" xmlns="http://www.w3.org/2000/svg">
<path fill-rule="evenodd" clip-rule="evenodd" d="M35.8618 31.3147C35.8127 31.2902 35.7605 31.267 35.705 31.2452C35.2327 30.5764 34.3721 30.0911 33.1233 30.0911H27.8173C27.4467 30.0911 26.9327 29.6973 26.3597 29.2584C25.6386 28.706 24.8242 28.0821 24.0853 28.0821H19.0643C17.7063 28.0821 16.0213 29.1831 15.0463 30.0911L11.0293 34.1081L19.0643 42.1421C19.1137 42.0926 19.1634 42.0393 19.2149 41.9838C19.5639 41.6087 20.0016 41.1381 21.0723 41.1381H35.1323C36.2483 41.1381 42.3863 34.9831 43.1663 34.1081C43.9173 33.2661 47.2603 28.2421 48.1873 26.0741C47.6053 25.2891 46.0313 24.6371 44.1703 25.0691C42.3953 25.4821 41.3503 26.7571 40.1533 29.0861L35.8618 31.3147ZM36.045 33.2497C35.73 33.6781 35.2535 34.1192 34.6602 34.524C34.3859 34.7111 34.0892 34.8924 33.7763 35.0642C35.0405 34.8707 35.7967 34.1154 36.045 33.2497ZM25.9778 35.1686C25.4068 35.1738 25.0453 35.1771 25.0453 35.1771L25.8281 34.8986C25.8739 34.9934 25.9239 35.0833 25.9778 35.1686Z" fill="#FFCEC2"/>
<path fill-rule="evenodd" clip-rule="evenodd" d="M33.3145 22.6064C36.3085 19.7464 45.5565 15.6484 45.5565 10.0004C45.5565 4.79239 41.1845 2.99939 38.6705 2.99939C36.9625 2.99939 34.7285 3.73939 33.3145 5.30439C31.9005 3.73939 29.6665 2.99939 27.9585 2.99939C25.4445 2.99939 21.0725 4.79239 21.0725 10.0004C21.0725 15.6484 30.3205 19.7464 33.3145 22.6064Z" fill="#FF492C"/>
<path fill-rule="evenodd" clip-rule="evenodd" d="M33.3145 22.6064C36.3085 19.7464 45.5565 15.6484 45.5565 10.0004C45.5565 4.79239 41.1845 2.99939 38.6705 2.99939C36.9625 2.99939 34.7285 3.73939 33.3145 5.30439C31.9005 3.73939 29.6665 2.99939 27.9585 2.99939C25.4445 2.99939 21.0725 4.79239 21.0725 10.0004C21.0725 15.6484 30.3205 19.7464 33.3145 22.6064Z" fill="#FF492C"/>
<path fill-rule="evenodd" clip-rule="evenodd" d="M37.2043 6.76466C36.6847 6.96827 36.2114 7.26259 35.8834 7.62603L35.141 6.95598C35.601 6.44642 36.2202 6.07624 36.8394 5.8336C37.4591 5.59074 38.1134 5.46201 38.6702 5.46201C38.7315 5.46201 39.8045 5.49441 40.8814 6.06644C41.4273 6.35641 41.9855 6.79117 42.4061 7.43993C42.8286 8.09165 43.0942 8.9315 43.0942 10H42.0942C42.0942 9.10451 41.8741 8.45761 41.567 7.98396C41.258 7.50734 40.8425 7.1781 40.4123 6.94958C39.5797 6.50732 38.7347 6.46527 38.6733 6.46222C38.6702 6.46206 38.6691 6.46201 38.6702 6.46201C38.254 6.46201 37.7233 6.56127 37.2043 6.76466Z" fill="#062846"/>
<path fill-rule="evenodd" clip-rule="evenodd" d="M16.051 49.172L21.072 44.151L9.021 32.099L4 37.121L16.051 49.172Z" fill="#FF492C"/>
<path fill-rule="evenodd" clip-rule="evenodd" d="M35.4052 33.4977C35.7448 32.8846 35.7108 32.1256 35.3029 31.5417L36.1227 30.9691C36.7508 31.8682 36.8032 33.0377 36.2799 33.9823C35.7474 34.9435 34.6583 35.6124 33.1238 35.6124C32.6246 35.6124 30.6079 35.6286 28.7121 35.6449C27.7651 35.653 26.8494 35.6611 26.1704 35.6672L25.0507 35.6774L25.0495 35.6774C25.0494 35.6774 25.0494 35.6774 25.0448 35.1774C25.0402 34.6774 25.0402 34.6774 25.0403 34.6774L26.1615 34.6673C26.8405 34.6612 27.7563 34.653 28.7035 34.6449C30.5962 34.6287 32.619 34.6124 33.1238 34.6124C34.3513 34.6124 35.0747 34.0943 35.4052 33.4977Z" fill="#062846"/>
<path fill-rule="evenodd" clip-rule="evenodd" d="M7.67655 37.4833L5.66755 35.4743L6.37466 34.7672L8.38366 36.7762L7.67655 37.4833Z" fill="#062846"/>
</svg>
