<svg width="20" height="20" viewBox="0 0 20 20" fill="none" xmlns="http://www.w3.org/2000/svg"><path fill="currentColor" d="M4.5 17C4.09722 17 3.74653 16.8507 3.44792 16.5521C3.14931 16.2535 3 15.9028 3 15.5V4.5C3 4.08333 3.14931 3.72917 3.44792 3.4375C3.74653 3.14583 4.09722 3 4.5 3H15.5C15.9167 3 16.2708 3.14583 16.5625 3.4375C16.8542 3.72917 17 4.08333 17 4.5V15.5C17 15.9028 16.8542 16.2535 16.5625 16.5521C16.2708 16.8507 15.9167 17 15.5 17H4.5ZM15.5 5.47917L10 11.1458L7.5 8.66667L4.5 11.6667V13.7708L7.5 10.7708L10.0208 13.2917L15.5 7.625V5.47917Z"/></svg>