<svg width="52" height="52" viewBox="0 0 52 52" fill="none" xmlns="http://www.w3.org/2000/svg">
<path fill-rule="evenodd" clip-rule="evenodd" d="M5.00021 47.3985H14.9132V28.9185H5.00021V47.3985Z" fill="#FFC800"/>
<path fill-rule="evenodd" clip-rule="evenodd" d="M17.8282 47.3985H27.7412V17.7345H17.8282V47.3985Z" fill="#1D9E8D"/>
<path fill-rule="evenodd" clip-rule="evenodd" d="M30.6572 47.3985H40.5702V10.4385H30.6572V47.3985Z" fill="#27D3BC"/>
<path fill-rule="evenodd" clip-rule="evenodd" d="M5.5 46.8985V28.9185H4.5V47.8985H14.913V46.8985H5.5Z" fill="#062846"/>
<path fill-rule="evenodd" clip-rule="evenodd" d="M18.8143 46.8985V17.7345H17.8143V47.8985H27.7413V46.8985H18.8143Z" fill="#062846"/>
<path fill-rule="evenodd" clip-rule="evenodd" d="M31.3996 46.8985V10.4375H30.3996V47.8985H40.5696V46.8985H31.3996Z" fill="#062846"/>
<path fill-rule="evenodd" clip-rule="evenodd" d="M38.0644 3.5325C38.3226 3.5325 38.5319 3.74181 38.5319 4V8.231C38.5319 8.48919 38.3226 8.6985 38.0644 8.6985C37.8062 8.6985 37.5969 8.48919 37.5969 8.231V4C37.5969 3.74181 37.8062 3.5325 38.0644 3.5325Z" fill="#062846"/>
<path fill-rule="evenodd" clip-rule="evenodd" d="M42.4477 11.8157C42.4477 11.5575 42.657 11.3482 42.9152 11.3482H46.8022C47.0604 11.3482 47.2697 11.5575 47.2697 11.8157C47.2697 12.0739 47.0604 12.2832 46.8022 12.2832H42.9152C42.657 12.2832 42.4477 12.0739 42.4477 11.8157Z" fill="#062846"/>
<path fill-rule="evenodd" clip-rule="evenodd" d="M44.7295 5.30007C44.926 5.46759 44.9494 5.76267 44.7819 5.95913L42.0329 9.18314C41.8654 9.3796 41.5703 9.40307 41.3739 9.23555C41.1774 9.06802 41.1539 8.77295 41.3214 8.57648L44.0704 5.35248C44.238 5.15601 44.533 5.13255 44.7295 5.30007Z" fill="#062846"/>
</svg>
