<svg width="20" height="20" viewBox="0 0 20 20" fill="none" xmlns="http://www.w3.org/2000/svg"><path fill="currentColor" d="M5 9V8C5 7.23611 5.15972 6.51389 5.47917 5.83333C5.79861 5.15278 6.26389 4.59028 6.875 4.14583L5.4375 2.70833L6.14583 2L7.72917 3.58333C8.09028 3.40278 8.45833 3.26042 8.83333 3.15625C9.20833 3.05208 9.59722 3 10 3C10.4028 3 10.7917 3.05208 11.1667 3.15625C11.5417 3.26042 11.9097 3.40278 12.2708 3.58333L13.8542 2L14.5625 2.70833L13.1458 4.14583C13.7569 4.59028 14.2188 5.15625 14.5312 5.84375C14.8438 6.53125 15 7.25 15 8V9H5ZM12.2456 7.25C12.4569 7.25 12.6354 7.17855 12.7812 7.03565C12.9271 6.89273 13 6.71565 13 6.5044C13 6.29313 12.9285 6.11458 12.7856 5.96875C12.6427 5.82292 12.4656 5.75 12.2544 5.75C12.0431 5.75 11.8646 5.82145 11.7188 5.96435C11.5729 6.10727 11.5 6.28435 11.5 6.4956C11.5 6.70687 11.5715 6.88542 11.7144 7.03125C11.8573 7.17708 12.0344 7.25 12.2456 7.25ZM7.7456 7.25C7.95687 7.25 8.13542 7.17855 8.28125 7.03565C8.42708 6.89273 8.5 6.71565 8.5 6.5044C8.5 6.29313 8.42855 6.11458 8.28565 5.96875C8.14273 5.82292 7.96565 5.75 7.7544 5.75C7.54313 5.75 7.36458 5.82145 7.21875 5.96435C7.07292 6.10727 7 6.28435 7 6.4956C7 6.70687 7.07145 6.88542 7.21435 7.03125C7.35727 7.17708 7.53435 7.25 7.7456 7.25ZM10.0042 18C8.61251 18 7.43056 17.5149 6.45833 16.5446C5.48611 15.5744 5 14.3929 5 13V10H15V13C15 14.3929 14.5153 15.5744 13.5459 16.5446C12.5764 17.5149 11.3959 18 10.0042 18Z"/></svg>