<svg width="20" height="20" viewBox="0 0 20 20" fill="none" xmlns="http://www.w3.org/2000/svg"><path fill="currentColor" d="M4.27083 9.25L3.97917 7.97917C3.82639 7.92361 3.67708 7.85764 3.53125 7.78125C3.38542 7.70486 3.24306 7.61111 3.10417 7.5L1.875 7.91667L1 6.41667L2.0625 5.58333C2.03472 5.43056 2.02083 5.27778 2.02083 5.125C2.02083 4.97222 2.03472 4.81944 2.0625 4.66667L1.02083 3.83333L1.89583 2.33333L3.125 2.75C3.26389 2.63889 3.40278 2.54167 3.54167 2.45833C3.68056 2.375 3.83333 2.3125 4 2.27083L4.29167 1H5.89583L6.1875 2.27083C6.35417 2.3125 6.50694 2.375 6.64583 2.45833C6.78472 2.54167 6.92361 2.63889 7.0625 2.75L8.29167 2.33333L9.16667 3.83333L8.10417 4.66667C8.13194 4.81944 8.14583 4.97222 8.14583 5.125C8.14583 5.27778 8.13194 5.43056 8.10417 5.58333L9.14583 6.41667L8.27083 7.91667L7.04167 7.52083C6.90278 7.63194 6.76042 7.72222 6.61458 7.79167C6.46875 7.86111 6.31944 7.92361 6.16667 7.97917L5.875 9.25H4.27083ZM5.08333 6.70833C5.52778 6.70833 5.90278 6.55556 6.20833 6.25C6.51389 5.94444 6.66667 5.56944 6.66667 5.125C6.66667 4.68056 6.51389 4.30556 6.20833 4C5.90278 3.69444 5.52778 3.54167 5.08333 3.54167C4.63889 3.54167 4.26389 3.69444 3.95833 4C3.65278 4.30556 3.5 4.68056 3.5 5.125C3.5 5.56944 3.65278 5.94444 3.95833 6.25C4.26389 6.55556 4.63889 6.70833 5.08333 6.70833ZM11.4583 18.5L11.1042 16.8125C10.8958 16.7292 10.6944 16.6354 10.5 16.5312C10.3056 16.4271 10.1181 16.2986 9.9375 16.1458L8.1875 16.6667L6.9375 14.5208L8.33333 13.3125C8.30556 13.0903 8.29167 12.875 8.29167 12.6667C8.29167 12.4583 8.30556 12.2431 8.33333 12.0208L6.9375 10.8125L8.1875 8.66667L9.9375 9.16667C10.1181 9.02778 10.3056 8.90625 10.5 8.80208C10.6944 8.69792 10.8958 8.60417 11.1042 8.52083L11.4583 6.83333H13.9583L14.3125 8.52083C14.5208 8.60417 14.7222 8.69792 14.9167 8.80208C15.1111 8.90625 15.2986 9.02778 15.4792 9.16667L17.2292 8.66667L18.4792 10.8125L17.0833 12.0208C17.1111 12.2431 17.125 12.4583 17.125 12.6667C17.125 12.875 17.1111 13.0903 17.0833 13.3125L18.4792 14.5208L17.2292 16.6667L15.4792 16.1458C15.2986 16.2986 15.1111 16.4271 14.9167 16.5312C14.7222 16.6354 14.5208 16.7292 14.3125 16.8125L13.9583 18.5H11.4583ZM12.7083 15.0417C13.375 15.0417 13.9375 14.8125 14.3958 14.3542C14.8542 13.8958 15.0833 13.3333 15.0833 12.6667C15.0833 12 14.8542 11.4375 14.3958 10.9792C13.9375 10.5208 13.375 10.2917 12.7083 10.2917C12.0417 10.2917 11.4792 10.5208 11.0208 10.9792C10.5625 11.4375 10.3333 12 10.3333 12.6667C10.3333 13.3333 10.5625 13.8958 11.0208 14.3542C11.4792 14.8125 12.0417 15.0417 12.7083 15.0417Z"/></svg>
