<svg width="52" height="52" viewBox="0 0 52 52" fill="none" xmlns="http://www.w3.org/2000/svg">
<path fill-rule="evenodd" clip-rule="evenodd" d="M17.5887 6.5C17.8648 6.5 18.0887 6.72386 18.0887 7C18.0887 7.74179 17.9503 8.31755 17.7331 8.80619C17.5231 9.2786 17.2453 9.65359 17.0012 9.98316L16.9905 9.99761C16.7372 10.3396 16.5201 10.6355 16.3581 10.9999C16.2003 11.3551 16.0887 11.7918 16.0887 12.4C16.0887 13.0082 16.2003 13.4449 16.3581 13.8001C16.5201 14.1645 16.7372 14.4604 16.9905 14.8024L17.0012 14.8168C17.2453 15.1464 17.5232 15.5214 17.7331 15.9938C17.9503 16.4824 18.0887 17.0582 18.0887 17.8C18.0887 18.0761 17.8648 18.3 17.5887 18.3C17.3126 18.3 17.0887 18.0761 17.0887 17.8C17.0887 17.1918 16.9771 16.7551 16.8193 16.3999C16.6573 16.0355 16.4402 15.7396 16.1869 15.3976L16.1762 15.3832C15.9321 15.0536 15.6543 14.6786 15.4443 14.2062C15.2271 13.7176 15.0887 13.1418 15.0887 12.4C15.0887 11.6582 15.2271 11.0824 15.4443 10.5938C15.6543 10.1214 15.9321 9.74641 16.1762 9.41684L16.1869 9.40239C16.4402 9.06044 16.6573 8.76448 16.8193 8.40006C16.9771 8.04495 17.0887 7.60821 17.0887 7C17.0887 6.72386 17.3126 6.5 17.5887 6.5Z" fill="#062846"/>
<path fill-rule="evenodd" clip-rule="evenodd" d="M24.6605 6.5C24.9366 6.5 25.1605 6.72386 25.1605 7C25.1605 7.74179 25.0221 8.31755 24.8049 8.80619C24.5949 9.2786 24.3171 9.65359 24.073 9.98316L24.0623 9.99761C23.809 10.3396 23.5919 10.6355 23.4299 10.9999C23.2721 11.3551 23.1605 11.7918 23.1605 12.4C23.1605 13.0082 23.2721 13.4449 23.4299 13.8001C23.5919 14.1645 23.809 14.4604 24.0623 14.8024L24.073 14.8168C24.3171 15.1464 24.5949 15.5214 24.8049 15.9938C25.0221 16.4824 25.1605 17.0582 25.1605 17.8C25.1605 18.0761 24.9366 18.3 24.6605 18.3C24.3844 18.3 24.1605 18.0761 24.1605 17.8C24.1605 17.1918 24.0489 16.7551 23.8911 16.3999C23.7291 16.0355 23.512 15.7396 23.2587 15.3976L23.248 15.3832C23.0039 15.0536 22.7261 14.6786 22.5161 14.2062C22.2989 13.7176 22.1605 13.1418 22.1605 12.4C22.1605 11.6582 22.2989 11.0824 22.5161 10.5938C22.7261 10.1214 23.0039 9.74641 23.248 9.41684L23.2587 9.40239C23.512 9.06044 23.7291 8.76448 23.8911 8.40006C24.0489 8.04495 24.1605 7.60821 24.1605 7C24.1605 6.72386 24.3844 6.5 24.6605 6.5Z" fill="#062846"/>
<path fill-rule="evenodd" clip-rule="evenodd" d="M31.7322 6.5C32.0083 6.5 32.2322 6.72386 32.2322 7C32.2322 7.74179 32.0938 8.31755 31.8766 8.80619C31.6667 9.2786 31.3888 9.65359 31.1447 9.98316L31.134 9.99761C30.8807 10.3396 30.6636 10.6355 30.5016 10.9999C30.3438 11.3551 30.2322 11.7918 30.2322 12.4C30.2322 13.0082 30.3438 13.4449 30.5016 13.8001C30.6636 14.1645 30.8807 14.4604 31.134 14.8024L31.1447 14.8168C31.3888 15.1464 31.6667 15.5214 31.8766 15.9938C32.0938 16.4824 32.2322 17.0582 32.2322 17.8C32.2322 18.0761 32.0083 18.3 31.7322 18.3C31.4561 18.3 31.2322 18.0761 31.2322 17.8C31.2322 17.1918 31.1206 16.7551 30.9628 16.3999C30.8008 16.0355 30.5837 15.7396 30.3304 15.3976L30.3197 15.3832C30.0756 15.0536 29.7978 14.6786 29.5878 14.2062C29.3706 13.7176 29.2322 13.1418 29.2322 12.4C29.2322 11.6582 29.3706 11.0824 29.5878 10.5938C29.7978 10.1214 30.0756 9.74641 30.3197 9.41684L30.3304 9.40239C30.5837 9.06044 30.8008 8.76448 30.9628 8.40006C31.1206 8.04495 31.2322 7.60821 31.2322 7C31.2322 6.72386 31.4561 6.5 31.7322 6.5Z" fill="#062846"/>
<path fill="currentColor" d="M39.7422 25.5779C40.3592 25.0499 41.5512 24.4899 42.4252 24.4339C44.6062 24.2929 46.5542 25.7399 46.7842 28.1779C46.9992 31.4779 44.8712 33.6239 42.4252 34.6639C40.8522 35.3329 38.4272 35.3119 37.6482 34.4949" stroke="#062846" stroke-linecap="round" stroke-linejoin="round"/>
<path fill-rule="evenodd" clip-rule="evenodd" d="M6.788 21.3221C6.276 22.9741 6 24.7301 6 26.5511C6 36.3041 13.907 44.2101 23.66 44.2101C33.413 44.2101 41.319 36.3041 41.319 26.5511C41.319 24.7301 41.043 22.9741 40.532 21.3221H6.788Z" fill="#CBE3FF"/>
<path fill-rule="evenodd" clip-rule="evenodd" d="M41.0233 29.7815C39.5063 37.9915 32.3093 44.2095 23.6603 44.2095C15.0113 44.2095 7.8153 37.9915 6.2973 29.7815H41.0233Z" fill="#288DFF"/>
<mask id="mask0_2231_34474" style="mask-type:luminance" maskUnits="userSpaceOnUse" x="6" y="21" width="36" height="24">
<path fill-rule="evenodd" clip-rule="evenodd" d="M6.7886 21.3224C6.2766 22.9744 6.0006 24.7304 6.0006 26.5504C6.0006 36.3044 13.9076 44.2104 23.6596 44.2104C33.4126 44.2104 41.3196 36.3044 41.3196 26.5504C41.3196 24.7304 41.0436 22.9744 40.5316 21.3224" fill="white"/>
</mask>
<g mask="url(#mask0_2231_34474)">
<path fill-rule="evenodd" clip-rule="evenodd" d="M2.7256 29.7172C2.7256 29.4411 2.94946 29.2172 3.2256 29.2172H44.0956C44.3717 29.2172 44.5956 29.4411 44.5956 29.7172C44.5956 29.9934 44.3717 30.2172 44.0956 30.2172H3.2256C2.94946 30.2172 2.7256 29.9934 2.7256 29.7172Z" fill="#062846"/>
</g>
</svg>
