<svg width="32" height="32" viewBox="0 0 32 32" fill="none" xmlns="http://www.w3.org/2000/svg">
<g id="Icon/Scalability">
<g id="art">
<path id="Fill 1" fill-rule="evenodd" clip-rule="evenodd" d="M3.10461 28.9275H8.81723V23.2148L3.10461 28.9275Z" fill="#FFC800"/>
<path id="Fill 2" fill-rule="evenodd" clip-rule="evenodd" d="M13.5989 28.9272H29.1712V13.3555L13.5989 28.9272Z" fill="#FFC800"/>
<path id="Stroke 3 (Stroke)" fill-rule="evenodd" clip-rule="evenodd" d="M29.0362 2.90608C29.0941 2.96377 29.1267 3.04214 29.1267 3.1239L29.1269 3.43137L29.1406 3.44505L29.1269 3.45872L29.1292 7.01867L28.5138 7.01906L28.512 4.07372L3.73105 28.8546V28.9272H3.11566V25.2884H3.73105V27.9843L28.2817 3.43369L24.9795 3.44533L24.9773 2.82995L28.818 2.81641C28.8997 2.81612 28.9782 2.84838 29.0362 2.90608ZM8.1932 28.9272V25.2884H8.80858V28.9272H8.1932ZM13.272 28.9272V25.2884H13.8874V28.9272H13.272ZM18.3501 28.9272V25.2884H18.9655V28.9272H18.3501ZM23.4277 28.9272V25.2884H24.043V28.9272H23.4277ZM28.5064 28.9272V25.2884H29.1218V28.9272H28.5064Z" fill="#062846"/>
</g>
</g>
</svg>
