<svg width="52" height="52" viewBox="0 0 52 52" fill="none" xmlns="http://www.w3.org/2000/svg">
<path fill-rule="evenodd" clip-rule="evenodd" d="M4.2124 47.133H26.0694V26.048H4.2124V47.133Z" fill="#5746B2"/>
<path fill-rule="evenodd" clip-rule="evenodd" d="M26.0994 47.133H47.9574V4H26.0994V47.133Z" fill="#27D3BC"/>
<path fill-rule="evenodd" clip-rule="evenodd" d="M25.5996 47.1327V4.0007H26.5996V47.1327H25.5996Z" fill="#062846"/>
<path fill-rule="evenodd" clip-rule="evenodd" d="M4 47.1331V26.0481H5V47.1331H4Z" fill="#062846"/>
<path fill-rule="evenodd" clip-rule="evenodd" d="M4.49341 26.0244V33.6704C4.49341 35.5894 6.04941 37.1454 7.96841 37.1454H8.21741C10.1364 37.1454 11.6924 35.5894 11.6924 33.6704V26.0244" fill="#BCB5E0"/>
<path fill-rule="evenodd" clip-rule="evenodd" d="M11.6936 26.0244V33.6704C11.6936 35.5894 13.2496 37.1454 15.1686 37.1454H15.4176C17.3366 37.1454 18.8926 35.5894 18.8926 33.6704V26.0244" fill="#BCB5E0"/>
<path fill-rule="evenodd" clip-rule="evenodd" d="M18.8938 26.0244V33.6704C18.8938 35.5894 20.4498 37.1454 22.3688 37.1454H22.6178C24.5368 37.1454 26.0928 35.5894 26.0928 33.6704V26.0244" fill="#BCB5E0"/>
<path fill-rule="evenodd" clip-rule="evenodd" d="M3.99341 33.6704V26.0244H4.99341V33.6704C4.99341 35.3132 6.32555 36.6454 7.96841 36.6454H8.21741C9.86027 36.6454 11.1924 35.3132 11.1924 33.6704V26.0244H12.1924V33.6704C12.1924 35.8655 10.4126 37.6454 8.21741 37.6454H7.96841C5.77327 37.6454 3.99341 35.8655 3.99341 33.6704Z" fill="#062846"/>
<path fill-rule="evenodd" clip-rule="evenodd" d="M11.1936 33.6704V26.0244H12.1936V33.6704C12.1936 35.3132 13.5257 36.6454 15.1686 36.6454H15.4176C17.0605 36.6454 18.3926 35.3132 18.3926 33.6704V26.0244H19.3926V33.6704C19.3926 35.8655 17.6127 37.6454 15.4176 37.6454H15.1686C12.9735 37.6454 11.1936 35.8655 11.1936 33.6704Z" fill="#062846"/>
<path fill-rule="evenodd" clip-rule="evenodd" d="M18.3938 33.6704V26.0244H19.3938V33.6704C19.3938 35.3132 20.726 36.6454 22.3688 36.6454H22.6178C24.2607 36.6454 25.5928 35.3132 25.5928 33.6704V26.0244H26.5928V33.6704C26.5928 35.8655 24.813 37.6454 22.6178 37.6454H22.3688C20.1737 37.6454 18.3938 35.8655 18.3938 33.6704Z" fill="#062846"/>
<path fill-rule="evenodd" clip-rule="evenodd" d="M8.63049 39.7509H12.9325V40.7509H8.63049V39.7509Z" fill="#062846"/>
<path fill-rule="evenodd" clip-rule="evenodd" d="M17.107 39.7509H21.409V40.7509H17.107V39.7509Z" fill="#062846"/>
<path fill-rule="evenodd" clip-rule="evenodd" d="M30.7663 39.7509H35.0683V40.7509H30.7663V39.7509Z" fill="#062846"/>
<path fill-rule="evenodd" clip-rule="evenodd" d="M39.2427 39.7509H43.5447V40.7509H39.2427V39.7509Z" fill="#062846"/>
<path fill-rule="evenodd" clip-rule="evenodd" d="M30.7663 29.2192H35.0683V30.2192H30.7663V29.2192Z" fill="#062846"/>
<path fill-rule="evenodd" clip-rule="evenodd" d="M39.2427 29.2192H43.5447V30.2192H39.2427V29.2192Z" fill="#062846"/>
<path fill-rule="evenodd" clip-rule="evenodd" d="M30.7663 18.6491H35.0683V19.6491H30.7663V18.6491Z" fill="#062846"/>
<path fill-rule="evenodd" clip-rule="evenodd" d="M39.2427 18.6491H43.5447V19.6491H39.2427V18.6491Z" fill="#062846"/>
<path fill-rule="evenodd" clip-rule="evenodd" d="M30.7663 8.1302H35.0683V9.1302H30.7663V8.1302Z" fill="#062846"/>
<path fill-rule="evenodd" clip-rule="evenodd" d="M39.2427 8.1302H43.5447V9.1302H39.2427V8.1302Z" fill="#062846"/>
<path fill-rule="evenodd" clip-rule="evenodd" d="M35.0683 40.2509H30.7663V44.7119H35.0673L35.0683 40.2509Z" fill="#5746B2"/>
<path fill-rule="evenodd" clip-rule="evenodd" d="M43.5447 40.2509H39.2427V44.7119H43.5437L43.5447 40.2509Z" fill="#5746B2"/>
<path fill-rule="evenodd" clip-rule="evenodd" d="M35.0683 29.7192H30.7663V34.1802H35.0673L35.0683 29.7192Z" fill="#5746B2"/>
<path fill-rule="evenodd" clip-rule="evenodd" d="M43.5447 29.7192H39.2427V34.1802H43.5437L43.5447 29.7192Z" fill="#5746B2"/>
<path fill-rule="evenodd" clip-rule="evenodd" d="M35.0683 19.0215H30.7663V23.4825H35.0673L35.0683 19.0215Z" fill="#5746B2"/>
<path fill-rule="evenodd" clip-rule="evenodd" d="M43.5447 19.1491H39.2427V23.6101H43.5437L43.5447 19.1491Z" fill="#5746B2"/>
<path fill-rule="evenodd" clip-rule="evenodd" d="M35.0683 8.6302H30.7663V13.0912H35.0673L35.0683 8.6302Z" fill="#5746B2"/>
<path fill-rule="evenodd" clip-rule="evenodd" d="M43.5447 8.6302H39.2427V13.0912H43.5437L43.5447 8.6302Z" fill="#5746B2"/>
<path fill-rule="evenodd" clip-rule="evenodd" d="M21.409 40.2509H17.107V44.7119H21.408L21.409 40.2509Z" fill="#BCB5E0"/>
<path fill-rule="evenodd" clip-rule="evenodd" d="M12.9325 40.2509H8.63049V44.7119H12.9315L12.9325 40.2509Z" fill="#BCB5E0"/>
</svg>
