<svg width="20" height="20" viewBox="0 0 20 20" fill="none" xmlns="http://www.w3.org/2000/svg"><path fill="currentColor" d="M5.5 19C5.0875 19 4.73437 18.8531 4.44062 18.5594C4.14687 18.2656 4 17.9125 4 17.5V2.5C4 2.0875 4.14687 1.73438 4.44062 1.44063C4.73437 1.14688 5.0875 1 5.5 1H14.5C14.9125 1 15.2656 1.14688 15.5594 1.44063C15.8531 1.73438 16 2.0875 16 2.5V17.5C16 17.9125 15.8531 18.2656 15.5594 18.5594C15.2656 18.8531 14.9125 19 14.5 19H5.5ZM9.9956 16.75C10.2069 16.75 10.3854 16.6785 10.5312 16.5356C10.6771 16.3927 10.75 16.2156 10.75 16.0044C10.75 15.7931 10.6785 15.6146 10.5356 15.4688C10.3927 15.3229 10.2156 15.25 10.0044 15.25C9.79313 15.25 9.61458 15.3215 9.46875 15.4644C9.32292 15.6073 9.25 15.7844 9.25 15.9956C9.25 16.2069 9.32145 16.3854 9.46435 16.5312C9.60727 16.6771 9.78435 16.75 9.9956 16.75ZM5.5 13H14.5V5H5.5V13Z"/></svg>