<svg width="28" height="28" viewBox="0 0 28 28" fill="none" xmlns="http://www.w3.org/2000/svg">
<g clip-path="url(#clip0_546_16714)">
<path d="M14.0531 3.0273C19.2055 3.02737 23.3825 7.1979 23.3826 12.3426C23.3826 17.4873 19.2055 21.6583 14.0531 21.6584C8.90065 21.6584 4.72363 17.4874 4.72363 12.3426C4.72371 7.19785 8.9007 3.0273 14.0531 3.0273Z" fill="white"/>
<path d="M25.8987 3.90177L26.921 4.72734L25.8987 5.57658L25.0963 6.6067L24.3102 5.57658L23.2485 4.72734L24.3102 3.90177L25.0963 2.9032L25.8987 3.90177Z" fill="white"/>
<path d="M19.2202 6.7778C19.3309 6.66616 19.5002 6.67613 19.612 6.77727L19.744 6.91338C21.092 8.33417 21.9211 10.2602 21.9232 12.3803C21.9255 14.569 21.0455 16.5525 19.6221 17.988C19.511 18.0899 19.3409 18.0994 19.2303 17.9882C19.1221 17.8794 19.122 17.7027 19.23 17.5938C20.5871 16.1949 21.3712 14.3373 21.3692 12.3809C21.3672 10.4097 20.5971 8.61975 19.3435 7.2985L19.2208 7.17226C19.1201 7.05969 19.1093 6.88978 19.2202 6.7778Z" fill="#201F23"/>
<path fill-rule="evenodd" clip-rule="evenodd" d="M11.7299 13.4223L13.0749 14.4429L11.7299 15.4627L10.7165 16.8169L9.70283 15.4627L8.35782 14.4429L9.70283 13.4223L10.7165 12.0681L11.7299 13.4223ZM10.0986 13.8208L9.27871 14.4426L10.0986 15.0642L10.7162 15.8899L11.3344 15.0642L12.154 14.4426L11.3341 13.8208L11.2875 13.758L10.7162 12.995L10.0986 13.8208Z" fill="#201F23"/>
<path fill-rule="evenodd" clip-rule="evenodd" d="M14.0414 2.57856C19.4219 2.57361 23.7875 6.96154 23.7926 12.3787C23.7956 15.7633 22.0956 18.749 19.5073 20.5143L21.1018 24.7499H21.1047V25.3077H6.99585V24.7499H6.99876L8.59295 20.5141C6.00982 18.7522 4.31084 15.7747 4.30768 12.3966C4.30275 6.97935 8.66087 2.58358 14.0414 2.57856ZM14.0419 3.13636C8.96732 3.14109 4.85705 7.28687 4.8617 12.3961C4.86493 15.8624 6.76147 18.8812 9.56526 20.4631H18.535C21.344 18.8783 23.2417 15.8516 23.2386 12.3793C23.2338 7.27009 19.1164 3.1317 14.0419 3.13636Z" fill="#201F23"/>
<path fill-rule="evenodd" clip-rule="evenodd" d="M26.1165 3.71951L27.4615 4.7401L26.1165 5.75988L25.1031 7.11408L24.0895 5.75988L22.7444 4.7401L24.0895 3.71951L25.1031 2.36531L26.1165 3.71951ZM24.4852 4.11798L23.6653 4.73983L24.4852 5.36142L25.1029 6.18717L25.721 5.36142L26.5406 4.73983L25.7208 4.11798L25.6741 4.05526L25.1029 3.29222L24.4852 4.11798Z" fill="#201F23"/>
<path d="M22.0746 1.12027L22.6522 1.55877L22.0746 1.997L21.6388 2.57909L21.2033 1.997L20.6254 1.55877L21.2033 1.12027L21.6388 0.538452L22.0746 1.12027Z" fill="#201F23"/>
</g>
<defs>
<clipPath id="clip0_546_16714">
<rect width="28" height="28" fill="white"/>
</clipPath>
</defs>
</svg>
