<svg width="52" height="52" viewBox="0 0 52 52" fill="none" xmlns="http://www.w3.org/2000/svg">
<path fill-rule="evenodd" clip-rule="evenodd" d="M9 50.857H43.093V9.58H9V50.857Z" fill="#288DFF"/>
<path fill-rule="evenodd" clip-rule="evenodd" d="M38.383 22.499H25.345V21.499H38.383V22.499Z" fill="#062846"/>
<path fill-rule="evenodd" clip-rule="evenodd" d="M38.383 32.9707H25.345V31.9707H38.383V32.9707Z" fill="#062846"/>
<path fill-rule="evenodd" clip-rule="evenodd" d="M38.383 43.4424H25.345V42.4424H38.383V43.4424Z" fill="#062846"/>
<path fill-rule="evenodd" clip-rule="evenodd" d="M23.8801 7.4548C23.8801 8.6508 24.8501 9.6208 26.0461 9.6208C27.2431 9.6208 28.2131 8.6508 28.2131 7.4548C28.2131 6.2588 27.2431 5.2888 26.0461 5.2888C24.8501 5.2888 23.8801 6.2588 23.8801 7.4548ZM26.0461 1.9998C28.9921 1.9998 31.3791 4.3878 31.3791 7.3328C31.3791 10.2778 28.9921 12.6658 26.0461 12.6658C23.1011 12.6658 20.7141 10.2778 20.7141 7.3328C20.7141 4.3878 23.1011 1.9998 26.0461 1.9998Z" fill="#A9D1FF"/>
<path fill-rule="evenodd" clip-rule="evenodd" d="M22.7997 7.4507C22.7997 5.65755 24.2536 4.2037 26.0467 4.2037C27.8399 4.2037 29.2937 5.65755 29.2937 7.4507H28.2937C28.2937 6.20984 27.2876 5.2037 26.0467 5.2037C24.8059 5.2037 23.7997 6.20984 23.7997 7.4507H22.7997Z" fill="#062846"/>
<path fill-rule="evenodd" clip-rule="evenodd" d="M17.077 14.605H35.015V9.595H17.077V14.605Z" fill="#A9D1FF"/>
<path fill-rule="evenodd" clip-rule="evenodd" d="M34.9745 15.3605H17.0575V14.3605H34.9745V15.3605Z" fill="#062846"/>
<path fill-rule="evenodd" clip-rule="evenodd" d="M13.684 24.637H19.017V19.304H13.684V24.637Z" fill="#FFC800"/>
<path fill-rule="evenodd" clip-rule="evenodd" d="M13.684 35.141H19.017V29.808H13.684V35.141Z" fill="#FFC800"/>
<path fill-rule="evenodd" clip-rule="evenodd" d="M13.684 45.686H19.017V40.353H13.684V45.686Z" fill="#FFC800"/>
</svg>
