<svg xmlns="http://www.w3.org/2000/svg" width="16" height="16" viewBox="0 0 16 16" fill="none">
  <path fill="currentColor" d="M8 4.7998H14.4004V13.5996H1.59961V2.40039H8V4.7998ZM2.7998 12.4004H4V11.2002H2.7998V12.4004ZM5.59961 12.4004H6.7998V11.2002H5.59961V12.4004ZM8 7.33301H9.2002V8.5332H8V9.86621H9.2002V11.0664H8V12.4004H13.2002V6H8V7.33301ZM12 11.0664H10.7998V9.86621H12V11.0664ZM2.7998 9.86621H4V8.66699H2.7998V9.86621ZM5.59961 9.86621H6.7998V8.66699H5.59961V9.86621ZM12 8.5332H10.7998V7.33301H12V8.5332ZM2.7998 7.33301H4V6.13379H2.7998V7.33301ZM5.59961 7.33301H6.7998V6.13379H5.59961V7.33301ZM2.7998 4.7998H4V3.59961H2.7998V4.7998ZM5.59961 4.7998H6.7998V3.59961H5.59961V4.7998Z"/>
</svg>
