<svg width="52" height="52" viewBox="0 0 52 52" fill="none" xmlns="http://www.w3.org/2000/svg">
<path fill-rule="evenodd" clip-rule="evenodd" d="M24.9642 47.704C23.9422 48.534 22.4412 48.378 21.6112 47.356L17.4252 42.202L21.1252 39.197L25.3122 44.351C26.1422 45.373 25.9862 46.874 24.9642 47.704Z" fill="#5746B2"/>
<path fill-rule="evenodd" clip-rule="evenodd" d="M43.2404 31.9984L11.7824 45.0634L4.1354 35.6484L23.3734 7.5374L43.2404 31.9984Z" fill="#BCB5E0"/>
<path fill-rule="evenodd" clip-rule="evenodd" d="M4.4142 43.2414C6.6142 45.9504 10.5942 46.3624 13.3032 44.1624C16.0122 41.9624 16.4242 37.9824 14.2242 35.2744C12.0242 32.5654 8.0442 32.1524 5.3352 34.3524C2.6262 36.5534 2.2142 40.5324 4.4142 43.2414Z" fill="#BCB5E0"/>
<path fill-rule="evenodd" clip-rule="evenodd" d="M23.5674 7.3805C21.5404 9.0275 24.3404 15.8335 29.8224 22.5835C35.3044 29.3325 41.3914 33.4695 43.4194 31.8225C45.4464 30.1755 42.6464 23.3695 37.1644 16.6195C31.6824 9.8705 25.5944 5.7335 23.5674 7.3805Z" fill="#5746B2"/>
<path fill-rule="evenodd" clip-rule="evenodd" d="M32.8891 20.3961C31.7871 19.0421 29.7951 18.8371 28.4411 19.9391L27.0771 21.0491C27.6781 21.8781 28.3221 22.7171 29.0051 23.5571C29.6881 24.3971 30.3791 25.1971 31.0691 25.9541L32.4321 24.8441C33.7871 23.7421 33.9911 21.7501 32.8891 20.3961Z" fill="#FFC800"/>
<path fill-rule="evenodd" clip-rule="evenodd" d="M29.8187 22.582C35.1267 29.118 40.9947 33.202 43.2127 31.968L43.2387 31.999L36.8587 34.771C33.2497 33.167 29.4667 29.733 26.0307 25.502C22.6077 21.287 20.1797 17.09 19.3417 13.236L23.3727 7.53999L23.3857 7.55499C21.7227 9.47299 24.5167 16.054 29.8187 22.582Z" fill="#BCB5E0"/>
<mask id="mask0_2231_34429" style="mask-type:luminance" maskUnits="userSpaceOnUse" x="4" y="7" width="40" height="39">
<path fill-rule="evenodd" clip-rule="evenodd" d="M4.136 35.6485C7.395 39.6615 10.597 43.6045 11.782 45.0635L43.241 31.9985L23.373 7.53751" fill="white"/>
</mask>
<g mask="url(#mask0_2231_34429)">
<path fill-rule="evenodd" clip-rule="evenodd" d="M19.0767 12.007C19.9707 16.1254 22.5797 20.6573 26.3142 25.2548C30.0639 29.8721 34.1541 33.5692 38.0071 35.2812L37.6011 36.195C33.5362 34.389 29.3263 30.5501 25.538 25.8853C21.7605 21.2349 19.0415 16.5588 18.0995 12.2192L19.0767 12.007Z" fill="#062846"/>
<path fill-rule="evenodd" clip-rule="evenodd" d="M5.88393 30.8983C5.82814 30.2924 5.92032 29.6584 6.39639 29.272L7.02661 30.0484C6.94768 30.1125 6.83348 30.3044 6.87972 30.8066C6.92395 31.2868 7.10742 31.9272 7.43672 32.6931C8.09248 34.2183 9.27964 36.1342 10.8496 38.0669C12.419 39.9996 14.0508 41.5541 15.4091 42.5085C16.0911 42.9877 16.6803 43.2985 17.1412 43.4403C17.6232 43.5885 17.8345 43.5161 17.9132 43.4521L18.5438 44.2283C18.068 44.6148 17.4286 44.5749 16.8473 44.3961C16.2448 44.2108 15.5577 43.8351 14.8342 43.3267C13.3812 42.3058 11.6839 40.6807 10.0734 38.6974C8.46233 36.7141 7.21951 34.7196 6.51803 33.0881C6.1687 32.2756 5.94174 31.526 5.88393 30.8983Z" fill="#062846"/>
</g>
<mask id="mask1_2231_34429" style="mask-type:luminance" maskUnits="userSpaceOnUse" x="17" y="39" width="9" height="10">
<path fill-rule="evenodd" clip-rule="evenodd" d="M17.425 42.2025L21.611 47.3565C22.441 48.3785 23.942 48.5335 24.965 47.7035C25.986 46.8745 26.142 45.3725 25.312 44.3505L21.126 39.1975" fill="white"/>
</mask>
<g mask="url(#mask1_2231_34429)">
<path fill-rule="evenodd" clip-rule="evenodd" d="M22.9969 41.4079L17.9169 43.4719L17.5405 42.5455L22.6205 40.4815L22.9969 41.4079Z" fill="#062846"/>
</g>
<path fill-rule="evenodd" clip-rule="evenodd" d="M29.551 8.73257C31.9837 10.3857 34.8187 13.0578 37.4941 16.3523C40.17 19.6467 42.2039 22.9696 43.323 25.6896C43.8813 27.0466 44.2233 28.2808 44.2893 29.3009C44.3542 30.3053 44.1559 31.2235 43.4772 31.7746L42.8468 30.9983C43.1496 30.7525 43.3485 30.2492 43.2914 29.3654C43.2352 28.4974 42.9358 27.3768 42.3982 26.0701C41.3256 23.4629 39.35 20.2233 36.7179 16.9827C34.0863 13.7422 31.3207 11.1442 28.989 9.55966C27.8203 8.76551 26.7849 8.24259 25.9468 8.00958C25.0934 7.77234 24.56 7.86375 24.2572 8.10964L23.6268 7.33334C24.3055 6.78223 25.2449 6.77652 26.2146 7.04612C27.1996 7.31996 28.3374 7.90785 29.551 8.73257Z" fill="#062846"/>
<path fill-rule="evenodd" clip-rule="evenodd" d="M41.7724 0.54708C42.0225 0.611077 42.1734 0.865731 42.1094 1.11587L41.3874 3.93787C41.3234 4.188 41.0687 4.3389 40.8186 4.2749C40.5685 4.21091 40.4176 3.95625 40.4816 3.70612L41.2036 0.884116C41.2676 0.633979 41.5222 0.483083 41.7724 0.54708Z" fill="#062846"/>
<path fill-rule="evenodd" clip-rule="evenodd" d="M32.7242 1.68559C32.9614 1.58363 33.2363 1.69326 33.3383 1.93047L34.4413 4.49647C34.5432 4.73368 34.4336 5.00863 34.1964 5.11059C33.9592 5.21256 33.6842 5.10292 33.5823 4.86571L32.4793 2.29971C32.3773 2.06251 32.487 1.78755 32.7242 1.68559Z" fill="#062846"/>
<path fill-rule="evenodd" clip-rule="evenodd" d="M45.0042 21.6116C45.1915 21.4339 45.4874 21.4417 45.6651 21.629L47.5321 23.597C47.7098 23.7844 47.7021 24.0803 47.5147 24.258C47.3274 24.4357 47.0315 24.4279 46.8538 24.2405L44.9868 22.2725C44.8091 22.0852 44.8169 21.7893 45.0042 21.6116Z" fill="#062846"/>
<path fill-rule="evenodd" clip-rule="evenodd" d="M47.8586 15.0415C47.8743 14.7838 48.0959 14.5876 48.3537 14.6034L51.0087 14.7654C51.2664 14.7811 51.4625 15.0027 51.4468 15.2605C51.4311 15.5182 51.2094 15.7143 50.9517 15.6986L48.2967 15.5366C48.039 15.5209 47.8428 15.2992 47.8586 15.0415Z" fill="#062846"/>
<path fill-rule="evenodd" clip-rule="evenodd" d="M49.1626 5.89233C49.3216 6.09572 49.2857 6.38953 49.0823 6.54857L46.8813 8.26957C46.6779 8.42861 46.384 8.39265 46.225 8.18926C46.066 7.98586 46.1019 7.69205 46.3053 7.53301L48.5063 5.81201C48.7097 5.65297 49.0035 5.68893 49.1626 5.89233Z" fill="#062846"/>
</svg>
