<svg width="20" height="20" viewBox="0 0 20 20" fill="none" xmlns="http://www.w3.org/2000/svg"><path fill="currentColor" d="M9.25001 17V15.3333C8.54167 15.1806 7.93403 14.8611 7.42709 14.375C6.92014 13.8889 6.56251 13.2847 6.35417 12.5625L7.89584 11.9375C8.00695 12.4375 8.2882 12.8854 8.73959 13.2812C9.19098 13.6771 9.65973 13.875 10.1458 13.875C10.6875 13.875 11.1319 13.7361 11.4792 13.4583C11.8264 13.1806 12 12.8194 12 12.375C12 11.9583 11.8438 11.6111 11.5313 11.3333C11.2188 11.0556 10.6667 10.7778 9.87501 10.5C8.79167 10.1111 8.00001 9.68403 7.50001 9.21875C7.00001 8.75347 6.75001 8.15278 6.75001 7.41667C6.75001 6.72222 6.9757 6.125 7.42709 5.625C7.87848 5.125 8.48612 4.79861 9.25001 4.64583V3H10.75V4.64583C11.75 4.8125 12.4201 5.19444 12.7604 5.79167C13.1007 6.38889 13.2778 6.70139 13.2917 6.72917L11.8333 7.33333C11.7222 6.97222 11.5 6.67361 11.1667 6.4375C10.8333 6.20139 10.4653 6.08333 10.0625 6.08333C9.57639 6.08333 9.17362 6.20833 8.85417 6.45833C8.53473 6.70833 8.37501 7.01389 8.37501 7.375C8.37501 7.73611 8.54862 8.04514 8.89584 8.30208C9.24306 8.55903 9.88889 8.84722 10.8333 9.16667C11.8056 9.48611 12.5139 9.90278 12.9583 10.4167C13.4028 10.9306 13.625 11.5833 13.625 12.375C13.625 13.1667 13.3681 13.8333 12.8542 14.375C12.3403 14.9167 11.6389 15.2569 10.75 15.3958V17H9.25001Z"/></svg>