<svg width="52" height="52" viewBox="0 0 52 52" fill="none" xmlns="http://www.w3.org/2000/svg">
<path fill-rule="evenodd" clip-rule="evenodd" d="M39.2979 7.99969V40.1177C39.2979 42.1347 37.6629 43.7697 35.6459 43.7697H4.73792L4.74792 43.7597C6.56992 43.6327 7.99891 42.1187 7.99891 40.2657V7.99969H39.2979Z" fill="#FF492C"/>
<path fill-rule="evenodd" clip-rule="evenodd" d="M7.99891 35.4053V40.2653C7.99891 42.1183 6.56991 43.6323 4.74791 43.7593C4.66391 43.7703 4.57891 43.7703 4.49391 43.7703C2.56691 43.7703 0.999908 42.2033 0.999908 40.2653V35.4053H7.99891Z" fill="#CB1D23"/>
<path fill-rule="evenodd" clip-rule="evenodd" d="M36.3498 14.7333H11.3938V13.7333H36.3498V14.7333Z" fill="#062846"/>
<path fill-rule="evenodd" clip-rule="evenodd" d="M36.3498 19.2394H11.3938V18.2394H36.3498V19.2394Z" fill="#062846"/>
<path fill-rule="evenodd" clip-rule="evenodd" d="M20.3008 23.874H11.3938V22.874H20.3008V23.874Z" fill="#062846"/>
<path fill-rule="evenodd" clip-rule="evenodd" d="M12.6272 41.6016C12.6272 41.6016 12.6272 41.6017 12.1346 41.5159C11.642 41.4301 11.6421 41.4298 11.6421 41.4298L11.6442 41.4175L11.6505 41.3817L11.6752 41.2442C11.6969 41.1244 11.729 40.9497 11.7706 40.7293C11.8539 40.2887 11.9756 39.6652 12.1295 38.9325C12.4367 37.469 12.8736 35.5622 13.3902 33.8055C13.8996 32.0728 14.508 30.4073 15.1818 29.4849C15.5013 29.0473 15.9615 28.6029 16.5596 28.6465C17.1624 28.6906 17.5905 29.2058 17.9101 29.8399C19.1256 32.2527 19.7803 35.7273 20.2337 38.1337C20.2568 38.2564 20.2794 38.3763 20.3015 38.4932C20.3967 38.9959 20.4825 39.4405 20.5633 39.8118C21.109 37.2805 21.6157 35.6452 22.0907 34.6769C22.3265 34.1962 22.5808 33.8235 22.8747 33.6018C23.0283 33.4859 23.2067 33.4006 23.4074 33.3774C23.6118 33.3536 23.8016 33.3987 23.9659 33.4843C24.2716 33.6438 24.4909 33.944 24.6512 34.2328C24.8196 34.5361 24.9641 34.9036 25.0883 35.2893C25.3372 36.0625 25.5249 36.9742 25.6519 37.7456C25.6968 38.0181 25.5123 38.2754 25.2399 38.3203C24.9674 38.3651 24.7101 38.1806 24.6652 37.9082C24.5418 37.1591 24.3637 36.3018 24.1364 35.5958C24.0225 35.2419 23.9012 34.9422 23.7769 34.7182C23.6538 34.4964 23.5582 34.4052 23.5128 34.3765C23.5045 34.381 23.4926 34.3883 23.477 34.4C23.3724 34.479 23.2023 34.6814 22.9885 35.1173C22.5673 35.9761 22.0772 37.5256 21.5304 40.0709C21.4091 40.6351 21.2857 41.0719 21.1325 41.3239C21.0742 41.42 20.8818 41.7077 20.5209 41.6823C20.3475 41.6701 20.2213 41.5856 20.145 41.5152C20.0699 41.4459 20.0167 41.3667 19.9795 41.3019C19.8429 41.0637 19.7364 40.679 19.6405 40.2665C19.5394 39.8314 19.434 39.2868 19.3189 38.6791C19.2994 38.576 19.2796 38.4709 19.2595 38.3642C18.7984 35.9206 18.1664 32.5714 17.0171 30.2899C16.7172 29.6948 16.5142 29.6459 16.4867 29.6439C16.4546 29.6415 16.2855 29.6691 15.9893 30.0747C15.4315 30.8383 14.8626 32.3428 14.3495 34.0876C13.8436 35.8082 13.4129 37.6861 13.1081 39.138C12.9559 39.863 12.8355 40.4798 12.7532 40.9151C12.7121 41.1327 12.6805 41.3048 12.6592 41.4224L12.6352 41.5565L12.6291 41.5906L12.6272 41.6016ZM20.2674 40.82C20.2674 40.82 20.2704 40.8145 20.2766 40.8069C20.2705 40.8167 20.2674 40.82 20.2674 40.82ZM20.8514 40.8115L20.8503 40.8099ZM12.0488 42.0085C11.7768 41.9611 11.5947 41.7019 11.6421 41.4298L12.1346 41.5159L12.6272 41.6016C12.5798 41.8737 12.3208 42.0559 12.0488 42.0085Z" fill="#062846"/>
<path fill-rule="evenodd" clip-rule="evenodd" d="M36.8378 39.7693H11.3938V38.7693H36.8378V39.7693Z" fill="#062846"/>
<path fill-rule="evenodd" clip-rule="evenodd" d="M26.1109 33.2958L44.4019 14.6028L47.9259 18.0508L29.6349 36.7438L26.1109 33.2958Z" fill="#413585"/>
<path fill-rule="evenodd" clip-rule="evenodd" d="M29.6256 36.7388L23.8716 39.2698L26.1196 33.3018L29.6256 36.7388Z" fill="#796BC1"/>
<path fill-rule="evenodd" clip-rule="evenodd" d="M47.3895 13.115L45.1845 15.368L47.1145 17.257L49.3195 15.004L47.3895 13.115Z" fill="#5746B2"/>
<path fill-rule="evenodd" clip-rule="evenodd" d="M48.4939 15.8478L50.9413 18.2448L37.8601 31.5111L37.148 30.8089L49.5247 18.2572L47.7942 16.5622L48.4939 15.8478Z" fill="#062846"/>
<path fill-rule="evenodd" clip-rule="evenodd" d="M48.2758 17.6941C48.4731 17.8873 48.4764 18.2038 48.2832 18.4011L29.9832 37.0881C29.9385 37.1337 29.8856 37.1703 29.8272 37.196L24.0732 39.727C23.8205 39.8382 23.5254 39.7234 23.4142 39.4706C23.3031 39.2178 23.4178 38.9228 23.6706 38.8116L29.3362 36.3195L47.5687 17.7015C47.7619 17.5042 48.0785 17.5008 48.2758 17.6941Z" fill="#062846"/>
</svg>
