<svg width="52" height="52" viewBox="0 0 52 52" fill="none" xmlns="http://www.w3.org/2000/svg">
<path fill-rule="evenodd" clip-rule="evenodd" d="M43.669 28.2326C43.669 38.9106 35.013 47.5666 24.335 47.5666C13.657 47.5666 5 38.9106 5 28.2326C5 17.5546 13.657 8.89859 24.335 8.89859C35.013 8.89859 43.669 17.5546 43.669 28.2326Z" fill="#FF492C"/>
<path fill-rule="evenodd" clip-rule="evenodd" d="M36.4313 28.2326C36.4313 34.9136 31.0153 40.3296 24.3343 40.3296C17.6533 40.3296 12.2383 34.9136 12.2383 28.2326C12.2383 21.5516 17.6533 16.1356 24.3343 16.1356C31.0153 16.1356 36.4313 21.5516 36.4313 28.2326Z" fill="#FFAD99"/>
<path fill-rule="evenodd" clip-rule="evenodd" d="M29.1733 28.2326C29.1733 30.9046 27.0073 33.0716 24.3343 33.0716C21.6623 33.0716 19.4963 30.9046 19.4963 28.2326C19.4963 25.5606 21.6623 23.3936 24.3343 23.3936C27.0073 23.3936 29.1733 25.5606 29.1733 28.2326Z" fill="#FF492C"/>
<path fill-rule="evenodd" clip-rule="evenodd" d="M38.9203 13.6469L43.9123 14.9849L47.5673 11.3299L42.5753 9.99189L41.2373 4.99989L37.5823 8.65489L38.9203 13.6469Z" fill="#FFC800"/>
<path fill-rule="evenodd" clip-rule="evenodd" d="M40.4381 12.129C40.6334 12.3243 40.6334 12.6409 40.4381 12.8361L24.6881 28.5861C24.4929 28.7814 24.1763 28.7814 23.981 28.5861C23.7858 28.3909 23.7858 28.0743 23.981 27.879L39.731 12.129C39.9263 11.9338 40.2429 11.9338 40.4381 12.129Z" fill="#062846"/>
<path fill-rule="evenodd" clip-rule="evenodd" d="M24.3343 16.6356C17.9295 16.6356 12.7383 21.8277 12.7383 28.2326C12.7383 34.6375 17.9295 39.8296 24.3343 39.8296C30.7392 39.8296 35.9313 34.6374 35.9313 28.2326C35.9313 21.8277 30.7392 16.6356 24.3343 16.6356ZM11.7383 28.2326C11.7383 21.2755 17.3771 15.6356 24.3343 15.6356C31.2914 15.6356 36.9313 21.2754 36.9313 28.2326C36.9313 35.1897 31.2914 40.8296 24.3343 40.8296C17.3771 40.8296 11.7383 35.1897 11.7383 28.2326Z" fill="#062846"/>
<path fill-rule="evenodd" clip-rule="evenodd" d="M37.0996 8.78395L38.0656 8.52505L39.3288 13.2383L43.7632 14.4268L47.214 10.9759L47.9212 11.6831L44.062 15.5422L38.5124 14.0547L37.0996 8.78395Z" fill="#062846"/>
<path fill-rule="evenodd" clip-rule="evenodd" d="M5.9115 28.1362C5.9115 38.3111 14.1596 46.5592 24.3345 46.5592C34.5094 46.5592 42.7575 38.3111 42.7575 28.1362H43.7575C43.7575 38.8633 35.0616 47.5592 24.3345 47.5592C13.6074 47.5592 4.9115 38.8633 4.9115 28.1362H5.9115Z" fill="#062846"/>
<path fill-rule="evenodd" clip-rule="evenodd" d="M20.5274 28.3484C20.5274 30.4512 22.2325 32.1554 24.3344 32.1554C26.4373 32.1554 28.1414 30.4513 28.1414 28.3484H29.1414C29.1414 31.0035 26.9895 33.1554 24.3344 33.1554C21.6803 33.1554 19.5274 31.0036 19.5274 28.3484H20.5274Z" fill="#062846"/>
</svg>
