<svg width="52" height="52" viewBox="0 0 52 52" fill="none" xmlns="http://www.w3.org/2000/svg">
<path fill-rule="evenodd" clip-rule="evenodd" d="M48.7275 17.6295L37.8635 28.4935L23.6685 14.2995L34.5335 3.43548C34.6295 3.33848 34.7435 3.25848 34.8655 3.19548C36.5205 2.33848 40.5045 4.36348 44.1515 8.01148C47.7985 11.6585 49.8245 15.6415 48.9675 17.2975C48.9035 17.4195 48.8245 17.5325 48.7275 17.6295Z" fill="#BCB5E0"/>
<path fill-rule="evenodd" clip-rule="evenodd" d="M37.8643 28.4952C36.4733 29.8862 32.1683 27.8362 28.2483 23.9162C24.3283 19.9962 22.2783 15.6912 23.6693 14.3002C25.0603 12.9092 29.3653 14.9592 33.2853 18.8792C37.2053 22.7992 39.2553 27.1042 37.8643 28.4952Z" fill="#5746B2"/>
<path fill-rule="evenodd" clip-rule="evenodd" d="M23.4209 16.3782C23.294 15.6947 23.3161 15.0337 23.6022 14.5019L24.4828 14.9758C24.3495 15.2236 24.2975 15.6212 24.4041 16.1957C24.5092 16.7617 24.7584 17.4431 25.1498 18.2047C25.9318 19.7261 27.2473 21.5016 28.9561 23.2103C30.7852 25.0395 32.6897 26.4166 34.2762 27.1719C35.0716 27.5507 35.7614 27.7608 36.3065 27.8085C36.8545 27.8565 37.183 27.7369 37.3675 27.5528C37.3676 27.5527 37.3678 27.5525 37.368 27.5523L48.6566 16.1737L49.3665 16.878L38.0765 28.258L38.0751 28.2594C37.5999 28.7346 36.9235 28.8664 36.2193 28.8047C35.5117 28.7427 34.7012 28.4819 33.8463 28.0748C32.1323 27.2587 30.1368 25.8053 28.249 23.9174C26.4837 22.1522 25.0997 20.2946 24.2604 18.6618C23.8413 17.8463 23.5494 17.0702 23.4209 16.3782Z" fill="#062846"/>
<path fill-rule="evenodd" clip-rule="evenodd" d="M14.6151 36.842L30.4131 21.044L31.1202 21.7511L15.3222 37.5491L14.6151 36.842Z" fill="#062846"/>
<path fill-rule="evenodd" clip-rule="evenodd" d="M16.468 40.5042C15.109 41.8632 12.905 41.8632 11.545 40.5042C10.186 39.1452 10.186 36.9412 11.545 35.5812C12.905 34.2222 15.109 34.2222 16.468 35.5812C17.827 36.9412 17.827 39.1452 16.468 40.5042Z" fill="#FF492C"/>
<path fill-rule="evenodd" clip-rule="evenodd" d="M5.74346 45.5991L8.94846 42.3941L9.65556 43.1012L6.45056 46.3062L5.74346 45.5991Z" fill="#062846"/>
<path fill-rule="evenodd" clip-rule="evenodd" d="M3.08924 35.9941L7.54924 36.8031L7.37077 37.787L2.91077 36.978L3.08924 35.9941Z" fill="#062846"/>
<path fill-rule="evenodd" clip-rule="evenodd" d="M15.0938 49.1918L14.0998 44.7688L15.0754 44.5495L16.0694 48.9725L15.0938 49.1918Z" fill="#062846"/>
<path fill-rule="evenodd" clip-rule="evenodd" d="M8.81482 28.1823L11.5548 31.7933L10.7582 32.3978L8.01819 28.7868L8.81482 28.1823Z" fill="#062846"/>
<path fill-rule="evenodd" clip-rule="evenodd" d="M19.9093 41.9132L22.6493 45.5242L21.8527 46.1287L19.1127 42.5177L19.9093 41.9132Z" fill="#062846"/>
<path fill-rule="evenodd" clip-rule="evenodd" d="M31.4593 22.7093L29.5343 20.7843L30.2414 20.0772L32.1664 22.0022L31.4593 22.7093Z" fill="#062846"/>
</svg>
