<svg width="52" height="52" viewBox="0 0 52 52" fill="none" xmlns="http://www.w3.org/2000/svg">
<path d="M13.7919 6.87505L7.75256 12.7851L39.1003 44.8187L45.1397 38.9087L13.7919 6.87505Z" fill="#FFE466"/>
<path d="M39.1184 44.8079L48.9784 49.1479L45.1284 38.9179L39.1184 44.8079Z" fill="#FFAD99"/>
<path d="M45.7983 47.7479L47.7483 45.8679L48.9783 49.1479L45.7983 47.7479Z" fill="#062846"/>
<path d="M10.0765 3L3.97998 8.966L7.75682 12.8255L13.8533 6.85947L10.0765 3Z" fill="#FF492C"/>
<path fill-rule="evenodd" clip-rule="evenodd" d="M39.1413 44.8279L4.01134 8.98792L4.72548 8.28793L39.8555 44.1279L39.1413 44.8279Z" fill="#062846"/>
<path fill-rule="evenodd" clip-rule="evenodd" d="M36.2956 35.1222L21.7356 20.6222L22.4412 19.9136L37.0012 34.4136L36.2956 35.1222Z" fill="#062846"/>
<path fill-rule="evenodd" clip-rule="evenodd" d="M14.1969 7.2164L8.44692 12.8064L7.74986 12.0894L13.4999 6.49939L14.1969 7.2164Z" fill="#062846"/>
</svg>
