<svg width="20" height="20" viewBox="0 0 20 20" fill="none" xmlns="http://www.w3.org/2000/svg">
<path d="M15.1458 15.8542L15.8542 15.1458L14.5 13.7917V12H13.5V14.2083L15.1458 15.8542ZM13.9952 18C12.8873 18 11.9444 17.6095 11.1667 16.8285C10.3889 16.0477 10 15.1033 10 13.9952C10 12.8873 10.3905 11.9444 11.1715 11.1667C11.9523 10.3889 12.8967 10 14.0048 10C15.1127 10 16.0556 10.3905 16.8333 11.1715C17.6111 11.9523 18 12.8967 18 14.0048C18 15.1127 17.6095 16.0556 16.8285 16.8333C16.0477 17.6111 15.1033 18 13.9952 18ZM5 6.5H13V5H5V6.5ZM8.85417 16H3.5C3.0875 16 2.73437 15.8531 2.44062 15.5594C2.14687 15.2656 2 14.9125 2 14.5V3.5C2 3.0875 2.14687 2.73438 2.44062 2.44063C2.73437 2.14688 3.0875 2 3.5 2H14.5C14.9125 2 15.2656 2.14688 15.5594 2.44063C15.8531 2.73438 16 3.0875 16 3.5V8.875C15.6704 8.76389 15.3381 8.68056 15.0029 8.625C14.6676 8.56944 14.3333 8.54167 14 8.54167C13.8333 8.54167 13.6667 8.54861 13.5 8.5625C13.3333 8.57639 13.1667 8.59722 13 8.625V8.25H5V9.75H10.5417C10.2361 9.98611 9.95833 10.25 9.70833 10.5417C9.45833 10.8333 9.24306 11.1528 9.0625 11.5H5V13H8.54167C8.51389 13.1667 8.49306 13.3333 8.47917 13.5C8.46528 13.6667 8.46528 13.8333 8.47917 14C8.49306 14.3194 8.53125 14.6562 8.59375 15.0104C8.65625 15.3646 8.74306 15.6944 8.85417 16Z" fill="white"/>
</svg>
