<svg width="20" height="20" viewBox="0 0 20 20" fill="none" xmlns="http://www.w3.org/2000/svg"><path fill="currentColor" d="M10 10C9.16667 10 8.45833 9.70833 7.875 9.125C7.29167 8.54167 7 7.83333 7 7C7 6.16667 7.29167 5.45833 7.875 4.875C8.45833 4.29167 9.16667 4 10 4C10.8333 4 11.5417 4.29167 12.125 4.875C12.7083 5.45833 13 6.16667 13 7C13 7.83333 12.7083 8.54167 12.125 9.125C11.5417 9.70833 10.8333 10 10 10ZM4 16V14C4 13.6806 4.08681 13.3785 4.26042 13.0938C4.43403 12.809 4.67361 12.5694 4.97917 12.375C5.74306 11.9306 6.55208 11.5903 7.40625 11.3542C8.26042 11.1181 9.125 11 10 11C10.875 11 11.7396 11.1181 12.5938 11.3542C13.4479 11.5903 14.2569 11.9306 15.0208 12.375C15.3264 12.5556 15.566 12.7917 15.7396 13.0833C15.9132 13.375 16 13.6806 16 14V16H4Z"/></svg>