<svg width="52" height="52" viewBox="0 0 52 52" fill="none" xmlns="http://www.w3.org/2000/svg">
<path fill-rule="evenodd" clip-rule="evenodd" d="M8.1 46.496H43.886V20.611H8.1V46.496Z" fill="#BCB5E0"/>
<path fill-rule="evenodd" clip-rule="evenodd" d="M18.0406 7.91615C16.0522 6.1706 12.934 7.58225 12.934 10.2283C12.934 11.9274 14.3119 13.3053 16.011 13.3053H24.1811L18.0406 7.91615ZM18.7954 7.05642C16.0678 4.66198 11.79 6.59833 11.79 10.2283C11.79 12.5592 13.6801 14.4493 16.011 14.4493H27.2189L18.7954 7.05642Z" fill="#062846"/>
<path fill-rule="evenodd" clip-rule="evenodd" d="M33.1922 7.05642C35.9198 4.66198 40.1976 6.59833 40.1976 10.2283C40.1976 12.5592 38.3075 14.4493 35.9766 14.4493H24.7687L33.1922 7.05642ZM39.0536 10.2283C39.0536 7.58225 35.9354 6.1706 33.947 7.91615L27.8065 13.3053H35.9766C37.6757 13.3053 39.0536 11.9274 39.0536 10.2283Z" fill="#062846"/>
<path fill-rule="evenodd" clip-rule="evenodd" d="M22.368 46.496H29.62V20.706H22.368V46.496Z" fill="#F1F0F9"/>
<path fill-rule="evenodd" clip-rule="evenodd" d="M5 21.3445V12.9445H46.988V21.3445" fill="#5746B2"/>
<path fill-rule="evenodd" clip-rule="evenodd" d="M21.164 20.759H30.824V12.913H21.164V20.759Z" fill="#F1F0F9"/>
<path fill-rule="evenodd" clip-rule="evenodd" d="M43.8466 22.4018L8.11356 22.4118L8.11324 21.2678L43.8462 21.2578L43.8466 22.4018Z" fill="#062846"/>
</svg>
