<svg width="52" height="52" viewBox="0 0 52 52" fill="none" xmlns="http://www.w3.org/2000/svg">
<path fill-rule="evenodd" clip-rule="evenodd" d="M9 49.224H43.093V10.581H9V49.224Z" fill="#288DFF"/>
<path fill-rule="evenodd" clip-rule="evenodd" d="M12.074 49.224H40.018V16.117H12.074V49.224Z" fill="#A9D1FF"/>
<path fill-rule="evenodd" clip-rule="evenodd" d="M23.8801 8.4554C23.8801 9.6514 24.8501 10.6214 26.0461 10.6214C27.2431 10.6214 28.2131 9.6514 28.2131 8.4554C28.2131 7.2594 27.2431 6.2894 26.0461 6.2894C24.8501 6.2894 23.8801 7.2594 23.8801 8.4554ZM26.0461 3.0004C28.9921 3.0004 31.3791 5.3884 31.3791 8.3334C31.3791 11.2784 28.9921 13.6664 26.0461 13.6664C23.1011 13.6664 20.7141 11.2784 20.7141 8.3334C20.7141 5.3884 23.1011 3.0004 26.0461 3.0004Z" fill="#A9D1FF"/>
<path fill-rule="evenodd" clip-rule="evenodd" d="M17.077 15.605H35.015V10.595H17.077V15.605Z" fill="#A9D1FF"/>
<path fill-rule="evenodd" clip-rule="evenodd" d="M22.7997 8.45119C22.7997 6.65805 24.2535 5.20419 26.0467 5.20419C27.8398 5.20419 29.2937 6.65805 29.2937 8.45119H28.2937C28.2937 7.21034 27.2875 6.20419 26.0467 6.20419C24.8058 6.20419 23.7997 7.21034 23.7997 8.45119H22.7997Z" fill="#062846"/>
<path fill-rule="evenodd" clip-rule="evenodd" d="M34.9745 16.3611H17.0575V15.3611H34.9745V16.3611Z" fill="#062846"/>
<path fill-rule="evenodd" clip-rule="evenodd" d="M16.005 26.7751L20.331 22.3541L21.0458 23.0535L16.7198 27.4745L16.005 26.7751Z" fill="#062846"/>
<path fill-rule="evenodd" clip-rule="evenodd" d="M20.3865 27.4347L15.9655 23.1087L16.6649 22.3939L21.0859 26.7199L20.3865 27.4347Z" fill="#062846"/>
<path fill-rule="evenodd" clip-rule="evenodd" d="M16.005 44.2093L20.331 39.7883L21.0458 40.4877L16.7198 44.9087L16.005 44.2093Z" fill="#062846"/>
<path fill-rule="evenodd" clip-rule="evenodd" d="M20.3865 44.869L15.9655 40.543L16.6649 39.8282L21.0859 44.1542L20.3865 44.869Z" fill="#062846"/>
<path fill-rule="evenodd" clip-rule="evenodd" d="M31.2415 44.2093L35.5675 39.7883L36.2823 40.4877L31.9563 44.9087L31.2415 44.2093Z" fill="#062846"/>
<path fill-rule="evenodd" clip-rule="evenodd" d="M35.623 44.869L31.202 40.543L31.9014 39.8282L36.3224 44.1542L35.623 44.869Z" fill="#062846"/>
<path fill-rule="evenodd" clip-rule="evenodd" d="M23.2409 24.9141C23.2409 23.3708 24.4919 22.1211 26.0339 22.1211C27.5768 22.1211 28.8279 23.3707 28.8279 24.9141C28.8279 26.4575 27.5768 27.7071 26.0339 27.7071C24.4919 27.7071 23.2409 26.4574 23.2409 24.9141ZM26.0339 23.1211C25.0439 23.1211 24.2409 23.9234 24.2409 24.9141C24.2409 25.9048 25.0439 26.7071 26.0339 26.7071C27.025 26.7071 27.8279 25.9047 27.8279 24.9141C27.8279 23.9235 27.025 23.1211 26.0339 23.1211Z" fill="#062846"/>
<path fill-rule="evenodd" clip-rule="evenodd" d="M23.2409 42.3484C23.2409 40.8051 24.4919 39.5554 26.0339 39.5554C27.5768 39.5554 28.8279 40.805 28.8279 42.3484C28.8279 43.8918 27.5768 45.1414 26.0339 45.1414C24.4919 45.1414 23.2409 43.8917 23.2409 42.3484ZM26.0339 40.5554C25.0439 40.5554 24.2409 41.3577 24.2409 42.3484C24.2409 43.3391 25.0439 44.1414 26.0339 44.1414C27.025 44.1414 27.8279 43.339 27.8279 42.3484C27.8279 41.3578 27.025 40.5554 26.0339 40.5554Z" fill="#062846"/>
<path fill-rule="evenodd" clip-rule="evenodd" d="M33.0456 27.6502V23.1582H34.0456V27.6502C34.0456 30.0324 32.1147 31.9622 29.7336 31.9622V30.9622C31.5625 30.9622 33.0456 29.48 33.0456 27.6502Z" fill="#062846"/>
<path fill-rule="evenodd" clip-rule="evenodd" d="M29.8462 31.963C28.0173 31.963 26.5342 33.4461 26.5342 35.275V38.098H25.5342V35.275C25.5342 32.8939 27.4651 30.963 29.8462 30.963V31.963Z" fill="#062846"/>
<path fill-rule="evenodd" clip-rule="evenodd" d="M33.1363 22.809C33.3294 22.6117 33.6459 22.6082 33.8433 22.8012L35.7573 24.6732L35.0581 25.3882L33.5014 23.8657L31.9791 25.4214L31.2643 24.722L33.1363 22.809Z" fill="#062846"/>
</svg>
