<svg width="20" height="20" viewBox="0 0 20 20" fill="none" xmlns="http://www.w3.org/2000/svg"><path fill="currentColor" d="M8.39581 18L7.93748 15.625C7.61804 15.5 7.30901 15.3542 7.0104 15.1875C6.71179 15.0208 6.43054 14.8264 6.16665 14.6042L3.87498 15.375L2.27081 12.6042L4.08331 11.0208C4.05554 10.8542 4.0347 10.6875 4.02081 10.5208C4.00692 10.3542 3.99998 10.1806 3.99998 10C3.99998 9.81944 4.00692 9.64583 4.02081 9.47917C4.0347 9.3125 4.05554 9.14583 4.08331 8.97917L2.27081 7.39583L3.87498 4.625L6.16665 5.39583C6.43054 5.17361 6.71179 4.97917 7.0104 4.8125C7.30901 4.64583 7.61804 4.5 7.93748 4.375L8.39581 2H11.6041L12.0625 4.375C12.3819 4.5 12.691 4.64583 12.9896 4.8125C13.2882 4.97917 13.5694 5.17361 13.8333 5.39583L16.125 4.625L17.7291 7.39583L15.9166 8.97917C15.9444 9.14583 15.9653 9.3125 15.9791 9.47917C15.993 9.64583 16 9.81944 16 10C16 10.1806 15.993 10.3542 15.9791 10.5208C15.9653 10.6875 15.9444 10.8542 15.9166 11.0208L17.7291 12.6042L16.125 15.375L13.8333 14.6042C13.5694 14.8264 13.2882 15.0208 12.9896 15.1875C12.691 15.3542 12.3819 15.5 12.0625 15.625L11.6041 18H8.39581ZM9.99998 13C10.8333 13 11.5416 12.7083 12.125 12.125C12.7083 11.5417 13 10.8333 13 10C13 9.16667 12.7083 8.45833 12.125 7.875C11.5416 7.29167 10.8333 7 9.99998 7C9.16665 7 8.45831 7.29167 7.87498 7.875C7.29165 8.45833 6.99998 9.16667 6.99998 10C6.99998 10.8333 7.29165 11.5417 7.87498 12.125C8.45831 12.7083 9.16665 13 9.99998 13Z"/></svg>