<svg width="52" height="52" viewBox="0 0 52 52" fill="none" xmlns="http://www.w3.org/2000/svg">
<path d="M12.2402 4V7.74H14.3002V9.91H36.9202V7.74H38.9802V4H12.2402Z" fill="#EE4288"/>
<path d="M36.9202 43.63V41.47H14.3002V43.63H12.2402V47.38H38.9802V43.63H36.9202Z" fill="#EE4288"/>
<path d="M27.1202 25.38C26.9302 25.71 26.9802 25.96 27.2702 26.25C27.5602 26.53 27.8802 26.77 28.1902 27.03C29.6402 28.24 31.1002 29.44 32.5502 30.66C33.6602 31.6 34.5202 32.72 35.0902 34.06C35.3102 34.58 35.4902 35.11 35.6302 35.66C35.7502 36.11 35.8302 36.59 35.8402 37.07C35.8502 37.76 35.8602 38.46 35.8702 39.15C35.8702 39.92 35.8702 40.69 35.8802 41.46C34.8902 41.46 33.8902 41.46 32.9002 41.46C32.8802 41.46 32.8602 41.46 32.8402 41.46H18.5802C18.5102 41.46 18.4402 41.46 18.3702 41.46H15.6902C15.6102 41.46 15.5302 41.48 15.4602 41.49C15.4202 41.49 15.3802 41.47 15.3402 41.46C15.3502 41.41 15.3502 41.37 15.3502 41.33C15.3502 41.33 15.3502 41.3 15.3502 41.29V41.24C15.3502 41.24 15.3502 41.21 15.3502 41.19V39.14H15.3602C15.3502 38.75 15.3602 38.37 15.3602 37.98C15.3602 37.53 15.3602 37.08 15.4602 36.63C15.5502 36.24 15.5802 35.84 15.6702 35.45C15.7502 35.11 15.8702 34.78 16.0102 34.46C16.2102 34 16.4202 33.54 16.6702 33.1C17.2302 32.11 17.9702 31.26 18.8602 30.53C20.0302 29.58 21.1802 28.6 22.3402 27.63C22.8502 27.21 23.3602 26.78 23.8802 26.36C24.2702 26.04 24.2702 25.65 24.1002 25.26C24.0702 25.18 23.9802 25.12 23.9102 25.06C22.6802 24.03 21.4502 23 20.2202 21.97C19.5602 21.42 18.8902 20.88 18.2602 20.3C17.3802 19.5 16.7102 18.53 16.2302 17.44C16.0002 16.93 15.8202 16.39 15.6602 15.85C15.5302 15.44 15.4802 15 15.4302 14.57C15.2902 13.34 15.3902 12.1 15.3602 10.87C15.3502 10.55 15.3502 10.23 15.3402 9.90002H35.7002C35.7002 9.90002 35.8102 9.92002 35.8702 9.93002V12.45C35.8702 12.78 35.8902 13.11 35.8702 13.43C35.8202 14.14 35.8402 14.85 35.6802 15.55C35.3202 17.2 34.5802 18.64 33.4502 19.88C32.8402 20.56 32.1102 21.13 31.4102 21.71C30.0702 22.82 28.7402 23.93 27.4102 25.04C27.3002 25.14 27.1902 25.25 27.1102 25.37L27.1202 25.38Z" fill="#FFC800"/>
<path fill-rule="evenodd" clip-rule="evenodd" d="M35.7968 15.0715C36.0666 15.1304 36.2376 15.3968 36.1787 15.6666C35.8004 17.4007 35.0203 18.9199 33.8311 20.2253C33.2807 20.8386 32.6367 21.3674 32.0336 21.8626C31.9342 21.9442 31.8359 22.025 31.7392 22.105C30.4029 23.212 29.0763 24.3191 27.749 25.4269C27.6504 25.517 27.5801 25.5916 27.5363 25.6573C27.3831 25.8871 27.0727 25.9492 26.8429 25.796C26.6131 25.6428 26.551 25.3324 26.7042 25.1026C26.8193 24.9301 26.9665 24.7867 27.0839 24.68L27.0917 24.6729L27.0999 24.6661C28.4297 23.5563 29.7605 22.4456 31.1013 21.3349C31.2041 21.2498 31.3063 21.1658 31.4078 21.0824C32.0141 20.5839 32.5924 20.1086 33.088 19.5561L33.0907 19.5532C34.1608 18.3789 34.8602 17.0186 35.2017 15.4534C35.2606 15.1836 35.527 15.0126 35.7968 15.0715Z" fill="#062846"/>
<path fill-rule="evenodd" clip-rule="evenodd" d="M12.2402 3.5C12.5164 3.5 12.7402 3.72386 12.7402 4V7.24H14.8002V9.41H36.9202C37.1964 9.41 37.4202 9.63386 37.4202 9.91C37.4202 10.1861 37.1964 10.41 36.9202 10.41H13.8002V8.24H11.7402V4C11.7402 3.72386 11.9641 3.5 12.2402 3.5Z" fill="#062846"/>
<path fill-rule="evenodd" clip-rule="evenodd" d="M22.7338 27.3193C22.9109 27.5311 22.8828 27.8464 22.671 28.0236C22.3458 28.2955 22.0205 28.569 21.6947 28.8428C20.8635 29.5416 20.0293 30.2429 19.1863 30.9274C18.3396 31.6221 17.6419 32.4255 17.1154 33.3562C16.879 33.7723 16.6771 34.2132 16.4787 34.6694L16.4783 34.6704C16.3466 34.9713 16.2383 35.2715 16.1672 35.5735C16.1273 35.7465 16.1 35.9249 16.0695 36.1251L16.0683 36.1332C16.0392 36.3247 16.0069 36.5372 15.958 36.7501C15.9578 36.7509 15.9576 36.7516 15.9574 36.7524L15.4702 36.64L15.9583 36.7485C15.9582 36.749 15.9581 36.7495 15.958 36.7501C15.8721 37.1374 15.8702 37.5322 15.8702 37.99C15.8702 38.1879 15.8677 38.4803 15.8652 38.7215L15.8617 39.0296L15.8602 39.1542L15.3602 39.15C14.8603 39.1435 14.8603 39.1435 14.8603 39.1435L14.8618 39.0176L14.8652 38.7111C14.8677 38.4698 14.8702 38.1821 14.8702 37.99L14.8702 37.9684C14.8702 37.5321 14.8701 37.0354 14.9821 36.5316L14.983 36.5276C15.023 36.3542 15.0504 36.1755 15.0809 35.9749L15.0821 35.9669C15.1113 35.7746 15.1437 35.5612 15.193 35.3476L15.1935 35.3455C15.2823 34.9681 15.4138 34.6088 15.5619 34.2702C15.7634 33.8066 15.9818 33.3271 16.2452 32.8634C16.8385 31.8147 17.6204 30.9184 18.5531 30.1534L18.555 30.1519C19.3913 29.4728 20.2157 28.7798 21.0447 28.0828C21.3719 27.8077 21.6998 27.5321 22.0295 27.2564C22.2413 27.0793 22.5566 27.1074 22.7338 27.3193ZM15.8602 39.1565L15.8402 41.4743C15.8378 41.7505 15.612 41.9724 15.3359 41.97C15.0598 41.9676 14.8378 41.7418 14.8402 41.4657L14.8603 39.1435L15.3602 39.15C15.8602 39.1565 15.8602 39.1565 15.8602 39.1565Z" fill="#062846"/>
<path fill-rule="evenodd" clip-rule="evenodd" d="M13.8002 40.97H15.3402C15.6164 40.97 15.8402 41.1938 15.8402 41.47C15.8402 41.7461 15.6164 41.97 15.3402 41.97H14.8002V44.13H12.7402V46.88H38.9802C39.2564 46.88 39.4802 47.1038 39.4802 47.38C39.4802 47.6561 39.2564 47.88 38.9802 47.88H11.7402V43.13H13.8002V40.97Z" fill="#062846"/>
<path fill-rule="evenodd" clip-rule="evenodd" d="M20.0802 41.47C20.0802 41.1938 20.3041 40.97 20.5802 40.97H30.4402C30.7163 40.97 30.9402 41.1938 30.9402 41.47C30.9402 41.7461 30.7163 41.97 30.4402 41.97H20.5802C20.3041 41.97 20.0802 41.7461 20.0802 41.47Z" fill="#062846"/>
</svg>
