<svg xmlns="http://www.w3.org/2000/svg" width="20" height="20" fill="currentColor" viewBox="0 0 20 20">
  <path d="m14.292 10.698-1.084-1.063a3.13 3.13 0 0 0 .5-.948c.111-.34.167-.69.167-1.052 0-.458-.097-.888-.292-1.291a5.91 5.91 0 0 0-.729-1.146l1.063-1.063a6.024 6.024 0 0 1 1.062 1.615c.264.59.396 1.219.396 1.885 0 .556-.094 1.094-.281 1.615a5.2 5.2 0 0 1-.802 1.448Zm-2.125-2.104L9.458 5.885c.153-.083.31-.145.47-.187.159-.042.322-.063.489-.063.555 0 1.027.195 1.416.584.39.389.584.86.584 1.416 0 .167-.021.33-.063.49a2.07 2.07 0 0 1-.187.469Zm4.27 4.291-1.041-1.083a6.573 6.573 0 0 0 1.125-1.948 6.36 6.36 0 0 0 .396-2.219c0-.875-.167-1.704-.5-2.49a7 7 0 0 0-1.396-2.114l1.062-1.062a8.129 8.129 0 0 1 1.73 2.604c.402.972.604 1.993.604 3.062 0 .973-.167 1.91-.5 2.813a7.457 7.457 0 0 1-1.48 2.437Zm.709 4.917-5.98-5.98v4.813h-1.5v-6.312L6.959 7.615c.042.458.143.902.302 1.333.16.43.4.805.72 1.125l-1.063 1.062a5.284 5.284 0 0 1-1.073-1.604 4.746 4.746 0 0 1-.386-1.896c0-.236.01-.465.032-.687.02-.222.073-.438.156-.646L4.438 5.094a5.681 5.681 0 0 0-.396 1.24 6.73 6.73 0 0 0-.125 1.301c0 .862.166 1.684.5 2.47a7 7 0 0 0 1.396 2.114L4.75 13.28a7.923 7.923 0 0 1-2.333-5.646c0-.638.073-1.267.218-1.885a7.297 7.297 0 0 1 .678-1.781l-1.73-1.73 1.063-1.041L18.188 16.74l-1.042 1.062Z"/>
</svg>
