<svg width="52" height="52" viewBox="0 0 52 52" fill="none" xmlns="http://www.w3.org/2000/svg">
<path fill-rule="evenodd" clip-rule="evenodd" d="M23.3104 6.00089V15.0179H37.7714L34.1244 10.5099L37.7714 6.00089H23.3104Z" fill="#27D3BC"/>
<path fill-rule="evenodd" clip-rule="evenodd" d="M21.426 29.278H23.447V6H21.426V29.278Z" fill="#6EE0D1"/>
<path fill-rule="evenodd" clip-rule="evenodd" d="M22.9107 15.0186V6.00061H23.9107V15.0186H22.9107Z" fill="#062846"/>
<path fill-rule="evenodd" clip-rule="evenodd" d="M4 46.2723H40.365L22.428 24.5943L4 46.2723Z" fill="#1D9E8D"/>
<path fill-rule="evenodd" clip-rule="evenodd" d="M26.4649 46.2723H48.3249L37.5429 33.2403L26.4649 46.2723Z" fill="#1D9E8D"/>
<path fill-rule="evenodd" clip-rule="evenodd" d="M22.1087 24.208C22.3217 24.0318 22.6372 24.0616 22.8134 24.2745L41.6574 47.0485C41.8336 47.2615 41.8038 47.577 41.5909 47.7532C41.3779 47.9294 41.0624 47.8996 40.8862 47.6867L22.0422 24.9127C21.866 24.6997 21.8958 24.3842 22.1087 24.208Z" fill="#062846"/>
</svg>
