<svg width="20" height="20" viewBox="0 0 20 20" fill="none" xmlns="http://www.w3.org/2000/svg"><path fill="currentColor" d="M5.49563 16C5.08188 16 4.72917 15.8527 4.4375 15.5581C4.14583 15.2635 4 14.9094 4 14.4956C4 14.0819 4.14729 13.7292 4.44188 13.4375C4.73646 13.1458 5.09062 13 5.50437 13C5.91812 13 6.27083 13.1473 6.5625 13.4419C6.85417 13.7365 7 14.0906 7 14.5044C7 14.9181 6.85271 15.2708 6.55813 15.5625C6.26354 15.8542 5.90938 16 5.49563 16ZM9.99563 16C9.58188 16 9.22917 15.8527 8.9375 15.5581C8.64583 15.2635 8.5 14.9094 8.5 14.4956C8.5 14.0819 8.64729 13.7292 8.94187 13.4375C9.23646 13.1458 9.59062 13 10.0044 13C10.4181 13 10.7708 13.1473 11.0625 13.4419C11.3542 13.7365 11.5 14.0906 11.5 14.5044C11.5 14.9181 11.3527 15.2708 11.0581 15.5625C10.7635 15.8542 10.4094 16 9.99563 16ZM14.4956 16C14.0819 16 13.7292 15.8527 13.4375 15.5581C13.1458 15.2635 13 14.9094 13 14.4956C13 14.0819 13.1473 13.7292 13.4419 13.4375C13.7365 13.1458 14.0906 13 14.5044 13C14.9181 13 15.2708 13.1473 15.5625 13.4419C15.8542 13.7365 16 14.0906 16 14.5044C16 14.9181 15.8527 15.2708 15.5581 15.5625C15.2635 15.8542 14.9094 16 14.4956 16ZM5.49563 11.5C5.08188 11.5 4.72917 11.3527 4.4375 11.0581C4.14583 10.7635 4 10.4094 4 9.99563C4 9.58188 4.14729 9.22917 4.44188 8.9375C4.73646 8.64583 5.09062 8.5 5.50437 8.5C5.91812 8.5 6.27083 8.64729 6.5625 8.94188C6.85417 9.23646 7 9.59062 7 10.0044C7 10.4181 6.85271 10.7708 6.55813 11.0625C6.26354 11.3542 5.90938 11.5 5.49563 11.5ZM9.99563 11.5C9.58188 11.5 9.22917 11.3527 8.9375 11.0581C8.64583 10.7635 8.5 10.4094 8.5 9.99563C8.5 9.58188 8.64729 9.22917 8.94187 8.9375C9.23646 8.64583 9.59062 8.5 10.0044 8.5C10.4181 8.5 10.7708 8.64729 11.0625 8.94188C11.3542 9.23646 11.5 9.59062 11.5 10.0044C11.5 10.4181 11.3527 10.7708 11.0581 11.0625C10.7635 11.3542 10.4094 11.5 9.99563 11.5ZM14.4956 11.5C14.0819 11.5 13.7292 11.3527 13.4375 11.0581C13.1458 10.7635 13 10.4094 13 9.99563C13 9.58188 13.1473 9.22917 13.4419 8.9375C13.7365 8.64583 14.0906 8.5 14.5044 8.5C14.9181 8.5 15.2708 8.64729 15.5625 8.94188C15.8542 9.23646 16 9.59062 16 10.0044C16 10.4181 15.8527 10.7708 15.5581 11.0625C15.2635 11.3542 14.9094 11.5 14.4956 11.5ZM5.49563 7C5.08188 7 4.72917 6.85271 4.4375 6.55812C4.14583 6.26354 4 5.90937 4 5.49562C4 5.08187 4.14729 4.72917 4.44188 4.4375C4.73646 4.14583 5.09062 4 5.50437 4C5.91812 4 6.27083 4.14729 6.5625 4.44188C6.85417 4.73646 7 5.09063 7 5.50438C7 5.91813 6.85271 6.27083 6.55813 6.5625C6.26354 6.85417 5.90938 7 5.49563 7ZM9.99563 7C9.58188 7 9.22917 6.85271 8.9375 6.55812C8.64583 6.26354 8.5 5.90937 8.5 5.49562C8.5 5.08187 8.64729 4.72917 8.94187 4.4375C9.23646 4.14583 9.59062 4 10.0044 4C10.4181 4 10.7708 4.14729 11.0625 4.44188C11.3542 4.73646 11.5 5.09063 11.5 5.50438C11.5 5.91813 11.3527 6.27083 11.0581 6.5625C10.7635 6.85417 10.4094 7 9.99563 7ZM14.4956 7C14.0819 7 13.7292 6.85271 13.4375 6.55812C13.1458 6.26354 13 5.90937 13 5.49562C13 5.08187 13.1473 4.72917 13.4419 4.4375C13.7365 4.14583 14.0906 4 14.5044 4C14.9181 4 15.2708 4.14729 15.5625 4.44188C15.8542 4.73646 16 5.09063 16 5.50438C16 5.91813 15.8527 6.27083 15.5581 6.5625C15.2635 6.85417 14.9094 7 14.4956 7Z"/></svg>