<svg width="20" height="20" viewBox="0 0 20 20" fill="none" xmlns="http://www.w3.org/2000/svg"><path fill="currentColor" d="M17 6V15.5C17 15.9125 16.8531 16.2656 16.5594 16.5594C16.2656 16.8531 15.9125 17 15.5 17H4.5C4.0875 17 3.73437 16.8531 3.44062 16.5594C3.14687 16.2656 3 15.9125 3 15.5V4.5C3 4.0875 3.14687 3.73438 3.44062 3.44063C3.73437 3.14688 4.0875 3 4.5 3H14L17 6ZM10 14.75C10.625 14.75 11.1562 14.5312 11.5938 14.0938C12.0312 13.6562 12.25 13.125 12.25 12.5C12.25 11.875 12.0312 11.3438 11.5938 10.9062C11.1562 10.4688 10.625 10.25 10 10.25C9.375 10.25 8.84375 10.4688 8.40625 10.9062C7.96875 11.3438 7.75 11.875 7.75 12.5C7.75 13.125 7.96875 13.6562 8.40625 14.0938C8.84375 14.5312 9.375 14.75 10 14.75ZM5.5 8.5H12.5V5.5H5.5V8.5Z"/></svg>