<svg width="52" height="52" viewBox="0 0 52 52" fill="none" xmlns="http://www.w3.org/2000/svg">
<path fill-rule="evenodd" clip-rule="evenodd" d="M17.0301 14.0885L22.6701 15.3905L26.4671 11.0225L30.2641 15.3905L35.9041 14.0885L36.4081 19.8545L41.7361 22.1155L38.7551 27.0775L41.7361 32.0385L36.4081 34.2995L35.9041 40.0655L30.2641 38.7635L26.4671 43.1315L22.6701 38.7635L17.0301 40.0655L16.5261 34.2995L11.1981 32.0385L14.1791 27.0775L11.1981 22.1155L16.5261 19.8545L17.0301 14.0885Z" fill="#FF492C"/>
<path fill-rule="evenodd" clip-rule="evenodd" d="M43.9354 12.7293L41.5974 14.4903L43.9354 16.2523L45.6964 18.5903L47.4574 16.2523L49.7954 14.4903L47.4574 12.7293L45.6964 10.3923L43.9354 12.7293Z" fill="#FF492C"/>
<path fill-rule="evenodd" clip-rule="evenodd" d="M39.4003 6L38.6433 7.004L37.6393 7.761L38.6433 8.518L39.4003 9.523L40.1563 8.518L41.1603 7.761L40.1563 7.004L39.4003 6Z" fill="#062846"/>
<path fill-rule="evenodd" clip-rule="evenodd" d="M5.338 40.0758L3 41.8368L5.338 43.5978L7.098 45.9358L8.86 43.5978L11.198 41.8368L8.86 40.0758L7.098 37.7378L5.338 40.0758Z" fill="#FF492C"/>
<path fill-rule="evenodd" clip-rule="evenodd" d="M29.6797 22.2221H22.5157L18.9337 28.4261H26.0977L28.0897 31.8771L29.6797 34.6301L33.2617 28.4261L29.6797 22.2221Z" fill="#FFE6E0"/>
<path fill-rule="evenodd" clip-rule="evenodd" d="M17.5282 14.1323L16.998 20.1979L11.9232 22.3515L14.7625 27.0767L11.9231 31.8029L16.998 33.9565L17.4781 39.4485L22.85 38.2084L26.4666 42.3688L30.0832 38.2084L36.0162 39.578L35.791 40.5534L30.444 39.319L26.4666 43.8946L22.4892 39.319L16.5811 40.6829L16.0532 34.6429L10.4721 32.2745L13.5947 27.0767L10.472 21.8799L16.0532 19.5115L16.531 14.0451L17.5282 14.1323Z" fill="#062846"/>
<path fill-rule="evenodd" clip-rule="evenodd" d="M25.8087 28.9268H18.9337V27.9258H26.3867L30.1131 34.38L29.2463 34.8806L25.8087 28.9268Z" fill="#062846"/>
</svg>
