<svg width="52" height="52" viewBox="0 0 52 52" fill="none" xmlns="http://www.w3.org/2000/svg">
<path fill-rule="evenodd" clip-rule="evenodd" d="M8 19.349H44.019V5H8V19.349Z" fill="#CBE3FF"/>
<path fill-rule="evenodd" clip-rule="evenodd" d="M8 47.724H44.019V17.693H8V47.724Z" fill="#288DFF"/>
<path fill-rule="evenodd" clip-rule="evenodd" d="M32.839 42.782H38.473V23.407H32.839V42.782Z" fill="#FFC800"/>
<path fill-rule="evenodd" clip-rule="evenodd" d="M23.476 42.782H29.11V30.898H23.476V42.782Z" fill="#FFC800"/>
<path fill-rule="evenodd" clip-rule="evenodd" d="M14.114 42.782H19.748V35.861H14.114V42.782Z" fill="#FFC800"/>
<path fill-rule="evenodd" clip-rule="evenodd" d="M23.6164 13.4958H13.2194V12.4948H23.6164V13.4958Z" fill="#062846"/>
<path fill-rule="evenodd" clip-rule="evenodd" d="M39.0064 9.4462H13.2194V8.4452H39.0064V9.4462Z" fill="#062846"/>
<path fill-rule="evenodd" clip-rule="evenodd" d="M32.7087 42.7823V23.4073H33.7097V42.7823H32.7087Z" fill="#062846"/>
<path fill-rule="evenodd" clip-rule="evenodd" d="M23.3461 42.7823V30.8983H24.3471V42.7823H23.3461Z" fill="#062846"/>
<path fill-rule="evenodd" clip-rule="evenodd" d="M13.9835 42.782V35.861H14.9845V42.782H13.9835Z" fill="#062846"/>
<path fill-rule="evenodd" clip-rule="evenodd" d="M7.737 5.0011H8.737V47.1981H44.019V48.1981H7.737V5.0011Z" fill="#062846"/>
</svg>
