<svg xmlns="http://www.w3.org/2000/svg" width="28" height="28" fill="none"><g clip-path="url(#a)"><path fill="#fff" d="m12.116 20.73-3.5-15.345L22.345 14l-5.115 1.346 5.115 7.27-1.884 1.615-5.654-7.808z"/><path fill="#201f23" fill-rule="evenodd" d="m23.154 14.14-.001.001-1.093 1.68-3.53.857 4.403 6.183h.001l-1.094 1.68-2.466 1.843-5.48-7.695-1.857 2.97L8.095 4.63zm-10.882 6.105 2.663-4.26 5.651 7.937 1.583-1.183-5.425-7.618 5-1.213L8.932 5.814z" clip-rule="evenodd"/><path fill="#201f23" d="m12.037 21.66-1.093 1.68L7.002 6.307l1.093-1.68zM5.256 9.194c.11-.107.283-.101.386.011a.285.285 0 0 1-.01.396l-.888.858a.27.27 0 0 1-.386-.011.285.285 0 0 1 .01-.396zM4.168 6.127c.15-.009.28.109.289.263a.28.28 0 0 1-.257.296l-1.218.073a.276.276 0 0 1-.29-.263.277.277 0 0 1 .257-.296zM14.104 3.49a.27.27 0 0 1 .36.146.283.283 0 0 1-.143.368L13.2 4.5a.27.27 0 0 1-.36-.146.283.283 0 0 1 .143-.368zM3.897 2.373a.27.27 0 0 1 .382-.058l.98.747a.284.284 0 0 1 .055.392.27.27 0 0 1-.382.057l-.98-.746a.285.285 0 0 1-.055-.392M11.213.631a.27.27 0 0 1 .367-.124c.134.069.189.237.121.376l-.547 1.116a.27.27 0 0 1-.367.125.283.283 0 0 1-.122-.375zM7.406.008a.273.273 0 0 1 .33.207l.284 1.227a.28.28 0 0 1-.203.337.273.273 0 0 1-.33-.208L7.204.345a.28.28 0 0 1 .202-.337"/></g><defs><clipPath id="a"><path fill="#fff" d="M0 0h28v28H0z"/></clipPath></defs></svg>