<svg width="52" height="52" viewBox="0 0 52 52" fill="none" xmlns="http://www.w3.org/2000/svg">
<mask id="mask0_2231_34410" style="mask-type:luminance" maskUnits="userSpaceOnUse" x="7" y="4" width="38" height="38">
<path fill-rule="evenodd" clip-rule="evenodd" d="M7.14953 4H44.788V41.6386H7.14953V4Z" fill="white"/>
</mask>
<g mask="url(#mask0_2231_34410)">
<path fill-rule="evenodd" clip-rule="evenodd" d="M13.6074 3.9997C4.9974 12.6097 4.9964 26.5697 13.6074 35.1807C22.2174 43.7917 36.1784 43.7907 44.7884 35.1807L13.6074 3.9997Z" fill="#413585"/>
</g>
<path fill-rule="evenodd" clip-rule="evenodd" d="M14.0219 8.67028C14.7587 7.77257 15.5175 7.01043 16.1505 6.45165L16.8123 7.20135C16.2202 7.72398 15.5032 8.44328 14.8053 9.29207C12.6765 12.2681 11.5284 15.8241 11.5284 19.5595C11.5284 24.2889 13.3687 28.7317 16.713 32.0759C20.0562 35.4192 24.499 37.2595 29.2284 37.2595H29.2294C32.7001 37.2595 36.0168 36.2682 38.8565 34.4194C40.0124 33.5684 41.0185 32.7714 41.5741 32.044L42.3688 32.651C41.7102 33.5132 40.579 34.3934 39.4378 35.2332L39.4264 35.2416L39.4145 35.2493C36.4089 37.2096 32.8979 38.2595 29.2294 38.2595H29.2284C24.2338 38.2595 19.5366 36.3138 16.0059 32.7831C12.4741 29.2513 10.5284 24.5541 10.5284 19.5595C10.5284 15.6105 11.7449 11.8455 14.002 8.69623L14.0115 8.68293L14.0219 8.67028Z" fill="#062846"/>
<path fill-rule="evenodd" clip-rule="evenodd" d="M24.4636 47.941C24.4636 43.119 20.5546 39.209 15.7316 39.209C10.9096 39.209 6.9996 43.119 6.9996 47.941H24.4636Z" fill="#FF492C"/>
<path fill-rule="evenodd" clip-rule="evenodd" d="M29.2915 19.6877L35.5725 13.4067L36.2796 14.1139L29.9986 20.3949L29.2915 19.6877Z" fill="#062846"/>
<path fill-rule="evenodd" clip-rule="evenodd" d="M33.2964 13.7603C33.2964 15.2123 34.4734 16.3903 35.9264 16.3903C37.3784 16.3903 38.5554 15.2123 38.5554 13.7603C38.5554 12.3083 37.3784 11.1303 35.9264 11.1303C34.4734 11.1303 33.2964 12.3083 33.2964 13.7603Z" fill="#FF492C"/>
</svg>
