<svg width="20" height="20" viewBox="0 0 20 20" fill="none" xmlns="http://www.w3.org/2000/svg"><path fill="currentColor" d="M15.5 17V5H16.5C16.9167 4.97222 17.2708 5.10928 17.5625 5.41119C17.8542 5.7131 18 6.07604 18 6.5V15.5C18 15.924 17.8542 16.2869 17.5625 16.5888C17.2708 16.8907 16.9167 17.0278 16.5 17H15.5ZM8.5 5H11.5V3.5H8.5V5ZM6 17V5H7V3.5C7 3.0875 7.14706 2.73438 7.44117 2.44063C7.73528 2.14688 8.08883 2 8.50183 2H11.5055C11.9185 2 12.2708 2.14688 12.5625 2.44063C12.8542 2.73438 13 3.0875 13 3.5V5H14V17H6ZM3.5 17C3.08333 17.0417 2.72917 16.9095 2.4375 16.6035C2.14583 16.2975 2 15.9297 2 15.5V6.5C2 6.08178 2.14583 5.72375 2.4375 5.42592C2.72917 5.12808 3.08333 4.98611 3.5 5H4.5V17H3.5Z"/></svg>