<svg width="52" height="52" viewBox="0 0 52 52" fill="none" xmlns="http://www.w3.org/2000/svg">
<path d="M27.2013 9.61432L21.0301 12.349L26.3091 24.2618L32.4803 21.5271L27.2013 9.61432Z" fill="#288DFF"/>
<path d="M30.9624 36.5749V35.2249H23.9724V39.1149H24.4024V39.7649H28.3724L28.7924 40.0849H28.8024L30.3024 41.2749H33.7124L36.8224 36.6049V36.5749H30.9624Z" fill="#288DFF"/>
<path d="M22.2756 2.31291L18.8566 3.82874L20.4454 7.41233L23.8644 5.89651L22.2756 2.31291Z" fill="#288DFF"/>
<path d="M31.5124 44.6949H25.0324V45.7249H31.5124V44.6949Z" fill="#288DFF"/>
<path d="M38.7924 35.2149H24.0324C23.0624 35.2249 22.6724 35.1549 22.2024 35.0249C22.1324 35.0049 22.0624 34.9849 21.9924 34.9649C20.3824 34.4749 19.1324 33.4049 18.3824 32.0649C17.8224 31.0549 17.5424 29.8949 17.5924 28.7249C17.6024 28.4949 17.6524 28.2649 17.6924 28.0349C17.7224 27.8749 17.7224 27.7049 17.7624 27.5449C17.9424 26.8149 18.2624 26.1549 18.6724 25.5549C18.8924 25.2349 19.1324 24.9249 19.4024 24.6449C19.4224 24.6249 19.4524 24.6049 19.4724 24.5849C19.7824 24.2749 20.1324 24.0049 20.5024 23.7649C20.6924 23.6449 20.8824 23.5349 21.0724 23.4249C21.2424 23.3349 21.4124 23.2449 21.5924 23.1649C21.8124 23.0749 22.0324 22.9849 22.2624 22.9049V22.8449L22.2924 22.5449V17.0549C21.9924 17.1449 21.7124 17.2649 21.4224 17.3749V16.7149C17.5424 17.9149 14.1824 21.3949 13.1124 26.0249C11.7324 32.0149 14.5224 37.8549 19.4324 39.9149L15.1824 48.5749C15.1024 48.7349 15.2224 48.9149 15.3924 48.9149C17.0824 48.8849 23.7324 49.0749 25.1124 49.1149C25.2524 49.1149 25.3624 49.0049 25.3524 48.8649L24.7924 37.9249C24.7624 37.3949 24.5324 36.9149 24.1824 36.5549H38.7524C39.1524 36.5549 39.4824 36.2549 39.4824 35.8749C39.4824 35.4949 39.1524 35.1949 38.7524 35.1949L38.7924 35.2149Z" fill="#1E6ABF"/>
<path d="M23.3224 22.9149C25.2223 22.9149 26.7624 21.3747 26.7624 19.4749C26.7624 17.575 25.2223 16.0349 23.3224 16.0349C21.4226 16.0349 19.8824 17.575 19.8824 19.4749C19.8824 21.3747 21.4226 22.9149 23.3224 22.9149Z" fill="#1E6ABF"/>
<path fill-rule="evenodd" clip-rule="evenodd" d="M22.7347 22.7406C22.8254 23.0014 22.6875 23.2864 22.4267 23.3771C22.2137 23.4512 22.008 23.5351 21.7889 23.6247C21.6321 23.6948 21.4813 23.7742 21.3147 23.8623C21.1274 23.9708 20.9491 24.0742 20.772 24.186C20.4253 24.4111 20.1052 24.6592 19.826 24.9384C19.8071 24.9573 19.7897 24.9725 19.7779 24.9823C19.767 24.9915 19.7564 25 19.7508 25.0045L19.7498 25.0053C19.7494 25.0056 19.749 25.0059 19.7486 25.0062C19.5088 25.2569 19.2905 25.5384 19.0848 25.8376C18.7032 26.3962 18.4113 27.0017 18.2479 27.6646L18.2475 27.6662C18.2367 27.7093 18.2295 27.7613 18.2209 27.8426C18.2199 27.8521 18.2188 27.8622 18.2177 27.8729C18.2107 27.9415 18.2012 28.0337 18.1845 28.1235C18.1748 28.1791 18.1654 28.2309 18.1565 28.28C18.1241 28.4584 18.0984 28.5999 18.092 28.7464C18.046 29.8229 18.3037 30.8913 18.8192 31.8216C19.5081 33.0518 20.6545 34.0339 22.134 34.4853L22.3357 34.543C22.3364 34.5432 22.3371 34.5433 22.3377 34.5435C22.7536 34.6585 23.0962 34.7245 24.0273 34.7149C24.3034 34.7121 24.5296 34.9336 24.5324 35.2097C24.5353 35.4859 24.3137 35.712 24.0376 35.7149C23.0301 35.7252 22.5924 35.6515 22.0691 35.5068C22.0678 35.5064 22.0664 35.506 22.0651 35.5056L21.8551 35.4456C21.8523 35.4449 21.8496 35.4441 21.8469 35.4432C20.1086 34.9142 18.7567 33.7573 17.9461 32.3091L17.9455 32.308L17.9452 32.3073C17.3411 31.2178 17.0389 29.9667 17.0929 28.7035L17.0929 28.7032C17.1026 28.481 17.1444 28.2532 17.1784 28.0678C17.1861 28.0259 17.1934 27.9862 17.1998 27.9492C17.2002 27.9471 17.2006 27.9449 17.201 27.9427C17.2099 27.8954 17.2149 27.847 17.2225 27.7746C17.2238 27.7628 17.2251 27.7503 17.2265 27.7371C17.2353 27.6537 17.2481 27.541 17.2771 27.4245C17.4737 26.6279 17.8216 25.9138 18.2596 25.2728L18.2604 25.2716C18.4907 24.9367 18.7479 24.6034 19.0425 24.2978C19.0446 24.2956 19.0467 24.2935 19.0489 24.2913C19.0678 24.2724 19.0852 24.2573 19.0969 24.2474C19.1078 24.2382 19.1184 24.2298 19.1241 24.2253L19.1251 24.2244C19.1265 24.2233 19.1276 24.2224 19.1286 24.2216C19.4662 23.8857 19.8417 23.5975 20.2303 23.3454C20.232 23.3443 20.2337 23.3432 20.2354 23.3421C20.4336 23.217 20.6306 23.1029 20.8183 22.9943L20.8219 22.9922C20.8274 22.989 20.8329 22.9859 20.8385 22.983L20.8447 22.9797C21.0108 22.8918 21.1936 22.795 21.3894 22.708C21.3939 22.706 21.3985 22.704 21.4031 22.7021L21.4085 22.6999C21.6251 22.6113 21.8555 22.517 22.0982 22.4326C22.359 22.3419 22.644 22.4798 22.7347 22.7406Z" fill="#062846"/>
<path d="M37.8224 50.1449C37.8224 48.7249 36.6724 47.5649 35.2424 47.5649H17.1424C15.7224 47.5649 14.5724 48.7149 14.5724 50.1449V50.8849H37.8224V50.1449Z" fill="#288DFF"/>
<path fill-rule="evenodd" clip-rule="evenodd" d="M29.8024 41.2749C29.8024 40.9987 30.0263 40.7749 30.3024 40.7749H33.7124C33.9886 40.7749 34.2124 40.9987 34.2124 41.2749C34.2124 41.551 33.9886 41.7749 33.7124 41.7749H30.3024C30.0263 41.7749 29.8024 41.551 29.8024 41.2749Z" fill="#062846"/>
<path fill-rule="evenodd" clip-rule="evenodd" d="M28.9751 43.2014C29.1427 42.9819 29.4565 42.9399 29.6759 43.1075L33.3159 45.8875C33.5354 46.0551 33.5774 46.3689 33.4098 46.5884C33.2422 46.8078 32.9284 46.8499 32.709 46.6822L29.069 43.9022C28.8495 43.7346 28.8075 43.4209 28.9751 43.2014Z" fill="#062846"/>
<path fill-rule="evenodd" clip-rule="evenodd" d="M14.0724 50.8849C14.0724 50.6087 14.2963 50.3849 14.5724 50.3849H37.8224C38.0986 50.3849 38.3224 50.6087 38.3224 50.8849C38.3224 51.161 38.0986 51.3849 37.8224 51.3849H14.5724C14.2963 51.3849 14.0724 51.161 14.0724 50.8849Z" fill="#062846"/>
<path fill-rule="evenodd" clip-rule="evenodd" d="M27.6297 8.89273C27.7414 9.1453 27.6272 9.44055 27.3746 9.5522L20.9046 12.4122C20.652 12.5238 20.3568 12.4096 20.2451 12.157C20.1335 11.9045 20.2477 11.6092 20.5003 11.4976L26.9703 8.63757C27.2228 8.52592 27.5181 8.64016 27.6297 8.89273Z" fill="#062846"/>
<path fill-rule="evenodd" clip-rule="evenodd" d="M32.8896 20.8225C33.0014 21.075 32.8873 21.3703 32.6348 21.4821L26.1748 24.3421C25.9223 24.4539 25.627 24.3398 25.5152 24.0873C25.4034 23.8348 25.5175 23.5395 25.77 23.4277L32.23 20.5677C32.4825 20.4559 32.7778 20.57 32.8896 20.8225Z" fill="#062846"/>
<path d="M23.8672 6.08244L20.4482 7.59827L21.9032 10.8802L25.3223 9.36436L23.8672 6.08244Z" fill="#1E6ABF"/>
<path fill-rule="evenodd" clip-rule="evenodd" d="M24.588 6.01252C24.6887 6.26964 24.5619 6.55972 24.3048 6.66043L20.7048 8.07043C20.4476 8.17114 20.1576 8.04434 20.0569 7.78721C19.9562 7.53009 20.083 7.24001 20.3401 7.1393L23.9401 5.7293C24.1972 5.6286 24.4873 5.7554 24.588 6.01252Z" fill="#062846"/>
</svg>
