<svg width="20" height="20" viewBox="0 0 20 20" fill="none" xmlns="http://www.w3.org/2000/svg"><path fill="currentColor" fill-rule="evenodd" clip-rule="evenodd" d="M6.375 11.4583L5.5116 15.1038L5.0625 17L6.73721 16.0037L10 14.0625L13.2628 16.0037L14.9375 17L14.4884 15.1038L13.625 11.4583L16.4986 9.00891L18 7.72917L16.034 7.56534L12.25 7.25L10.7605 3.77458L10 2L9.23691 3.77348L7.75 7.22917L3.95838 7.55887L2 7.72917L3.49604 9.00436L6.375 11.4583ZM5.45441 8.83407L7.28318 10.3929L7.93457 10.9481L7.73731 11.781L7.18631 14.1074L9.28419 12.8593L10 12.4335L10.7158 12.8593L12.8137 14.1074L12.2627 11.781L12.0654 10.9481L12.7168 10.3929L14.5327 8.84508L12.1337 8.64516L11.2948 8.57525L10.9632 7.80149L9.99744 5.54806L9.03601 7.78251L8.70517 8.55139L7.87128 8.6239L5.45441 8.83407Z"/></svg>