<svg width="52" height="52" viewBox="0 0 52 52" fill="none" xmlns="http://www.w3.org/2000/svg">
<path d="M27.5475 25.8561C27.6273 26.854 28.9188 27.9798 29.5753 28.4302C32.1271 30.0369 33.7422 31.9353 34.4669 32.8727C36.9008 36.1572 36.5935 40.3635 36.3984 42.501H16.732C15.9399 38.0931 17.5012 34.5031 18.6118 32.8727C19.7224 31.2424 21.5414 29.6353 23.4316 28.4302C24.8492 27.5265 25.3951 26.4003 25.5163 25.8605L25.5347 25.7607C25.4638 25.2724 24.9439 24.0544 23.4316 23.0903C21.5414 21.8852 19.7224 20.2782 18.6118 18.6478C17.5012 17.0174 15.9398 13.4275 16.732 9.01953H36.3984C36.5935 11.157 36.9008 15.3633 34.4669 18.6478C33.7423 19.5852 32.1272 21.4835 29.5753 23.0903C28.8978 23.5552 27.5432 24.7401 27.5432 25.7607L27.5475 25.8561Z" fill="white"/>
<path d="M24.9092 32.7952C25.7096 31.7512 27.2904 31.7512 28.0908 32.7952L34.5 41.1545H18.5L24.9092 32.7952Z" fill="#201F23"/>
<path fill-rule="evenodd" clip-rule="evenodd" d="M39.5 9.8508H36.9644C37.176 13.6414 36.4109 16.3368 35.2082 18.3561C34.0247 20.3434 32.438 21.637 31.0633 22.6559L30.4886 23.0767C29.7118 23.6432 29.0712 24.1128 28.6177 24.5965C28.1756 25.0681 27.9583 25.5051 27.9583 25.9998C27.9583 26.4945 28.1756 26.9311 28.6177 27.4027C29.0712 27.8864 29.7117 28.356 30.4886 28.9224L31.0633 29.3438C32.438 30.3626 34.0247 31.6559 35.2082 33.643C36.4108 35.6624 37.1759 38.3577 36.9644 42.1484H39.5V46.6203H13.5V42.1484H16.0356C15.824 38.3579 16.5883 35.6624 17.7908 33.643C19.1434 31.3719 21.0234 30.0071 22.5109 28.9224L23.0669 28.514C23.596 28.1203 24.0417 27.7654 24.3819 27.4027C24.8239 26.9311 25.0412 26.4945 25.0413 25.9998C25.0413 25.505 24.8241 25.0682 24.3819 24.5965C24.0416 24.2337 23.5962 23.8789 23.0669 23.4852L22.5109 23.0767C21.0233 21.9921 19.1435 20.6274 17.7908 18.3561C16.5882 16.3368 15.8245 13.6413 16.0361 9.8508H13.5V5.37891H39.5V9.8508ZM17.0376 9.8508C16.8245 13.5061 17.5599 16.0169 18.6517 17.8502C19.8882 19.9265 21.6082 21.1865 23.1023 22.276L23.6593 22.6844C24.2064 23.0911 24.715 23.4944 25.1135 23.9194C25.6562 24.4982 26.0413 25.1654 26.0413 25.9998C26.0413 26.8342 25.6561 27.5015 25.1135 28.0803C24.715 28.5053 24.2063 28.9086 23.6593 29.3152L23.1023 29.7237C21.6082 30.8132 19.8882 32.0732 18.6517 34.1495C17.56 35.9827 16.8245 38.4933 17.0376 42.1484H35.9624C36.1755 38.4932 35.4396 35.9827 34.3479 34.1495C33.2658 32.3326 31.8137 31.1411 30.4666 30.1417L29.8972 29.7237C29.1442 29.1747 28.4173 28.6469 27.886 28.0803C27.3434 27.5015 26.9582 26.8342 26.9582 25.9998C26.9582 25.1655 27.3434 24.4982 27.886 23.9194C28.4172 23.3528 29.1443 22.8249 29.8972 22.276L30.4666 21.858C31.8137 20.8586 33.2658 19.6669 34.3479 17.8502C35.4396 16.0169 36.1755 13.506 35.9624 9.8508H17.0376Z" fill="#201F23"/>
</svg>
