<svg width="52" height="52" viewBox="0 0 52 52" fill="none" xmlns="http://www.w3.org/2000/svg">
<path fill-rule="evenodd" clip-rule="evenodd" d="M26 0.532501C26.2582 0.532501 26.4675 0.741808 26.4675 1V50.509C26.4675 50.7672 26.2582 50.9765 26 50.9765C25.7418 50.9765 25.5325 50.7672 25.5325 50.509V1C25.5325 0.741808 25.7418 0.532501 26 0.532501Z" fill="#062846"/>
<path fill-rule="evenodd" clip-rule="evenodd" d="M17.8588 50.5091C17.8588 50.2509 18.0681 50.0416 18.3263 50.0416H33.6733C33.9315 50.0416 34.1408 50.2509 34.1408 50.5091C34.1408 50.7673 33.9315 50.9766 33.6733 50.9766H18.3263C18.0681 50.9766 17.8588 50.7673 17.8588 50.5091Z" fill="#062846"/>
<path fill-rule="evenodd" clip-rule="evenodd" d="M40.6075 7.9019L44.0715 12.9639L42.1445 15.7799L40.6075 18.0259H47.5355L50.9995 12.9639L47.5355 7.9019H40.6075Z" fill="#FFC800"/>
<path fill-rule="evenodd" clip-rule="evenodd" d="M21.2693 18.0258H44.1303V7.90181H21.2693V18.0258Z" fill="#FFC800"/>
<path fill-rule="evenodd" clip-rule="evenodd" d="M4.4644 21.0257L1.0004 26.0877L4.4644 31.1497H11.3924L7.9284 26.0877L9.8554 23.2717L11.3924 21.0257H4.4644Z" fill="#288DFF"/>
<path fill-rule="evenodd" clip-rule="evenodd" d="M7.8703 31.1498H30.7313V21.0258H7.8703V31.1498Z" fill="#288DFF"/>
<path fill-rule="evenodd" clip-rule="evenodd" d="M0.735983 25.702C0.949061 25.5562 1.24 25.6107 1.38581 25.8238L4.71057 30.6823H30.731C30.9892 30.6823 31.1985 30.8916 31.1985 31.1498C31.1985 31.408 30.9892 31.6173 30.731 31.6173H4.464C4.3097 31.6173 4.16533 31.5412 4.07819 31.4138L0.614188 26.3518C0.468375 26.1387 0.522905 25.8478 0.735983 25.702Z" fill="#062846"/>
<path fill-rule="evenodd" clip-rule="evenodd" d="M51.2636 12.578C51.4767 12.7238 51.5312 13.0147 51.3854 13.2278L47.9214 18.2898C47.8343 18.4172 47.6899 18.4933 47.5356 18.4933H21.2686C21.0104 18.4933 20.8011 18.284 20.8011 18.0258C20.8011 17.7676 21.0104 17.5583 21.2686 17.5583H47.289L50.6138 12.6998C50.7596 12.4867 51.0505 12.4322 51.2636 12.578Z" fill="#062846"/>
</svg>
