<svg width="52" height="52" viewBox="0 0 52 52" fill="none" xmlns="http://www.w3.org/2000/svg">
<path fill-rule="evenodd" clip-rule="evenodd" d="M38.6129 41.6999H17.3439C16.4069 41.6999 15.6479 40.9409 15.6479 40.0039V20.3789C15.6479 19.4419 16.4069 18.6829 17.3439 18.6829H38.6129C39.5499 18.6829 40.3089 19.4419 40.3089 20.3789V40.0039C40.3089 40.9409 39.5499 41.6999 38.6129 41.6999Z" fill="#FFC800"/>
<path fill-rule="evenodd" clip-rule="evenodd" d="M27.9357 5.552C24.0376 5.552 20.8787 8.71181 20.8787 12.609H19.7747C19.7747 8.10218 23.4278 4.448 27.9357 4.448C32.4427 4.448 36.0957 8.10223 36.0957 12.609V18.387H34.9917V12.609C34.9917 8.71176 31.8328 5.552 27.9357 5.552Z" fill="#062846"/>
<path fill-rule="evenodd" clip-rule="evenodd" d="M30.9908 36.4041L29.7968 28.4701C30.2878 27.9951 30.6048 27.3421 30.6048 26.6051C30.6048 25.1541 29.4288 23.9781 27.9788 23.9781C26.5278 23.9781 25.3518 25.1541 25.3518 26.6051C25.3518 27.3421 25.6688 27.9951 26.1598 28.4701L24.9658 36.4041H30.9908Z" fill="white"/>
<path fill-rule="evenodd" clip-rule="evenodd" d="M14.6589 5.95233C14.9631 5.932 15.2262 6.16212 15.2465 6.4663L15.4495 9.5043C15.4698 9.80848 15.2397 10.0715 14.9355 10.0919C14.6313 10.1122 14.3683 9.88209 14.3479 9.5779L14.1449 6.5399C14.1246 6.23572 14.3547 5.97266 14.6589 5.95233Z" fill="#062846"/>
<path fill-rule="evenodd" clip-rule="evenodd" d="M6.87472 10.3637C7.04845 10.1132 7.39237 10.051 7.64289 10.2247L10.0409 11.8877C10.2914 12.0614 10.3537 12.4054 10.1799 12.6559C10.0062 12.9064 9.66227 12.9686 9.41175 12.7949L7.01375 11.1319C6.76324 10.9582 6.70099 10.6142 6.87472 10.3637Z" fill="#062846"/>
<path fill-rule="evenodd" clip-rule="evenodd" d="M9.27976 18.0582C9.36733 18.3503 9.2016 18.658 8.90958 18.7455L6.15858 19.5705C5.86657 19.6581 5.55886 19.4924 5.47129 19.2004C5.38371 18.9084 5.54945 18.6006 5.84146 18.5131L8.59246 17.6881C8.88447 17.6005 9.19219 17.7662 9.27976 18.0582Z" fill="#062846"/>
<path fill-rule="evenodd" clip-rule="evenodd" d="M46.7357 40.552C46.7357 44.101 43.8587 46.979 40.3087 46.979C36.7597 46.979 33.8827 44.101 33.8827 40.552C33.8827 37.003 36.7597 34.125 40.3087 34.125C43.8587 34.125 46.7357 37.003 46.7357 40.552Z" fill="#AB7823"/>
<path fill-rule="evenodd" clip-rule="evenodd" d="M40.309 35.7036C40.6139 35.7036 40.861 35.9508 40.861 36.2556V40.1686L43.4963 41.1535C43.7818 41.2603 43.9268 41.5783 43.8201 41.8639C43.7134 42.1494 43.3953 42.2944 43.1098 42.1877L40.1158 41.0687C39.9 40.988 39.757 40.7819 39.757 40.5516V36.2556C39.757 35.9508 40.0042 35.7036 40.309 35.7036Z" fill="#062846"/>
</svg>
