<svg width="20" height="20" viewBox="0 0 20 20" fill="none" xmlns="http://www.w3.org/2000/svg"><path fill="currentColor" d="M15.5 9.97919C15.5 8.4653 14.9618 7.17016 13.8854 6.09377C12.809 5.01738 11.5139 4.47919 9.99998 4.47919V2.97919C10.9722 2.97919 11.8819 3.16321 12.7292 3.53127C13.5764 3.89933 14.316 4.39933 14.9479 5.03127C15.5798 5.66321 16.0798 6.4028 16.4479 7.25002C16.816 8.09724 17 9.00696 17 9.97919H15.5ZM12.5 9.97919C12.5 9.28474 12.2569 8.69447 11.7708 8.20835C11.2847 7.72224 10.6944 7.47919 9.99998 7.47919V5.97919C11.1111 5.97919 12.0555 6.36808 12.8333 7.14585C13.6111 7.92363 14 8.86808 14 9.97919H12.5ZM15.8958 16.9792C14.2153 16.8542 12.6215 16.441 11.1146 15.7396C9.60762 15.0382 8.25693 14.0903 7.06248 12.8959C5.86804 11.7014 4.9236 10.3507 4.22915 8.84377C3.53471 7.33683 3.12498 5.74308 2.99998 4.06252C2.97221 3.77085 3.05901 3.51738 3.2604 3.3021C3.46179 3.08683 3.70832 2.97919 3.99998 2.97919H6.83332C7.06943 2.97919 7.27429 3.0521 7.4479 3.19794C7.62151 3.34377 7.7361 3.5278 7.79165 3.75002L8.29165 5.97919C8.31943 6.15974 8.30901 6.33335 8.2604 6.50002C8.21179 6.66669 8.13193 6.80558 8.02082 6.91669L5.99998 8.95835C6.27776 9.48613 6.59721 9.99308 6.95832 10.4792C7.31943 10.9653 7.72221 11.4236 8.16665 11.8542C8.58332 12.2709 9.02776 12.6563 9.49998 13.0104C9.97221 13.3646 10.4722 13.6806 11 13.9584L13.0625 11.9584C13.1736 11.8472 13.3125 11.7674 13.4792 11.7188C13.6458 11.6702 13.8194 11.6597 14 11.6875L16.2292 12.1667C16.4653 12.2361 16.6528 12.3577 16.7917 12.5313C16.9305 12.7049 17 12.9097 17 13.1459V15.9792C17 16.2709 16.8889 16.5174 16.6667 16.7188C16.4444 16.9202 16.1875 17.007 15.8958 16.9792Z"/></svg>