<svg width="52" height="52" viewBox="0 0 52 52" fill="none" xmlns="http://www.w3.org/2000/svg">
<path fill-rule="evenodd" clip-rule="evenodd" d="M37.1685 27.1557C37.1685 29.5647 36.2515 31.9737 34.4075 33.8077L34.3975 33.8177L21.0835 47.1317L7.7695 33.8177L7.7585 33.8077C4.0805 30.1297 4.0805 24.1707 7.7585 20.4937C9.6025 18.6597 12.0115 17.7437 14.4205 17.7437C16.8305 17.7437 19.2385 18.6597 21.0725 20.4937L21.0835 20.5037L21.0935 20.4937C24.7715 16.8267 30.7305 16.8267 34.4075 20.4937C36.2515 22.3377 37.1685 24.7467 37.1685 27.1557Z" fill="#FF492C"/>
<path fill-rule="evenodd" clip-rule="evenodd" d="M47.4733 9.134C47.4733 10.192 47.0703 11.25 46.2613 12.055L46.2563 12.06L40.4093 17.907L34.5623 12.06L34.5573 12.055C32.9423 10.44 32.9423 7.823 34.5573 6.208C35.3673 5.403 36.4253 5 37.4833 5C38.5413 5 39.5993 5.403 40.4043 6.208L40.4093 6.213L40.4143 6.208C42.0293 4.598 44.6453 4.598 46.2613 6.208C47.0703 7.018 47.4733 8.076 47.4733 9.134Z" fill="#FFAD99"/>
<path fill-rule="evenodd" clip-rule="evenodd" d="M14.4205 18.2112C12.1303 18.2112 9.84153 19.0816 8.08864 20.8247C4.59628 24.3165 4.59375 29.9734 8.0813 33.4693L8.08398 33.4718C8.08947 33.4768 8.09483 33.4819 8.10007 33.4871L21.0835 46.4706L34.0769 33.4771L34.0778 33.4762C35.8296 31.734 36.701 29.446 36.701 27.1557C36.701 26.8975 36.9103 26.6882 37.1685 26.6882C37.4267 26.6882 37.636 26.8975 37.636 27.1557C37.636 29.6832 36.6735 32.2131 34.7375 34.1388C34.7374 34.1389 34.7376 34.1387 34.7375 34.1388L21.4141 47.4623C21.3264 47.5499 21.2075 47.5992 21.0835 47.5992C20.9595 47.5992 20.8406 47.5499 20.7529 47.4623L7.44679 34.1561L7.44402 34.1536C7.43854 34.1486 7.43317 34.1435 7.42793 34.1383C3.56738 30.2777 3.56732 24.0227 7.42797 20.1631L7.42883 20.1622C9.36387 18.2377 11.8929 17.2762 14.4205 17.2762C16.9165 17.2762 19.4127 18.2131 21.3287 20.0896C21.3628 20.1094 21.3949 20.1339 21.4241 20.1631C21.6066 20.3457 21.6066 20.6417 21.4241 20.8243L21.4141 20.8343C21.2376 21.0107 20.9537 21.0175 20.769 20.8496L20.758 20.8396C20.7525 20.8346 20.7472 20.8295 20.7419 20.8243C18.9995 19.0818 16.7121 18.2112 14.4205 18.2112Z" fill="#062846"/>
<path fill-rule="evenodd" clip-rule="evenodd" d="M12.1687 24.3714C12.9407 23.6041 13.9475 23.2208 14.9566 23.2208C15.2148 23.2208 15.4241 23.0115 15.4241 22.7533C15.4241 22.4951 15.2148 22.2858 14.9566 22.2858C13.7099 22.2858 12.4629 22.7603 11.509 23.7088L11.508 23.7097C9.60446 25.6133 9.60446 28.6973 11.508 30.6009L11.513 30.6059C11.6956 30.7884 11.9916 30.7884 12.1742 30.6059C12.3568 30.4233 12.3567 30.1273 12.1742 29.9447L12.1692 29.9397C10.6309 28.4015 10.6307 25.9098 12.1687 24.3714Z" fill="#062846"/>
<path fill-rule="evenodd" clip-rule="evenodd" d="M34.8874 6.5391C33.4554 7.97157 33.4556 10.2922 34.8879 11.7244L40.4093 17.2459L45.9307 11.7244L45.9315 11.7236C46.6484 11.0103 47.0058 10.0733 47.0058 9.134C47.0058 8.87581 47.2151 8.6665 47.4733 8.6665C47.7315 8.6665 47.9408 8.87581 47.9408 9.134C47.9408 10.3105 47.4923 11.4894 46.5914 12.386C46.5913 12.3861 46.5916 12.3859 46.5914 12.386L40.7399 18.2376C40.5573 18.4201 40.2613 18.4201 40.0787 18.2376L34.2267 12.3856C32.4292 10.588 32.4292 7.675 34.2267 5.87743L34.2278 5.87641C35.1286 4.98111 36.3065 4.5325 37.4833 4.5325C38.6357 4.5325 39.79 4.96273 40.6793 5.82273C40.7023 5.83865 40.7243 5.85688 40.7449 5.87743C40.9274 6.06 40.9274 6.356 40.7449 6.53857L40.7399 6.54357C40.5573 6.72614 40.2613 6.72614 40.0787 6.54357L40.0737 6.53857C39.3602 5.82503 38.4228 5.4675 37.4833 5.4675C36.5443 5.4675 35.6064 5.82472 34.8874 6.5391Z" fill="#062846"/>
</svg>
