<svg xmlns="http://www.w3.org/2000/svg" width="46" height="45" fill="none"><path fill-rule="evenodd" clip-rule="evenodd" d="M6.89 42.08H30.2c.84 0 1.52-.68 1.52-1.52V19c0-.83-.68-1.5-1.52-1.5H6.9c-.84 0-1.52.67-1.52 1.5v21.57c0 .84.68 1.52 1.52 1.52" fill="#FFC800"/><path fill="currentColor" d="M10.46 17.16V11a8.13 8.13 0 1116.27 0" stroke="#062846" stroke-width=".99"/><path fill-rule="evenodd" clip-rule="evenodd" d="M15.33 36.42l1.28-8.48c-.53-.5-.87-1.2-.87-2a2.8 2.8 0 015.62 0c0 .8-.34 1.5-.87 2l1.28 8.48h-6.44z" fill="#fff"/><path fill="currentColor" d="M32.53 7.71l.21-3.25M38.05 10.7l2.57-1.77M39.1 16.98l2.94.88" stroke="#062846" stroke-width=".99" stroke-linecap="round" stroke-linejoin="round"/><path fill="currentColor" d="M18.55 23.14a2.8 2.8 0 012.8 2.8c0 .8-.33 1.5-.86 2l1.28 8.48h-6.44" stroke="#062846" stroke-width=".99"/></svg>