<svg width="52" height="52" viewBox="0 0 52 52" fill="none" xmlns="http://www.w3.org/2000/svg">
<path fill-rule="evenodd" clip-rule="evenodd" d="M11.412 35.818C10.593 35.596 9.83601 34.776 9.24601 33.133C7.86701 29.297 8.87301 25.751 6.00601 12.772C12.665 12.772 19.295 11.583 25.944 11.583C31.157 11.583 36.371 12.772 41.593 12.772L41.569 22.917C41.526 24.252 41.458 25.608 41.373 26.931C40.979 33.041 40.376 35.91 39.702 39.538C38.886 44.234 35.433 45.435 31.117 43.488C29.994 42.981 29.087 42.619 27.964 42.112C27.836 42.401 25.743 47.928 25.022 49.127C23.545 51.634 8.60301 46.572 8.86201 41.559C10.942 37.117 9.33201 40.259 11.412 35.818" fill="#288DFF"/>
<path fill-rule="evenodd" clip-rule="evenodd" d="M44.3121 32.2788H40.8391L41.0961 21.2358L45.5681 30.5918C45.9401 31.3948 45.2821 32.2788 44.3121 32.2788Z" fill="#288DFF"/>
<path fill-rule="evenodd" clip-rule="evenodd" d="M18.9887 24.9361C21.4757 25.0071 24.6347 23.9621 24.6347 20.5211L24.6667 15.3411C31.2767 15.3411 38.0947 15.0981 41.5927 12.7721L6.00571 12.7701C6.00571 12.7701 6.04171 21.3661 6.04171 25.9411C6.04171 32.6831 11.3527 36.0131 11.3527 36.0131L14.5317 31.5672L18.9887 24.9361Z" fill="#144780"/>
<path fill-rule="evenodd" clip-rule="evenodd" d="M19.2124 29.4136C16.1334 29.4136 13.6384 26.9176 13.6384 23.8396C13.6384 20.7606 16.1334 18.2646 19.2124 18.2646V29.4136Z" fill="#288DFF"/>
<path fill-rule="evenodd" clip-rule="evenodd" d="M41.5929 12.7719C41.5929 14.4409 33.6249 15.7949 23.7969 15.7949C13.9679 15.7949 5.99991 14.4409 5.99991 12.7719C5.99991 11.1029 13.9679 9.74895 23.7969 9.74895C33.6249 9.74895 41.5929 11.1029 41.5929 12.7719Z" fill="#288DFF"/>
<path fill-rule="evenodd" clip-rule="evenodd" d="M38.2395 12.227C38.2395 13.316 31.7735 14.078 23.7965 14.078C15.8195 14.078 9.3535 13.316 9.3535 12.227C9.3535 11.832 8.8245 9.97704 9.5805 8.59404C10.0335 7.76404 11.3515 7.56304 12.3995 6.66704C13.3415 5.86204 14.3045 4.58704 16.0045 4.06204C17.9495 3.46104 16.5095 4.20504 19.7405 4.20504C21.6905 4.20504 22.4995 1.99204 27.6735 4.20504C29.2055 4.41904 30.0205 3.80604 31.2435 4.16904C32.8705 4.65204 33.6395 5.71504 34.5985 6.45304C35.7185 7.31504 36.8705 7.49904 37.4175 8.34404C38.3815 9.83304 38.2395 11.838 38.2395 12.227Z" fill="#FFC800"/>
<path fill-rule="evenodd" clip-rule="evenodd" d="M34.2976 32.7256C34.5737 32.7256 34.7976 32.9495 34.7976 33.2256C34.7976 35.2934 36.4807 36.9756 38.5476 36.9756H38.5589L39.5779 36.9988C39.8539 37.005 40.0727 37.2339 40.0665 37.5099C40.0602 37.786 39.8314 38.0047 39.5553 37.9985L38.5418 37.9756C35.9254 37.9725 33.7976 35.8439 33.7976 33.2256C33.7976 32.9495 34.0214 32.7256 34.2976 32.7256Z" fill="#062846"/>
<path fill-rule="evenodd" clip-rule="evenodd" d="M39.4085 28.2963C39.6661 28.3958 39.7942 28.6853 39.6947 28.9429L38.9667 30.8269C38.7074 31.4973 39.2017 32.2186 39.9203 32.2186H40.3283C40.6044 32.2186 40.8283 32.4425 40.8283 32.7186C40.8283 32.9948 40.6044 33.2186 40.3283 33.2186H39.9203C38.499 33.2186 37.5213 31.7919 38.0339 30.4664C38.0339 30.4664 38.0339 30.4665 38.0339 30.4664L38.7619 28.5824C38.8614 28.3248 39.1509 28.1967 39.4085 28.2963Z" fill="#062846"/>
<path fill-rule="evenodd" clip-rule="evenodd" d="M27.8665 3.80024L28.4093 3.66452C31.0584 3.00119 33.8213 4.14098 35.2362 6.45704L35.8021 6.60983C38.2693 7.27679 39.5181 10.027 38.3939 12.3234C38.2724 12.5714 37.973 12.674 37.7249 12.5526C37.4769 12.4312 37.3743 12.1317 37.4957 11.8837C38.3434 10.1522 37.4022 8.07838 35.5415 7.57526C35.5414 7.57525 35.5415 7.57528 35.5415 7.57526L34.7785 7.36926L34.9088 6.88655L34.4735 7.13261C33.3163 5.08549 30.9341 4.06319 28.6522 4.63457L27.8761 4.82862L27.7548 4.34355L27.4442 4.73542C26.1853 3.73775 24.6374 3.41911 23.2241 3.51673C21.7935 3.61556 20.5866 4.13374 20.009 4.70045L19.7491 4.95542L19.4266 4.78639C18.0184 4.04814 16.5333 4.12373 15.3252 4.63853C14.0992 5.16094 13.2256 6.10371 12.9841 7.01553L12.9102 7.29482L11.8693 7.57622C10.0087 8.07832 9.06715 10.153 9.91482 11.8836L9.01676 12.3235C7.89246 10.0281 9.14098 7.27687 11.6083 6.61087C11.6084 6.61085 11.6082 6.61089 11.6083 6.61087L12.1062 6.47628C12.5294 5.30656 13.6107 4.28208 14.9332 3.71856C16.2917 3.1397 17.965 3.01866 19.5794 3.74871C20.4141 3.08785 21.7361 2.61714 23.1552 2.51911C24.6864 2.41334 26.4097 2.73492 27.8665 3.80024Z" fill="#062846"/>
<path fill-rule="evenodd" clip-rule="evenodd" d="M19.8409 10.5196L19.8509 10.502C19.8607 10.485 19.8769 10.4578 19.8997 10.4221C19.9454 10.3507 20.0173 10.2464 20.1167 10.1241C20.3164 9.87862 20.6224 9.567 21.0459 9.30255C21.8702 8.78781 23.2048 8.40922 25.2174 9.19148C25.4748 9.29152 25.7646 9.16397 25.8646 8.90659C25.9647 8.6492 25.8371 8.35945 25.5797 8.25941C23.2803 7.36568 21.6144 7.76858 20.5163 8.45434C19.9785 8.79014 19.5928 9.18353 19.341 9.49301C19.2148 9.64819 19.121 9.78378 19.0575 9.88295C19.0257 9.9326 19.0014 9.9733 18.9843 10.003C18.9757 10.0178 18.969 10.03 18.964 10.0391L18.9578 10.0505L18.9557 10.0545L18.9549 10.056C18.9547 10.0563 18.9542 10.0573 19.3976 10.2884L18.9542 10.0573C18.8266 10.3021 18.9216 10.6041 19.1664 10.7318C19.4111 10.8594 19.7131 10.7641 19.8409 10.5196Z" fill="#062846"/>
<path fill-rule="evenodd" clip-rule="evenodd" d="M28.1153 6.72237C28.2152 6.97981 28.0875 7.26948 27.8301 7.36938C26.7063 7.80545 26.2728 8.61113 26.1065 9.32786C26.0217 9.69333 26.008 10.0348 26.0162 10.2862C26.0203 10.4112 26.0297 10.5116 26.0377 10.5788C26.0418 10.6124 26.0454 10.6375 26.0478 10.653L26.0504 10.6689C26.0505 10.6691 26.0506 10.6698 26.0506 10.6699M26.0506 10.6699C26.1015 10.9411 25.9231 11.2024 25.6519 11.2536C25.3806 11.3048 25.1191 11.1263 25.0679 10.855L25.5592 10.7622C25.0679 10.855 25.0679 10.8552 25.0679 10.855L25.0677 10.8539L25.0674 10.8526L25.0668 10.8492L25.065 10.8392C25.0637 10.8312 25.0619 10.8205 25.0598 10.8072C25.0556 10.7806 25.0503 10.7437 25.0448 10.6976C25.0338 10.6056 25.0219 10.4762 25.0167 10.3189C25.0065 10.006 25.0229 9.57379 25.1324 9.10188C25.3546 8.14386 25.9661 7.02005 27.4683 6.43711C27.7257 6.33721 28.0154 6.46493 28.1153 6.72237" fill="#062846"/>
<path fill-rule="evenodd" clip-rule="evenodd" d="M12.3361 9.50348C12.3638 9.22872 12.6089 9.02841 12.8837 9.05606L12.8336 9.55355C12.8837 9.05606 12.8834 9.05603 12.8837 9.05606L12.8847 9.05617L12.8862 9.05632L12.8899 9.05672L12.9011 9.05797C12.9101 9.05903 12.9224 9.06052 12.9376 9.06255C12.9681 9.0666 13.0107 9.07277 13.0636 9.08174C13.1694 9.09965 13.3175 9.12885 13.4946 9.17486C13.8472 9.26646 14.3237 9.42694 14.8133 9.70382C15.8052 10.2648 16.8515 11.3096 17.0069 13.1699C17.0298 13.4451 16.8254 13.6868 16.5502 13.7098C16.275 13.7328 16.0333 13.5284 16.0103 13.2532C15.8887 11.7975 15.0974 11.0133 14.3211 10.5743C13.9266 10.3512 13.5363 10.2189 13.2431 10.1427C13.0974 10.1049 12.9778 10.0814 12.8966 10.0677C12.8561 10.0608 12.8254 10.0564 12.806 10.0538L12.7856 10.0513L12.7822 10.0509C12.782 10.0509 12.782 10.0509 12.7822 10.0509C12.5077 10.023 12.3085 9.77809 12.3361 9.50348Z" fill="#062846"/>
<path fill-rule="evenodd" clip-rule="evenodd" d="M30.2874 10.8361C30.1868 7.94314 32.7337 6.00546 35.271 6.48546C35.5424 6.53679 35.7207 6.79836 35.6694 7.06969C35.618 7.34102 35.3565 7.51936 35.0851 7.46803C33.1505 7.10204 31.2094 8.57635 31.2868 10.8014C31.2964 11.0773 31.0804 11.3088 30.8045 11.3184C30.5285 11.328 30.297 11.1121 30.2874 10.8361Z" fill="#062846"/>
<path fill-rule="evenodd" clip-rule="evenodd" d="M35.944 22.5243C35.944 23.0523 36.372 23.4803 36.9 23.4803C37.428 23.4803 37.856 23.0523 37.856 22.5243C37.856 21.9963 37.428 21.5683 36.9 21.5683C36.372 21.5683 35.944 21.9963 35.944 22.5243Z" fill="#062846"/>
<path fill-rule="evenodd" clip-rule="evenodd" d="M19.2086 32.6648C19.4847 32.661 19.7116 32.8817 19.7154 33.1578L19.7544 35.9848C19.777 37.8667 20.979 38.9053 22.5655 39.6257C22.5661 39.626 22.5666 39.6262 22.5671 39.6264L27.5909 41.864C27.8432 41.9764 27.9566 42.2719 27.8442 42.5242C27.7319 42.7764 27.4363 42.8898 27.1841 42.7775L22.1538 40.5371C20.4233 39.7516 18.7842 38.4554 18.7545 35.9982C18.7545 35.998 18.7545 35.9984 18.7545 35.9982L18.7155 33.1716C18.7117 32.8955 18.9325 32.6686 19.2086 32.6648Z" fill="#062846"/>
<path fill-rule="evenodd" clip-rule="evenodd" d="M32.8135 17.7399C33.4069 17.0366 34.3968 16.3373 35.9354 16.3373C37.4735 16.3373 38.4632 17.0366 39.0565 17.74C39.349 18.0868 39.5439 18.4321 39.6662 18.6911C39.7276 18.821 39.7713 18.9308 39.8004 19.0102C39.815 19.0499 39.8259 19.0823 39.8335 19.1059C39.8374 19.1177 39.8404 19.1273 39.8426 19.1347L39.8454 19.1439L39.8464 19.1472L39.8467 19.1485C39.8468 19.1488 39.847 19.1496 39.3664 19.2873L39.847 19.1496C39.9231 19.4151 39.7696 19.6919 39.5041 19.768C39.2389 19.844 38.9624 19.6909 38.886 19.4259L38.8821 19.4138C38.8782 19.4015 38.8713 19.3812 38.8614 19.354C38.8414 19.2994 38.809 19.2177 38.7619 19.118C38.6673 18.9176 38.5162 18.6504 38.2921 18.3847C37.8521 17.8631 37.1262 17.3373 35.9354 17.3373C34.744 17.3373 34.0179 17.8631 33.5778 18.3848C33.3537 18.6504 33.2025 18.9176 33.1079 19.118C33.0608 19.2178 33.0284 19.2994 33.0084 19.354C32.9984 19.3812 32.9916 19.4015 32.9876 19.4138L32.9838 19.426C32.9076 19.6911 32.631 19.844 32.3657 19.768C32.1002 19.6919 31.9467 19.4151 32.0227 19.1496L32.5034 19.2873C32.0227 19.1496 32.0227 19.1499 32.0227 19.1496L32.023 19.1485L32.0234 19.1472L32.0244 19.1439L32.0272 19.1347C32.0294 19.1273 32.0324 19.1177 32.0362 19.1059C32.0439 19.0822 32.0548 19.0499 32.0694 19.0102C32.0984 18.9307 32.1422 18.821 32.2036 18.691C32.3259 18.4321 32.5209 18.0868 32.8135 17.7399Z" fill="#062846"/>
<path fill-rule="evenodd" clip-rule="evenodd" d="M13.6384 23.3396C13.9145 23.3396 14.1384 23.5635 14.1384 23.8396C14.1384 26.6416 16.4096 28.9136 19.2124 28.9136C19.4885 28.9136 19.7124 29.1375 19.7124 29.4136C19.7124 29.6898 19.4885 29.9136 19.2124 29.9136C15.8572 29.9136 13.1384 27.1937 13.1384 23.8396C13.1384 23.5635 13.3623 23.3396 13.6384 23.3396Z" fill="#062846"/>
</svg>
