<svg width="52" height="52" viewBox="0 0 52 52" fill="none" xmlns="http://www.w3.org/2000/svg">
<g clip-path="url(#clip0_5218_1820)">
<path d="M22.0326 23.4158C20.4699 19.1943 16.4111 16.1821 11.6452 16.1821C5.52167 16.1821 0.557777 21.146 0.557777 27.2695C0.557777 33.393 5.52167 38.3569 11.6452 38.3569C16.4111 38.3569 20.4699 35.3447 22.0326 31.1232H49.6805V23.4158L46.9228 23.4158L46.9228 16.9952H38.791L38.791 23.4158L22.0185 23.4158H22.0326Z" fill="#FFC800"/>
<path d="M12.2251 30.2534C13.8731 28.6054 13.8731 25.9334 12.2251 24.2854C10.5771 22.6374 7.90514 22.6374 6.25712 24.2854C4.60911 25.9334 4.60911 28.6054 6.25712 30.2534C7.90514 31.9014 10.5771 31.9014 12.2251 30.2534Z" fill="#E0A000"/>
<path fill-rule="evenodd" clip-rule="evenodd" d="M11.6453 15.682C16.6274 15.682 20.8687 18.8312 22.5016 23.2421L21.5638 23.5893C20.0712 19.5573 16.1949 16.682 11.6453 16.682V15.682Z" fill="#062846"/>
<path fill-rule="evenodd" clip-rule="evenodd" d="M38.8057 16.4952L46.9303 16.5023C47.063 16.5024 47.1901 16.5552 47.2838 16.6491C47.3775 16.743 47.4301 16.8702 47.4299 17.0028L47.4228 23.4163L46.4228 23.4152L46.4294 17.5018L38.8048 17.4952L38.8057 16.4952Z" fill="#062846"/>
<path fill-rule="evenodd" clip-rule="evenodd" d="M11.6452 38.857C5.24549 38.857 0.0577393 33.6692 0.0577393 27.2695L1.05774 27.2695C1.05774 33.1169 5.79777 37.857 11.6452 37.857C16.1948 37.857 20.0711 34.9817 21.5637 30.9497C21.6363 30.7535 21.8234 30.6233 22.0326 30.6233L49.1804 30.6233V23.4158H50.1804V31.1233C50.1804 31.3994 49.9566 31.6233 49.6804 31.6233L22.375 31.6233C20.6574 35.8623 16.5036 38.857 11.6452 38.857Z" fill="#062846"/>
<path fill-rule="evenodd" clip-rule="evenodd" d="M5.51255 27.2695C5.51255 29.3268 7.17667 30.9909 9.23398 30.9909C11.2913 30.9909 12.9554 29.3268 12.9554 27.2695C12.9554 25.2122 11.2913 23.5481 9.23398 23.5481V22.5481C11.8436 22.5481 13.9554 24.6599 13.9554 27.2695C13.9554 29.8791 11.8436 31.9909 9.23398 31.9909C6.62439 31.9909 4.51255 29.8791 4.51255 27.2695H5.51255Z" fill="#062846"/>
<path fill-rule="evenodd" clip-rule="evenodd" d="M42.364 23.4158V16.9952L43.364 16.9952V23.4158H42.364Z" fill="#062846"/>
</g>
<defs>
<clipPath id="clip0_5218_1820">
<rect width="52" height="52" fill="white"/>
</clipPath>
</defs>
</svg>
