<svg width="52" height="52" viewBox="0 0 52 52" fill="none" xmlns="http://www.w3.org/2000/svg">
<path fill-rule="evenodd" clip-rule="evenodd" d="M42.2683 30.127C42.0663 31.209 41.0233 31.93 39.9373 31.742L39.7703 31.719C40.7373 32.009 41.3493 32.984 41.1623 33.987C40.9653 35.078 39.9313 35.794 38.8403 35.598L37.1603 35.298C38.2513 35.495 38.9713 36.538 38.7703 37.62C38.5823 38.706 37.5393 39.427 36.4483 39.23L34.5963 38.898C35.6733 39.091 36.4023 40.129 36.2063 41.22C36.0043 42.302 34.9663 43.032 33.8843 42.83L33.3553 42.729L13.2903 38.81L11.7843 38.86L10.9143 24.966L14.3093 24.731L18.6113 22.172L19.4323 23.836L32.5933 26.401C32.7303 26.394 32.8783 26.405 33.0223 26.43L40.6493 27.81C41.7353 27.998 42.4563 29.041 42.2683 30.127" fill="#E29873"/>
<path fill-rule="evenodd" clip-rule="evenodd" d="M23.1518 24.5604C23.1518 24.5604 21.4248 26.4054 22.3968 27.8384C23.3688 29.2704 23.5228 31.4344 22.7488 32.6224C21.9748 33.8114 20.8988 33.9924 19.9158 32.3514C19.2388 31.2224 18.1218 29.2254 17.4918 28.0904C17.1788 27.5264 17.0818 26.8774 17.2198 26.2484C17.5668 24.6644 18.3638 21.5614 19.5988 19.7764C21.3088 17.3074 26.7748 16.5164 28.7128 15.3654C30.6498 14.2144 32.0678 12.5534 32.0678 12.5534L42.2068 21.6554C42.2068 21.6554 42.1418 24.6204 40.3668 27.7524L23.1518 24.5604Z" fill="#FFCEC2"/>
<path fill-rule="evenodd" clip-rule="evenodd" d="M11.9667 40.59L3.86369 40.995L2.99969 23.736L11.1037 23.33L11.9667 40.59Z" fill="#288DFF"/>
<path fill-rule="evenodd" clip-rule="evenodd" d="M40.1592 27.7147C40.2083 27.4429 40.4683 27.2624 40.7401 27.3114C42.098 27.5565 43.0005 28.8568 42.7543 30.2157C42.509 31.5736 41.2087 32.4745 39.8515 32.2295L39.8514 32.2295L39.8513 32.2295L32.2213 30.8495C31.9496 30.8004 31.7691 30.5402 31.8183 30.2685C31.8674 29.9968 32.1275 29.8163 32.3993 29.8655L40.0291 31.2454C40.0292 31.2455 40.0292 31.2455 40.0293 31.2455C40.8438 31.3924 41.6234 30.8515 41.7702 30.0377L41.7703 30.0373C41.918 29.2222 41.3766 28.4425 40.5625 28.2955C40.2907 28.2465 40.1102 27.9864 40.1592 27.7147Z" fill="#062846"/>
<path fill-rule="evenodd" clip-rule="evenodd" d="M31.4329 30.1993C31.482 29.9275 31.7421 29.747 32.0138 29.7962L39.6431 31.1752C41.0016 31.4214 41.903 32.7214 41.6579 34.079L41.1659 33.9902L41.6579 34.0794C41.4117 35.4365 40.1121 36.3394 38.7539 36.0932C38.7538 36.0932 38.7537 36.0932 38.7536 36.0932L31.1249 34.7142C30.8532 34.6651 30.6727 34.405 30.7219 34.1333C30.771 33.8615 31.0311 33.681 31.3028 33.7302L38.9318 35.1092L38.9321 35.1092C39.7458 35.2568 40.526 34.7159 40.6739 33.9012C40.8207 33.0869 40.2801 32.307 39.4647 32.1592L31.8359 30.7802C31.5642 30.7311 31.3837 30.471 31.4329 30.1993Z" fill="#062846"/>
<path fill-rule="evenodd" clip-rule="evenodd" d="M29.9976 34.0021C30.0467 33.7304 30.3068 33.5499 30.5786 33.5991L37.2534 34.806C37.2534 34.8061 37.2535 34.8061 37.2536 34.8061C38.6116 35.0513 39.5126 36.3515 39.2677 37.7088C39.0226 39.0679 37.7223 39.9691 36.3648 39.7241L36.3646 39.7241L34.5035 39.3871C34.2318 39.3379 34.0514 39.0777 34.1006 38.806C34.1498 38.5343 34.41 38.3539 34.6817 38.4031L36.5424 38.74C36.5424 38.7401 36.5425 38.7401 36.5425 38.7401C36.5426 38.7401 36.5426 38.7401 36.5427 38.7401C37.3571 38.8869 38.1366 38.3462 38.2835 37.5314L38.7753 37.62L38.2835 37.5313C38.4306 36.7167 37.8897 35.937 37.0758 35.7901L37.0756 35.7901L30.4006 34.5831C30.1289 34.534 29.9484 34.2739 29.9976 34.0021Z" fill="#062846"/>
<path fill-rule="evenodd" clip-rule="evenodd" d="M30.364 38.1307C30.4131 37.859 30.6733 37.6785 30.945 37.7277L34.6818 38.4036C34.6818 38.4036 34.6819 38.4037 34.6819 38.4037C34.6819 38.4037 34.682 38.4037 34.682 38.4037C36.0395 38.6488 36.9422 39.9488 36.696 41.3068C36.696 41.3068 36.696 41.3069 36.696 41.3069C36.4507 42.6644 35.1507 43.567 33.7927 43.3207L33.7844 43.3192L30.9952 42.7154C30.7253 42.657 30.5539 42.3908 30.6123 42.1209C30.6707 41.851 30.9369 41.6796 31.2068 41.738L33.979 42.3381C34.79 42.4809 35.5654 41.9406 35.7119 41.1289L36.204 41.2177L35.712 41.1284C35.8597 40.3146 35.3185 39.5347 34.5042 39.3877L30.767 38.7117C30.4953 38.6626 30.3148 38.4024 30.364 38.1307Z" fill="#062846"/>
<path fill-rule="evenodd" clip-rule="evenodd" d="M29.0265 44.7391L28.0955 44.4811C27.2885 44.2581 26.8155 43.4231 27.0395 42.6161L27.5575 40.7451C27.7805 39.9381 28.6155 39.4651 29.4225 39.6881L30.3535 39.9461C31.1605 40.1691 31.6335 41.0041 31.4095 41.8111L30.8915 43.6821C30.6685 44.4891 29.8335 44.9621 29.0265 44.7391" fill="#FFCEC2"/>
<path fill-rule="evenodd" clip-rule="evenodd" d="M24.9224 45.2044L23.9914 44.9464C23.1844 44.7234 22.7114 43.8884 22.9354 43.0814L24.1034 38.8604C24.3264 38.0534 25.1624 37.5804 25.9684 37.8044L26.8994 38.0614C27.7064 38.2854 28.1794 39.1204 27.9564 39.9274L26.7874 44.1474C26.5644 44.9544 25.7294 45.4274 24.9224 45.2044" fill="#FFCEC2"/>
<path fill-rule="evenodd" clip-rule="evenodd" d="M21.3675 43.7696L20.4365 43.5116C19.6295 43.2886 19.1565 42.4536 19.3805 41.6466L20.5485 37.4256C20.7715 36.6186 21.6075 36.1456 22.4135 36.3696L23.3445 36.6266C24.1515 36.8506 24.6245 37.6856 24.4015 38.4926L23.2325 42.7126C23.0095 43.5196 22.1745 43.9926 21.3675 43.7696" fill="#FFCEC2"/>
<path fill-rule="evenodd" clip-rule="evenodd" d="M17.6252 42.3044L16.6942 42.0464C15.8872 41.8234 15.4142 40.9884 15.6382 40.1814L16.2162 38.0924C16.4392 37.2854 17.2742 36.8124 18.0812 37.0354L19.0122 37.2934C19.8192 37.5164 20.2922 38.3514 20.0692 39.1584L19.4902 41.2474C19.2672 42.0544 18.4322 42.5274 17.6252 42.3044" fill="#FFCEC2"/>
<path fill-rule="evenodd" clip-rule="evenodd" d="M18.1393 23.0243C18.3948 23.1291 18.5168 23.4213 18.4119 23.6767C17.811 25.1404 17.7722 26.3283 17.874 27.1371C17.9251 27.5432 18.012 27.8566 18.0836 28.0639C18.1194 28.1676 18.1514 28.2445 18.173 28.293C18.1838 28.3173 18.192 28.3344 18.1969 28.3441C18.1979 28.3462 18.1987 28.3479 18.1994 28.3493L20.3333 32.0755C20.9196 32.8448 21.3471 32.9606 21.542 32.9699C21.6495 32.975 21.7296 32.9508 21.7796 32.929C21.8049 32.9179 21.8221 32.9075 21.8301 32.9023C21.8306 32.902 21.831 32.9017 21.8314 32.9014L21.8661 32.872L21.9131 32.848C21.914 32.8475 21.9153 32.8467 21.917 32.8457C21.9243 32.8415 21.9385 32.8327 21.9582 32.8192C21.9978 32.7921 22.0586 32.7461 22.1293 32.6783C22.2699 32.5433 22.45 32.3213 22.5805 31.9842C22.8367 31.3229 22.9415 30.1084 21.9465 28.0559L21.9464 28.0557L21.9463 28.0555L22.3964 27.8378C21.9463 28.0555 21.9462 28.0553 21.9461 28.055L21.9458 28.0545L21.9453 28.0534C21.9449 28.0526 21.9444 28.0516 21.9439 28.0506C21.9429 28.0485 21.9417 28.0459 21.9403 28.0428C21.9374 28.0366 21.9337 28.0286 21.9294 28.0188C21.9206 27.9991 21.909 27.9721 21.8955 27.9384C21.8686 27.8712 21.8337 27.7767 21.7984 27.6601C21.7283 27.4283 21.6542 27.1011 21.6412 26.7219C21.6148 25.9497 21.8459 24.9635 22.8394 24.1701L23.0179 24.0275L27.6895 24.8932C27.961 24.9435 28.1403 25.2044 28.09 25.4759C28.0397 25.7474 27.7788 25.9267 27.5073 25.8764L23.2966 25.0962C22.745 25.6171 22.6241 26.2038 22.6406 26.6877C22.6499 26.9592 22.7035 27.1986 22.7556 27.3705C22.7814 27.4558 22.8062 27.5226 22.8237 27.5661C22.8324 27.5878 22.8392 27.6036 22.8433 27.6128C22.8453 27.6175 22.8467 27.6204 22.8473 27.6217L22.8472 27.6215L22.8469 27.6209L22.8467 27.6205C22.8466 27.6203 22.8465 27.6201 22.3966 27.8377L22.8463 27.6197C22.8466 27.6203 22.847 27.621 22.8473 27.6217C23.9203 29.8361 23.8995 31.3475 23.513 32.3454C23.3222 32.838 23.0516 33.1791 22.8218 33.3996C22.7073 33.5096 22.6031 33.5895 22.5238 33.6439C22.4842 33.6711 22.4506 33.692 22.4249 33.7072C22.4232 33.7081 22.4216 33.7091 22.4199 33.7101C22.4073 33.7192 22.3926 33.7294 22.3758 33.7403C22.3279 33.7715 22.2623 33.8093 22.1802 33.8452C22.0153 33.9173 21.7819 33.9824 21.4946 33.9687C20.9017 33.9406 20.2212 33.5892 19.5159 32.6525L19.4971 32.6275L17.3234 28.8319L17.3205 28.8265L17.7604 28.5888C17.3205 28.8265 17.3204 28.8263 17.3202 28.826L17.3199 28.8254L17.3193 28.8242C17.3188 28.8233 17.3182 28.8222 17.3176 28.8211C17.3164 28.8188 17.3149 28.816 17.3132 28.8127C17.3098 28.8061 17.3054 28.7975 17.3002 28.7869C17.2898 28.7658 17.276 28.7368 17.2597 28.7002C17.227 28.6271 17.1843 28.5232 17.1385 28.3906C17.0468 28.1253 16.9425 27.7442 16.8818 27.262C16.7601 26.2942 16.8158 24.9312 17.4869 23.2969C17.5917 23.0414 17.8839 22.9194 18.1393 23.0243Z" fill="#062846"/>
<path fill-rule="evenodd" clip-rule="evenodd" d="M8.21731 35.9274L8.27031 38.8044L7.27048 38.8228L7.21748 35.9458L8.21731 35.9274Z" fill="#062846"/>
<path fill-rule="evenodd" clip-rule="evenodd" d="M30.0469 13.0168L35.4899 6.99979L48.3049 18.5938L42.8619 24.6108L30.0469 13.0168Z" fill="#288DFF"/>
<path fill="currentColor" d="M34.2702 11.3056L36.3412 13.3026" stroke="#062846"/>
<path fill-rule="evenodd" clip-rule="evenodd" d="M20.2983 38.3319C20.5644 38.4056 20.7204 38.6811 20.6467 38.9473L19.9157 41.5863C19.8419 41.8524 19.5664 42.0084 19.3003 41.9346C19.0342 41.8609 18.8782 41.5854 18.9519 41.3193L19.6829 38.6803C19.7567 38.4142 20.0321 38.2582 20.2983 38.3319Z" fill="#062846"/>
<path fill-rule="evenodd" clip-rule="evenodd" d="M24.396 38.5002C24.6626 38.5722 24.8203 38.8467 24.7483 39.1132L23.6783 43.0752C23.6063 43.3418 23.3318 43.4996 23.0652 43.4276C22.7986 43.3556 22.6409 43.0811 22.7129 42.8145L23.7829 38.8525C23.8549 38.5859 24.1294 38.4282 24.396 38.5002Z" fill="#062846"/>
<path fill-rule="evenodd" clip-rule="evenodd" d="M27.9574 39.9247C28.2235 39.9984 28.3795 40.2739 28.3058 40.5401L27.5748 43.1791C27.501 43.4452 27.2255 43.6012 26.9594 43.5274C26.6933 43.4537 26.5373 43.1782 26.611 42.9121L27.342 40.2731C27.4158 40.007 27.6912 39.851 27.9574 39.9247Z" fill="#062846"/>
</svg>
