<svg width="52" height="52" viewBox="0 0 52 52" fill="none" xmlns="http://www.w3.org/2000/svg">
<path fill-rule="evenodd" clip-rule="evenodd" d="M46.557 27.7437C46.557 39.2197 37.254 48.5227 25.778 48.5227C14.303 48.5227 5 39.2197 5 27.7437C5 16.2677 14.303 6.9647 25.778 6.9647C37.254 6.9647 46.557 16.2677 46.557 27.7437Z" fill="#FFC800"/>
<path fill-rule="evenodd" clip-rule="evenodd" d="M36.4029 17.8263L26.1319 28.0973L25.4248 27.3901L35.6958 17.1191L36.4029 17.8263Z" fill="#062846"/>
<path fill-rule="evenodd" clip-rule="evenodd" d="M25.7784 32.8778C22.9434 32.8778 20.6444 30.5788 20.6444 27.7438C20.6444 24.9078 22.9434 22.6098 25.7784 22.6098C28.6134 22.6098 30.9124 24.9078 30.9124 27.7438C30.9124 30.5788 28.6134 32.8778 25.7784 32.8778Z" fill="#288DFF"/>
<path fill-rule="evenodd" clip-rule="evenodd" d="M25.7788 23.5533C23.504 23.5533 21.6608 25.3974 21.6608 27.6713H20.6608C20.6608 24.8452 22.9516 22.5533 25.7788 22.5533C28.6051 22.5533 30.8958 24.8453 30.8958 27.6713H29.8958C29.8958 25.3973 28.0525 23.5533 25.7788 23.5533Z" fill="#062846"/>
<path fill-rule="evenodd" clip-rule="evenodd" d="M26.2784 3.5201V6.9651H25.2784V3.5201H26.2784Z" fill="#062846"/>
<path fill-rule="evenodd" clip-rule="evenodd" d="M30.368 4H21.289V3H30.368V4Z" fill="#062846"/>
<path fill-rule="evenodd" clip-rule="evenodd" d="M25.2784 13.6191V9.9201H26.2784V13.6191H25.2784Z" fill="#062846"/>
<path fill-rule="evenodd" clip-rule="evenodd" d="M39.903 27.2437H43.602V28.2437H39.903V27.2437Z" fill="#062846"/>
<path fill-rule="evenodd" clip-rule="evenodd" d="M26.2784 41.8683V45.5673H25.2784V41.8683H26.2784Z" fill="#062846"/>
<path fill-rule="evenodd" clip-rule="evenodd" d="M11.6538 28.2437H7.9548V27.2437H11.6538V28.2437Z" fill="#062846"/>
<path fill-rule="evenodd" clip-rule="evenodd" d="M35.413 17.4019L38.028 14.7869L38.7351 15.4941L36.1201 18.1091L35.413 17.4019Z" fill="#062846"/>
<path fill-rule="evenodd" clip-rule="evenodd" d="M36.1201 37.3783L38.7351 39.9933L38.028 40.7005L35.413 38.0855L36.1201 37.3783Z" fill="#062846"/>
<path fill-rule="evenodd" clip-rule="evenodd" d="M16.1437 38.0855L13.5287 40.7005L12.8216 39.9933L15.4366 37.3783L16.1437 38.0855Z" fill="#062846"/>
<path fill-rule="evenodd" clip-rule="evenodd" d="M15.4366 18.1091L12.8216 15.4941L13.5287 14.7869L16.1437 17.4019L15.4366 18.1091Z" fill="#062846"/>
<path fill-rule="evenodd" clip-rule="evenodd" d="M6.0976 28.0425C6.0976 38.9124 14.9087 47.7235 25.7786 47.7235C36.6485 47.7235 45.4596 38.9124 45.4596 28.0425H46.4596C46.4596 39.4646 37.2007 48.7235 25.7786 48.7235C14.3565 48.7235 5.0976 39.4646 5.0976 28.0425H6.0976Z" fill="#062846"/>
</svg>
