<svg width="100" height="100" viewBox="0 0 100 100" fill="none" xmlns="http://www.w3.org/2000/svg">
<rect width="100" height="100" rx="50" fill="#DEDAF1"/>
<path d="M63.8463 43.3652C63.8463 53.7206 54.935 62.1152 43.9424 62.1152C32.9498 62.1152 24.0386 53.7206 24.0386 43.3652C24.0386 33.0099 32.9498 24.6152 43.9424 24.6152C54.935 24.6152 63.8463 33.0099 63.8463 43.3652Z" fill="white"/>
<path d="M51.5236 35.656C51.2743 35.4064 50.8703 35.4064 50.6211 35.656C50.3719 35.9056 50.3719 36.3102 50.6211 36.5598C54.1395 40.0833 54.0469 45.949 50.3397 49.6625C50.0906 49.9121 50.0906 50.3168 50.3399 50.5663C50.5891 50.8159 50.9932 50.8158 51.2423 50.5662C55.4131 46.3883 55.5745 39.7127 51.5236 35.656Z" fill="#201F23"/>
<path fill-rule="evenodd" clip-rule="evenodd" d="M33.5414 32.8398C39.4927 26.88 48.9865 26.6626 54.7451 32.4294C60.5053 38.1978 60.2864 47.7055 54.3368 53.6653C48.3855 59.6235 38.8917 59.8425 33.1316 54.0741C27.373 48.3072 27.5901 38.7997 33.5414 32.8398ZM53.8427 33.3332C48.6165 28.0995 39.9314 28.2482 34.4439 33.7436C28.9564 39.239 28.8078 47.9366 34.034 53.1703C39.2617 58.4055 47.9468 58.2553 53.4344 52.7614C58.9205 47.2659 59.0703 38.5684 53.8427 33.3332Z" fill="#201F23"/>
<path fill-rule="evenodd" clip-rule="evenodd" d="M43.9771 23.4609C32.6707 23.4609 23.4614 32.2833 23.4614 43.2197C23.4614 54.156 32.6707 62.9784 43.9771 62.9784C48.9314 62.9784 53.4832 61.2844 57.0341 58.4609L62.1538 63.385C61.3593 64.736 61.5413 66.5037 62.6997 67.6638L70.5302 75.5055C71.9046 76.882 74.1331 76.882 75.5075 75.5055C76.882 74.1291 76.882 71.8973 75.5074 70.5209L67.6765 62.6796C66.3955 61.3968 64.3728 61.3098 62.9911 62.4182L58.0134 57.6307C61.9995 54.0298 64.494 48.911 64.494 43.2197C64.494 32.2833 55.2834 23.4609 43.9771 23.4609ZM24.7377 43.2197C24.7377 33.0373 33.3266 24.7391 43.9771 24.7391C54.6276 24.7391 63.2177 33.0373 63.2177 43.2197C63.2177 53.402 54.6276 61.7002 43.9771 61.7002C33.3266 61.7002 24.7377 53.402 24.7377 43.2197Z" fill="#201F23"/>
</svg>
