<svg width="20" height="20" viewBox="0 0 20 20" fill="none" xmlns="http://www.w3.org/2000/svg"><path fill="currentColor" fill-rule="evenodd" clip-rule="evenodd" d="M12.9458 1.5C13.0323 2.36438 12.6865 3.22876 12.1679 3.86263C11.6493 4.4677 10.8137 4.95751 9.97814 4.89989C9.86289 4.06432 10.2951 3.17113 10.7849 2.62369C11.3035 1.98981 12.1967 1.52881 12.9458 1.5ZM15.6254 6.54221C15.5678 6.57102 14.0119 7.46421 14.0407 9.33703C14.0407 11.3286 15.6196 12.1361 15.9427 12.3013C15.9795 12.3201 16 12.3306 16 12.3335C16 12.3624 15.7119 13.3708 14.9916 14.4081C14.3865 15.3301 13.7526 16.2232 12.7442 16.2232C12.2454 16.2375 11.9158 16.0967 11.5741 15.9507C11.2249 15.8016 10.8631 15.647 10.2951 15.647C9.69955 15.647 9.32252 15.8089 8.95811 15.9653C8.63496 16.104 8.32173 16.2385 7.87484 16.2521C6.92402 16.2809 6.1749 15.2724 5.54102 14.3792C4.27326 12.564 3.32245 9.22178 4.61901 6.94558C5.25289 5.82189 6.4054 5.13039 7.67315 5.10158C8.21632 5.08512 8.74067 5.29432 9.19788 5.47673C9.54103 5.61364 9.84635 5.73545 10.0934 5.73545C10.3322 5.73545 10.6473 5.61428 11.0104 5.47466C11.5672 5.26052 12.2368 5.003 12.917 5.07276C13.4069 5.10158 14.7611 5.27445 15.6254 6.54221Z"/></svg>