<svg width="20" height="20" viewBox="0 0 20 20" fill="none" xmlns="http://www.w3.org/2000/svg"><path fill="currentColor" d="M4.9375 14.0625C5.6875 13.5347 6.48958 13.1424 7.34375 12.8854C8.19792 12.6285 9.08333 12.5 10 12.5C10.9167 12.5 11.8021 12.6285 12.6562 12.8854C13.5104 13.1424 14.3125 13.5347 15.0625 14.0625C15.5486 13.4931 15.9097 12.8611 16.1458 12.1667C16.3819 11.4722 16.5 10.75 16.5 10C16.5 8.19896 15.8665 6.66536 14.5994 5.39921C13.3323 4.13307 11.7976 3.5 9.99521 3.5C8.19285 3.5 6.65972 4.13307 5.39583 5.39921C4.13194 6.66536 3.5 8.19896 3.5 10C3.5 10.75 3.61806 11.4722 3.85417 12.1667C4.09028 12.8611 4.45139 13.4931 4.9375 14.0625ZM10 11.5C9.16667 11.5 8.45833 11.2083 7.875 10.625C7.29167 10.0417 7 9.33333 7 8.5C7 7.66667 7.29167 6.95833 7.875 6.375C8.45833 5.79167 9.16667 5.5 10 5.5C10.8333 5.5 11.5417 5.79167 12.125 6.375C12.7083 6.95833 13 7.66667 13 8.5C13 9.33333 12.7083 10.0417 12.125 10.625C11.5417 11.2083 10.8333 11.5 10 11.5ZM10.0058 18C8.9047 18 7.86806 17.7917 6.89583 17.375C5.92361 16.9583 5.07292 16.3854 4.34375 15.6562C3.61458 14.9271 3.04167 14.0767 2.625 13.105C2.20833 12.1334 2 11.0952 2 9.99046C2 8.88571 2.20833 7.85069 2.625 6.88542C3.04167 5.92014 3.61458 5.07292 4.34375 4.34375C5.07292 3.61458 5.92332 3.04167 6.89496 2.625C7.86661 2.20833 8.90481 2 10.0095 2C11.1143 2 12.1493 2.20833 13.1146 2.625C14.0799 3.04167 14.9271 3.61458 15.6562 4.34375C16.3854 5.07292 16.9583 5.92169 17.375 6.89008C17.7917 7.85849 18 8.89321 18 9.99425C18 11.0953 17.7917 12.1319 17.375 13.1042C16.9583 14.0764 16.3854 14.9271 15.6562 15.6562C14.9271 16.3854 14.0783 16.9583 13.1099 17.375C12.1415 17.7917 11.1068 18 10.0058 18Z"/></svg>