<svg width="52" height="52" viewBox="0 0 52 52" fill="none" xmlns="http://www.w3.org/2000/svg">
<path fill-rule="evenodd" clip-rule="evenodd" d="M40.27 3L3 40.27L12.561 49.831L49.831 12.561L40.27 3Z" fill="#FFAD99"/>
<path fill-rule="evenodd" clip-rule="evenodd" d="M12.5611 49.1236L49.4776 12.2071L50.1847 12.9142L12.9147 50.1842C12.7194 50.3795 12.4028 50.3795 12.2076 50.1843L2.64657 40.6243L3.35364 39.9171L12.5611 49.1236Z" fill="#062846"/>
<path fill-rule="evenodd" clip-rule="evenodd" d="M10.0472 41.8129L5.75225 37.5179L6.45936 36.8108L10.7544 41.1058L10.0472 41.8129Z" fill="#062846"/>
<path fill-rule="evenodd" clip-rule="evenodd" d="M17.8119 34.0483L13.5169 29.7533L14.2241 29.0461L18.5191 33.3411L17.8119 34.0483Z" fill="#062846"/>
<path fill-rule="evenodd" clip-rule="evenodd" d="M25.5765 26.2836L21.2815 21.9886L21.9887 21.2815L26.2837 25.5765L25.5765 26.2836Z" fill="#062846"/>
<path fill-rule="evenodd" clip-rule="evenodd" d="M33.3412 18.5189L29.0462 14.2239L29.7534 13.5168L34.0484 17.8118L33.3412 18.5189Z" fill="#062846"/>
<path fill-rule="evenodd" clip-rule="evenodd" d="M41.1059 10.7543L36.8108 6.45935L37.518 5.75224L41.813 10.0472L41.1059 10.7543Z" fill="#062846"/>
<path fill-rule="evenodd" clip-rule="evenodd" d="M11.3488 35.3496L9.63475 33.6357L10.3419 32.9285L12.0559 34.6425L11.3488 35.3496Z" fill="#062846"/>
<path fill-rule="evenodd" clip-rule="evenodd" d="M19.1133 27.585L17.3993 25.871L18.1065 25.1639L19.8205 26.8779L19.1133 27.585Z" fill="#062846"/>
<path fill-rule="evenodd" clip-rule="evenodd" d="M26.878 19.8203L25.164 18.1063L25.8712 17.3992L27.5852 19.1132L26.878 19.8203Z" fill="#062846"/>
<path fill-rule="evenodd" clip-rule="evenodd" d="M34.6427 12.0557L32.9286 10.3418L33.6358 9.63464L35.3498 11.3486L34.6427 12.0557Z" fill="#062846"/>
</svg>
