<svg xmlns="http://www.w3.org/2000/svg" width="20" height="21" fill="currentColor"><path d="M10 12.521a2.411 2.411 0 01-1.77-.729 2.41 2.41 0 01-.73-1.77v-5c0-.695.243-1.285.73-1.771A2.41 2.41 0 0110 2.52a2.41 2.41 0 011.77.73c.487.486.73 1.076.73 1.77v5c0 .695-.243 1.285-.73 1.771a2.411 2.411 0 01-1.77.73zm-.75 5V15.46c-1.372-.182-2.507-.787-3.404-1.814C4.949 12.618 4.5 11.41 4.5 10.022H6c0 1.106.39 2.05 1.171 2.83.781.78 1.726 1.17 2.834 1.17s2.05-.39 2.828-1.17c.778-.78 1.167-1.724 1.167-2.83h1.5c0 1.388-.449 2.596-1.346 3.623-.897 1.027-2.032 1.632-3.404 1.814v2.063h-1.5z"/></svg>