<svg width="112" height="112" viewBox="0 0 112 112" fill="none" xmlns="http://www.w3.org/2000/svg">
<g clip-path="url(#a)">
<path fill-rule="evenodd" clip-rule="evenodd" d="M56 112c30.928 0 56-25.072 56-56S86.928 0 56 0 0 25.072 0 56s25.072 56 56 56Z" fill="#FFD8D1"/>
<path fill-rule="evenodd" clip-rule="evenodd" d="M46.304 74.148a3.066 3.066 0 0 0-2.39-1.138h-22.8a2.971 2.971 0 0 1-2.967-2.968V36.374a2.971 2.971 0 0 1 2.967-2.968h69.773a2.971 2.971 0 0 1 2.968 2.968v33.668a2.971 2.971 0 0 1-2.968 2.968H68.11c-.931 0-1.804.414-2.391 1.138l-8.773 10.8c-.229.284-.57.445-.935.445a1.2 1.2 0 0 1-.934-.445l-5.569-6.855-3.203-3.945Z" fill="#fff"/>
<path fill-rule="evenodd" clip-rule="evenodd" d="M48.481 58.833a.808.808 0 0 0 1.172.852l5.985-3.145a.808.808 0 0 1 .75 0l5.985 3.145a.808.808 0 0 0 1.171-.852l-1.142-6.663a.804.804 0 0 1 .232-.714l4.841-4.718a.807.807 0 0 0-.448-1.377l-6.69-.971a.81.81 0 0 1-.608-.442l-2.992-6.063a.808.808 0 0 0-1.449 0l-2.991 6.063a.805.805 0 0 1-.608.441l-6.69.972a.807.807 0 0 0-.449 1.377l4.842 4.718c.19.186.277.453.232.714l-1.143 6.663ZM40.65 54.245a.666.666 0 0 0-.37-1.136l-5.52-.802a.663.663 0 0 1-.502-.365L31.79 46.94a.666.666 0 0 0-1.194 0l-2.468 5.002a.669.669 0 0 1-.5.365l-5.521.802a.667.667 0 0 0-.37 1.136l3.995 3.895a.667.667 0 0 1 .192.589l-.943 5.498a.667.667 0 0 0 .967.702l4.938-2.596a.663.663 0 0 1 .62 0l4.937 2.596a.667.667 0 0 0 .967-.702l-.943-5.498a.665.665 0 0 1 .192-.59l3.99-3.894ZM90.287 55.427a.666.666 0 0 0-.37-1.136l-5.52-.802a.663.663 0 0 1-.501-.365l-2.468-5.002a.666.666 0 0 0-1.194 0l-2.468 5.002a.669.669 0 0 1-.501.365l-5.52.802a.667.667 0 0 0-.37 1.136l3.993 3.894a.667.667 0 0 1 .192.59l-.943 5.497a.667.667 0 0 0 .967.703l4.938-2.596a.663.663 0 0 1 .62 0l4.937 2.596a.667.667 0 0 0 .967-.703l-.943-5.498a.666.666 0 0 1 .192-.589l3.992-3.894Z" fill="#000"/>
<path fill-rule="evenodd" clip-rule="evenodd" d="M90.887 32.285H21.114a4.093 4.093 0 0 0-4.088 4.088v33.669a4.093 4.093 0 0 0 4.088 4.087h22.8c.593 0 1.148.264 1.521.724a.56.56 0 1 0 .87-.706 3.066 3.066 0 0 0-2.392-1.138H21.114a2.971 2.971 0 0 1-2.967-2.968V36.373a2.971 2.971 0 0 1 2.967-2.967h69.773a2.971 2.971 0 0 1 2.968 2.967v33.669a2.971 2.971 0 0 1-2.968 2.967H68.11c-.931 0-1.804.415-2.391 1.138l-8.773 10.8c-.229.284-.57.446-.935.446a1.2 1.2 0 0 1-.934-.445l-5.569-6.856a.56.56 0 1 0-.869.706l5.569 6.856c.443.545 1.1.86 1.803.86.703 0 1.36-.315 1.804-.86l8.773-10.801c.373-.461.928-.724 1.52-.724h22.779a4.093 4.093 0 0 0 4.088-4.088V36.373a4.09 4.09 0 0 0-4.087-4.088ZM88.943 80.604l-3.549-2.186a.562.562 0 0 0-.771.182.562.562 0 0 0 .182.772l3.548 2.186a.561.561 0 0 0 .59-.954ZM74.776 85.363a.56.56 0 0 0-1.114.115l.427 4.146c.03.288.274.502.557.502.02 0 .038-.002.058-.003a.56.56 0 0 0 .5-.615l-.428-4.145ZM41.986 86.185a.56.56 0 0 0-.648.456l-.712 4.107a.56.56 0 0 0 1.102.192l.713-4.107a.558.558 0 0 0-.455-.648ZM31.53 78.561l-3.692 1.937a.56.56 0 0 0 .52.994l3.692-1.937a.56.56 0 0 0-.52-.994Z" fill="#000"/>
</g>
<defs>
<clipPath id="a">
<path fill="#fff" d="M0 0h112v112H0z"/>
</clipPath>
</defs>
</svg>
