<svg width="20" height="20" viewBox="0 0 20 20" fill="none" xmlns="http://www.w3.org/2000/svg"><path fill="currentColor" d="M10 17C9.02778 17 8.11713 16.8153 7.26806 16.4458C6.41898 16.0764 5.68009 15.5773 5.0514 14.9486C4.42269 14.3199 3.92361 13.581 3.55417 12.7319C3.18472 11.8829 3 10.9722 3 10C3 9.02778 3.18472 8.11713 3.55417 7.26806C3.92361 6.41898 4.42269 5.68009 5.0514 5.0514C5.68009 4.42269 6.41898 3.92361 7.26806 3.55417C8.11713 3.18472 9.02778 3 10 3H10.1458L9.0625 1.9375L10.125 0.875L13 3.75L10.125 6.625L9.0625 5.5625L10.125 4.5H10C8.48611 4.5 7.19097 5.03819 6.11458 6.11458C5.03819 7.19097 4.5 8.48611 4.5 10C4.5 11.5139 5.03819 12.809 6.11458 13.8854C7.19097 14.9618 8.48611 15.5 10 15.5C11.5139 15.5 12.809 14.9618 13.8854 13.8854C14.9618 12.809 15.5 11.5139 15.5 10H17C17 10.9722 16.8153 11.8829 16.4458 12.7319C16.0764 13.581 15.5773 14.3199 14.9486 14.9486C14.3199 15.5773 13.581 16.0764 12.7319 16.4458C11.8829 16.8153 10.9722 17 10 17Z"/></svg>