<svg width="20" height="20" viewBox="0 0 20 20" fill="none" xmlns="http://www.w3.org/2000/svg"><path fill="currentColor" d="M12.7489 16C11.083 16 9.66667 15.4167 8.5 14.25C7.33333 13.0833 6.75 11.667 6.75 10.0011C6.75 8.34758 7.33333 6.93403 8.5 5.76042C9.66667 4.58681 11.083 4 12.7489 4C14.4024 4 15.816 4.58681 16.9896 5.76042C18.1632 6.93403 18.75 8.34758 18.75 10.0011C18.75 11.667 18.1632 13.0833 16.9896 14.25C15.816 15.4167 14.4024 16 12.7489 16ZM14.4583 12.7917L15.5208 11.7292L13.4982 9.70237V7H12V10.3176L14.4583 12.7917ZM2.5 7.5V6H5.5V7.5H2.5ZM1.5 10.75V9.25H5.5V10.75H1.5ZM2.5 14V12.5H5.5V14H2.5Z"/></svg>