<svg xmlns="http://www.w3.org/2000/svg" width="76" height="76" fill="none" viewBox="0 0 76 76"><path fill="#fff" d="M38.027 76q-7.845 0-14.772-2.969t-12.122-8.164T2.969 52.75Q-.001 45.826 0 37.955q0-7.872 2.969-14.75 2.968-6.877 8.164-12.072 5.195-5.196 12.118-8.164Q30.174-.001 38.045 0q7.872 0 14.75 2.969 6.877 2.968 12.072 8.164 5.196 5.195 8.164 12.095 2.97 6.9 2.969 14.745 0 7.845-2.969 14.772t-8.164 12.122-12.095 8.164q-6.9 2.97-14.745 2.969"/><path fill="#5746b2" d="m51.973 39.687-20.4 12.982c-1.33.847-3.073-.11-3.073-1.687V25.018c0-1.578 1.742-2.534 3.073-1.687l20.4 12.982a2 2 0 0 1 0 3.374"/></svg>
