<svg width="20" height="20" viewBox="0 0 20 20" fill="none" xmlns="http://www.w3.org/2000/svg"><path fill="currentColor" d="M3.5 16C3.09722 16 2.74653 15.8507 2.44792 15.5521C2.14931 15.2535 2 14.9028 2 14.5V5.5C2 5.09722 2.14931 4.74653 2.44792 4.44792C2.74653 4.14931 3.09722 4 3.5 4H16.5C16.9167 4 17.2708 4.14931 17.5625 4.44792C17.8542 4.74653 18 5.09722 18 5.5V9.39583C17.7639 9.24306 17.5243 9.10764 17.2812 8.98958C17.0382 8.87153 16.7778 8.77778 16.5 8.70833V7H3.5V10H11.2083C10.6806 10.5 10.2604 11.0938 9.94792 11.7812C9.63542 12.4688 9.47917 13.2083 9.47917 14C9.47917 14.3611 9.51389 14.7049 9.58333 15.0312C9.65278 15.3576 9.74306 15.6806 9.85417 16H3.5ZM15.0417 16.75L12.2917 14C12.125 13.8333 12.0069 13.6528 11.9375 13.4583C11.8681 13.2639 11.8333 13.0694 11.8333 12.875C11.8333 12.4583 11.9792 12.0833 12.2708 11.75C12.5625 11.4167 12.9514 11.25 13.4375 11.25C13.7986 11.25 14.0868 11.3368 14.3021 11.5104C14.5174 11.684 14.7639 11.9097 15.0417 12.1875C15.3056 11.9236 15.5417 11.7014 15.75 11.5208C15.9583 11.3403 16.2569 11.25 16.6458 11.25C17.1319 11.25 17.5208 11.4167 17.8125 11.75C18.1042 12.0833 18.25 12.4583 18.25 12.875C18.25 13.0694 18.2118 13.2674 18.1354 13.4688C18.059 13.6701 17.9444 13.8472 17.7917 14L15.0417 16.75Z"/></svg>