<svg width="52" height="52" viewBox="0 0 52 52" fill="none" xmlns="http://www.w3.org/2000/svg">
<path fill-rule="evenodd" clip-rule="evenodd" d="M38.4552 41.2772H13.8172C12.5922 41.2772 12.0002 39.7782 12.8942 38.9412L15.1802 36.8032V26.9472C15.1802 21.5552 19.0732 17.0752 24.2022 16.1632C24.0992 15.9002 24.0462 15.6122 24.0542 15.3132C24.0852 14.1852 25.0192 13.2482 26.1472 13.2152C27.3702 13.1792 28.3732 14.1592 28.3732 15.3742C28.3732 15.6632 28.3162 15.9362 28.2142 16.1892C30.4062 16.6082 32.3662 17.6832 33.8812 19.2012C35.8662 21.1832 37.0912 23.9222 37.0912 26.9472V36.8032L39.3772 38.9412C40.2722 39.7772 39.6802 41.2772 38.4552 41.2772Z" fill="#FFC800"/>
<path fill-rule="evenodd" clip-rule="evenodd" d="M26.213 45.7115C23.8499 45.7115 21.933 43.7957 21.933 41.4315H22.933C22.933 43.2433 24.4021 44.7115 26.213 44.7115C28.025 44.7115 29.494 43.2432 29.494 41.4315H30.494C30.494 43.7958 28.577 45.7115 26.213 45.7115Z" fill="#062846"/>
<path fill-rule="evenodd" clip-rule="evenodd" d="M23.9419 15.2375C25.4731 15.0497 26.9781 15.0473 28.4558 15.2379L28.3278 16.2297C26.9375 16.0503 25.5165 16.0519 24.0637 16.2301L23.9419 15.2375Z" fill="#062846"/>
<path fill-rule="evenodd" clip-rule="evenodd" d="M37.0912 36.6938H15.1802V35.6938H37.0912V36.6938Z" fill="#062846"/>
<path fill-rule="evenodd" clip-rule="evenodd" d="M21.211 11.5019C21.3049 11.7615 21.1706 12.0482 20.9109 12.1422C14.9657 14.2933 10.8728 19.9669 10.8728 26.488C10.8728 26.7641 10.6489 26.988 10.3728 26.988C10.0967 26.988 9.8728 26.7641 9.8728 26.488C9.8728 19.5411 14.2339 13.4947 20.5707 11.2018C20.8303 11.1079 21.117 11.2422 21.211 11.5019Z" fill="#062846"/>
<path fill-rule="evenodd" clip-rule="evenodd" d="M31.2601 11.5685C31.3578 11.3102 31.6464 11.18 31.9047 11.2777C34.0444 12.087 35.9925 13.345 37.6363 14.9908C40.7052 18.0576 42.3988 22.1428 42.3988 26.4884C42.3988 26.7645 42.1749 26.9884 41.8988 26.9884C41.6227 26.9884 41.3988 26.7645 41.3988 26.4884C41.3988 22.408 39.8105 18.5773 36.9294 15.6981C35.3852 14.152 33.5571 12.9718 31.5509 12.2131C31.2926 12.1154 31.1624 11.8268 31.2601 11.5685Z" fill="#062846"/>
<path fill-rule="evenodd" clip-rule="evenodd" d="M19.0302 5.82985C19.1241 6.08951 18.9898 6.37619 18.7301 6.47016C10.3019 9.52031 4.5 17.5639 4.5 26.807C4.5 27.0831 4.27614 27.307 4 27.307C3.72386 27.307 3.5 27.0831 3.5 26.807C3.5 17.1381 9.57008 8.72169 18.3899 5.52984C18.6495 5.43587 18.9362 5.57019 19.0302 5.82985Z" fill="#062846"/>
<path fill-rule="evenodd" clip-rule="evenodd" d="M33.5209 5.92722C33.6186 5.66893 33.9072 5.53874 34.1655 5.63643C37.1433 6.7627 39.8544 8.5138 42.1422 10.8046C46.415 15.0734 48.7716 20.7586 48.7716 26.8071C48.7716 27.0832 48.5477 27.3071 48.2716 27.3071C47.9955 27.3071 47.7716 27.0832 47.7716 26.8071C47.7716 21.0237 45.5203 15.593 41.4352 11.5118C39.247 9.32072 36.6558 7.64747 33.8117 6.57177C33.5534 6.47408 33.4232 6.1855 33.5209 5.92722Z" fill="#062846"/>
</svg>
