<svg width="44" height="44" viewBox="0 0 44 44" fill="none" xmlns="http://www.w3.org/2000/svg">
<path d="M9.24878 5.30664H28.6683L34.9894 11.6604V38.7696H9.24878V5.30664Z" fill="white"/>
<path d="M35.3271 11.3867V39.2676H8.67285V4.73047H28.7158L35.3271 11.3867ZM9.47168 38.4678H34.5283V11.7168L34.5039 11.6924H28.4131V5.56055L28.3838 5.53027H9.47168V38.4678ZM29.2119 24.9033C29.4323 24.9034 29.6113 25.0829 29.6113 25.3037V30.752C29.6113 30.9728 29.4323 31.1522 29.2119 31.1523H14.8398C14.6194 31.1523 14.4404 30.9729 14.4404 30.752V25.3037C14.4405 25.0828 14.6194 24.9033 14.8398 24.9033C15.0603 24.9033 15.2392 25.0828 15.2393 25.3037V30.3516H28.8125V25.3037C28.8126 25.0829 28.9915 24.9034 29.2119 24.9033ZM21.9355 17.877C22.0414 17.877 22.1423 17.9178 22.2178 17.9932L26.1777 21.9609C26.3227 22.1224 26.3376 22.3671 26.1777 22.5273C26.0179 22.6871 25.7742 22.6723 25.6133 22.5273L22.3359 19.2432V26.4512C22.3359 26.6719 22.1568 26.8513 21.9365 26.8516C21.7161 26.8515 21.5371 26.672 21.5371 26.4512V19.2422L18.3955 22.3896C18.2344 22.5348 17.991 22.5497 17.8311 22.3896C17.6712 22.2293 17.686 21.9847 17.8311 21.8232L21.6533 17.9932C21.7281 17.9184 21.8299 17.8771 21.9355 17.877Z" fill="black"/>
</svg>
