<svg xmlns="http://www.w3.org/2000/svg" viewBox="0 0 512 512" width="512" height="512"><path d="M445.391 211.053a79.873 79.873 0 0 0 1.859-17.178c0-44.01-35.677-79.688-79.688-79.688-7.083 0-13.952.93-20.485 2.666-12.35-38.525-48.455-66.415-91.077-66.415-43.503 0-80.212 29.054-91.803 68.815-11.327-3.298-23.305-5.066-35.697-5.066-70.416 0-127.5 57.085-127.5 127.5 0 70.418 57.084 127.5 127.5 127.5h63.75v95.625h127.5v-95.625h111.563c44.01 0 79.687-35.676 79.687-79.687 0-39.206-28.316-71.8-65.609-78.447zm-157.516 126.26v95.625h-63.75v-95.625h-79.688L256 225.75l111.563 111.563h-79.688z"/></svg>
