<svg width="20" height="20" viewBox="0 0 20 20" fill="none" xmlns="http://www.w3.org/2000/svg"><path fill="currentColor" d="M17.5625 11.6875L11.7083 17.5625C11.5556 17.7153 11.3889 17.8264 11.2083 17.8958C11.0278 17.9653 10.8403 18 10.6458 18C10.4514 18 10.2639 17.9653 10.0833 17.8958C9.90278 17.8264 9.73611 17.7153 9.58333 17.5625L2.43125 10.4104C2.28264 10.2618 2.17361 10.098 2.10417 9.91896C2.03472 9.73993 2 9.55167 2 9.35417V3.5C2 3.0875 2.14688 2.73438 2.44063 2.44063C2.73438 2.14688 3.0875 2 3.5 2H9.35417C9.54736 2 9.73458 2.03472 9.91583 2.10417C10.0969 2.17361 10.262 2.28264 10.411 2.43125L17.5625 9.58333C17.7153 9.73611 17.8264 9.89931 17.8958 10.0729C17.9653 10.2465 18 10.4306 18 10.625C18 10.8194 17.9651 11.0076 17.8954 11.1894C17.8257 11.371 17.7147 11.5371 17.5625 11.6875ZM5.5 6.75C5.84722 6.75 6.14236 6.62847 6.38542 6.38542C6.62847 6.14236 6.75 5.84722 6.75 5.5C6.75 5.15278 6.62847 4.85764 6.38542 4.61458C6.14236 4.37153 5.84722 4.25 5.5 4.25C5.15278 4.25 4.85764 4.37153 4.61458 4.61458C4.37153 4.85764 4.25 5.15278 4.25 5.5C4.25 5.84722 4.37153 6.14236 4.61458 6.38542C4.85764 6.62847 5.15278 6.75 5.5 6.75Z"/></svg>