<svg xmlns="http://www.w3.org/2000/svg" width="24" height="24" viewBox="0 0 24 24" fill="none">
  <path fill="none" fill-rule="evenodd" clip-rule="evenodd" d="M18.4167 11.688C18.4112 8.05846 15.4642 5.12041 11.834 5.12598C8.20445 5.13157 5.26641 8.07855 5.27198 11.7087C5.2759 14.1907 6.65618 16.3491 8.68892 17.4642L8.6945 21.0386L15.0232 21.0285L15.0177 17.4542C17.0476 16.3329 18.4206 14.1706 18.4167 11.688Z" stroke="white" stroke-width="1.37" stroke-linecap="round" stroke-linejoin="round"/>
  <path fill="none" fill-rule="evenodd" clip-rule="evenodd" d="M13.0103 19.0502L10.7012 19.0536L10.6929 13.4599L13.0013 13.4565L13.0103 19.0502Z" stroke="white" stroke-width="1.37" stroke-linecap="round" stroke-linejoin="round"/>
  <path fill="none" fill-rule="evenodd" clip-rule="evenodd" d="M9.75088 13.4609L10.6925 13.4598L10.6919 12.5177C10.6908 11.9969 10.2683 11.5761 9.74753 11.5767C9.2279 11.5772 8.80651 11.9997 8.80762 12.5199C8.80818 13.0407 9.23013 13.4615 9.75088 13.4609Z" stroke="white" stroke-width="1.37" stroke-linecap="round" stroke-linejoin="round"/>
  <path fill="none" fill-rule="evenodd" clip-rule="evenodd" d="M13.9433 13.4546L13.0017 13.4563L13 12.5136C12.9994 11.9934 13.4203 11.5709 13.9405 11.5703C14.4612 11.5698 14.8837 11.9906 14.8843 12.5113C14.8848 13.0315 14.464 13.454 13.9433 13.4546Z" stroke="white" stroke-width="1.37" stroke-linecap="round" stroke-linejoin="round"/>
  <path fill="none" d="M8.69141 19.0564L15.0207 19.0464" stroke="white" stroke-width="1.37" stroke-linecap="round" stroke-linejoin="round"/>
  <path fill="none" fill-rule="evenodd" clip-rule="evenodd" d="M13.6808 23.013L10.0434 23.0186L8.69434 21.0389L15.0231 21.0288L13.6808 23.013Z" stroke="white" stroke-width="1.37" stroke-linecap="round" stroke-linejoin="round"/>
  <path fill="none" d="M14.6699 2.4672L15.2426 0.685059" stroke="white" stroke-width="1.37" stroke-linecap="round" stroke-linejoin="round"/>
  <path fill="none" d="M19.8306 6.41194L21.3721 5.44189" stroke="white" stroke-width="1.37" stroke-linecap="round" stroke-linejoin="round"/>
  <path fill="none" d="M21.2402 12.7832L23.0095 13.026" stroke="white" stroke-width="1.37" stroke-linecap="round" stroke-linejoin="round"/>
  <path fill="none" d="M2.55873 13.4722L0.685059 13.8768" stroke="white" stroke-width="1.37" stroke-linecap="round" stroke-linejoin="round"/>
  <path fill="none" d="M3.45812 7.09636L1.74072 6.18994" stroke="white" stroke-width="1.37" stroke-linecap="round" stroke-linejoin="round"/>
  <path fill="none" d="M8.21477 2.75877L7.48975 0.97998" stroke="white" stroke-width="1.37" stroke-linecap="round" stroke-linejoin="round"/>
</svg>
