<svg width="20" height="20" viewBox="0 0 20 20" fill="none" xmlns="http://www.w3.org/2000/svg"><path fill="currentColor" d="M13.8508 14.5717H12.6512L6.14108 5.45981H7.34065L13.8508 14.5717Z"/><path fill="currentColor" fill-rule="evenodd" clip-rule="evenodd" d="M4 2C2.89543 2 2 2.89543 2 4V16C2 17.1046 2.89543 18 4 18H16C17.1046 18 18 17.1046 18 16V4C18 2.89543 17.1046 2 16 2H4ZM13.9994 4.56665L10.6056 8.42689L7.89486 4.56665H4.47422L8.70395 10.59L4.44556 15.4333H5.6529L9.23997 11.3533L12.1051 15.4333H15.5257L11.1417 9.19033L15.2067 4.56665H13.9994Z"/></svg>