<svg width="160" height="160" viewBox="0 0 160 160" fill="none" xmlns="http://www.w3.org/2000/svg">
<path d="M79.9999 156.85C122.443 156.85 156.85 122.443 156.85 80C156.85 37.5569 122.443 3.14999 79.9999 3.14999C37.5568 3.14999 3.1499 37.5569 3.1499 80C3.1499 122.443 37.5568 156.85 79.9999 156.85Z" fill="#FFD8D1"/>
<path d="M112.6 116L112.65 115.96L108.05 114.39C106.63 113.91 105.71 112.52 105.82 111.02L106.7 99.02C105.65 98.3 104.94 97.14 104.78 95.86L104.39 92.65C104.18 90.94 105.35 89.36 107.04 89.05C107.08 89.05 107.12 89.04 107.16 89.04L108.3 88.98C108.32 80.71 115.06 73.98 123.33 73.98C131.6 73.98 138.34 80.71 138.36 88.98L139.58 89.04C139.58 89.04 139.66 89.04 139.7 89.05C141.4 89.35 142.56 90.94 142.35 92.65L141.96 95.86C141.8 97.13 141.11 98.26 140.09 98.99L140.97 111.02C141.08 112.52 140.16 113.91 138.73 114.39L134.04 115.98C134.04 115.98 139.72 117.32 142.4 118.19C144.93 119.01 146.56 121.52 146.27 124.17L144.53 140.37C144.14 144.01 141.32 146.87 137.68 147.32C132.92 147.9 128.13 148.2 123.34 148.2C118.55 148.2 113.78 147.91 109.03 147.33C105.39 146.88 102.57 144.03 102.18 140.38L100.44 124.19C100.16 121.55 101.79 119.04 104.31 118.22C105.21 117.93 106.12 117.65 107.02 117.4L112.59 116.02L112.6 116Z" fill="white"/>
<path d="M57.5299 140.36C57.1399 144 54.3199 146.86 50.6799 147.31C45.9199 147.89 41.1299 148.19 36.3399 148.19C31.5499 148.19 26.7799 147.9 22.0299 147.32C18.3899 146.87 15.5699 144.02 15.1799 140.37L13.4399 124.18C13.1599 121.54 14.7899 119.03 17.3099 118.21C19.9899 117.34 25.3999 116.14 25.4099 116.14L28.3399 114.13V110.12C24.9599 107.76 22.5699 104.15 21.7699 100.05L20.4099 99.45C18.9699 98.81 17.9599 97.44 17.7599 95.88L17.3699 92.67C17.1599 90.96 18.3299 89.38 20.0199 89.07C20.0599 89.07 20.0999 89.06 20.1399 89.06L21.2999 89C21.1199 83.19 23.1199 81.78 25.3899 81.18C25.8399 77.77 28.1999 74.04 36.3299 74C40.4899 74 44.3499 75.65 47.2099 78.66C49.8999 81.48 51.3499 85.12 51.3499 88.99L52.5699 89.05C52.5699 89.05 52.6499 89.05 52.6899 89.06C54.3899 89.36 55.5499 90.95 55.3399 92.66L54.9499 95.87C54.7599 97.43 53.7499 98.8 52.2999 99.44L50.8799 100.07C50.0699 104.16 47.6999 107.75 44.3399 110.1V114.14L47.2099 116.12C47.2399 116.12 52.6899 117.33 55.3699 118.2C57.8999 119.02 59.5199 121.53 59.2499 124.18L58.2299 133.68L57.4999 140.37L57.5299 140.36Z" fill="white"/>
<path d="M108.65 71.65C109.03 71.65 109.41 71.55 109.75 71.34C110.41 70.93 110.79 70.2 110.74 69.42L109.98 57.43C109.96 57.08 110.08 56.74 110.31 56.46C114.25 51.85 116.42 45.96 116.42 39.89C116.42 25.86 104.99 14.42 90.9601 14.39H90.9101C85.1301 14.39 79.6801 16.27 75.1401 19.84C74.7301 20.17 74.6601 20.76 74.9801 21.18C75.3101 21.59 75.9001 21.66 76.3201 21.34C80.5201 18.03 85.5601 16.29 90.9101 16.29H90.9601C103.95 16.32 114.52 26.9 114.52 39.89C114.52 45.51 112.52 50.96 108.87 55.23C108.31 55.88 108.04 56.71 108.09 57.55L108.85 69.54C108.85 69.62 108.82 69.68 108.76 69.72C108.69 69.76 108.62 69.76 108.56 69.72L97.8201 63.44C97.1401 63.04 96.3201 62.9 95.5301 63.06C94.9901 63.17 94.4401 63.26 93.8901 63.33C93.3701 63.4 93.0001 63.87 93.0601 64.39C93.1201 64.91 93.6001 65.28 94.1201 65.22C94.7101 65.15 95.3101 65.05 95.8901 64.93C96.2201 64.86 96.5601 64.92 96.8501 65.08L107.59 71.36C107.92 71.55 108.28 71.65 108.65 71.65Z" fill="black"/>
<path d="M142.4 118.19C139.72 117.32 134.04 115.98 134.04 115.98L138.73 114.39C140.16 113.91 141.08 112.52 140.97 111.02L140.09 98.99C141.11 98.26 141.81 97.13 141.96 95.86L142.35 92.65C142.56 90.94 141.39 89.36 139.7 89.05C139.66 89.05 139.62 89.04 139.58 89.04L138.36 88.98C138.34 80.71 131.6 73.98 123.33 73.98C115.06 73.98 108.32 80.71 108.3 88.98L107.16 89.04C107.16 89.04 107.08 89.04 107.04 89.05C105.34 89.35 104.18 90.94 104.39 92.65L104.78 95.86C104.94 97.15 105.65 98.3 106.7 99.02L105.82 111.02C105.71 112.52 106.63 113.9 108.05 114.39L112.65 115.96L112.6 116C111.92 116.47 111.58 117.3 111.74 118.12L113.47 126.83C113.57 127.33 113.9 127.74 114.36 127.95C114.57 128.04 114.79 128.09 115.01 128.09C115.28 128.09 115.55 128.02 115.79 127.88L122.04 124.29C122.5 124.56 122.8 124.72 122.83 124.73C123.05 124.82 123.56 124.85 123.87 124.73C123.93 124.71 124.22 124.55 124.65 124.3L130.88 127.88C131.12 128.02 131.39 128.09 131.66 128.09C131.88 128.09 132.1 128.04 132.31 127.95C132.77 127.74 133.1 127.32 133.2 126.83L134.91 118.22C137.2 118.69 139.51 119.3 141.8 120.04C143.46 120.58 144.53 122.23 144.34 123.96L142.6 140.16C142.3 142.9 140.18 145.05 137.45 145.39C128.1 146.54 118.63 146.54 109.28 145.39C106.54 145.05 104.42 142.9 104.12 140.16L102.38 123.97C102.19 122.24 103.26 120.59 104.92 120.05C105.79 119.77 106.68 119.5 107.55 119.26C108.07 119.12 108.37 118.58 108.22 118.07C108.08 117.55 107.54 117.25 107.03 117.4C106.13 117.65 105.22 117.93 104.32 118.22C101.79 119.04 100.17 121.55 100.45 124.19L102.19 140.38C102.58 144.03 105.4 146.88 109.04 147.33C113.79 147.91 118.57 148.2 123.35 148.2C128.13 148.2 132.93 147.91 137.69 147.32C141.33 146.87 144.14 144.02 144.54 140.37L146.28 124.17C146.57 121.52 144.94 119.02 142.41 118.19H142.4ZM138.19 97.76V97.73L138.33 90.91L139.42 90.96C140.08 91.11 140.52 91.73 140.44 92.4L140.05 95.61C139.94 96.5 139.36 97.28 138.54 97.65L138.19 97.81C138.19 97.81 138.19 97.77 138.19 97.75V97.76ZM123.34 75.92C130.56 75.92 136.44 81.79 136.44 89L136.38 91.68C136.11 91.16 135.88 90.7 135.73 90.41C135.06 89.09 134.12 87.63 132.2 86.79C130.69 86.13 129.1 86.26 127.42 86.39C124.36 86.63 120.89 86.91 116.66 82.33C116.39 82.04 115.97 81.94 115.59 82.09C115.22 82.24 114.98 82.59 114.98 82.99C114.98 86.54 113.56 87.66 112.31 88.64C111.64 89.17 111.01 89.67 110.67 90.45C110.6 90.62 110.46 90.94 110.29 91.34L110.26 89.93C110.26 89.93 110.26 89.88 110.26 89.86C110.26 89.85 110.26 89.83 110.26 89.82L110.24 89.01C110.24 81.79 116.11 75.92 123.33 75.92H123.34ZM136.3 95.77L136.26 97.68C135.96 103.6 131.95 108.73 126.27 110.45L124.87 110.87C123.88 111.17 122.83 111.17 121.85 110.87L120.44 110.45C114.75 108.74 110.74 103.6 110.45 97.69L110.41 96C110.6 95.55 112.15 91.95 112.47 91.21C112.61 90.88 113.04 90.55 113.53 90.16C114.65 89.28 116.23 88.03 116.76 85.12C120.98 88.84 124.61 88.56 127.59 88.32C129.09 88.2 130.38 88.1 131.44 88.56C132.72 89.12 133.4 90.05 134.02 91.28C134.5 92.24 135.94 95.03 136.31 95.76L136.3 95.77ZM106.7 95.63L106.31 92.42C106.23 91.75 106.67 91.12 107.33 90.98L108.35 90.93L108.51 97.77C108.51 97.77 108.51 97.79 108.51 97.8L108.22 97.67C107.4 97.31 106.82 96.53 106.71 95.64L106.7 95.63ZM108.68 112.56C108.09 112.36 107.72 111.79 107.76 111.17L108.58 99.95L108.78 100.04C109.58 104.14 111.96 107.75 115.34 110.11V114.12L114.64 114.6L108.67 112.56H108.68ZM115.27 125.94L113.64 117.74C113.63 117.68 113.65 117.63 113.7 117.6L115.36 116.46C115.45 118.4 116.73 120.38 119.19 122.35C119.53 122.62 119.87 122.88 120.2 123.11L115.26 125.95L115.27 125.94ZM123.36 122.81C121.39 121.73 117.29 118.94 117.29 116.25V111.27C118.1 111.69 118.97 112.04 119.87 112.31L121.28 112.73C121.96 112.93 122.65 113.04 123.35 113.04C124.05 113.04 124.74 112.94 125.42 112.73L126.82 112.31C127.73 112.04 128.6 111.68 129.43 111.26V116.25C129.42 118.96 125.33 121.74 123.35 122.81H123.36ZM131.41 125.94L126.5 123.12C128.6 121.64 131.22 119.24 131.35 116.48L133.05 117.65L131.41 125.94ZM132.05 114.61L131.37 114.14V110.1C134.74 107.75 137.11 104.15 137.92 100.07L138.24 99.93L139.06 111.17C139.1 111.79 138.72 112.36 138.14 112.56L132.07 114.61H132.05Z" fill="black"/>
<path d="M55.4001 118.19C52.7201 117.32 47.2701 116.12 47.2401 116.11L44.3601 114.13V110.09C47.7301 107.74 50.1001 104.14 50.9101 100.06L52.3301 99.43C53.7701 98.79 54.7801 97.42 54.9801 95.86L55.3701 92.65C55.5801 90.94 54.4101 89.36 52.7201 89.05C52.6801 89.05 52.6401 89.04 52.6001 89.04L51.3801 88.98C51.3801 85.11 49.9301 81.47 47.2401 78.65C44.3801 75.64 40.5101 73.99 36.3601 73.99C28.2301 74.03 25.8801 77.76 25.4201 81.17C23.1501 81.77 21.1501 83.18 21.3301 88.99L20.1701 89.05C20.1701 89.05 20.0901 89.05 20.0501 89.06C18.3501 89.36 17.1901 90.95 17.4001 92.66L17.7901 95.87C17.9801 97.43 18.9901 98.8 20.4401 99.44L21.8001 100.04C22.6001 104.14 24.9801 107.75 28.3601 110.11V114.12L25.4401 116.13C25.4401 116.13 20.0201 117.33 17.3401 118.2C14.8101 119.02 13.1901 121.53 13.4701 124.17L15.2101 140.36C15.6001 144.01 18.4201 146.86 22.0601 147.31C26.8101 147.89 31.5901 148.18 36.3701 148.18C41.1501 148.18 45.9501 147.89 50.7101 147.3C54.3501 146.85 57.1601 144 57.5601 140.35C57.6201 139.82 57.2301 139.34 56.7001 139.28C56.1701 139.22 55.6901 139.61 55.6301 140.14C55.3301 142.88 53.2101 145.03 50.4801 145.37C41.1401 146.52 31.6601 146.52 22.3101 145.37C19.5701 145.03 17.4501 142.88 17.1501 140.14L15.4101 123.95C15.2201 122.22 16.2901 120.57 17.9501 120.03C20.2201 119.29 22.5201 118.68 24.7901 118.22L26.4901 126.81C26.5901 127.31 26.9201 127.73 27.3801 127.93C27.5901 128.02 27.8101 128.07 28.0301 128.07C28.3001 128.07 28.5701 128 28.8101 127.86L35.0601 124.27C35.5201 124.54 35.8201 124.69 35.8501 124.71C36.1201 124.85 36.6001 124.87 36.8901 124.71C36.9501 124.68 37.2401 124.53 37.6701 124.28L43.9001 127.86C44.1401 128 44.4101 128.07 44.6801 128.07C44.9001 128.07 45.1201 128.02 45.3301 127.93C45.7901 127.72 46.1201 127.3 46.2201 126.81L47.9301 118.2C50.2201 118.67 52.5301 119.28 54.8201 120.02C56.4801 120.56 57.5501 122.21 57.3601 123.94L56.3401 133.44C56.2801 133.97 56.6701 134.45 57.2001 134.51C57.2401 134.51 57.2701 134.51 57.3101 134.51C57.8001 134.51 58.2201 134.14 58.2701 133.64L59.2901 124.14C59.5601 121.49 57.9301 118.99 55.4101 118.16L55.4001 118.19ZM51.1901 97.76V97.73L51.3301 90.91L52.4201 90.96C53.0801 91.11 53.5201 91.73 53.4401 92.4L53.0501 95.61C52.9401 96.5 52.3601 97.28 51.5401 97.65L51.1901 97.81C51.1901 97.81 51.1901 97.77 51.1901 97.75V97.76ZM21.2001 97.66C20.3801 97.3 19.8001 96.52 19.6901 95.62L19.3001 92.41C19.2201 91.74 19.6601 91.11 20.3201 90.97L21.3601 90.92L21.5001 97.76C21.5001 97.76 21.5001 97.78 21.5001 97.79L21.2001 97.66ZM23.2801 89.63C22.9301 83.62 24.6601 83.27 26.5001 82.9C26.9301 82.81 27.2501 82.45 27.2801 82.01C27.5201 77.94 30.4901 75.96 36.3501 75.92C39.9601 75.92 43.3301 77.36 45.8201 79.98C48.3101 82.6 49.5901 86.03 49.4101 89.64V90C49.2701 89.8 49.1601 89.62 49.0701 89.5C47.8701 87.68 47.0301 86.48 47.0201 86.46C46.8401 86.2 46.5401 86.05 46.2301 86.05C46.2101 86.05 46.1801 86.05 46.1601 86.05C46.0301 86.06 33.3501 86.95 28.9301 83.38C28.6801 83.18 28.3501 83.11 28.0401 83.21C27.7301 83.31 27.4901 83.55 27.4001 83.85C26.5401 86.66 24.7201 88.64 23.3001 89.95C23.3001 89.95 23.3001 89.64 23.3001 89.63H23.2801ZM23.4301 97.69L23.3101 92.5C23.3701 92.45 23.4301 92.4 23.4901 92.34C24.7901 91.23 27.3701 89.04 28.7901 85.63C33.7601 88.46 43.3001 88.15 45.7201 88.02C46.0701 88.52 46.6801 89.42 47.4301 90.56C47.8001 91.13 48.8901 92.71 49.3201 93.34L49.2301 97.67C48.9301 103.59 44.9201 108.72 39.2401 110.44L37.8301 110.86C36.8401 111.16 35.7901 111.16 34.8101 110.86L33.4001 110.44C27.7201 108.73 23.7001 103.59 23.4101 97.68L23.4301 97.69ZM28.2601 125.94L26.6201 117.65L28.3501 116.46C28.4401 118.4 29.7201 120.38 32.1801 122.35C32.5201 122.62 32.8601 122.88 33.1901 123.11L28.2501 125.94H28.2601ZM36.3501 122.81C34.3801 121.73 30.2801 118.94 30.2801 116.25V111.27C31.0901 111.69 31.9601 112.04 32.8601 112.31L34.2701 112.73C34.9501 112.93 35.6401 113.04 36.3401 113.04C37.0401 113.04 37.7301 112.94 38.4101 112.73L39.8201 112.31C40.7301 112.04 41.6001 111.68 42.4301 111.26V116.25C42.4201 118.96 38.3301 121.74 36.3501 122.81ZM44.4001 125.94L39.4901 123.12C41.5901 121.64 44.2101 119.24 44.3401 116.48L46.0401 117.65L44.4001 125.94Z" fill="black"/>
<path d="M70.6899 23.84C57.2099 23.87 46.1899 34.91 46.1799 48.39C46.1799 54.48 48.3899 60.05 52.0599 64.34C52.4499 64.8 52.6499 65.39 52.6099 65.99L51.8499 77.98C51.7899 78.9 52.7799 79.51 53.5699 79.04L64.3099 72.76C64.7999 72.47 65.3699 72.38 65.9299 72.49C67.6199 72.82 69.3699 72.99 71.1699 72.96C84.5299 72.73 95.3199 61.72 95.2899 48.35C95.2599 34.79 84.2499 23.81 70.6799 23.84H70.6899ZM82.3299 51.44C79.0999 55.57 75.6699 59.11 71.9999 61.93C71.3899 62.4 70.5399 62.4 69.9399 61.93C66.2699 59.1 62.8399 55.56 59.6099 51.44C57.9699 49.34 57.2399 46.66 57.5699 44.02C58.0399 40.29 61.2899 37.54 65.0499 37.69C66.2999 37.74 67.5099 38.12 68.5699 38.77L70.3399 39.87C70.7199 40.11 71.2099 40.11 71.5999 39.87L73.3699 38.77C74.4299 38.11 75.6399 37.74 76.8899 37.69C80.6499 37.53 83.8999 40.28 84.3699 44.02C84.6999 46.67 83.9799 49.34 82.3299 51.44Z" fill="black"/>
<path d="M32.38 59.04C32.5 59.04 32.62 59.02 32.73 58.97L39.3 56.35C39.79 56.15 40.03 55.6 39.83 55.11C39.63 54.62 39.08 54.38 38.59 54.58L32.02 57.2C31.53 57.4 31.29 57.95 31.49 58.44C31.64 58.81 32 59.04 32.37 59.04H32.38Z" fill="black"/>
<path d="M34.4901 31.25L40.5701 34.86C40.7201 34.95 40.8901 34.99 41.0501 34.99C41.3701 34.99 41.6901 34.82 41.8701 34.53C42.1401 34.08 41.9901 33.5 41.5401 33.23L35.4601 29.62C35.0101 29.35 34.4301 29.5 34.1601 29.95C33.8901 30.4 34.0401 30.99 34.4901 31.25Z" fill="black"/>
<path d="M121.23 30.95C121.38 30.95 121.53 30.91 121.68 30.84L127.93 27.53C128.39 27.28 128.57 26.71 128.32 26.25C128.07 25.79 127.5 25.61 127.04 25.86L120.79 29.17C120.33 29.42 120.15 29.99 120.4 30.45C120.57 30.77 120.9 30.96 121.24 30.96L121.23 30.95Z" fill="black"/>
<path d="M121.82 50.66C121.34 50.44 120.78 50.66 120.56 51.13C120.34 51.61 120.56 52.17 121.03 52.39L127.46 55.33C127.59 55.39 127.72 55.42 127.85 55.42C128.21 55.42 128.56 55.21 128.72 54.86C128.94 54.38 128.72 53.82 128.25 53.6L121.82 50.66Z" fill="black"/>
</svg>
