<svg width="52" height="52" viewBox="0 0 52 52" fill="none" xmlns="http://www.w3.org/2000/svg">
<path fill-rule="evenodd" clip-rule="evenodd" d="M39.1558 29.837C39.1648 39.545 31.3018 47.422 21.5938 47.431C11.8858 47.44 4.0088 39.577 3.9998 29.869C3.9908 20.161 11.8538 12.284 21.5618 12.275C31.2698 12.266 39.1468 20.129 39.1558 29.837Z" fill="#5746B2"/>
<path fill-rule="evenodd" clip-rule="evenodd" d="M31.3576 15.2678L24.3786 12.5468L25.7076 9.1398L32.6856 11.8608L31.3576 15.2678Z" fill="#FF492C"/>
<path fill-rule="evenodd" clip-rule="evenodd" d="M28.8263 10.9081C28.8263 10.9083 28.8264 10.9079 28.8263 10.9081L28.8274 10.9052C28.8292 10.9007 28.8323 10.8926 28.8369 10.8814C28.8461 10.8588 28.8612 10.8236 28.8825 10.7783C28.9252 10.6876 28.9923 10.5584 29.0867 10.4121C29.2773 10.1168 29.5686 9.76832 29.9806 9.51633C30.3844 9.2693 30.9219 9.10345 31.6385 9.19027C32.3643 9.2782 33.2995 9.62881 34.4778 10.4651C37.0185 12.2689 39.0212 12.3501 40.4247 11.9009C41.1135 11.6805 41.6328 11.3399 41.9807 11.0539C42.1549 10.9107 42.2873 10.7801 42.378 10.683C42.4234 10.6345 42.4585 10.5941 42.4832 10.5646C42.4956 10.5498 42.5054 10.5378 42.5126 10.5287L42.5216 10.5173L42.5246 10.5134L42.5257 10.5119C42.526 10.5116 42.5266 10.5107 42.1544 10.2279L42.5266 10.5107C42.6828 10.3051 42.6428 10.0119 42.4372 9.85566C42.2322 9.69989 41.94 9.73927 41.7835 9.94336C41.7832 9.94377 41.7828 9.94418 41.7825 9.94459L41.7814 9.94597C41.7788 9.94925 41.7738 9.95539 41.7665 9.96411C41.7519 9.98155 41.728 10.0092 41.6948 10.0447C41.6284 10.1158 41.5255 10.2177 41.3868 10.3317C41.1089 10.5602 40.6921 10.8336 40.1397 11.0104C39.0606 11.3557 37.3604 11.3649 35.019 9.7027C33.7564 8.80652 32.6758 8.3741 31.751 8.26206C30.8171 8.14891 30.0691 8.36613 29.4927 8.71872C28.9244 9.06635 28.5406 9.53404 28.3011 9.90504C28.1806 10.0919 28.0939 10.2583 28.0366 10.38C28.0079 10.441 27.9864 10.4911 27.9715 10.5273C27.9641 10.5455 27.9583 10.5602 27.9541 10.5711L27.9491 10.5847L27.9474 10.5892L27.9468 10.5909C27.9467 10.5912 27.9463 10.5922 28.3862 10.7498L27.9463 10.5922C27.8592 10.8353 27.9857 11.1029 28.2287 11.19C28.4716 11.277 28.739 11.1508 28.8263 10.9081ZM28.8263 10.9081L28.826 10.9091C28.8259 10.9093 28.8259 10.9094 28.826 10.9091M28.8263 10.9081L28.826 10.9091Z" fill="#062846"/>
<path fill-rule="evenodd" clip-rule="evenodd" d="M31.0039 14.8667C39.2539 20.1139 41.6897 31.0548 36.4435 39.3059C31.1964 47.5569 20.2553 49.9917 12.0043 44.7455L12.5409 43.9017C20.3259 48.8515 30.6489 46.5543 35.5997 38.7693C40.5495 30.9843 38.2513 20.6613 30.4673 15.7105L31.0039 14.8667Z" fill="#062846"/>
<path fill-rule="evenodd" clip-rule="evenodd" d="M31.0039 14.8667C39.2539 20.1139 41.6897 31.0548 36.4435 39.3059C31.1964 47.5569 20.2553 49.9917 12.0043 44.7455L12.5409 43.9017C20.3259 48.8515 30.6489 46.5543 35.5997 38.7693C40.5495 30.9843 38.2513 20.6613 30.4673 15.7105L31.0039 14.8667Z" fill="#062846"/>
<path fill-rule="evenodd" clip-rule="evenodd" d="M41.8645 4.53319C42.1223 4.54719 42.3199 4.76755 42.3059 5.02536L42.2269 6.47936C42.2129 6.73717 41.9926 6.93482 41.7347 6.92081C41.4769 6.9068 41.2793 6.68645 41.2933 6.42863L41.3723 4.97464C41.3863 4.71682 41.6067 4.51918 41.8645 4.53319Z" fill="#062846"/>
<path fill-rule="evenodd" clip-rule="evenodd" d="M48.2613 11.0035C48.2963 11.2593 48.1172 11.495 47.8614 11.53L46.5444 11.71C46.2886 11.745 46.0529 11.5659 46.0179 11.3101C45.9829 11.0543 46.162 10.8186 46.4178 10.7836L47.7348 10.6036C47.9906 10.5686 48.2263 10.7477 48.2613 11.0035Z" fill="#062846"/>
<path fill-rule="evenodd" clip-rule="evenodd" d="M46.1484 6.48923C46.3441 6.6577 46.3661 6.95288 46.1977 7.14854L45.2867 8.20654C45.1182 8.4022 44.823 8.42423 44.6274 8.25576C44.4317 8.08729 44.4097 7.79211 44.5781 7.59645L45.4891 6.53845C45.6576 6.3428 45.9528 6.32076 46.1484 6.48923Z" fill="#062846"/>
<path fill-rule="evenodd" clip-rule="evenodd" d="M33.1515 12.0424L31.8235 15.4494L30.8917 15.0862L32.2197 11.6792L33.1515 12.0424Z" fill="#062846"/>
</svg>
