<svg width="20" height="20" viewBox="0 0 20 20" fill="none" xmlns="http://www.w3.org/2000/svg">
  <path fill="currentColor" d="M5.99072 3.5874C3.86926 3.58745 2.1499 5.30773 2.1499 7.4292C2.14999 9.55059 3.86932 11.27 5.99072 11.27C8.11216 11.27 9.83243 9.55062 9.83252 7.4292H11.4399C11.4399 8.64377 11.0424 9.76536 10.3706 10.6714L15.4585 15.7593L14.3208 16.896L9.23291 11.8091C8.32689 12.4808 7.20523 12.8784 5.99072 12.8784C2.98125 12.8784 0.541592 10.4387 0.541504 7.4292C0.541504 4.41966 2.98119 1.98002 5.99072 1.97998V3.5874Z"/>
  <path fill="currentColor" d="M7.854 2.11963C7.94817 3.90881 9.3783 5.33894 11.1675 5.43311C9.37833 5.52727 7.94821 6.95646 7.854 8.74561C7.75978 6.95648 6.33064 5.52728 4.5415 5.43311C6.33068 5.33894 7.75984 3.90881 7.854 2.11963Z"/>
  <path fill="currentColor" d="M11.4429 0.104004C11.49 0.998594 12.2055 1.71317 13.1001 1.76025C12.2056 1.80733 11.4901 2.52207 11.4429 3.4165C11.3956 2.52209 10.6811 1.80733 9.78662 1.76025C10.6812 1.71317 11.3958 0.998584 11.4429 0.104004Z"/>
</svg>
