<svg xmlns="http://www.w3.org/2000/svg" width="10" height="14" viewBox="0 0 10 14" fill="none">
  <path d="M5 14C4.69907 14 4.41551 13.9263 4.14931 13.779C3.8831 13.6317 3.68634 13.4226 3.55903 13.1515H3.33333C2.98611 13.1515 2.69097 13.0278 2.44792 12.7803C2.20486 12.5328 2.08333 12.2323 2.08333 11.8788V9.22727C1.42361 8.75589 0.911458 8.15488 0.546875 7.42424C0.182292 6.6936 0 5.91583 0 5.09091C0 3.67677 0.486111 2.47475 1.45833 1.48485C2.43056 0.494949 3.61111 0 5 0C6.38889 0 7.56944 0.494949 8.54167 1.48485C9.51389 2.47475 10 3.67677 10 5.09091C10 5.91583 9.81771 6.6936 9.45312 7.42424C9.08854 8.15488 8.57639 8.75589 7.91667 9.22727V11.8788C7.91667 12.2323 7.79514 12.5328 7.55208 12.7803C7.30903 13.0278 7.01389 13.1515 6.66667 13.1515H6.42361C6.2963 13.4226 6.10243 13.6317 5.84201 13.779C5.5816 13.9263 5.30093 14 5 14ZM3.33333 11.8788H6.66667V11.0303H3.33333V11.8788ZM3.33333 10.1818H6.66667V9.33333H3.33333V10.1818ZM5.41667 8.06061V6.11616L6.96181 4.54293L6.37153 3.94192L5 5.33838L3.62847 3.94192L3.03819 4.54293L4.58333 6.11616V8.06061H5.41667Z" fill="#4C4B53"/>
</svg>
