<svg width="20" height="20" viewBox="0 0 20 20" fill="none" xmlns="http://www.w3.org/2000/svg"><path fill="currentColor" d="M5.49558 18C5.08186 18 4.72917 17.8527 4.4375 17.5581C4.14583 17.2635 4 16.9093 4 16.4956C4 16.0819 4.14731 15.7292 4.44192 15.4375C4.73654 15.1458 5.09071 15 5.50442 15C5.91814 15 6.27083 15.1473 6.5625 15.4419C6.85417 15.7365 7 16.0907 7 16.5044C7 16.9181 6.85269 17.2708 6.55808 17.5625C6.26346 17.8542 5.90929 18 5.49558 18ZM14.4956 18C14.0819 18 13.7292 17.8527 13.4375 17.5581C13.1458 17.2635 13 16.9093 13 16.4956C13 16.0819 13.1473 15.7292 13.4419 15.4375C13.7365 15.1458 14.0907 15 14.5044 15C14.9181 15 15.2708 15.1473 15.5625 15.4419C15.8542 15.7365 16 16.0907 16 16.5044C16 16.9181 15.8527 17.2708 15.5581 17.5625C15.2635 17.8542 14.9093 18 14.4956 18ZM4.625 4H16.5C16.6944 4 16.8368 4.07639 16.9271 4.22917C17.0174 4.38194 17.0278 4.54167 16.9583 4.70833L14.6381 10.0803C14.5182 10.3601 14.3368 10.5833 14.0938 10.75C13.8507 10.9167 13.5764 11 13.2708 11H6.60417L5.72917 12.5H16V14H5.75C5.15278 14 4.71181 13.7489 4.42708 13.2468C4.14236 12.7447 4.14583 12.2458 4.4375 11.75L5.52083 9.875L2.79167 3.5H1V2H3.77083L4.625 4Z"/></svg>