<svg width="52" height="52" viewBox="0 0 52 52" fill="none" xmlns="http://www.w3.org/2000/svg">
<path fill-rule="evenodd" clip-rule="evenodd" d="M39.2979 7.99969V40.1177C39.2979 42.1347 37.6629 43.7697 35.6459 43.7697H4.73792L4.74792 43.7597C6.56992 43.6327 7.99891 42.1187 7.99891 40.2657V7.99969H39.2979Z" fill="#BCB5E0"/>
<path fill-rule="evenodd" clip-rule="evenodd" d="M7.99891 35.4053V40.2653C7.99891 42.1183 6.56991 43.6323 4.74791 43.7593C4.66391 43.7703 4.57891 43.7703 4.49391 43.7703C2.56691 43.7703 0.999908 42.2033 0.999908 40.2653V35.4053H7.99891Z" fill="#5746B2"/>
<path fill-rule="evenodd" clip-rule="evenodd" d="M36.3498 14.7333H11.3938V13.7333H36.3498V14.7333Z" fill="#062846"/>
<path fill-rule="evenodd" clip-rule="evenodd" d="M36.3498 19.2394H11.3938V18.2394H36.3498V19.2394Z" fill="#062846"/>
<path fill-rule="evenodd" clip-rule="evenodd" d="M20.3008 23.874H11.3938V22.874H20.3008V23.874Z" fill="#062846"/>
<path fill-rule="evenodd" clip-rule="evenodd" d="M27.163 33.2958L45.454 14.6028L48.978 18.0508L30.687 36.7438L27.163 33.2958Z" fill="#FFC800"/>
<path fill-rule="evenodd" clip-rule="evenodd" d="M30.6777 36.7388L24.9237 39.2698L27.1717 33.3018L30.6777 36.7388Z" fill="#F1F0F9"/>
<path fill-rule="evenodd" clip-rule="evenodd" d="M24.924 39.2693L25.643 37.3563L26.811 38.4393L24.924 39.2693Z" fill="#062846"/>
<path fill-rule="evenodd" clip-rule="evenodd" d="M47.8133 12.5003L45.6083 14.7533L48.7953 17.8723L51.0003 15.6183L47.8133 12.5003Z" fill="#5746B2"/>
<path fill-rule="evenodd" clip-rule="evenodd" d="M30.3952 36.5151L51.0002 15.6181L30.3952 36.5151Z" fill="white"/>
<path fill-rule="evenodd" clip-rule="evenodd" d="M51.3562 15.9691L30.7512 36.8661L30.0392 36.164L50.6442 15.267L51.3562 15.9691Z" fill="#062846"/>
</svg>
