<svg width="45" height="10" viewBox="0 0 45 10" fill="none" xmlns="http://www.w3.org/2000/svg">
<path d="M4.35424 9.03255C4.37617 9.0173 4.48227 8.98309 4.52258 8.96299C4.4961 9.03143 4.27278 9.08858 4.35424 9.03255ZM7.55604 3.68698C7.52196 3.71303 7.48802 3.73906 7.45421 3.76507C7.56554 3.73334 7.70979 3.67105 7.81674 3.64552C7.83423 3.6414 7.80327 3.69211 7.84358 3.67937C7.88376 3.66666 7.85959 3.62129 7.91475 3.59571C7.97574 3.56737 8.28143 3.49601 8.38486 3.45871C8.76357 3.32126 9.13886 3.16041 9.53207 3.04885C9.14477 3.22088 9.56151 3.11883 9.66431 3.06688C9.68806 3.05498 9.65103 2.96702 10.0588 2.85525C10.3168 2.78505 10.1245 2.9913 10.5249 2.7872C10.1708 2.80497 10.4913 2.70531 10.7466 2.61831C10.7893 2.60358 11.1469 2.50178 11.3048 2.44661C11.3579 2.42793 11.4233 2.35483 11.4939 2.33082C11.5424 2.31435 11.5876 2.3283 11.66 2.30373C12.0011 2.18837 12.3294 2.08281 12.674 1.98537C12.5146 2.16818 12.8449 1.9891 12.8631 1.98996C12.9539 1.998 12.5922 2.12038 12.7427 2.09635C12.911 2.04066 13.0808 1.98487 13.2522 1.92898C13.3022 1.90883 13.4598 1.88302 13.5123 1.87075C13.5447 1.86545 13.5771 1.86014 13.6095 1.85481C13.4389 1.86369 13.8171 1.71649 13.8965 1.74705C13.849 1.64033 14.8547 1.70693 14.9983 1.64824C15.0283 1.63588 14.817 1.61025 15.2911 1.56739C15.3426 1.56281 15.3281 1.59918 15.3545 1.59218C15.3703 1.58798 15.4523 1.46717 15.5649 1.51116C15.6057 1.52729 15.3747 1.632 15.8993 1.52786C15.6722 1.44941 16.6272 1.36368 16.8063 1.36655C16.7693 1.35688 16.7322 1.34722 16.6952 1.33755C16.8737 1.35252 16.9001 1.31116 16.9395 1.30767C17.0978 1.29366 17.317 1.30104 17.4634 1.2773C17.634 1.2497 17.627 1.18173 17.8292 1.18078C17.7799 1.17233 17.7311 1.16383 17.6811 1.15551C17.8198 1.14007 17.9569 1.12497 18.0957 1.10978C17.7886 1.2428 18.165 1.10467 18.1906 1.09929C18.2311 1.09049 18.1773 1.13511 18.2451 1.12128C18.2521 1.11958 18.2371 1.08643 18.3423 1.0683C18.5628 1.03052 18.5324 1.07886 18.6247 1.06601C18.6332 1.06467 18.5993 1.03747 18.7578 1.00894C19.2628 0.918438 18.7581 1.03307 18.7396 1.04C18.7149 1.0491 18.9053 1.15588 18.4698 1.16718C18.6161 1.16251 18.638 1.21817 18.6545 1.21742C18.6689 1.21666 18.9182 1.17537 18.9319 1.17158C19.0528 1.13579 18.939 1.11076 18.9621 1.10055C18.9807 1.09226 19.2917 1.10373 19.3462 0.976463C19.5043 1.06701 19.2769 1.08606 19.035 1.13488C19.0022 1.16192 19.2728 1.14869 19.2864 1.14691C19.6288 1.10241 19.4277 1.03718 19.4953 0.970113C19.5308 0.935008 19.6789 0.978321 19.5392 0.914387C19.8506 0.865953 19.667 0.936836 19.688 0.941152C19.7198 0.947406 19.8264 0.910432 19.8406 0.911775C19.8613 0.913779 19.7948 0.950511 19.8755 0.950291C19.8889 0.950052 20.011 0.885914 19.8429 0.883827C20.0647 0.862771 20.0407 0.824323 20.1256 0.897455C20.2574 0.722637 20.2468 0.97604 20.3074 0.977409C20.4688 0.980906 20.4078 0.864089 20.4154 0.857077C20.4683 0.811556 20.9145 0.80029 21.0207 0.769996C20.9882 0.863279 20.6726 0.812547 20.6057 0.838138C20.3841 0.922804 20.9333 0.843296 20.7806 0.974277C20.8463 0.935464 20.9116 0.896763 20.9773 0.858058C21.1129 0.914347 20.9359 0.966626 21.2754 0.90036C21.3242 0.832198 21.0343 0.938513 21.0885 0.883004C21.1203 0.850353 21.3184 0.820966 21.3206 0.805529C21.3224 0.786986 21.1451 0.829425 21.1702 0.798335C21.2245 0.73086 21.8891 0.712365 21.3922 0.802693C21.5317 0.785519 21.6172 0.8966 21.7332 0.845793C21.8086 0.812929 21.3505 0.697426 22.0131 0.653717C22.0334 0.708452 21.7513 0.699801 21.7447 0.704965C21.7353 0.712347 21.7998 0.833814 21.8092 0.839116C21.8414 0.855985 22.509 0.713631 22.6574 0.763119C22.5929 0.695319 23.1663 0.696807 23.2256 0.668573C23.2414 0.660732 23.1756 0.621841 23.1926 0.615305C23.299 0.57579 23.6034 0.626997 23.7414 0.615979C23.8959 0.603598 23.8727 0.56658 23.8814 0.565821C23.9495 0.56158 23.8977 0.593103 23.9393 0.589117C24.0019 0.582861 24.4324 0.549057 24.4538 0.541822C24.46 0.539541 24.3856 0.501287 24.4789 0.48449C24.4952 0.481647 24.4892 0.535044 24.7662 0.488188C25.0991 0.432169 24.5274 0.442531 24.662 0.375347C24.8849 0.435421 24.8707 0.358237 24.9298 0.359399C24.9502 0.359928 25.1063 0.413624 25.2698 0.396282C25.153 0.4165 25.0365 0.436926 24.9201 0.457552C25.0363 0.459426 25.2594 0.426735 25.3558 0.43237C25.4027 0.435089 25.3687 0.492599 25.4696 0.4832C25.491 0.480962 25.5656 0.341302 25.3057 0.421881C25.2808 0.376147 25.4091 0.396981 25.4665 0.379022C25.4752 0.376245 25.5039 0.29427 25.5824 0.337757C25.6012 0.348675 25.4241 0.594025 25.9136 0.389274C25.9294 0.382693 25.871 0.357873 25.8864 0.350709C25.8969 0.345825 26.0262 0.348198 26.0401 0.343093C26.0543 0.337639 25.9899 0.310497 26.0068 0.303032C26.0932 0.264585 26.2184 0.381722 26.035 0.385204C26.0972 0.396309 26.1593 0.407479 26.2215 0.418712C26.1495 0.328777 26.3156 0.385388 26.4 0.37679C26.9402 0.322336 26.5737 0.284863 26.6647 0.246899C26.8115 0.18624 26.7072 0.355193 26.9268 0.292743C26.9472 0.28709 26.6733 0.234275 27.2022 0.241699C27.1246 0.248885 27.047 0.256181 26.9695 0.263584C27.0198 0.352233 27.2497 0.24063 27.2678 0.238394C27.4737 0.214227 27.3357 0.254735 27.6403 0.191194C27.6675 0.18552 27.7285 0.204994 27.7866 0.190762C28.0277 0.131983 27.464 0.179036 27.4467 0.143301C27.4382 0.125026 28.0461 0.0984925 28.0675 0.106719C28.1579 0.140665 27.7927 0.1368 27.8645 0.180938C27.8906 0.195412 28.755 0.122599 28.9302 0.13638C29.1318 0.15085 29.226 0.272439 29.2229 0.13283C29.2839 0.268026 29.331 0.173105 29.3568 0.173298C29.6678 0.177244 29.6684 0.178757 29.9348 0.159822C29.9937 0.155751 30.0442 0.196377 30.0649 0.188968C30.0769 0.184506 30.0534 0.140429 30.1126 0.125622C30.1949 0.10484 30.692 0.144283 30.7292 0.169037C30.7663 0.193233 30.5196 0.181723 30.5642 0.22175C30.7426 0.223876 30.9137 0.212685 31.0933 0.216471C31.1679 0.21819 31.1296 0.246582 31.1619 0.247087C31.1756 0.247277 31.4331 0.222593 31.4223 0.212242C31.3967 0.18663 30.601 0.20652 30.8102 0.156103C30.8506 0.146194 30.9938 0.210681 30.9707 0.131502C31.6823 0.146225 32.3956 0.173153 33.1085 0.214288C32.697 0.260154 32.237 0.197498 31.8086 0.199195C31.7498 0.199235 31.5513 0.190343 31.5752 0.230609C31.9392 0.242696 32.3927 0.22884 32.7424 0.264227C32.7536 0.26538 32.7115 0.300322 32.7533 0.30711C32.8314 0.319621 33.0882 0.269213 33.131 0.285803C33.1382 0.289498 32.9912 0.332344 33.0345 0.363902C33.1454 0.444874 33.1799 0.274466 33.2776 0.279945C33.3536 0.28368 33.8566 0.387595 33.9858 0.342239C34.123 0.292793 33.6131 0.2922 33.6527 0.248726C33.9987 0.217576 34.3469 0.285173 34.6723 0.300075C34.678 0.300295 34.6304 0.261424 34.7034 0.261043C34.8308 0.260499 34.8608 0.31348 34.9219 0.325768C34.9878 0.338777 35.2234 0.34861 35.2533 0.36958C35.2571 0.372297 35.2058 0.418913 35.1985 0.419795C35.0948 0.432894 35.0632 0.36522 35.0539 0.363701C35.0191 0.358732 34.983 0.381282 34.9512 0.377587C34.8988 0.371483 34.8714 0.346403 34.8021 0.339765C34.7543 0.335122 34.7976 0.382515 34.7516 0.377473C34.7346 0.375352 34.5588 0.262597 34.5354 0.36509C34.528 0.392038 36.0158 0.546246 36.1669 0.541109C36.0403 0.516403 35.9136 0.492244 35.7866 0.46862C36.0439 0.521297 36.3635 0.470074 36.3734 0.594316C37.1798 0.684409 37.9857 0.797498 38.7886 0.937657C38.7924 0.937952 38.8037 0.94055 38.8076 0.940894C38.9605 0.96961 39.1056 0.997166 39.2575 1.02622C39.42 1.06625 39.3164 1.1273 39.5928 1.15454C39.5276 1.11708 39.4613 1.0795 39.3939 1.04178C39.533 1.08442 40.1452 1.23305 40.2488 1.23671C40.2621 1.23709 40.2947 1.17066 40.4492 1.19404C40.5902 1.21564 40.6008 1.27216 40.6718 1.29637C40.7333 1.31695 40.8054 1.31685 40.823 1.32333C40.8365 1.3284 40.8358 1.36152 40.8681 1.3737C40.972 1.41221 40.9032 1.30487 40.9894 1.4296C40.9627 1.42838 40.9358 1.42715 40.9088 1.42589C41.037 1.46685 41.2001 1.54861 41.0077 1.5341C40.9743 1.5316 41.0085 1.50622 40.9841 1.50142C40.029 1.32012 40.7779 1.52805 41.1224 1.54772C41.1989 1.61034 41.688 1.68242 41.701 1.69508C41.7208 1.71292 41.6296 1.73184 41.7323 1.78658C41.7524 1.79684 42.4036 1.91285 42.1584 1.92267C42.1082 1.92443 41.8008 1.84398 41.7269 1.83044C41.8806 1.96391 42.3229 1.91609 42.3676 1.93032C42.5507 1.9874 41.9913 1.93381 42.4084 2.03949C42.7292 2.12193 42.4398 1.98771 42.5714 1.98889C42.6447 1.98902 42.9947 2.14698 43.0057 2.05282C43.1348 2.07363 43.0487 2.10431 43.0636 2.11159C43.0774 2.11803 43.3317 2.15139 43.4059 2.19081C43.4149 2.19562 43.3728 2.23567 43.3817 2.24205C43.3996 2.25348 43.6388 2.30421 43.6488 2.30264C43.6555 2.30139 43.6102 2.24535 43.6358 2.24117C43.6655 2.23622 43.8903 2.30511 43.9054 2.29648C43.9281 2.28306 43.645 2.22216 43.7034 2.18772C43.8299 2.23274 44.0476 2.25686 44.1418 2.2419C44.1182 2.24705 43.9938 2.21581 43.9511 2.2006C43.99 2.13787 44.2562 2.20944 44.1509 2.23915C44.2163 2.22556 44.181 2.19975 44.2207 2.18109C44.2311 2.17645 44.3135 2.1969 44.3323 2.1893C44.335 2.18752 44.2574 2.13931 44.278 2.13C44.3156 2.11323 44.5611 2.18498 44.5791 2.19684C44.6307 2.23057 44.4243 2.19931 44.3996 2.22347C44.3962 2.22726 44.5518 2.32921 44.5529 2.33484C44.5487 2.3908 44.3691 2.30153 44.3779 2.35531C44.4223 2.37804 44.4665 2.40075 44.5106 2.42344C44.3176 2.42359 43.9851 2.30839 43.8822 2.34079C44.1603 2.39603 44.4405 2.4737 44.4065 2.59785C44.3923 2.6502 44.2682 2.64989 44.2691 2.66441C44.2736 2.71667 44.448 2.70793 44.4532 2.71202C44.4573 2.71623 44.4588 2.71966 44.458 2.72241C44.458 2.72241 44.458 2.72241 44.458 2.72241C44.4507 2.75034 44.2162 2.70907 44.2011 2.71871C44.1757 2.73617 44.2531 2.85673 44.2473 2.87728C44.2427 2.88047 44.0733 2.85884 44.1188 2.90955C44.165 2.96078 44.3075 2.99983 44.3115 3.00494C44.333 3.03398 44.0779 2.98691 44.0669 2.9978C44.0613 3.00323 44.1849 3.07899 44.1857 3.0915C44.186 3.1039 44.0772 3.10171 44.0274 3.12731C43.9902 3.14629 44.0719 3.19026 44.0555 3.19039C44.044 3.19026 43.8071 3.12682 43.7945 3.12867C43.7753 3.13112 43.8222 3.178 43.812 3.18393C43.7976 3.19253 43.7241 3.16072 43.7309 3.17528C43.7364 3.18608 44.0025 3.37574 43.9925 3.40498C43.9756 3.45466 43.6941 3.25503 43.9316 3.53225C43.9334 3.5341 44.0077 3.53875 44.0094 3.54053C44.0432 3.58895 43.8016 3.58491 44.0812 3.64913C43.5488 3.57533 43.9969 3.70809 43.8978 3.77297C43.8596 3.79784 43.6565 3.75836 43.6544 3.76314C43.6626 3.80978 43.735 3.79445 43.751 3.82055C43.7599 3.83506 43.5701 3.83189 43.6027 3.87108C43.6191 3.8911 43.8098 3.93616 43.8169 3.94116C43.8845 3.98819 43.785 3.99286 43.7963 4.01646C43.8037 4.03224 43.9176 4.06377 43.9199 4.0669C43.9234 4.07298 43.7547 4.08367 43.7175 4.09341C43.6892 4.10096 43.7754 4.14756 43.7566 4.14914C43.6439 4.15833 43.4502 4.00694 43.6261 4.19396C43.6368 4.20541 43.7173 4.22335 43.7193 4.22561C43.7586 4.27593 43.611 4.24006 43.5767 4.26361C43.5179 4.30417 43.7361 4.33077 43.5512 4.32123C43.6733 4.39033 43.747 4.40851 43.9041 4.44035C43.4693 4.35259 43.2849 4.44941 43.7578 4.57162C43.6078 4.52926 43.604 4.61043 43.559 4.59989C43.531 4.59315 43.3344 4.45969 43.3886 4.65704C43.3952 4.68162 43.5342 4.68941 43.4813 4.72221C43.1689 4.6277 43.4669 4.74809 43.466 4.75413C43.4335 4.85219 42.6916 4.57173 42.5572 4.55311C42.4024 4.52936 42.2467 4.57697 42.2145 4.56948C42.1059 4.54393 42.2056 4.52456 42.1848 4.5039C42.162 4.48262 41.8361 4.48957 41.8202 4.48175C41.7636 4.45091 41.8357 4.41649 41.8301 4.41268C41.7635 4.36605 41.3336 4.31126 41.2187 4.27563C41.2158 4.30768 41.4517 4.36095 41.2927 4.37948C41.1099 4.40182 41.1269 4.26117 41.1244 4.25424C40.3336 4.08918 39.5325 3.93889 38.7271 3.795C38.724 3.87057 39.2579 3.91036 39.2698 3.92292C39.3271 3.99244 38.4426 3.83042 38.336 3.78543C38.4174 3.81636 38.4974 3.84711 38.5759 3.87768C38.5046 3.90555 38.4036 3.88492 38.2918 3.85446L38.3098 3.85752C38.1866 3.82492 38.0527 3.78061 37.9423 3.78453C37.876 3.78693 37.9947 3.83881 37.9917 3.84071C37.9144 3.8627 37.8021 3.8197 37.8957 3.78821C37.7123 3.80437 37.7452 3.76116 37.6094 3.73796C37.6024 3.73682 37.6559 3.77964 37.5462 3.77868C37.4951 3.778 37.2264 3.74159 37.1863 3.76738C37.1699 3.77815 37.2881 3.93031 37.3204 3.81722C37.6042 3.91343 37.4209 3.77738 37.5338 3.79581C37.551 3.79905 37.5021 3.85689 37.792 3.86858C37.7205 3.97604 37.405 3.84261 37.3466 3.84942C37.2269 3.86222 37.6957 3.98826 37.7968 3.91188C37.7424 3.9963 37.8289 3.92898 37.9347 3.94898C38.0503 3.97092 37.9954 3.99004 38.0582 3.99999C38.2212 4.02647 38.1742 3.95986 38.2827 4.02255L38.2627 4.01914C38.2685 4.02248 38.2748 4.02617 38.2815 4.03023C38.2748 4.01824 38.2698 4.00774 38.2663 3.9986L38.2861 4.00197C38.2755 3.97313 38.2797 3.95788 38.2942 3.95244L38.2751 3.94918C38.3382 3.92901 38.5599 4.06744 38.6427 4.11851C38.5101 4.10105 38.3869 4.08547 38.254 4.06832L38.2746 4.07184C38.2182 4.06548 38.1618 4.05926 38.1053 4.05318C38.1141 4.06416 38.1229 4.07514 38.1316 4.08613C38.0845 4.07725 38.0374 4.06846 37.9902 4.05977C37.9992 4.05199 38.0082 4.04421 38.0172 4.03644C37.7636 4.05678 37.7133 3.98316 37.6933 3.97934C37.436 3.93381 37.1386 3.8944 36.8757 3.86194C36.8363 3.85725 36.8561 3.91825 36.5751 3.83904C36.4853 3.81398 36.5769 3.7782 36.4722 3.77331C36.3284 3.88276 36.3418 3.78434 36.3031 3.77996C36.1919 3.76802 36.1206 3.79183 36.1103 3.79108C35.9722 3.78165 35.7722 3.75708 35.6204 3.74804C35.6176 3.74826 35.6927 3.79353 35.5956 3.77336C35.562 3.76616 35.2651 3.57569 34.9894 3.60868C35.0592 3.625 35.1289 3.64149 35.1984 3.65815C35.1171 3.63507 34.5315 3.63499 34.671 3.68883C34.7564 3.72129 34.977 3.63172 34.9926 3.73468C34.8021 3.68628 33.7283 3.66924 33.6454 3.64487C33.634 3.64098 33.7065 3.6114 33.6908 3.60647C33.6786 3.60254 33.4323 3.59953 33.4001 3.58575C33.3809 3.57744 33.4906 3.56179 33.4823 3.54961C33.475 3.54061 33.1674 3.51454 33.1483 3.55535C33.2246 3.54137 33.4365 3.56422 33.3237 3.59455C33.3093 3.59829 33.236 3.5689 33.2184 3.57375C33.0551 3.6181 33.538 3.62428 33.6122 3.62869C33.308 3.66718 32.8409 3.58909 32.4883 3.61578C32.3468 3.57824 32.7004 3.56824 32.5401 3.53604C32.2071 3.46979 32.4502 3.58149 32.4397 3.5856C32.3563 3.6182 32.0763 3.42793 32.074 3.56927C31.9532 3.54633 31.9926 3.52893 31.8213 3.54555C31.8437 3.55555 31.8661 3.56557 31.8885 3.57561C31.6983 3.6548 31.2965 3.44728 31.3265 3.43179C31.4079 3.38965 31.6179 3.4564 31.6357 3.45503C31.6621 3.45299 31.7373 3.30962 32.026 3.44152C32.1464 3.34665 31.5662 3.37156 31.8308 3.30881C31.6526 3.31639 30.9177 3.24944 30.8118 3.29358C30.7992 3.29922 30.8588 3.39435 30.6768 3.34727C30.5903 3.32489 30.7983 3.32181 30.7586 3.30039C30.637 3.22913 28.9828 3.30984 28.6681 3.33189C28.6477 3.33283 28.654 3.30283 28.6339 3.30393C28.5722 3.30721 28.3495 3.36118 28.2386 3.35276C28.4696 3.39713 28.026 3.42189 27.9128 3.42198C27.7409 3.42161 27.7487 3.36895 27.674 3.36182C27.3861 3.3342 26.9504 3.48533 26.7212 3.38446C26.7413 3.49842 26.3329 3.35401 26.1522 3.3665C26.0107 3.37597 25.8118 3.46758 26.0057 3.49951C25.7622 3.5124 25.5062 3.55426 25.2785 3.58021C25.2409 3.58452 25.29 3.54624 25.2258 3.55469C25.22 3.5557 25.2147 3.58963 25.1597 3.59775C24.7051 3.66582 24.9213 3.57628 24.8339 3.56286C24.7849 3.55544 24.749 3.55279 24.7229 3.55319C24.9895 3.52283 25.2956 3.48421 25.3778 3.4766C25.3017 3.4085 24.7878 3.54046 24.6334 3.53482C24.6281 3.53457 24.6429 3.49245 24.6375 3.49265C24.6374 3.49266 24.6373 3.49267 24.6372 3.49268C24.5795 3.49453 24.2171 3.54307 24.2965 3.58442C24.3178 3.59544 24.485 3.57978 24.6835 3.55765C24.6305 3.57152 24.6747 3.61326 24.6654 3.61604C24.5521 3.64866 24.2673 3.63032 24.166 3.63398C24.143 3.63484 24.1474 3.66371 24.1436 3.66414C24.0519 3.66621 24.0813 3.57975 23.9961 3.67419C23.8211 3.58669 24.3039 3.62933 24.2642 3.56558C24.2329 3.51508 23.1834 3.64694 23.1945 3.72917C23.19 3.72085 23.1744 3.71156 23.1434 3.70237C23.0746 3.68185 22.7828 3.72144 22.7341 3.74193C22.726 3.74579 22.7379 3.82432 22.7274 3.82618C22.7013 3.83071 22.3355 3.80812 22.2073 3.86986C22.2807 3.87281 22.3541 3.87583 22.4276 3.8789C21.9917 3.92807 22.0622 3.94433 22.2097 3.95149C22.2169 3.95089 22.2243 3.95309 22.2313 3.95264C22.3456 3.95745 22.4919 3.95834 22.4948 3.96433C22.505 3.98671 21.7694 4.08323 21.9025 3.99422C21.9216 3.98179 22.2661 3.97578 22.0913 3.94269C22.0608 3.93683 21.843 3.97683 21.8305 3.97249C21.7491 3.94297 22.2227 3.83751 22.158 3.78993C22.0474 3.85476 21.8954 3.84448 21.7626 3.87339C21.7023 3.88649 21.692 3.92775 21.6846 3.92937C21.5735 3.95277 21.6317 3.904 21.5943 3.90941C21.5742 3.91244 21.3639 4.02665 21.3913 3.90021C20.6743 4.07693 21.2009 4.01279 21.6461 3.95386C21.5098 4.01456 21.2321 4.02585 21.1088 4.05122C21.0645 4.06034 21.0959 4.09768 21.0215 4.11493C20.8681 4.14996 20.1237 4.19562 19.9294 4.20991C20.0457 4.18045 20.0055 4.14075 19.9147 4.15551C19.8239 4.17031 19.908 4.21934 19.8911 4.22796C19.8733 4.23678 19.4408 4.26473 19.3701 4.28194C19.6909 4.21819 19.6121 4.18373 19.3369 4.21521C19.3749 4.19732 19.4129 4.17943 19.451 4.16155C19.2919 4.20044 18.9468 4.17812 18.8563 4.21066C18.842 4.21583 18.8996 4.24573 18.8917 4.24863C18.8116 4.2753 18.5288 4.27519 18.5177 4.28958C18.5082 4.30156 18.6307 4.31649 18.5889 4.3377C18.5801 4.34215 18.4593 4.30767 18.349 4.33526C18.3081 4.34546 18.3379 4.37698 18.3277 4.38044C18.2427 4.40921 18.2867 4.3432 18.128 4.37466C18.0111 4.39788 17.9315 4.4675 17.767 4.47096C18.3097 4.47048 17.857 4.50183 17.6387 4.55501C17.6036 4.56354 17.6433 4.62259 17.4265 4.62153C17.8623 4.44356 17.289 4.57893 17.1685 4.5948C17.1619 4.59534 17.1537 4.55384 17.0951 4.56144C17.0902 4.56218 17.1013 4.58943 17.0473 4.59928C16.5366 4.69262 16.8605 4.61408 16.759 4.60007C16.7161 4.59406 16.4691 4.67009 16.402 4.68072C16.3865 4.68304 16.3894 4.65267 16.3295 4.66243C16.2236 4.67978 16.1333 4.72466 16.064 4.73717C16.0557 4.73851 16.0495 4.69213 15.9174 4.72651C15.8803 4.73614 15.8405 4.75867 15.8958 4.76427C16.0807 4.78228 16.3998 4.65905 16.6071 4.67408C16.7949 4.68784 16.2213 4.77373 16.1926 4.77819C16.1817 4.7799 16.2898 4.74089 16.176 4.75261C16.0796 4.76259 15.9123 4.86834 15.7648 4.87187C15.7536 4.87218 15.6281 4.82109 15.6329 4.81636C15.6372 4.81278 15.8129 4.77237 15.7843 4.75647C15.7808 4.75469 15.6679 4.77147 15.6511 4.75899C15.6305 4.74381 15.5566 4.57631 15.532 4.57542C15.4687 4.57353 15.5146 4.60753 15.4743 4.61053C15.389 4.61691 15.0821 4.60872 15.0812 4.67062C15.1311 4.66705 15.1811 4.66346 15.2311 4.65987C14.9567 4.70601 15.078 4.71472 15.0406 4.73172C15.0005 4.75007 15.0045 4.6952 14.9115 4.70359C14.891 4.70546 14.5085 4.77228 14.5174 4.79377C14.7278 4.72699 14.6563 4.80446 14.6668 4.80413C14.7046 4.80302 14.7467 4.75927 14.7968 4.75275C15.1501 4.70738 14.803 4.81714 14.8884 4.82003C14.9178 4.82091 14.9704 4.78115 14.9828 4.78099C15.0231 4.78046 15.0298 4.82157 15.0557 4.8144C15.1164 4.79771 15.0358 4.74986 15.0403 4.74612C15.09 4.70165 15.3136 4.71558 15.1877 4.7986C15.272 4.80973 15.2709 4.73116 15.339 4.75277C15.4739 4.79554 15.2829 4.8072 15.2317 4.82498C15.051 4.8885 14.9914 4.86694 14.7323 4.91488C14.64 4.93192 14.5315 4.98589 14.4881 4.99429C14.4602 4.99965 14.1805 4.90713 14.2026 5.11214C14.1407 5.1091 14.0527 5.06827 13.9702 5.04019L14.189 4.99122C14.1304 4.98107 14.0751 4.97637 14.0353 4.99122C13.947 5.02428 13.9971 5.08516 13.9895 5.09044C13.9779 5.09863 13.868 5.12651 13.8346 5.14763C13.7954 5.17247 13.8249 5.19247 13.7607 5.22425C13.601 5.30324 13.5838 5.23076 13.5649 5.23154C13.3448 5.24163 13.4656 5.31487 13.4231 5.33704C13.3824 5.35757 12.7902 5.50177 12.6744 5.56735C12.7197 5.53722 12.7652 5.50707 12.8108 5.4769C12.7069 5.46126 12.6354 5.56361 12.6084 5.48486C12.6311 5.61865 12.4206 5.59188 12.3671 5.61281C12.346 5.62113 12.3549 5.64232 12.3276 5.65217C12.221 5.69074 11.9754 5.75145 11.922 5.7812C11.6892 5.90977 12.3504 5.78148 12.4042 5.76989C12.3008 5.80129 11.7446 6.01459 12.0244 5.99114C12.0676 5.98752 12.1204 5.90709 12.1424 5.89747C12.2914 5.83278 12.1871 5.92333 12.2007 5.92429C12.2237 5.92551 12.3092 5.84304 12.338 5.84025C12.3474 5.83931 12.3055 5.90411 12.4523 5.8578C12.3944 5.92595 11.9701 6.02337 11.9213 6.05126C11.9026 6.06166 12.0573 6.11695 11.6728 6.14021C11.6799 6.14777 11.6869 6.15533 11.6939 6.1629C11.4979 6.23166 11.3093 6.29855 11.1123 6.36882C11.1267 6.34118 11.223 6.26302 11.0873 6.31833C11.0093 6.35017 11.0836 6.37599 11.0768 6.37976C11.0103 6.41407 9.74733 6.831 9.50892 6.92379C9.42615 6.95488 9.21103 7.07281 9.19433 7.07963C9.09092 7.12057 8.71149 7.23129 8.64208 7.26273C8.59676 7.28304 8.6548 7.30467 8.61265 7.31809C8.57351 7.3305 8.60003 7.27934 8.58803 7.28201C8.48676 7.30322 7.79548 7.61505 7.61547 7.64531C7.72141 7.61623 8.21025 7.35009 8.18918 7.32905C8.1861 7.32615 8.0503 7.34513 8.029 7.36853C7.97398 7.3531 7.86327 7.50418 7.77755 7.51506C7.76787 7.51629 7.78243 7.44919 7.63839 7.4926C7.5875 7.50808 7.47431 7.59909 7.32864 7.60122C7.1498 7.69359 6.15396 8.00747 6.10851 8.09466C6.10765 8.0985 6.25231 8.06298 6.16948 8.12383C6.05999 8.20459 6.12664 8.05492 5.98136 8.10344C5.96189 8.10937 5.56632 8.28475 5.55867 8.29595C5.46493 8.40393 5.81628 8.286 5.81546 8.29463C5.80908 8.31723 5.53125 8.44473 5.51662 8.44628C5.50448 8.44639 5.70473 8.27118 5.43599 8.41824C5.47218 8.41401 5.50863 8.4097 5.54497 8.40547C5.41918 8.47933 5.38457 8.43064 5.35116 8.44081C5.24734 8.4723 5.17801 8.598 4.97491 8.56589C4.9216 8.55713 4.9783 8.49759 4.97139 8.49582C4.90544 8.4815 4.88305 8.6052 4.77776 8.56569C4.76909 8.56319 4.92681 8.44341 4.61949 8.57706C4.64373 8.57465 4.66803 8.57221 4.69241 8.56977C4.65284 8.60493 4.35367 8.74763 4.30766 8.76416C4.18127 8.80801 4.26497 8.71157 4.14624 8.77193C4.25395 8.80398 3.89081 8.97905 3.88521 8.91228C3.86783 9.00755 3.52989 9.09642 3.38718 9.1627C3.29235 9.20636 3.12688 9.32507 3.09506 9.33621C3.05744 9.34905 3.04412 9.295 2.97536 9.31528C2.95574 9.32102 2.78614 9.44897 2.59921 9.48121C2.56361 9.48715 2.45566 9.43888 2.50345 9.38851C2.58256 9.30347 2.81282 9.27151 2.78391 9.22517C2.75705 9.17309 2.51049 9.33571 2.4404 9.36366C2.10587 9.49723 2.26146 9.34706 2.24397 9.33478C2.20287 9.30456 2.02903 9.398 2.0204 9.3982C1.98179 9.39812 2.08768 9.30089 2.07715 9.27511C2.06181 9.24204 1.8638 9.27358 1.8961 9.24254C1.94142 9.19832 2.12359 9.16395 2.13084 9.15738C2.24129 9.06022 2.02987 9.07586 1.96129 9.0658C1.94033 9.06255 1.99057 9.01255 1.97622 9.01593C1.76139 9.06595 1.99071 9.14111 1.86262 9.19633C1.75016 9.2451 1.86243 9.1222 1.85733 9.12159C1.84981 9.12171 1.72044 9.18807 1.68911 9.18316C1.6755 9.17858 1.96514 8.90248 1.92961 8.86777C1.82258 8.93589 1.72105 9.00215 1.61554 9.07184C1.57765 9.0211 1.75574 8.97697 1.76885 8.96286C1.79539 8.93397 1.68949 8.95482 1.68417 8.93529C1.67999 8.9232 1.76594 8.8262 1.6605 8.86178C1.6255 8.8734 1.57371 8.95088 1.4323 8.97796C1.8276 8.69673 1.52064 8.82426 1.4947 8.813C1.47184 8.80022 1.65273 8.64237 1.40726 8.78669C1.33805 8.6859 1.39359 8.75018 1.45501 8.69237C1.53025 8.62196 1.30982 8.69449 1.64051 8.55192C1.59456 8.51128 1.3429 8.65175 1.32658 8.6561C1.31289 8.65891 1.35622 8.60317 1.33138 8.60596C1.04111 8.6405 1.22813 8.59462 1.1258 8.571C1.1155 8.56919 0.876172 8.67495 1.04374 8.56823C1.34848 8.37592 1.51941 8.37922 1.49347 8.19716C1.22169 8.25529 0.990719 8.51236 0.921777 8.55447C0.816888 8.61773 0.909299 8.52414 0.891421 8.52304C0.885191 8.52284 0.795094 8.57814 0.791456 8.57712C0.660482 8.49933 1.20478 8.33833 1.34889 8.23771C1.29844 8.24241 1.24994 8.24621 1.19757 8.25229C1.25574 8.21971 1.30737 8.19099 1.36389 8.15991C1.08144 8.26687 1.3454 8.15233 1.36459 8.02178C1.36856 7.99254 1.20916 8.12375 1.38214 7.95656C1.22388 8.02311 1.2618 7.97818 1.14286 8.07656C1.12412 8.03753 1.40726 7.83136 1.51703 7.75072C1.06929 7.93118 1.38574 7.94035 0.979293 8.06678C0.937166 8.15035 1.10665 8.04542 1.09708 8.06079C1.05891 8.11736 0.919991 8.13637 0.827835 8.31528C0.813881 8.34405 0.938139 8.33708 0.793579 8.4166C0.778903 8.42447 0.660864 8.43805 0.660604 8.43431C0.654226 8.39482 0.753832 8.3533 0.748977 8.33826C0.745903 8.32297 0.647332 8.39022 0.64475 8.38712C0.617886 8.34874 0.722807 8.32122 0.70184 8.31653C0.657144 8.30554 0.23648 8.43429 0.73446 8.17949C0.360188 8.45698 0.707687 8.25239 0.856024 8.14667C0.894852 8.11912 0.889306 8.09029 0.941624 8.05028C1.00799 7.99924 1.10478 7.96192 1.13817 7.93815C1.17678 7.91115 0.9122 7.97808 1.25903 7.81479C1.05659 7.84731 0.783479 8.07721 0.595448 8.13345C0.205394 8.25262 0.777554 7.89719 0.832633 7.85966C0.847455 7.84867 0.775621 7.84546 0.785165 7.83754C0.800214 7.82423 1.13978 7.65981 1.15897 7.61532C1.17719 7.57037 1.03712 7.68177 1.01229 7.6585C0.99362 7.64277 1.37916 7.39588 1.15509 7.49694C0.997153 7.56794 0.764036 7.79576 0.673728 7.73873C0.887337 7.61054 1.11028 7.48266 1.32469 7.36303C1.18725 7.3937 1.04831 7.42629 0.910386 7.45971C1.15759 7.31407 1.38759 7.24121 1.6038 7.0753C0.980166 7.26195 1.74965 6.89818 1.75029 6.88445C1.74921 6.87543 1.48339 6.90327 1.43762 6.90752C1.62249 6.77222 2.22561 6.4627 1.81901 6.53092C1.8939 6.52338 2.02507 6.38935 2.02125 6.38588C1.97718 6.34995 1.65026 6.54496 1.68478 6.47731C1.72909 6.39629 1.84777 6.41917 1.94695 6.36527C2.44875 6.09418 2.19547 5.91899 2.73396 5.72005C2.7198 5.71606 2.70565 5.71206 2.69151 5.70806C3.26278 5.46657 3.83571 5.23725 4.40918 5.01686C4.60315 4.84823 5.1727 4.56513 5.47102 4.45834C5.52896 4.43726 5.83343 4.36436 5.85878 4.36271C5.90447 4.36031 5.68321 4.45205 5.79373 4.43792C5.81931 4.43344 6.30987 4.26416 6.26035 4.23481C6.20306 4.25095 6.04037 4.33778 6.00899 4.33845C5.78338 4.34043 7.31151 3.8289 7.37951 3.77522C7.341 3.77359 7.30174 3.77226 7.26297 3.77078C7.36288 3.74185 7.45812 3.71482 7.55604 3.68698ZM4.65738 8.75753C4.62189 8.82278 4.47893 8.84839 4.40521 8.89527C4.30261 8.96041 4.19579 9.20129 4.20075 9.00609C4.35135 8.92289 4.50476 8.83954 4.65738 8.75753ZM7.0386 7.84989C6.92035 7.86975 6.96915 7.74522 7.07439 7.74813C7.08619 7.74854 7.19925 7.82274 7.0386 7.84989ZM5.88104 8.2623C5.88541 8.25908 5.98024 8.22307 5.98365 8.22336C6.08246 8.22553 5.79688 8.33375 5.88104 8.2623ZM11.4683 6.1586C11.3462 6.20363 11.4636 6.25867 11.5289 6.19829C11.533 6.19447 11.4763 6.1557 11.4683 6.1586ZM11.3798 6.18552C11.26 6.1411 11.1155 6.36042 11.2658 6.29289C11.2803 6.28628 11.3853 6.18777 11.3798 6.18552ZM6.63509 7.96647C6.63569 7.93325 6.75628 7.90149 6.80593 7.88988C6.81584 7.91602 6.68102 7.94455 6.63509 7.96647ZM9.51772 6.87951C9.51338 6.85527 9.1167 6.99809 9.1005 7.0379C9.15831 7.00259 9.51933 6.90173 9.51772 6.87951ZM10.5333 6.49022C10.5216 6.48979 10.3848 6.5434 10.3959 6.5621C10.4723 6.56527 10.5854 6.4923 10.5333 6.49022ZM12.5894 5.81046C12.5955 5.80293 12.4492 5.70768 12.7245 5.71303C12.7649 5.71378 12.6455 5.7891 12.66 5.78957C12.6899 5.78991 12.7127 5.78726 12.7302 5.7825C12.6179 5.83017 12.5005 5.8735 12.4865 5.8694C12.4205 5.84992 12.5866 5.81367 12.5894 5.81046ZM13.6461 5.37079C13.6632 5.34235 13.8186 5.30648 13.8561 5.30442C13.8626 5.30421 13.8537 5.36764 13.9211 5.34226C13.9754 5.32178 13.8752 5.29052 13.9858 5.26636C14.0978 5.24185 13.9644 5.32722 13.9749 5.32716C13.9886 5.32703 14.1499 5.24952 14.1549 5.28415C14.1583 5.30983 13.9722 5.34899 13.9294 5.36793C13.8745 5.39222 13.9561 5.4116 13.8583 5.43226C13.797 5.44528 13.8079 5.36344 13.7941 5.36372C13.7825 5.3641 13.5878 5.46982 13.6465 5.37091C13.6464 5.37087 13.6463 5.37083 13.6461 5.37079ZM12.7605 5.76934C12.7525 5.77454 12.7427 5.77909 12.7302 5.7825C12.7403 5.77818 12.7504 5.77371 12.7605 5.76934ZM4.95254 8.59354C5.01719 8.59087 4.86403 8.68906 4.79115 8.68781C4.77999 8.66595 4.94188 8.59412 4.95254 8.59354ZM12.8496 5.67684C13.0285 5.63964 12.9084 5.70483 12.7605 5.76934C12.8047 5.74038 12.7897 5.68935 12.8496 5.67684ZM8.029 7.36853C8.0381 7.3711 8.04569 7.37757 8.05127 7.39077C8.02701 7.38312 8.02239 7.37587 8.029 7.36853ZM8.42954 7.24722C8.54961 7.15653 8.27577 7.25925 8.28884 7.28781C8.29362 7.29857 8.4246 7.25085 8.42954 7.24722ZM11.6287 6.10995C11.6148 6.11005 11.7685 5.92047 11.5164 6.10797C11.6722 6.07275 11.5175 6.13908 11.5235 6.14924C11.5397 6.17873 11.7842 6.0644 11.8454 6.05949C11.8716 5.98842 11.6742 6.10965 11.629 6.10984C11.6289 6.10988 11.6288 6.10991 11.6287 6.10995ZM15.4319 5.06538C15.4015 5.10491 15.2839 5.11066 15.2055 5.11995C15.2367 5.08031 15.3555 5.07439 15.4319 5.06538ZM35.4992 3.77597C34.9811 3.76439 34.9253 3.619 35.3932 3.71315C35.4024 3.71506 35.5318 3.76439 35.4992 3.77597ZM31.0414 3.56414C30.9918 3.50263 31.1551 3.49206 31.2623 3.51762C31.2866 3.52335 31.376 3.58593 31.2738 3.59806C31.2771 3.52325 31.1186 3.49475 31.0414 3.56414ZM12.9355 5.60805C12.9748 5.55237 13.1353 5.5323 13.2186 5.51255C13.1787 5.56061 13.0131 5.59688 12.9355 5.60805ZM33.8041 3.58701C33.7495 3.57966 33.71 3.63156 33.7192 3.63646C33.7605 3.65889 33.8651 3.62061 33.8041 3.58701ZM12.4363 5.76105C12.4216 5.73992 12.6171 5.6522 12.6501 5.70553C12.605 5.71531 12.4459 5.77413 12.4363 5.76105ZM15.2829 5.06834C15.2477 5.06081 15.4178 5.01353 15.471 5.01837C15.4706 5.04486 15.3066 5.0731 15.2829 5.06834ZM32.9206 3.57005C32.8716 3.56383 32.7489 3.55891 32.7347 3.58027C32.7171 3.60686 32.8972 3.60275 32.9206 3.57005ZM41.959 4.74766C41.9625 4.7584 41.7623 4.78453 41.6846 4.74902C41.5365 4.68081 41.9532 4.73877 41.959 4.74766ZM34.3238 3.58763C34.4749 3.64797 34.3067 3.58817 34.3102 3.64227C34.4137 3.65023 34.6717 3.6698 34.4975 3.60552C34.4636 3.59308 34.372 3.59399 34.3238 3.58763ZM34.1824 3.56133C34.1648 3.57774 34.0505 3.62635 34.1469 3.6278C34.1914 3.6284 34.2667 3.57166 34.1824 3.56133ZM40.8022 4.52039C40.6752 4.44512 41.2965 4.60096 41.312 4.61376C41.3206 4.62012 41.3259 4.62552 41.3287 4.62972C41.355 4.61993 41.4723 4.64271 41.4783 4.68312C41.4429 4.67209 41.3472 4.65472 41.3367 4.64814C41.3322 4.64534 41.329 4.64291 41.3269 4.6407C41.2784 4.66355 40.8252 4.53385 40.8022 4.52039ZM39.7652 4.26517C39.9346 4.22609 39.9431 4.34941 39.9279 4.35037C39.7444 4.36479 39.8746 4.30023 39.8702 4.29517C39.8582 4.28586 39.7305 4.30302 39.7657 4.26526C39.7655 4.26523 39.7653 4.2652 39.7652 4.26517ZM40.5927 4.45756C40.6 4.45742 40.729 4.48744 40.7351 4.49067C40.8351 4.55195 40.4648 4.46611 40.5927 4.45756ZM14.2163 5.12499C14.3156 5.12259 14.2261 5.17993 14.1591 5.17367C14.1536 5.17289 14.1288 5.12707 14.2163 5.12499ZM34.1056 3.56886C34.0843 3.55852 33.5192 3.49971 33.5505 3.56816C33.5987 3.56131 34.24 3.62879 34.1056 3.56886ZM29.8556 3.49304C29.9564 3.49127 29.848 3.55625 29.7937 3.53425C29.7736 3.52607 29.8302 3.49352 29.8556 3.49304ZM12.1427 5.79636C12.0527 5.86179 12.0377 5.7454 12.1374 5.75456C12.1413 5.75492 12.1463 5.79379 12.1427 5.79636ZM30.6604 3.51565C30.3141 3.55781 30.3933 3.35752 30.8459 3.42062C30.8319 3.42955 30.8178 3.43848 30.8037 3.44742C31.3246 3.47431 30.8395 3.46073 30.712 3.47328C30.6636 3.47795 30.7045 3.51066 30.6607 3.51588C30.6606 3.51581 30.6605 3.51573 30.6604 3.51565ZM29.3255 3.5036C28.9859 3.37356 29.6288 3.44465 29.8115 3.42283C29.6351 3.48515 29.4038 3.48278 29.7198 3.53393C29.2604 3.55773 29.4501 3.49689 29.4316 3.49258C29.4097 3.48798 29.34 3.50919 29.3255 3.5036ZM30.2083 3.48117C30.2276 3.47669 30.3737 3.50299 30.426 3.49764C30.3534 3.54657 30.0805 3.51134 30.2083 3.48117ZM38.6519 4.09229C38.6706 4.05737 38.7062 4.03556 38.8167 4.06988C38.7786 4.0822 38.703 4.08509 38.6519 4.09229ZM4.47727 8.62012C4.40528 8.6488 4.25604 8.69974 4.31615 8.71634C4.32365 8.71661 4.48565 8.64063 4.47727 8.62012ZM32.4601 3.4753C32.4435 3.46987 32.0095 3.45924 32.1587 3.50338C32.2038 3.51627 32.5982 3.51929 32.4601 3.4753ZM34.6969 3.57961C34.6609 3.57668 34.5139 3.57412 34.5102 3.58287C34.4984 3.6129 34.6792 3.60785 34.6969 3.57961ZM4.09971 8.74618C4.08949 8.74632 3.87342 8.85214 3.90499 8.85795C3.966 8.86791 4.13722 8.74396 4.09971 8.74618ZM14.5603 4.98597C14.5807 4.98159 14.614 5.01812 14.6212 5.01753C14.6387 5.01559 15.0094 4.9459 14.8743 5.01859C14.8532 5.03056 14.3073 5.08935 14.2368 5.09429C14.2015 5.04264 14.4402 5.06207 14.496 5.04812C14.5058 5.04559 14.5054 4.99816 14.5601 4.98623C14.5602 4.98614 14.5602 4.98606 14.5603 4.98597ZM39.2551 4.16202C39.277 4.12952 39.7124 4.18723 39.7006 4.22928C39.5517 4.20642 39.4013 4.18366 39.2551 4.16202ZM39.0363 4.11568C38.9492 4.07403 39.1651 4.1051 39.2281 4.12816C39.2246 4.15191 39.048 4.12155 39.0363 4.11568ZM33.8871 3.39785C33.8432 3.40436 33.9742 3.46322 33.9438 3.47181C33.9243 3.4771 33.8282 3.45269 33.7965 3.46749C33.7875 3.47222 33.884 3.52603 33.9127 3.52541C33.9534 3.52468 33.916 3.48414 33.9604 3.48618C34.1076 3.49305 34.2363 3.52791 34.3738 3.53567C34.3862 3.5363 34.2916 3.50324 34.3975 3.5101C34.4139 3.51113 34.5095 3.55761 34.6368 3.56012C34.9259 3.45394 35.1213 3.59184 35.4795 3.57714C35.4673 3.564 35.2044 3.5103 35.189 3.5081C34.8947 3.4632 34.3611 3.4253 34.0491 3.40891C33.9689 3.40451 34.0064 3.43314 33.9718 3.43229C33.9445 3.4316 33.9795 3.38408 33.8871 3.39785ZM4.50442 8.57844C4.44949 8.54886 4.34563 8.62872 4.26532 8.66181C4.31165 8.68965 4.42485 8.60146 4.50442 8.57844ZM37.1436 3.77445C37.102 3.77089 36.9753 3.7399 36.9628 3.75331C36.9468 3.77069 37.1306 3.80633 37.1436 3.77445ZM16.6765 4.69453C16.6806 4.69258 16.7843 4.68046 16.7881 4.68148C16.8858 4.70741 16.5751 4.74354 16.6765 4.69453ZM19.14 4.36323C19.2169 4.34687 19.2936 4.32125 19.325 4.35733C19.2745 4.35782 19.1345 4.39197 19.14 4.36323ZM22.5299 3.94786C22.508 3.89767 22.7469 3.90567 22.7911 3.9057C22.7776 3.93044 22.5457 3.98392 22.5299 3.94786ZM38.6642 3.9279C38.8061 3.9566 38.7897 3.87327 38.8723 3.92464C38.8869 3.93345 38.9028 4.10371 38.7603 4.01519C38.7341 3.9992 38.8513 3.98053 38.6642 3.9279ZM30.9195 3.42181C30.9555 3.38703 31.0686 3.39677 31.145 3.39943C31.1279 3.42508 30.9738 3.41897 30.9195 3.42181ZM3.69083 8.88955C3.60972 8.87298 3.34941 9.0355 3.43154 9.0325C3.44158 9.0322 3.65169 8.90541 3.69083 8.88955ZM13.2362 5.34779C13.3473 5.27262 13.0897 5.34109 13.0219 5.40198C13.057 5.38827 13.2286 5.35281 13.2362 5.34779ZM21.7128 4.01159C21.7187 4.0093 21.8549 3.99728 21.8613 3.99848C21.9771 4.02546 21.5918 4.05969 21.7128 4.01159ZM18.3224 4.40958C18.3666 4.37156 18.6916 4.35312 18.7683 4.37479C18.7045 4.4299 18.2671 4.45693 18.3224 4.40958ZM38.0992 3.85341C38.1705 3.86345 38.2381 3.87914 38.3031 3.89779L38.2847 3.89465C38.3111 3.9024 38.337 3.91054 38.3624 3.91892C38.3545 3.92628 38.322 3.92339 38.2811 3.91533L38.2997 3.91852C38.2189 3.90353 38.1042 3.86775 38.0992 3.85341ZM22.2097 3.95149C22.2169 3.95089 22.2243 3.95309 22.2313 3.95264C22.2239 3.95233 22.2167 3.95184 22.2097 3.95149ZM35.878 3.55469C35.7953 3.53619 35.8081 3.58644 35.8131 3.58841C35.8745 3.61008 35.9716 3.57569 35.878 3.55469ZM4.38732 8.55094C4.34391 8.52197 4.22598 8.61166 4.14705 8.63565C4.1822 8.6579 4.33112 8.58074 4.38732 8.55094ZM28.9635 3.42564C28.8545 3.3817 29.2891 3.3109 29.382 3.33926C29.3896 3.36824 28.9794 3.43128 28.9635 3.42564ZM12.8365 5.40492C12.8176 5.37471 12.6533 5.47078 12.6958 5.47431C12.7227 5.47661 12.8479 5.42376 12.8365 5.40492ZM29.6019 3.35311C29.6426 3.34146 29.739 3.37307 29.7059 3.39465C29.6635 3.42231 29.5914 3.3564 29.6019 3.35311ZM33.2678 3.33978C33.2502 3.33371 33.0094 3.36074 33.1072 3.39933C33.1749 3.42614 33.1876 3.37675 33.2037 3.37718C33.2218 3.37777 33.6032 3.45391 33.2678 3.33978ZM26.5164 3.52565C26.6068 3.50612 26.7178 3.51409 26.813 3.50693C26.7756 3.53067 26.5572 3.55115 26.5164 3.52565ZM13.515 5.18166C13.488 5.17516 12.9061 5.34932 13.248 5.2868C13.2674 5.28311 13.5927 5.20164 13.515 5.18166ZM38.6642 3.9279C38.6462 3.92427 38.6256 3.91889 38.6018 3.91117C38.6258 3.91683 38.6463 3.92289 38.6642 3.9279ZM37.0985 3.6825C37.1338 3.66169 36.9728 3.63438 36.9233 3.64183C36.9049 3.67035 37.0937 3.6853 37.0985 3.6825ZM26.818 3.47152C26.872 3.45359 26.9727 3.46251 27.0406 3.4566C27.0305 3.48056 26.8433 3.49357 26.818 3.47152ZM22.9524 3.78023C23.0631 3.78244 23.197 3.76212 23.1962 3.73352C23.1989 3.73772 23.2047 3.74188 23.214 3.7457C23.2234 3.74946 23.3393 3.72416 23.3913 3.72867C23.7014 3.75402 22.2189 3.886 23.0681 3.71524C23.0295 3.73688 22.991 3.75855 22.9524 3.78023ZM17.8775 4.40306C17.8103 4.37728 17.6423 4.44465 17.6894 4.45191C17.722 4.45681 17.9446 4.42906 17.8775 4.40306ZM20.2675 4.06454C20.248 4.06072 20.0809 4.10647 20.0788 4.1252C20.1789 4.13185 20.3559 4.08242 20.2675 4.06454ZM17.3943 4.42942C17.3543 4.42976 17.312 4.49229 17.3169 4.49406C17.3596 4.5087 17.4647 4.45104 17.3943 4.42942ZM38.3962 3.72668C38.3797 3.71887 38.3509 3.71402 38.3171 3.71181L38.3332 3.71456C38.2577 3.71098 38.1575 3.72304 38.1262 3.74438C38.1201 3.73618 38.1021 3.72387 38.068 3.70723C38.0682 3.70724 38.0683 3.70726 38.0684 3.70728C38.0236 3.67913 36.5737 3.46605 37.5372 3.66894C37.5673 3.67552 37.5301 3.63659 37.6535 3.66015C37.6617 3.66176 37.6619 3.68918 37.687 3.69415C37.745 3.70508 38.0514 3.76865 38.1165 3.75722C38.1163 3.76227 38.1195 3.76762 38.1274 3.7733C38.1647 3.80038 38.2544 3.79077 38.3236 3.77332L38.3067 3.77045C38.3699 3.75656 38.4161 3.73605 38.3962 3.72668ZM20.6035 4.01747C20.5681 4.01173 20.4614 4.03464 20.4533 4.05979C20.5081 4.06472 20.6855 4.03092 20.6035 4.01747ZM13.4676 5.09359C13.3941 5.09588 13.2352 5.18426 13.2924 5.18682C13.3272 5.18846 13.5521 5.0909 13.4676 5.09359ZM19.5212 4.16834C19.9249 4.1443 19.6166 4.1536 19.6734 4.11082C19.6231 4.12991 19.5718 4.14915 19.5212 4.16834ZM40.2034 4.15473C40.142 4.13449 40.2297 4.08107 40.2904 4.13133C40.3094 4.14724 40.2377 4.16592 40.2034 4.15473ZM42.9829 4.75212C42.9461 4.67916 43.1914 4.77977 43.0817 4.79493C43.0767 4.79508 42.9859 4.75528 42.9829 4.75212ZM41.0581 4.2802C41.0082 4.31247 40.9772 4.31098 40.8628 4.27682C41.0387 4.3012 40.8852 4.23154 41.0581 4.2802ZM23.1945 3.72917C23.1954 3.73078 23.1961 3.73196 23.1962 3.73352C23.1952 3.73207 23.1947 3.73066 23.1945 3.72917ZM17.0185 4.49344C16.9634 4.46546 16.8238 4.48793 16.8705 4.5173C16.875 4.52 17.0016 4.52225 17.0185 4.49344ZM38.1262 3.74438C38.1317 3.75166 38.1278 3.7552 38.1165 3.75722C38.1168 3.75247 38.1202 3.74849 38.1262 3.74438ZM17.7685 4.35897C17.767 4.38583 17.9823 4.36634 17.9906 4.36208C18.1074 4.29969 17.8563 4.34511 17.7685 4.35897ZM12.104 5.48831C12.0942 5.49436 12.1834 5.53714 12.2172 5.49815C12.2433 5.46792 12.1403 5.46549 12.104 5.48831ZM41.4623 4.34906C41.5273 4.36323 41.6201 4.38367 41.6292 4.4189C41.588 4.4046 41.4548 4.37173 41.4623 4.34906ZM42.8945 4.68362C42.8086 4.70102 42.6354 4.65752 42.5249 4.62414C42.5357 4.57493 42.8195 4.67642 42.8945 4.68362ZM38.574 3.77735C38.5694 3.77444 38.4046 3.72987 38.4215 3.76696C38.447 3.82146 38.6175 3.80368 38.574 3.77735ZM12.43 5.42109C12.4947 5.37601 12.3081 5.36136 12.248 5.43847C12.2178 5.4777 12.4191 5.42862 12.43 5.42109ZM16.5736 4.5099C16.4754 4.54355 16.731 4.54199 16.7597 4.50247C16.7141 4.50612 16.6082 4.49801 16.5736 4.5099ZM19.9746 4.00995C19.647 3.95001 19.842 4.1111 19.8957 4.08782C19.9032 4.08451 19.9826 4.01133 19.9746 4.00995ZM2.91276 9.03557C2.87946 9.06746 3.04914 9.04135 3.0523 9.00268C3.05476 8.97814 2.93503 9.01462 2.91276 9.03557ZM24.7229 3.55319C24.7096 3.55469 24.6965 3.5562 24.6835 3.55765C24.6931 3.55513 24.7059 3.55345 24.7229 3.55319ZM15.643 4.50676C15.8864 4.61596 15.8476 4.51032 15.8671 4.50811C15.9093 4.50358 16.0129 4.52767 16.0898 4.51021C16.003 4.53894 15.9138 4.56806 15.8256 4.59704C15.9008 4.59652 16.5232 4.56024 16.5343 4.53535C16.5482 4.50002 16.3546 4.5382 16.3486 4.53613C16.3398 4.5332 16.2964 4.44675 16.2779 4.44589C16.248 4.44449 15.7297 4.51722 15.643 4.50676ZM19.3175 4.11133C19.3697 4.11546 19.3889 4.1496 19.4113 4.13789C19.419 4.13388 19.4157 4.09934 19.442 4.08685C19.4005 4.095 19.359 4.10316 19.3175 4.11133ZM15.2637 4.69149C15.195 4.65864 15.4789 4.63375 15.4885 4.63716C15.5405 4.65865 15.3211 4.71812 15.2637 4.69149ZM17.6577 4.34334C17.647 4.34232 17.4297 4.35937 17.4348 4.38242C17.4939 4.39217 17.7834 4.35706 17.6577 4.34334ZM19.4756 4.08006C19.5525 4.07405 19.701 4.08997 19.6776 4.04037C19.6774 4.04039 19.6773 4.0404 19.6772 4.04042C19.6107 4.0535 19.5427 4.06682 19.4756 4.08006ZM12.6443 5.23669C12.4839 5.20065 12.5797 5.28028 12.7078 5.26762C12.7328 5.22047 12.6706 5.24251 12.6443 5.23669ZM12.195 5.31585C12.1517 5.31392 11.7706 5.4552 11.8435 5.47781C11.8689 5.48594 12.0787 5.37609 12.0902 5.37562C12.1072 5.37485 12.0509 5.44424 12.1672 5.39646C12.1551 5.38304 12.2095 5.31642 12.195 5.31585ZM12.5164 5.2217C12.3633 5.20435 12.3692 5.32498 12.4695 5.29309C12.5088 5.28071 12.5382 5.22428 12.5164 5.2217ZM13.0675 5.0571C13.0156 5.06184 12.8845 5.08635 12.8065 5.15182C12.9269 5.11708 13.0442 5.0835 13.1643 5.04924C13.1714 5.02398 13.1126 5.05311 13.0672 5.05721C13.0673 5.05717 13.0674 5.05714 13.0675 5.0571ZM43.7813 4.60731C43.6813 4.5463 43.9347 4.60103 43.9434 4.61181C43.968 4.64632 43.8258 4.63451 43.7813 4.60731ZM1.668 8.47903C1.63387 8.48215 1.59497 8.45359 1.54516 8.50592C1.62056 8.50195 1.69937 8.49653 1.7728 8.49426C1.78527 8.40497 1.70556 8.47559 1.668 8.47903ZM1.3091 8.36697C1.31664 8.36091 1.21665 8.28658 1.36241 8.29356C1.46092 8.29756 1.07988 8.56121 0.97928 8.56256C1.05128 8.49465 1.23821 8.42162 1.3091 8.36697ZM0.34549 8.35496C0.337075 8.34925 0.486224 8.24473 0.508065 8.2396C0.619704 8.21272 0.399159 8.37805 0.34549 8.35496ZM0.860889 8.08078C0.776765 8.10268 0.931644 7.99995 0.987934 7.98374C1.00234 7.99965 0.873075 8.07747 0.860889 8.08078ZM43.0859 2.73915C43.0157 2.64288 42.8964 2.78366 43.0413 2.78493C43.0482 2.78501 43.0887 2.74372 43.0859 2.73915ZM0.441348 8.16521C0.525887 8.14088 0.372085 8.24768 0.314456 8.26812C0.300211 8.25201 0.428137 8.16904 0.441348 8.16521ZM43.067 2.54641C42.962 2.46391 42.9601 2.65412 42.9728 2.66487C43.0262 2.70808 43.2517 2.68915 43.2979 2.68229C42.9806 2.63163 43.1166 2.58553 43.067 2.54641ZM42.497 2.52486C42.3829 2.5187 42.6547 2.62047 42.7187 2.58287C42.665 2.5726 42.5288 2.5263 42.497 2.52486ZM41.8449 2.31811C41.7863 2.29855 41.616 2.24599 41.5792 2.26807C41.6461 2.27673 41.8131 2.34182 41.8449 2.31811ZM41.7294 2.20397C41.6458 2.14567 41.5996 2.25377 41.7128 2.24277C41.7172 2.24234 41.7323 2.20684 41.7294 2.20397ZM41.2186 2.05467C41.1669 1.99727 41.0772 2.09304 41.1732 2.11565C41.2019 2.12221 41.2242 2.06118 41.2186 2.05467ZM42.9659 2.31677C42.8836 2.27665 42.7537 2.32786 42.9362 2.38068C42.8691 2.37706 42.7997 2.37307 42.7327 2.3698C42.9649 2.47102 42.9733 2.35944 43.0417 2.38068C43.1372 2.41073 43.1082 2.49795 43.0816 2.521C43.1737 2.48553 43.5136 2.56983 43.7095 2.61013C43.5452 2.54289 43.2765 2.43268 43.1098 2.37663C43.0614 2.36032 43.0098 2.37359 42.9684 2.3607C42.9024 2.34 42.9705 2.31925 42.9663 2.31686C42.9662 2.31683 42.966 2.3168 42.9659 2.31677ZM40.5368 1.91702C40.3709 1.83189 40.4604 1.96347 40.5645 1.96339C40.5692 1.96275 40.5405 1.91903 40.5368 1.91702ZM0.0503101 8.0023C0.298163 7.90833 0.164142 8.05554 0.57759 7.71043C0.416605 7.87837 0.590195 7.75841 0.5657 7.80327C0.545552 7.83906 0.426288 7.88719 0.511948 7.88754C0.403542 7.89381 0.0337211 8.13099 0.0163891 8.13473C0.0165408 8.13464 0.0166923 8.13454 0.016844 8.13445C0.00489057 8.13665 -0.0272749 8.03238 0.0503101 8.0023ZM41.9061 2.0312C41.8751 1.88523 41.8057 2.09123 41.7128 1.95611C41.5227 2.08283 42.1442 2.04864 42.1849 2.20045C41.5507 2.04387 42.5764 2.42792 42.1761 2.12674C42.5262 2.28231 42.3019 2.12869 42.3644 2.11563C42.4318 2.10192 42.6323 2.17954 42.633 2.12774C42.6329 2.12772 42.6328 2.12769 42.6327 2.12766C42.505 2.10162 42.3756 2.07578 42.2493 2.0512C42.3494 2.18569 42.0982 2.0958 42.0283 1.9895C41.9866 2.00314 41.9472 2.01734 41.9061 2.0312ZM42.6007 2.2922C42.5892 2.28673 42.3103 2.23863 42.3228 2.26413C42.3577 2.28593 42.7496 2.35961 42.6007 2.2922ZM43.8137 2.56814C43.7156 2.54212 43.57 2.48254 43.5059 2.50879C43.604 2.53407 43.75 2.59407 43.8137 2.56814ZM38.7344 1.49005C38.7216 1.49108 38.7136 1.49274 38.7095 1.49485C38.7071 1.49464 38.7 1.493 38.6975 1.49281C38.6935 1.49496 38.6934 1.4975 38.6963 1.50027C38.6987 1.50045 38.7058 1.50208 38.7082 1.50229C38.7333 1.52621 38.9685 1.56846 38.8839 1.52046C38.879 1.51766 38.7412 1.48964 38.7344 1.49005ZM41.6141 1.98986C41.4959 1.92252 41.5283 2.06457 41.63 2.05078C41.6361 2.04999 41.6192 1.99287 41.6141 1.98986ZM0.220441 7.88106C0.211571 7.84752 0.541038 7.68333 0.600211 7.65108C0.579913 7.69559 0.230092 7.91725 0.220441 7.88106ZM44.0161 2.49593C43.8522 2.33167 43.5523 2.39363 43.5237 2.38343C43.4952 2.37307 43.5537 2.33535 43.5474 2.33233C43.5334 2.32553 43.2216 2.25159 43.2063 2.25175C43.1949 2.2518 43.2336 2.33516 43.1644 2.34134C43.2995 2.33158 43.8571 2.50137 43.8871 2.50177C43.9111 2.50157 43.7607 2.38408 44.0158 2.49584C44.0159 2.49587 44.016 2.4959 44.0161 2.49593ZM43.4548 2.3498C43.5245 2.39843 43.3074 2.34736 43.2571 2.32357C43.1458 2.2703 43.4458 2.34359 43.4548 2.3498ZM42.9385 2.19385C42.9155 2.18123 42.6925 2.12216 42.6648 2.1502C42.7625 2.21736 42.991 2.22257 42.9385 2.19385ZM40.4417 1.66531C40.3811 1.65794 40.2286 1.60263 40.2134 1.6295C40.2723 1.63633 40.4264 1.69209 40.4417 1.66531ZM1.19317 7.05497C1.0906 7.08038 1.29829 6.96195 1.36255 6.94281C1.37472 6.95833 1.2029 7.05212 1.19317 7.05497ZM41.6502 1.71194C41.6169 1.69483 40.9087 1.57295 40.8066 1.56775C40.8999 1.60771 41.5957 1.75137 41.6308 1.74871C41.6406 1.74747 41.6543 1.71422 41.6502 1.71194ZM43.1834 2.04585C43.2591 2.0201 43.2883 2.08055 43.2962 2.08318C43.3756 2.10956 43.5429 2.1419 43.4965 2.17293C43.3603 2.1208 43.0333 2.09706 43.1834 2.04585ZM40.4281 1.4644C40.1859 1.43409 40.6374 1.56714 40.5848 1.51132C40.5818 1.50794 40.4539 1.46761 40.4281 1.4644ZM41.732 1.71638C41.7904 1.692 42.4938 1.87712 42.6074 1.90493C42.4909 1.94391 42.4192 1.87758 42.2826 1.85039C42.2452 1.84304 42.2493 1.87129 42.2453 1.87044C42.1803 1.85727 42.2354 1.83793 42.1963 1.8288C42.1717 1.82243 41.6477 1.74815 41.732 1.71638ZM43.2277 2.02604C43.2727 2.01107 43.717 2.11257 43.732 2.12376C43.8519 2.20449 43.2606 2.04187 43.2277 2.02604ZM41.6785 1.6468C41.771 1.58986 42.1122 1.71444 41.8628 1.69879C41.8399 1.69731 41.7491 1.64491 41.6785 1.6468ZM40.4674 1.39967C40.4542 1.3948 40.211 1.33318 40.2006 1.35543C40.236 1.37132 40.5967 1.44909 40.4674 1.39967ZM40.6117 1.3459C40.6055 1.34529 40.6551 1.40141 40.5399 1.3732C40.5307 1.37087 40.5209 1.31654 40.3709 1.30696C40.3408 1.30513 40.2883 1.32973 40.2912 1.33244C40.4273 1.44013 40.9194 1.37892 40.6117 1.3459ZM43.2458 1.98761C43.2272 1.96069 43.2999 1.91226 43.3438 1.95679C43.3628 1.97601 43.3118 2.0031 43.2458 1.98761ZM39.6815 1.23049C39.8332 1.21868 39.3814 1.12819 39.3553 1.13383C39.3663 1.16045 39.6654 1.23132 39.6815 1.23049ZM1.26814 6.67822C1.26804 6.67827 1.26793 6.67833 1.26782 6.67838C1.3869 6.62821 1.33023 6.6932 1.33604 6.69139C1.60411 6.61041 1.50327 6.57911 1.53829 6.55191C1.61171 6.49479 1.63801 6.58135 1.76127 6.48005C1.55459 6.64188 1.75444 6.51868 1.77538 6.54396C1.85545 6.64911 1.44749 6.63667 1.34168 6.72113C1.3273 6.73255 1.46417 6.71023 1.42838 6.74138C1.31281 6.84148 0.814285 6.87211 1.26814 6.67822ZM43.3854 1.96129C43.4515 1.93787 43.872 2.08398 43.7502 2.08521C43.7313 2.08497 43.2887 1.99412 43.3854 1.96129ZM22.938 0.872473C23.0389 0.828847 22.7932 0.815234 22.7512 0.845551C22.7303 0.860597 22.8937 0.891591 22.938 0.872473ZM21.2323 0.918732C21.1096 0.939853 20.9961 1.09198 21.1468 1.05265C21.1627 1.04841 21.2487 0.936043 21.2323 0.918732ZM29.4143 0.355309C29.2817 0.309913 29.2923 0.401103 29.3884 0.396997C29.4224 0.395581 29.4185 0.35675 29.4143 0.355309ZM24.4369 0.668978C24.4236 0.66693 24.2743 0.686249 24.2817 0.706701C24.3381 0.714188 24.5228 0.683315 24.4369 0.668978ZM29.4556 0.341131C29.3783 0.359792 29.5139 0.422072 29.6072 0.355069C29.5591 0.361584 29.4636 0.339213 29.4556 0.341131ZM41.4547 1.39378C41.3824 1.41716 41.2056 1.36953 41.0994 1.35486C41.0978 1.30481 41.3778 1.38675 41.4547 1.39378ZM21.763 0.91337C21.6502 0.960622 21.9033 0.96027 21.8754 0.917857C21.8719 0.91576 21.7674 0.911389 21.763 0.91337ZM33.6626 0.361161C33.5744 0.386328 33.8487 0.437482 33.775 0.383183C33.7714 0.380911 33.6674 0.359728 33.6626 0.361161ZM34.8697 0.44458C34.804 0.430095 34.522 0.415411 34.6299 0.450547C34.6464 0.455816 34.8629 0.47064 34.8697 0.44458ZM1.52952 6.51718C1.47462 6.48846 1.6691 6.40606 1.70122 6.40034C1.71324 6.39845 1.59985 6.55481 1.52952 6.51718ZM28.563 0.376838C28.4956 0.38576 28.3194 0.381395 28.2897 0.408993C28.3722 0.399825 28.5874 0.428062 28.563 0.376838ZM22.2966 0.853925C22.1885 0.811042 22.0147 0.835671 22.0656 0.901408C22.2576 0.87547 22.0347 0.840557 22.2966 0.853925ZM29.8917 0.271949C29.837 0.268973 29.7968 0.338043 29.803 0.341109C29.8627 0.370284 29.9464 0.297305 29.8917 0.271949ZM25.8225 0.528143C25.8172 0.499304 25.6453 0.525531 25.6698 0.542487C25.6778 0.548154 25.8268 0.551425 25.8225 0.528143ZM39.2261 0.950121C39.1535 0.910028 39.3936 0.926897 39.4597 0.970527C39.4848 1.02048 39.2361 0.954956 39.2261 0.950121ZM31.4057 0.274421C31.4139 0.231104 31.1401 0.255427 31.248 0.291262C31.275 0.300182 31.4028 0.288829 31.4057 0.274421ZM34.0364 0.290283C33.8494 0.33162 34.6222 0.410323 34.4223 0.335147C34.4081 0.329423 34.0528 0.286439 34.0364 0.290283ZM35.3015 0.402673C35.2701 0.394607 35.2971 0.250911 35.4248 0.317134C35.4416 0.325734 35.3575 0.357608 35.371 0.36748C35.3789 0.372896 35.6642 0.416608 35.6779 0.414595C35.6925 0.411973 35.6796 0.364181 35.6946 0.360213C35.7114 0.355729 35.8849 0.411834 35.9774 0.420876C36.1518 0.437758 36.1743 0.401306 36.1886 0.402499C36.2304 0.406272 36.2976 0.440447 36.3821 0.448958C36.809 0.490603 37.4655 0.536649 37.7919 0.66515C37.4966 0.591653 37.2041 0.59047 36.9051 0.567247C37.0018 0.496408 36.4587 0.580574 36.7773 0.521715C36.6326 0.521405 35.4039 0.424062 35.3019 0.402701C35.3017 0.402691 35.3016 0.402683 35.3015 0.402673ZM20.7412 0.936129C20.8112 0.877681 20.4227 0.936039 20.3971 0.997106C20.4491 0.998645 20.7323 0.942794 20.7412 0.936129ZM22.5251 0.611342C22.5604 0.598996 22.5845 0.498875 22.7801 0.527802C22.7803 0.527784 22.7805 0.527766 22.7806 0.527748C22.8378 0.536208 22.7768 0.566311 22.7879 0.573614C22.7919 0.576622 22.9707 0.606529 22.8272 0.629221C22.6086 0.664038 22.799 0.559673 22.6816 0.570956C22.6672 0.572342 22.4514 0.648058 22.4655 0.658161C22.467 0.659349 22.5324 0.641199 22.5439 0.64479C22.5873 0.658253 22.5703 0.690494 22.5763 0.691303C22.5957 0.692828 22.941 0.604834 22.9969 0.644495C23.0146 0.656952 22.4429 0.750633 22.4202 0.745834C22.4056 0.742627 22.4026 0.658483 22.387 0.651848C22.3793 0.648492 22.1505 0.705052 22.1198 0.700729C22.1108 0.69947 22.1039 0.697813 22.0987 0.69638C22.1366 0.718321 21.9269 0.739666 21.9301 0.709847C21.9325 0.697973 22.0774 0.688599 22.0828 0.690048C22.0851 0.690646 22.0872 0.691597 22.0892 0.692201C22.0557 0.663821 22.5449 0.61217 22.4342 0.57681C22.5728 0.536 22.4215 0.647684 22.5251 0.611342ZM23.2016 0.489086C23.1878 0.499347 23.1741 0.509609 23.1604 0.519874C23.4059 0.473308 23.6971 0.487515 23.9843 0.460386C24.0569 0.453605 23.9683 0.407587 24.0649 0.413444C24.1423 0.41815 24.2313 0.460354 24.1909 0.475267C24.1809 0.47895 24.0228 0.460735 23.9453 0.471402C23.716 0.502982 23.7787 0.543699 23.7653 0.546195C23.7506 0.548906 23.6028 0.530379 23.5242 0.539564C23.3261 0.562796 23.2397 0.599887 22.9644 0.590762C23.1176 0.54437 23.0255 0.487063 23.2016 0.489086ZM32.567 0.157754C32.5773 0.128769 32.7426 0.158596 32.803 0.156006C32.7928 0.184918 32.6274 0.154756 32.567 0.157754ZM8.32876 3.49059C8.29788 3.55215 8.6563 3.43837 8.54965 3.43375C8.52652 3.43248 8.3743 3.4748 8.32876 3.49059ZM9.93566 2.96697C9.97918 2.93834 9.77592 2.97046 9.78831 3.00541C9.7923 3.01657 9.92995 2.97068 9.93566 2.96697ZM26.4296 0.26287C26.439 0.260706 26.5784 0.262138 26.5829 0.26431C26.6781 0.308818 26.2197 0.31009 26.4296 0.26287ZM11.8679 2.27352C11.7104 2.35636 12.2162 2.21033 12.051 2.22072C12.0429 2.22118 11.8761 2.26927 11.8679 2.27352ZM12.5641 2.04533C12.524 2.05955 12.3406 2.10059 12.3427 2.11525C12.3461 2.13885 12.5555 2.09024 12.5641 2.04533ZM29.9247 0.0904592C29.9031 0.0369081 30.153 0.0728145 30.2395 0.0647818C30.2609 0.118316 30.0111 0.0817082 29.9247 0.0904592ZM28.3546 0.101149C29.4001 0.0178847 29.173 0.140679 28.2934 0.130094C28.2907 0.0956016 28.2887 0.106677 28.3546 0.101149ZM29.6965 0.062225C29.6592 0.0976545 29.5399 0.0904233 29.4594 0.0899096C29.4732 0.0654621 29.6386 0.0697751 29.6965 0.062225ZM7.88221 3.57119C7.92766 3.50839 8.21734 3.46223 8.17517 3.49639C8.16464 3.50413 7.86768 3.6018 7.88221 3.57119ZM26.5136 0.21102C26.4859 0.160197 26.8001 0.161264 26.8248 0.171536C26.9243 0.212132 26.5381 0.197578 26.5136 0.21102ZM31.4166 0.0305255C31.4727 -0.0104353 31.6315 0.0114004 31.7336 0.0128181C31.6868 0.0474944 31.5033 0.0314173 31.4166 0.0305255ZM30.6803 0.000774219C30.6867 -0.000900213 30.8289 0.0016747 30.8353 0.00356198C30.9521 0.0427511 30.5498 0.0357197 30.6803 0.000774219ZM0.930145 6.40779C0.935325 6.40359 1.03332 6.35649 1.0378 6.356C1.14391 6.34609 0.843281 6.49066 0.930145 6.40779Z" fill="#FF492C"/>
</svg>
