<svg width="52" height="52" viewBox="0 0 52 52" fill="none" xmlns="http://www.w3.org/2000/svg">
<path fill-rule="evenodd" clip-rule="evenodd" d="M11.8338 17.6953V21.3233H2.3098V43.9973H40.4028V21.3233H30.8778V17.6953H11.8338Z" fill="#27D3BC"/>
<path fill-rule="evenodd" clip-rule="evenodd" d="M2 36.0189H40.389V29.2919H2V36.0189Z" fill="#5746B2"/>
<path fill-rule="evenodd" clip-rule="evenodd" d="M28.1608 32.6558C28.1608 36.4128 25.1158 39.4578 21.3588 39.4578C17.6018 39.4578 14.5558 36.4128 14.5558 32.6558C14.5558 28.8988 17.6018 25.8538 21.3588 25.8538C25.1158 25.8538 28.1608 28.8988 28.1608 32.6558Z" fill="white"/>
<path fill-rule="evenodd" clip-rule="evenodd" d="M21.3588 26.3538C17.8778 26.3538 15.0558 29.175 15.0558 32.6558C15.0558 36.1366 17.8778 38.9578 21.3588 38.9578C24.8397 38.9578 27.6608 36.1367 27.6608 32.6558H28.6608C28.6608 36.6889 25.3919 39.9578 21.3588 39.9578C17.3258 39.9578 14.0558 36.689 14.0558 32.6558C14.0558 28.6226 17.3258 25.3538 21.3588 25.3538V26.3538Z" fill="#062846"/>
<path fill-rule="evenodd" clip-rule="evenodd" d="M37.9808 24.9031H32.7798V23.9031H37.9808V24.9031Z" fill="#062846"/>
<path fill-rule="evenodd" clip-rule="evenodd" d="M41.6505 8.54711C41.9007 8.61113 42.0515 8.8658 41.9875 9.11593L41.3325 11.6749C41.2685 11.9251 41.0138 12.0759 40.7637 12.0119C40.5135 11.9479 40.3627 11.6932 40.4267 11.4431L41.0817 8.88408C41.1457 8.63395 41.4004 8.48308 41.6505 8.54711Z" fill="#062846"/>
<path fill-rule="evenodd" clip-rule="evenodd" d="M33.4152 9.58176C33.6523 9.47973 33.9273 9.58929 34.0294 9.82647L35.0304 12.1535C35.1324 12.3907 35.0228 12.6656 34.7856 12.7677C34.5485 12.8697 34.2735 12.7601 34.1715 12.5229L33.1705 10.1959C33.0684 9.95876 33.178 9.68378 33.4152 9.58176Z" fill="#062846"/>
<path fill-rule="evenodd" clip-rule="evenodd" d="M44.5408 27.6621C44.7281 27.4844 45.024 27.4923 45.2017 27.6796L46.8947 29.4646C47.0724 29.6519 47.0645 29.9478 46.8772 30.1255C46.6899 30.3032 46.394 30.2954 46.2163 30.108L44.5233 28.323C44.3456 28.1357 44.3534 27.8398 44.5408 27.6621Z" fill="#062846"/>
<path fill-rule="evenodd" clip-rule="evenodd" d="M47.1161 21.7321C47.1318 21.4744 47.3535 21.2782 47.6112 21.294L50.0192 21.441C50.2769 21.4567 50.4731 21.6784 50.4573 21.9361C50.4416 22.1938 50.2199 22.39 49.9622 22.3742L47.5542 22.2272C47.2965 22.2115 47.1003 21.9898 47.1161 21.7321Z" fill="#062846"/>
<path fill-rule="evenodd" clip-rule="evenodd" d="M48.3763 13.4098C48.5353 13.6132 48.4994 13.907 48.296 14.0661L46.3 15.6271C46.0966 15.7861 45.8028 15.7502 45.6437 15.5468C45.4847 15.3434 45.5206 15.0496 45.724 14.8906L47.72 13.3296C47.9234 13.1705 48.2172 13.2064 48.3763 13.4098Z" fill="#062846"/>
<path fill-rule="evenodd" clip-rule="evenodd" d="M1.8422 43.9969V21.3229H2.7772V43.5294H40.4027V44.4644H2.3097C2.05151 44.4644 1.8422 44.2551 1.8422 43.9969Z" fill="#062846"/>
<path fill-rule="evenodd" clip-rule="evenodd" d="M11.3665 21.3226V17.6956H12.3015V21.3226H11.3665Z" fill="#062846"/>
</svg>
