<svg width="52" height="52" viewBox="0 0 52 52" fill="none" xmlns="http://www.w3.org/2000/svg">
<path fill-rule="evenodd" clip-rule="evenodd" d="M8.655 21.1091L20.515 9.2481L26.571 15.3041L14.711 27.1651C11.857 30.0191 11.857 34.6821 14.711 37.5361C17.572 40.3971 22.228 40.3901 25.082 37.5361L36.942 25.6751L42.998 31.7311L31.138 43.5921C24.93 49.7991 14.862 49.7991 8.655 43.5921C5.551 40.4881 4 36.4231 4 32.3501C4 28.2781 5.551 24.2131 8.655 21.1091Z" fill="white"/>
<path fill-rule="evenodd" clip-rule="evenodd" d="M8.655 21.1091L20.515 9.2481L26.571 15.3041L14.711 27.1651C11.857 30.0191 11.857 34.6821 14.711 37.5361C17.572 40.3971 22.228 40.3901 25.082 37.5361L36.942 25.6751L42.998 31.7311L31.138 43.5921C24.93 49.7991 14.862 49.7991 8.655 43.5921C5.551 40.4881 4 36.4231 4 32.3501C4 28.2781 5.551 24.2131 8.655 21.1091Z" fill="#FF492C"/>
<path fill-rule="evenodd" clip-rule="evenodd" d="M40.3901 22.2144L46.4521 28.2764L42.9981 31.7314L36.9361 25.6684L40.3901 22.2144Z" fill="#FFAD99"/>
<path fill-rule="evenodd" clip-rule="evenodd" d="M23.9699 5.7942L30.0319 11.8562L26.5779 15.3112L20.5159 9.2482L23.9699 5.7942Z" fill="#FFAD99"/>
<path fill-rule="evenodd" clip-rule="evenodd" d="M13.6839 26.7928L29.3179 11.1598L30.0249 11.867L14.3909 27.5L13.6839 26.7928Z" fill="#062846"/>
<path fill-rule="evenodd" clip-rule="evenodd" d="M26.2239 15.6642L20.1619 9.60215L20.8691 8.89505L26.9311 14.957L26.2239 15.6642Z" fill="#062846"/>
<path fill-rule="evenodd" clip-rule="evenodd" d="M37.2177 25.3433L43.3153 31.4399L31.1118 43.6435C24.9165 49.8387 14.8679 49.8387 8.67265 43.6435C5.57512 40.5459 4.0262 36.4881 4.0262 32.4239H5.0262C5.0262 36.2337 6.47727 40.0339 9.37975 42.9363C15.1845 48.7411 24.5999 48.7411 30.4046 42.9363L41.9011 31.4399L36.5107 26.0505L37.2177 25.3433Z" fill="#062846"/>
<path fill-rule="evenodd" clip-rule="evenodd" d="M46.4652 28.2902L43.0112 31.7442L42.304 31.037L45.758 27.583L46.4652 28.2902Z" fill="#062846"/>
<path fill-rule="evenodd" clip-rule="evenodd" d="M13.7122 37.8533C10.6354 34.7764 11.0248 29.4516 14.0452 26.4311L14.7524 27.1383C12.0648 29.8258 11.7882 34.515 14.4194 37.1461L13.7122 37.8533Z" fill="#062846"/>
<path fill-rule="evenodd" clip-rule="evenodd" d="M32.7207 8.82828C32.7726 8.55706 33.0346 8.37929 33.3058 8.43122C35.1779 8.78964 36.9568 9.54381 38.5414 10.6593C41.499 12.7366 43.4737 15.849 44.0944 19.4145C44.1418 19.6866 43.9596 19.9455 43.6876 19.9929C43.4155 20.0403 43.1566 19.8581 43.1092 19.5861C42.534 16.2817 40.7067 13.4021 37.9664 11.4775C36.497 10.443 34.8496 9.74494 33.1178 9.41338C32.8466 9.36146 32.6688 9.0995 32.7207 8.82828Z" fill="#062846"/>
<path fill-rule="evenodd" clip-rule="evenodd" d="M33.7628 3.90605C33.8147 3.63483 34.0766 3.45702 34.3478 3.50891C36.948 4.00633 39.4198 5.05445 41.6213 6.60385C45.732 9.49123 48.4737 13.8136 49.3375 18.7691C49.3849 19.0412 49.2028 19.3002 48.9308 19.3476C48.6587 19.395 48.3997 19.2129 48.3523 18.9409C47.5341 14.2464 44.9398 10.1568 41.0465 7.42215C38.9601 5.95367 36.6197 4.96165 34.16 4.49109C33.8887 4.43921 33.7109 4.17728 33.7628 3.90605Z" fill="#062846"/>
</svg>
