<svg width="33" height="33" viewBox="0 0 33 33" fill="none" xmlns="http://www.w3.org/2000/svg">
<g id="UI Icon">
<rect width="33" height="33" rx="16.5" fill="url(#paint0_linear_1335_3137)"/>
<g id="art">
<path d="M21.5892 7.35019C21.54 7.37586 21.506 7.46437 21.4379 7.6414L20.7977 9.30581C20.6773 9.619 20.617 9.77562 20.5234 9.90734C20.4403 10.0241 20.3383 10.1261 20.2216 10.2091C20.0898 10.3028 19.9332 10.363 19.62 10.4835L17.9556 11.1236C17.7785 11.1917 17.69 11.2257 17.6643 11.2749C17.6421 11.3175 17.6421 11.3683 17.6643 11.4109C17.69 11.46 17.7785 11.4941 17.9556 11.5622L19.62 12.2023C19.9332 12.3228 20.0899 12.383 20.2216 12.4767C20.3383 12.5597 20.4403 12.6617 20.5234 12.7784C20.617 12.9101 20.6773 13.0667 20.7977 13.38L21.4379 15.0444C21.506 15.2214 21.54 15.3099 21.5892 15.3356C21.6318 15.3578 21.6826 15.3578 21.7252 15.3356C21.7743 15.3099 21.8084 15.2214 21.8764 15.0444L22.5166 13.38C22.6371 13.0668 22.6973 12.9101 22.791 12.7784C22.874 12.6617 22.976 12.5597 23.0928 12.4767C23.2245 12.383 23.3811 12.3228 23.6943 12.2023L25.3588 11.5622C25.5358 11.4941 25.6243 11.46 25.65 11.4109C25.6723 11.3683 25.6723 11.3175 25.65 11.2749C25.6243 11.2257 25.5358 11.1917 25.3588 11.1236L23.6943 10.4835C23.3811 10.363 23.2245 10.3028 23.0928 10.2091C22.976 10.1261 22.874 10.0241 22.791 9.90734C22.6973 9.77561 22.6371 9.61901 22.5166 9.30581L21.8764 7.6414C21.8084 7.46437 21.7743 7.37586 21.7252 7.35019C21.6826 7.32793 21.6318 7.32793 21.5892 7.35019Z" fill="white"/>
<path d="M13.8607 12.6429C13.782 12.684 13.7275 12.8256 13.6186 13.1088L12.5943 15.7719C12.4016 16.273 12.3052 16.5236 12.1553 16.7343C12.0225 16.9211 11.8593 17.0843 11.6725 17.2172C11.4617 17.367 11.2111 17.4634 10.71 17.6561L8.04687 18.6804C7.76362 18.7893 7.62199 18.8438 7.58091 18.9224C7.5453 18.9906 7.5453 19.0718 7.58091 19.14C7.62199 19.2186 7.76362 19.2731 8.04687 19.382L10.71 20.4063C11.2111 20.599 11.4617 20.6954 11.6725 20.8453C11.8593 20.9781 12.0225 21.1413 12.1553 21.3281C12.3052 21.5388 12.4016 21.7894 12.5943 22.2905L13.6186 24.9536C13.7275 25.2368 13.782 25.3784 13.8607 25.4195C13.9288 25.4551 14.0101 25.4551 14.0782 25.4195C14.1569 25.3784 14.2113 25.2368 14.3203 24.9536L15.3446 22.2905C15.5373 21.7894 15.6337 21.5388 15.7836 21.3281C15.9164 21.1413 16.0796 20.9781 16.2664 20.8453C16.4772 20.6954 16.7277 20.599 17.2289 20.4063L19.892 19.382C20.1753 19.2731 20.3169 19.2186 20.358 19.14C20.3936 19.0718 20.3936 18.9906 20.358 18.9224C20.3169 18.8438 20.1753 18.7893 19.892 18.6804L17.2289 17.6561C16.7277 17.4634 16.4772 17.367 16.2664 17.2172C16.0796 17.0843 15.9164 16.9211 15.7836 16.7343C15.6337 16.5236 15.5373 16.273 15.3446 15.7719L14.3203 13.1088C14.2113 12.8256 14.1569 12.684 14.0782 12.6429C14.0101 12.6073 13.9288 12.6073 13.8607 12.6429Z" fill="white"/>
</g>
</g>
<defs>
<linearGradient id="paint0_linear_1335_3137" x1="16.5" y1="0" x2="16.5" y2="33" gradientUnits="userSpaceOnUse">
<stop offset="0.2" stop-color="#FF492C"/>
<stop offset="0.685" stop-color="#BE3B9F"/>
<stop offset="1" stop-color="#8930FD"/>
</linearGradient>
</defs>
</svg>
