<svg width="52" height="52" viewBox="0 0 52 52" fill="none" xmlns="http://www.w3.org/2000/svg">
<path fill-rule="evenodd" clip-rule="evenodd" d="M41.9291 32.0744C43.6471 32.0744 45.0401 30.6814 45.0401 28.9634C45.0401 27.2454 43.6471 25.8524 41.9291 25.8524V25.7584C43.6471 25.7584 45.0401 24.3654 45.0401 22.6464C45.0401 20.9284 43.6471 19.5354 41.9291 19.5354H31.3591C31.7991 18.5574 32.5061 16.7594 33.0621 14.2554C33.6781 11.4824 32.9331 7.9994 29.9811 7.9994C29.3961 7.9994 28.9011 8.4194 28.8101 8.9974C28.5891 10.3964 27.1421 14.3634 24.8181 16.7674C21.4041 20.2984 13.6411 24.6924 13.6411 24.6924H7.0001L7.0941 40.6504H14.6431C14.6431 40.6504 18.1241 44.6134 24.6551 44.6134H29.5791H36.2521H38.1261C39.8451 44.6134 41.2381 43.2204 41.2381 41.5024C41.2381 39.7834 39.8451 38.3904 38.1261 38.3904H40.6951C42.4131 38.3904 43.8061 36.9984 43.8061 35.2794C43.8061 33.5614 42.4131 32.1684 40.6951 32.1684L41.9291 32.0744Z" fill="#824D2A"/>
<path fill-rule="evenodd" clip-rule="evenodd" d="M34.0621 38.3908C34.0621 38.1147 34.286 37.8908 34.5621 37.8908H39.7501C40.0262 37.8908 40.2501 38.1147 40.2501 38.3908C40.2501 38.6669 40.0262 38.8908 39.7501 38.8908H34.5621C34.286 38.8908 34.0621 38.6669 34.0621 38.3908Z" fill="#062846"/>
<path fill-rule="evenodd" clip-rule="evenodd" d="M36.206 32.1687C36.206 31.8926 36.4299 31.6687 36.706 31.6687H42.614C42.8901 31.6687 43.114 31.8926 43.114 32.1687C43.114 32.4448 42.8901 32.6687 42.614 32.6687H36.706C36.4299 32.6687 36.206 32.4448 36.206 32.1687Z" fill="#062846"/>
<path fill-rule="evenodd" clip-rule="evenodd" d="M37.7649 25.8522C37.7649 25.5761 37.9888 25.3522 38.2649 25.3522H42.8389C43.115 25.3522 43.3389 25.5761 43.3389 25.8522C43.3389 26.1283 43.115 26.3522 42.8389 26.3522H38.2649C37.9888 26.3522 37.7649 26.1283 37.7649 25.8522Z" fill="#062846"/>
<path fill-rule="evenodd" clip-rule="evenodd" d="M7 43.669H15.051V20.721H7V43.669Z" fill="#1D9E8D"/>
<path fill-rule="evenodd" clip-rule="evenodd" d="M10.5257 28.7661V24.8601H11.5257V28.7661H10.5257Z" fill="#062846"/>
<path fill-rule="evenodd" clip-rule="evenodd" d="M15.051 44.1694H7V43.1694H15.051V44.1694Z" fill="#062846"/>
</svg>
