<svg width="20" height="20" viewBox="0 0 20 20" fill="none" xmlns="http://www.w3.org/2000/svg"><path fill="currentColor" d="M5.55556 4H14V12.8889L8.66667 18.2222L8.07407 17.8148C7.85185 17.6543 7.68827 17.4506 7.58333 17.2037C7.47839 16.9568 7.45679 16.7037 7.51852 16.4444L8.22222 12.8889H3.33333C2.96296 12.8889 2.64815 12.7593 2.38889 12.5C2.12963 12.2407 2 11.9259 2 11.5556V10.5C2 10.4012 2.00926 10.3117 2.02778 10.2315C2.0463 10.1512 2.07407 10.0679 2.11111 9.98148L4.31481 4.81481C4.41358 4.5679 4.57716 4.37037 4.80556 4.22222C5.03395 4.07407 5.28395 4 5.55556 4ZM15.3333 12.8889V4H18V12.8889H15.3333Z"/></svg>