<svg width="20" height="20" viewBox="0 0 20 20" fill="none" xmlns="http://www.w3.org/2000/svg"><path fill="currentColor" d="M2.22917 14.875L1 14L5 7.5L7.5 10.5L11 5L13.5 8.5C13.2083 8.5 12.9271 8.52083 12.6562 8.5625C12.3854 8.60417 12.1181 8.67361 11.8542 8.77083L11.0625 7.6875L7.66667 13.0417L5.1875 10.0625L2.22917 14.875ZM17.9375 19L15.375 16.4375C15.0972 16.6181 14.8021 16.7569 14.4896 16.8542C14.1771 16.9514 13.8472 17 13.5 17C12.5278 17 11.7014 16.6597 11.0208 15.9792C10.3403 15.2986 10 14.4722 10 13.5C10 12.5278 10.3403 11.7014 11.0208 11.0208C11.7014 10.3403 12.5278 10 13.5 10C14.4722 10 15.2986 10.3403 15.9792 11.0208C16.6597 11.7014 17 12.5278 17 13.5C17 13.8472 16.9514 14.1771 16.8542 14.4896C16.7569 14.8021 16.6181 15.0972 16.4375 15.375L19 17.9375L17.9375 19ZM13.5 15.5C14.0556 15.5 14.5278 15.3056 14.9167 14.9167C15.3056 14.5278 15.5 14.0556 15.5 13.5C15.5 12.9444 15.3056 12.4722 14.9167 12.0833C14.5278 11.6944 14.0556 11.5 13.5 11.5C12.9444 11.5 12.4722 11.6944 12.0833 12.0833C11.6944 12.4722 11.5 12.9444 11.5 13.5C11.5 14.0556 11.6944 14.5278 12.0833 14.9167C12.4722 15.3056 12.9444 15.5 13.5 15.5ZM15.125 8.77083C14.875 8.67361 14.6111 8.60417 14.3333 8.5625C14.0556 8.52083 13.7778 8.5 13.5 8.5L17.7708 2L19 2.875L15.125 8.77083Z"/></svg>