<svg width="52" height="52" viewBox="0 0 52 52" fill="none" xmlns="http://www.w3.org/2000/svg">
<path d="M6.20801 40.8027L8.15039 42.3799L6.0918 43.9902L4.54785 46.0146L2.9541 43.9902L0.946289 42.3799L2.9541 40.8027L4.54785 38.7607L6.20801 40.8027Z" fill="white"/>
<path d="M34.8242 35.5869H17.5716V16.5312H34.8242V35.5869Z" fill="white"/>
<path d="M49.0215 9.97656L51.04 11.5752L49.0215 13.1309L47.4443 15.293L45.8779 13.1309L43.8369 11.5752L45.8779 9.97656L47.4443 7.96875L49.0215 9.97656Z" fill="white"/>
<path fill-rule="evenodd" clip-rule="evenodd" d="M6.51171 40.3968L9.10943 42.3821L6.51171 44.3668L4.55446 47L2.5967 44.3668L0 42.3821L2.5967 40.3968L4.55446 37.7626L6.51171 40.3968ZM3.36106 41.1719L3.24075 41.2633L1.77704 42.3816L3.24075 43.5004L3.36106 43.5917L3.45117 43.7137L4.55395 45.1975L5.74786 43.5917L5.86766 43.5004L7.33137 42.3816L5.74734 41.1719L5.65724 41.0499L4.55395 39.5657L3.36106 41.1719Z" fill="#1FA896"/>
<path fill-rule="evenodd" clip-rule="evenodd" d="M30.2962 12.5809L36.5632 11.1138L37.1238 17.611L43.0447 20.1591L39.7312 25.7499L43.0447 31.3402L37.1238 33.8882L36.5632 40.3859L30.2962 38.9188L26.0765 43.8409L21.8574 38.9188L15.5904 40.3859L15.0298 33.8882L9.10892 31.3402L12.4224 25.7499L9.10892 20.1591L15.0298 17.611L15.5904 11.1138L21.8574 12.5809L26.0765 7.65881L30.2962 12.5809ZM21.884 19.643L18.1585 26.1854H25.6091L29.3342 32.7284L33.0598 26.1854L29.3342 19.643H21.884Z" fill="#1FA896"/>
<path fill-rule="evenodd" clip-rule="evenodd" d="M49.4023 9.58229L52 11.5675L49.4023 13.5523L47.445 16.1854L45.4873 13.5523L42.8906 11.5675L45.4873 9.58229L47.445 6.94808L49.4023 9.58229ZM46.2516 10.3574L46.1313 10.4488L44.6676 11.567L46.1313 12.6858L46.2516 12.7772L46.3417 12.8992L47.4445 14.3829L48.6384 12.7772L48.7582 12.6858L50.2219 11.567L48.6379 10.3574L48.5478 10.2354L47.4445 8.75112L46.2516 10.3574Z" fill="#1FA896"/>
<path d="M41.2881 3.13124L42.4052 3.98474L41.2881 4.83667L40.448 5.96844L39.6078 4.83667L38.4907 3.98474L39.6078 3.13124L40.448 2L41.2881 3.13124Z" fill="#1FA896"/>
</svg>
