<svg width="20" height="20" viewBox="0 0 20 20" fill="none" xmlns="http://www.w3.org/2000/svg">
<path d="M10 2C11.111 2 12.1491 2.20841 13.1143 2.625C14.0795 3.04167 14.9271 3.61458 15.6562 4.34375C16.3854 5.07292 16.9583 5.92046 17.375 6.88574C17.7916 7.85094 18 8.88899 18 10C18 11.0972 17.7917 12.1323 17.375 13.1045C16.9583 14.0766 16.3853 14.9272 15.6562 15.6562C14.9271 16.3854 14.0795 16.9583 13.1143 17.375C12.1491 17.7916 11.111 18 10 18C8.90278 18 7.86773 17.7917 6.89551 17.375C5.9234 16.9583 5.07285 16.3853 4.34375 15.6562C3.61465 14.9272 3.04166 14.0766 2.625 13.1045C2.20833 12.1323 2 11.0972 2 10C2 8.88899 2.20841 7.85094 2.625 6.88574C3.04167 5.92046 3.61458 5.07292 4.34375 4.34375C5.07285 3.61465 5.9234 3.04166 6.89551 2.625C7.86773 2.20833 8.90278 2 10 2ZM8.79199 8.5H5L8.08301 10.708L6.91699 14.5L10 12.1455L13.083 14.5L11.917 10.708L15 8.5H11.208L10 4.5L8.79199 8.5Z" fill="#5746B2"/>
</svg>
