<svg width="52" height="52" viewBox="0 0 52 52" fill="none" xmlns="http://www.w3.org/2000/svg">
<path fill-rule="evenodd" clip-rule="evenodd" d="M48.7841 21.6288C48.8217 21.9023 48.6304 22.1546 48.3569 22.1922L46.2779 22.4782C46.0043 22.5159 45.752 22.3246 45.7144 22.051C45.6768 21.7775 45.868 21.5252 46.1416 21.4876L48.2206 21.2016C48.4942 21.1639 48.7464 21.3552 48.7841 21.6288Z" fill="#062846"/>
<path fill-rule="evenodd" clip-rule="evenodd" d="M44.6611 27.0122C44.8082 26.7785 45.1169 26.7082 45.3506 26.8553L47.1116 27.9633C47.3453 28.1104 47.4156 28.419 47.2685 28.6528C47.1215 28.8865 46.8128 28.9568 46.5791 28.8097L44.8181 27.7017C44.5843 27.5546 44.5141 27.246 44.6611 27.0122Z" fill="#062846"/>
<path fill-rule="evenodd" clip-rule="evenodd" d="M40.6503 30.126C40.9132 30.0415 41.1948 30.1861 41.2793 30.4489L41.9163 32.4299C42.0009 32.6928 41.8563 32.9745 41.5934 33.059C41.3305 33.1435 41.0489 32.9989 40.9643 32.7361L40.3273 30.7551C40.2428 30.4922 40.3874 30.2105 40.6503 30.126Z" fill="#062846"/>
<path fill-rule="evenodd" clip-rule="evenodd" d="M31.9352 14.7631C32.1533 14.5937 32.4675 14.6332 32.6368 14.8513L33.9128 16.4943C34.0822 16.7124 34.0427 17.0265 33.8246 17.1959C33.6065 17.3653 33.2924 17.3258 33.123 17.1077L31.847 15.4647C31.6777 15.2466 31.7172 14.9325 31.9352 14.7631Z" fill="#062846"/>
<path fill-rule="evenodd" clip-rule="evenodd" d="M38.7759 12.5633C39.0519 12.5737 39.2671 12.8059 39.2566 13.0819L39.1776 15.1609C39.1671 15.4368 38.9349 15.652 38.6589 15.6415C38.383 15.6311 38.1678 15.3989 38.1783 15.1229L38.2573 13.0439C38.2678 12.768 38.5 12.5528 38.7759 12.5633Z" fill="#062846"/>
<path fill-rule="evenodd" clip-rule="evenodd" d="M45.4296 15.2749C45.6343 15.4603 45.6499 15.7765 45.4645 15.9811L44.0675 17.5231C43.8821 17.7278 43.5659 17.7434 43.3612 17.5579C43.1566 17.3725 43.141 17.0563 43.3264 16.8517L44.7234 15.3097C44.9088 15.1051 45.225 15.0895 45.4296 15.2749Z" fill="#062846"/>
<path fill-rule="evenodd" clip-rule="evenodd" d="M3.36455 15.7546C4.63255 19.6726 8.83655 21.8206 12.7555 20.5526C16.6735 19.2846 18.8215 15.0806 17.5535 11.1626C16.2856 7.2446 12.0805 5.0956 8.16255 6.3636C4.24455 7.6326 2.09655 11.8366 3.36455 15.7546Z" fill="#FFC800"/>
<path d="M16.7924 9.51938C16.9848 9.82923 17.1562 10.1564 17.3041 10.4995L3.73299 16.6799C3.5917 16.3839 3.4683 16.0752 3.36455 15.7546C3.35324 15.7196 3.34219 15.6846 3.33142 15.6496L16.7924 9.51938Z" fill="#062846"/>
<path d="M17.8254 14.6265C17.7504 15.0972 17.6306 15.5577 17.4691 16.0019L7.77644 20.416C7.33392 20.2451 6.90845 20.0325 6.50621 19.7814L17.8254 14.6265Z" fill="#062846"/>
<path fill-rule="evenodd" clip-rule="evenodd" d="M25.7495 37.1684L18.3065 40.5584L7.90652 20.4514L17.4095 16.1244L25.7495 37.1684Z" fill="#FF492C"/>
<path fill-rule="evenodd" clip-rule="evenodd" d="M21.6438 26.6907L12.9328 30.6577L12.4753 29.6529L21.1863 25.6859L21.6438 26.6907Z" fill="#062846"/>
<path fill-rule="evenodd" clip-rule="evenodd" d="M38.7541 21.5749L40.0101 24.3329L35.6551 26.3159L34.3991 23.5579L38.7541 21.5749Z" fill="#FF492C"/>
<path fill-rule="evenodd" clip-rule="evenodd" d="M40.7697 22.9287L39.5377 23.4897L39.0802 22.4849L40.3122 21.9239L40.7697 22.9287Z" fill="#062846"/>
<path fill-rule="evenodd" clip-rule="evenodd" d="M35.3512 25.6118C33.2237 26.5804 32.2842 29.091 33.2537 31.2185L35.9498 37.1406C35.9498 37.1406 35.9498 37.1405 35.9498 37.1406C37.5553 40.6654 36.0191 44.8238 32.5097 46.4597L32.2764 45.9594L32.5052 46.4618C29.2218 47.9571 25.3475 46.5077 23.8521 43.2242L24.3544 42.9954L23.8508 43.2213L21.9198 38.9153L22.9271 38.4635L24.8568 42.7666C24.857 42.7671 24.8572 42.7676 24.8575 42.7681C26.1002 45.4948 29.3178 46.6988 32.0455 45.458C35.0044 44.0773 36.2991 40.5706 34.9451 37.5982L32.2491 31.6763C32.2491 31.6762 32.2492 31.6764 32.2491 31.6763C31.0268 28.9938 32.2113 25.8283 34.8937 24.607L35.3512 25.6118Z" fill="#062846"/>
</svg>
