<svg width="20" height="20" viewBox="0 0 20 20" fill="none" xmlns="http://www.w3.org/2000/svg"><path fill="currentColor" fill-rule="evenodd" clip-rule="evenodd" d="M10 18C14.4182 18 18 14.4182 18 10C18 5.58176 14.4182 2 10 2C5.58176 2 2 5.58176 2 10C2 14.4182 5.58176 18 10 18ZM12.0962 8.1284H13.4624V8.69395H11.3945V8.59901C11.3945 8.24808 11.4647 7.95507 11.605 7.72808C11.7454 7.49693 11.9889 7.29469 12.3397 7.1172L12.5007 7.0388C12.7855 6.89427 12.8598 6.77053 12.8598 6.62184C12.8598 6.44445 12.7071 6.31645 12.4594 6.31645C12.1664 6.31645 11.9434 6.4692 11.7908 6.77875L11.3945 6.38248C11.4811 6.19677 11.6215 6.04819 11.8072 5.93256C11.9971 5.81288 12.2035 5.75507 12.4305 5.75507C12.7153 5.75507 12.963 5.82941 13.1652 5.98216C13.3716 6.1348 13.4747 6.34536 13.4747 6.61363C13.4747 7.0388 13.2354 7.29885 12.7855 7.52989L12.5337 7.65789C12.2654 7.79411 12.1333 7.91379 12.0962 8.1284ZM13.2799 9.34695H11.0176L9.88647 11.3061H12.1488L13.2799 13.2654L14.411 11.3061L13.2799 9.34695ZM7.46916 9.99997C7.46916 11.4404 8.641 12.6122 10.0814 12.6122C10.7311 12.6122 11.3258 12.3732 11.7833 11.9793L12.7737 13.6946C12.0185 14.2458 11.088 14.5714 10.0814 14.5714C7.55673 14.5714 5.51001 12.5248 5.51001 9.99997C5.51001 7.47528 7.55673 5.42856 10.0814 5.42856C10.3876 5.42856 10.6865 5.45885 10.9757 5.51624L10.0814 7.38781C8.641 7.38781 7.46916 8.55965 7.46916 9.99997Z"/></svg>