<svg width="20" height="20" viewBox="0 0 20 20" fill="none" xmlns="http://www.w3.org/2000/svg"><path fill="currentColor" d="M9.50376 16C9.36237 16 9.24306 15.9521 9.14584 15.8562C9.04862 15.7604 9.00001 15.6417 9.00001 15.5V10.7708L4.10417 4.8125C3.97917 4.64583 3.96015 4.46875 4.04709 4.28125C4.1339 4.09375 4.28487 4 4.50001 4H15.5C15.7151 4 15.8661 4.09375 15.9529 4.28125C16.0399 4.46875 16.0208 4.64583 15.8958 4.8125L11 10.7708V15.5C11 15.6417 10.9522 15.7604 10.8567 15.8562C10.761 15.9521 10.6425 16 10.5013 16H9.50376Z"/></svg>