<svg width="30" height="26" viewBox="0 0 30 26" fill="none" xmlns="http://www.w3.org/2000/svg">
<g id="Icon/performance" clip-path="url(#clip0_1869_5135)">
<g id="art">
<path id="Vector" d="M0.458496 23.3563H14.3046L4.40927 13.4609C1.96003 16.0456 0.458496 19.5225 0.458496 23.3563Z" fill="#FF492C"/>
<path id="Vector_2" d="M24.8401 12.9934C22.2493 10.5011 18.7355 8.96875 14.8585 8.96875C10.7416 8.96875 7.03084 10.698 4.4093 13.4672L14.3047 23.3626H14.477L24.8462 12.9934H24.8401Z" fill="#FFC800"/>
<path id="Vector_3" d="M29.2524 23.3575C29.2524 19.2837 27.5601 15.6098 24.8401 12.9883L14.4708 23.3575H29.2524Z" fill="#27D3BC"/>
<g id="Vector_4">
<path fill-rule="evenodd" clip-rule="evenodd" d="M17.2242 9.35521C15.219 9.00596 13.1057 9.08417 11.01 9.67431C9.54509 10.0903 8.19613 10.7168 6.99872 11.5171C6.85743 11.6116 6.66635 11.5736 6.57193 11.4323C6.4775 11.291 6.51549 11.0999 6.65677 11.0055C7.90851 10.1689 9.31637 9.51549 10.8422 9.08224L10.8428 9.08206C13.03 8.46613 15.2366 8.38437 17.3298 8.74895C17.4972 8.77811 17.6093 8.93746 17.5801 9.10487C17.5509 9.27229 17.3916 9.38437 17.2242 9.35521Z" fill="#062846"/>
<path fill-rule="evenodd" clip-rule="evenodd" d="M4.62119 13.2475C4.7444 13.3645 4.7494 13.5592 4.63237 13.6825C2.30096 16.1369 0.847424 19.4279 0.769502 23.0582H10.8277C10.9977 23.0582 11.1354 23.196 11.1354 23.3659C11.1354 23.5359 10.9977 23.6736 10.8277 23.6736H0.150818V23.3659C0.150818 19.4501 1.68483 15.892 4.18619 13.2586C4.30322 13.1354 4.49798 13.1304 4.62119 13.2475Z" fill="#062846"/>
<path fill-rule="evenodd" clip-rule="evenodd" d="M17.3877 23.3659C17.3877 23.196 17.5255 23.0582 17.6954 23.0582H29.2524C29.4223 23.0582 29.5601 23.196 29.5601 23.3659C29.5601 23.5359 29.4223 23.6736 29.2524 23.6736H17.6954C17.5255 23.6736 17.3877 23.5359 17.3877 23.3659Z" fill="#062846"/>
</g>
<path id="Vector_5" d="M14.3908 25.1172C15.3153 25.1172 16.0647 24.3678 16.0647 23.4434C16.0647 22.5189 15.3153 21.7695 14.3908 21.7695C13.4664 21.7695 12.717 22.5189 12.717 23.4434C12.717 24.3678 13.4664 25.1172 14.3908 25.1172Z" fill="#5746B2"/>
<path id="Vector_6" d="M15.7262 23.9423L13.4 22.2746L21.2954 12.2623C21.5785 11.9054 22.0893 11.8315 22.4585 12.0961C22.8277 12.3608 22.9262 12.8715 22.6739 13.2531L15.72 23.9361L15.7262 23.9423Z" fill="#5746B2"/>
<g id="Vector_7">
<path fill-rule="evenodd" clip-rule="evenodd" d="M21.0448 15.7649C21.1873 15.8576 21.2276 16.0482 21.1349 16.1907L16.3655 23.5183C16.3539 23.8936 16.2366 24.2721 16.0012 24.6017L16.0004 24.6028C15.36 25.4906 14.1218 25.6954 13.2324 25.0539C12.3449 24.4137 12.1399 23.1761 12.7807 22.2868C12.9809 22.0053 13.2455 21.8013 13.5327 21.6649C13.6862 21.592 13.8697 21.6573 13.9426 21.8108C14.0155 21.9643 13.9502 22.1478 13.7967 22.2207C13.5918 22.3181 13.4137 22.4583 13.2817 22.6441L13.2804 22.6459C12.8388 23.258 12.9786 24.1121 13.5924 24.5548C14.2043 24.9962 15.0581 24.8566 15.5009 24.2434C15.6755 23.9986 15.7559 23.7135 15.7509 23.4314L15.7492 23.3371L20.6191 15.855C20.7118 15.7125 20.9024 15.6722 21.0448 15.7649Z" fill="#062846"/>
<path fill-rule="evenodd" clip-rule="evenodd" d="M18.8969 0.0890663C19.0507 0.0456909 19.2104 0.135156 19.2538 0.288892L19.74 2.01197C19.7834 2.1657 19.6939 2.32549 19.5402 2.36887C19.3864 2.41225 19.2266 2.32278 19.1832 2.16904L18.6971 0.445968C18.6537 0.292232 18.7432 0.132442 18.8969 0.0890663Z" fill="#062846"/>
<path fill-rule="evenodd" clip-rule="evenodd" d="M14.4354 3.49367C14.5305 3.36534 14.7116 3.3384 14.84 3.43351L16.2184 4.45504C16.3468 4.55015 16.3737 4.73129 16.2786 4.85963C16.1835 4.98797 16.0024 5.0149 15.874 4.9198L14.4956 3.89826C14.3672 3.80315 14.3403 3.62201 14.4354 3.49367Z" fill="#062846"/>
<path fill-rule="evenodd" clip-rule="evenodd" d="M27.1288 10.2917C27.174 10.1385 27.3349 10.051 27.4881 10.0962L29.0942 10.57C29.2474 10.6152 29.335 10.7761 29.2898 10.9293C29.2446 11.0825 29.0838 11.17 28.9305 11.1248L27.3244 10.651C27.1712 10.6058 27.0836 10.445 27.1288 10.2917Z" fill="#062846"/>
<path fill-rule="evenodd" clip-rule="evenodd" d="M28.5935 4.91984C28.6657 5.06236 28.6086 5.23638 28.4661 5.30854L27.0076 6.047C26.8651 6.11916 26.6911 6.06212 26.619 5.91961C26.5468 5.7771 26.6038 5.60308 26.7463 5.53092L28.2048 4.79246C28.3473 4.7203 28.5213 4.77733 28.5935 4.91984Z" fill="#062846"/>
<path fill-rule="evenodd" clip-rule="evenodd" d="M24.4802 0.646711C24.6284 0.706234 24.7003 0.874654 24.6408 1.02289L24.0008 2.61673C23.9413 2.76497 23.7728 2.83688 23.6246 2.77736C23.4764 2.71784 23.4045 2.54942 23.464 2.40118L24.104 0.807337C24.1635 0.659104 24.3319 0.587189 24.4802 0.646711Z" fill="#062846"/>
</g>
</g>
</g>
<defs>
<clipPath id="clip0_1869_5135">
<rect width="29.4092" height="25.3477" fill="white" transform="translate(0.150818 0.078125)"/>
</clipPath>
</defs>
</svg>
