<svg width="20" height="20" viewBox="0 0 20 20" fill="none" xmlns="http://www.w3.org/2000/svg"><path fill="currentColor" d="M4.5 17C4.0875 17 3.73437 16.8507 3.44062 16.5521C3.14687 16.2535 3 15.9028 3 15.5V4.5C3 4.09722 3.14687 3.74653 3.44062 3.44792C3.73437 3.14931 4.0875 3 4.5 3H15.5C15.9125 3 16.2656 3.14931 16.5594 3.44792C16.8531 3.74653 17 4.09722 17 4.5V15.5C17 15.9028 16.8531 16.2535 16.5594 16.5521C16.2656 16.8507 15.9125 17 15.5 17H4.5ZM5.5 14H14.5L11.5 10L9.25 13L7.75 11L5.5 14ZM7 8C7.27778 8 7.51389 7.90278 7.70833 7.70833C7.90278 7.51389 8 7.27778 8 7C8 6.72222 7.90278 6.48611 7.70833 6.29167C7.51389 6.09722 7.27778 6 7 6C6.72222 6 6.48611 6.09722 6.29167 6.29167C6.09722 6.48611 6 6.72222 6 7C6 7.27778 6.09722 7.51389 6.29167 7.70833C6.48611 7.90278 6.72222 8 7 8Z"/></svg>