<svg width="52" height="52" viewBox="0 0 52 52" fill="none" xmlns="http://www.w3.org/2000/svg">
<path fill-rule="evenodd" clip-rule="evenodd" d="M42.295 5.84582C42.3802 6.1085 42.2363 6.39048 41.9736 6.47564L10.9646 16.5286C10.7019 16.6138 10.4199 16.4699 10.3348 16.2072C10.2496 15.9445 10.3935 15.6625 10.6562 15.5774L41.6652 5.52438C41.9279 5.43922 42.2099 5.58313 42.295 5.84582Z" fill="#062846"/>
<path fill-rule="evenodd" clip-rule="evenodd" d="M10.7466 15.6424C10.945 15.6412 11.1255 15.7574 11.2063 15.9387L17.0033 28.9337C17.1158 29.1859 17.0026 29.4815 16.7504 29.594C16.4982 29.7065 16.2026 29.5933 16.0901 29.3411L10.7575 17.3872L5.41185 29.7864C5.30252 30.0399 5.00833 30.1569 4.75475 30.0476C4.50117 29.9382 4.38423 29.644 4.49356 29.3905L10.2906 15.9445C10.3691 15.7622 10.5481 15.6437 10.7466 15.6424Z" fill="#062846"/>
<path fill-rule="evenodd" clip-rule="evenodd" d="M41.9339 5.64322C42.1267 5.64195 42.303 5.75162 42.3871 5.92509L48.6871 18.9201C48.8076 19.1686 48.7038 19.4677 48.4553 19.5881C48.2068 19.7086 47.9078 19.6048 47.7873 19.3563L41.9449 7.30518L36.089 19.8014C35.9718 20.0514 35.6741 20.1591 35.424 20.042C35.174 19.9248 35.0663 19.6271 35.1835 19.377L41.4845 5.93105C41.5663 5.75648 41.7411 5.6445 41.9339 5.64322Z" fill="#062846"/>
<path fill-rule="evenodd" clip-rule="evenodd" d="M19.595 29.037C19.595 33.943 15.656 37.92 10.797 37.92C5.939 37.92 2 33.943 2 29.037H19.595Z" fill="#288DFF"/>
<path fill-rule="evenodd" clip-rule="evenodd" d="M50.7241 17.6825C50.7241 22.5885 46.7851 26.5655 41.9261 26.5655C37.0681 26.5655 33.1291 22.5885 33.1291 17.6825H50.7241Z" fill="#288DFF"/>
<path fill-rule="evenodd" clip-rule="evenodd" d="M23.0274 9.9714C23.0274 8.1384 24.4994 6.6514 26.3154 6.6514C28.1304 6.6514 29.6024 8.1384 29.6024 9.9714C29.6024 11.8044 28.1304 13.2914 26.3154 13.2914C24.4994 13.2914 23.0274 11.8044 23.0274 9.9714Z" fill="#A9D1FF"/>
<path fill-rule="evenodd" clip-rule="evenodd" d="M26.3151 12.8186C26.5912 12.8186 26.8151 13.0425 26.8151 13.3186V45.4722C26.8151 45.7483 26.5912 45.9722 26.3151 45.9722C26.039 45.9722 25.8151 45.7483 25.8151 45.4722V13.3186C25.8151 13.0425 26.039 12.8186 26.3151 12.8186Z" fill="#062846"/>
<path fill-rule="evenodd" clip-rule="evenodd" d="M17.2079 45.6937C17.2079 45.4176 17.4318 45.1937 17.7079 45.1937H34.9219C35.198 45.1937 35.4219 45.4176 35.4219 45.6937C35.4219 45.9698 35.198 46.1937 34.9219 46.1937H17.7079C17.4318 46.1937 17.2079 45.9698 17.2079 45.6937Z" fill="#062846"/>
<path fill-rule="evenodd" clip-rule="evenodd" d="M23.0278 9.47141C23.3039 9.47141 23.5278 9.69526 23.5278 9.97141C23.5278 11.533 24.7807 12.7914 26.3148 12.7914C27.85 12.7914 29.1028 11.5329 29.1028 9.97141C29.1028 9.69526 29.3267 9.47141 29.6028 9.47141C29.8789 9.47141 30.1028 9.69526 30.1028 9.97141C30.1028 12.0759 28.4116 13.7914 26.3148 13.7914C24.2189 13.7914 22.5278 12.0758 22.5278 9.97141C22.5278 9.69526 22.7517 9.47141 23.0278 9.47141Z" fill="#062846"/>
</svg>
