<svg width="52" height="52" viewBox="0 0 52 52" fill="none" xmlns="http://www.w3.org/2000/svg">
<path fill-rule="evenodd" clip-rule="evenodd" d="M15.8745 27.785L25.8035 51L35.7635 28.144L25.8195 15.27L15.8745 27.785Z" fill="#FFE99A"/>
<path fill-rule="evenodd" clip-rule="evenodd" d="M15.5163 15.2696L3.0013 27.7846L25.8033 50.9996L15.8743 27.7846L25.8193 15.2696H15.5163Z" fill="#FFC800"/>
<path fill-rule="evenodd" clip-rule="evenodd" d="M25.8195 15.2696L35.7635 27.7846L25.8355 50.9996L48.6385 27.7846L36.1225 15.2696H25.8195Z" fill="#FFF7DA"/>
<path fill-rule="evenodd" clip-rule="evenodd" d="M15.8696 14.9163C16.0648 15.1115 16.0648 15.4281 15.8695 15.6234L3.70381 27.7881L25.7853 50.2894L48.2844 27.7902C48.4797 27.595 48.7963 27.595 48.9916 27.7902C49.1868 27.9855 49.1868 28.3021 48.9916 28.4974L26.1356 51.3534C26.0412 51.4477 25.9131 51.5004 25.7796 51.4998C25.6462 51.4992 25.5186 51.4452 25.4251 51.35L2.64313 28.135C2.451 27.9392 2.45248 27.6252 2.64646 27.4312L15.1625 14.9162C15.3577 14.721 15.6743 14.721 15.8696 14.9163Z" fill="#062846"/>
<path fill-rule="evenodd" clip-rule="evenodd" d="M15.2566 10.9324C15.2566 10.6563 15.4805 10.4324 15.7566 10.4324H19.0646C19.3407 10.4324 19.5646 10.6563 19.5646 10.9324C19.5646 11.2085 19.3407 11.4324 19.0646 11.4324H15.7566C15.4805 11.4324 15.2566 11.2085 15.2566 10.9324Z" fill="#062846"/>
<path fill-rule="evenodd" clip-rule="evenodd" d="M18.4424 3.50165C18.6377 3.30638 18.9543 3.30638 19.1496 3.50165L21.4886 5.84065C21.6838 6.03591 21.6838 6.35249 21.4886 6.54775C21.2933 6.74302 20.9767 6.74302 20.7814 6.54775L18.4424 4.20875C18.2472 4.01349 18.2472 3.69691 18.4424 3.50165Z" fill="#062846"/>
<path fill-rule="evenodd" clip-rule="evenodd" d="M25.9495 1.5C26.2256 1.5 26.4495 1.72386 26.4495 2V5.308C26.4495 5.58414 26.2256 5.808 25.9495 5.808C25.6734 5.808 25.4495 5.58414 25.4495 5.308V2C25.4495 1.72386 25.6734 1.5 25.9495 1.5Z" fill="#062846"/>
<path fill-rule="evenodd" clip-rule="evenodd" d="M33.3803 3.68575C33.5755 3.88101 33.5755 4.19759 33.3803 4.39285L31.0413 6.73185C30.846 6.92712 30.5294 6.92712 30.3341 6.73185C30.1389 6.53659 30.1389 6.22001 30.3341 6.02475L32.6731 3.68575C32.8684 3.49048 33.185 3.49048 33.3803 3.68575Z" fill="#062846"/>
<path fill-rule="evenodd" clip-rule="evenodd" d="M32.0739 11.1928C32.0739 10.9167 32.2978 10.6928 32.5739 10.6928H35.8819C36.158 10.6928 36.3819 10.9167 36.3819 11.1928C36.3819 11.4689 36.158 11.6928 35.8819 11.6928H32.5739C32.2978 11.6928 32.0739 11.4689 32.0739 11.1928Z" fill="#062846"/>
<path fill-rule="evenodd" clip-rule="evenodd" d="M35.774 14.9111C35.9721 14.7187 36.2886 14.7232 36.4811 14.9212L48.8191 27.6172C48.9594 27.7616 48.9994 27.976 48.9207 28.1613C48.8419 28.3465 48.6598 28.4665 48.4585 28.4657L2.99852 28.2857C2.72238 28.2846 2.49941 28.0599 2.5005 27.7837C2.5016 27.5076 2.72634 27.2846 3.00248 27.2857L47.2728 27.461L35.7639 15.6182C35.5715 15.4201 35.576 15.1036 35.774 14.9111Z" fill="#062846"/>
<path fill-rule="evenodd" clip-rule="evenodd" d="M25.8223 14.7698C25.976 14.7709 26.1206 14.8425 26.2146 14.9641L36.1596 27.8381C36.2712 27.9827 36.2952 28.1766 36.2221 28.3439L26.2401 51.1999C26.1602 51.3828 25.9792 51.5006 25.7796 51.4998C25.5801 51.499 25.4003 51.3796 25.322 51.1961L15.415 27.9811C15.343 27.8122 15.3692 27.6175 15.4834 27.4738L25.4274 14.9588C25.523 14.8384 25.6686 14.7688 25.8223 14.7698ZM16.4517 27.8626L25.7872 49.7384L35.1872 28.2151L25.8134 16.0805L16.4517 27.8626Z" fill="#062846"/>
</svg>
