<svg width="52" height="52" viewBox="0 0 52 52" fill="none" xmlns="http://www.w3.org/2000/svg">
<path fill-rule="evenodd" clip-rule="evenodd" d="M45.3213 7.52921V45.4402C45.3213 45.9182 44.9343 46.3062 44.4553 46.3062H36.7983C36.7573 46.3062 36.7163 46.3032 36.6773 46.2972C36.2563 46.2392 35.9323 45.8772 35.9323 45.4402V7.52921C35.9323 7.09221 36.2563 6.73021 36.6773 6.67121C36.7163 6.66621 36.7573 6.66321 36.7983 6.66321H44.4553C44.9343 6.66321 45.3213 7.05121 45.3213 7.52921Z" fill="#5746B2"/>
<path fill-rule="evenodd" clip-rule="evenodd" d="M37.369 29.085H43.885V9.272H37.369V29.085Z" fill="white"/>
<path fill-rule="evenodd" clip-rule="evenodd" d="M43.2223 38.7756C43.2223 40.2096 42.0603 41.3716 40.6263 41.3716C39.1933 41.3716 38.0313 40.2096 38.0313 38.7756C38.0313 37.3426 39.1933 36.1806 40.6263 36.1806C42.0603 36.1806 43.2223 37.3426 43.2223 38.7756Z" fill="white"/>
<path fill-rule="evenodd" clip-rule="evenodd" d="M35.9001 9.1581L25.7051 45.6721C25.5771 46.1331 25.0991 46.4021 24.6391 46.2741L17.2641 44.2151C17.2241 44.2041 17.1861 44.1901 17.1501 44.1741C16.7601 44.0041 16.5451 43.5691 16.6621 43.1481L26.8571 6.6331C26.9741 6.2121 27.3841 5.9511 27.8051 6.0071C27.8441 6.0131 27.8841 6.0211 27.9241 6.0321L35.2991 8.0911C35.7601 8.2201 36.0281 8.6971 35.9001 9.1581Z" fill="#27D3BC"/>
<path fill-rule="evenodd" clip-rule="evenodd" d="M26.9447 9.09C27.0227 8.69 26.8097 8.29 26.4387 8.13L26.8567 6.633C26.9637 6.251 27.3117 6 27.6907 6C27.7287 6 27.7667 6.002 27.8047 6.008L26.9447 9.09Z" fill="#27D3BC"/>
<path fill-rule="evenodd" clip-rule="evenodd" d="M28.72 29.5332L22.444 27.7812L27.772 8.6972L34.048 10.4492L28.72 29.5332Z" fill="white"/>
<path fill-rule="evenodd" clip-rule="evenodd" d="M25.4759 38.6893C25.0909 40.0703 23.6589 40.8773 22.2779 40.4913C20.8979 40.1063 20.0909 38.6743 20.4759 37.2933C20.8619 35.9133 22.2929 35.1063 23.6739 35.4913C25.0549 35.8773 25.8609 37.3093 25.4759 38.6893Z" fill="white"/>
<path fill-rule="evenodd" clip-rule="evenodd" d="M16.3939 7.472L16.3889 45.383C16.3889 45.861 16.0019 46.249 15.5229 46.249L7.86591 46.248C7.82491 46.248 7.78391 46.244 7.74491 46.239C7.32391 46.181 6.99991 45.819 6.99991 45.381L7.00491 7.471C7.00491 7.034 7.32991 6.672 7.74991 6.613C7.78991 6.608 7.82991 6.604 7.87091 6.604L15.5279 6.605C16.0069 6.606 16.3939 6.994 16.3939 7.472Z" fill="#D7D3EC"/>
<path fill-rule="evenodd" clip-rule="evenodd" d="M16.3897 43.8282L16.3937 7.4722L16.3897 43.8282Z" fill="#5746B2"/>
<path fill-rule="evenodd" clip-rule="evenodd" d="M14.9548 29.0271L8.43881 29.0261L8.44081 9.2131L14.9578 9.2141L14.9548 29.0271Z" fill="white"/>
<path fill-rule="evenodd" clip-rule="evenodd" d="M14.2909 38.7182C14.2909 40.1522 13.1289 41.3142 11.6949 41.3132C10.2619 41.3132 9.09991 40.1512 9.09991 38.7182C9.09991 37.2842 10.2619 36.1222 11.6959 36.1222C13.1289 36.1222 14.2909 37.2852 14.2909 38.7182Z" fill="white"/>
<path fill-rule="evenodd" clip-rule="evenodd" d="M14.9569 14.3946H8.44089V13.3946H14.9569V14.3946Z" fill="#062846"/>
<path fill-rule="evenodd" clip-rule="evenodd" d="M14.9569 19.6644H8.44089V18.6644H14.9569V19.6644Z" fill="#062846"/>
<path fill-rule="evenodd" clip-rule="evenodd" d="M14.9569 24.9342H8.44089V23.9342H14.9569V24.9342Z" fill="#062846"/>
<path fill-rule="evenodd" clip-rule="evenodd" d="M32.6118 15.4759L26.3428 13.7009L26.6152 12.7387L32.8842 14.5137L32.6118 15.4759Z" fill="#062846"/>
<path fill-rule="evenodd" clip-rule="evenodd" d="M31.176 20.5463L24.907 18.7713L25.1794 17.8091L31.4484 19.5841L31.176 20.5463Z" fill="#062846"/>
<path fill-rule="evenodd" clip-rule="evenodd" d="M29.7402 25.6167L23.4712 23.8417L23.7436 22.8795L30.0126 24.6545L29.7402 25.6167Z" fill="#062846"/>
<path fill-rule="evenodd" clip-rule="evenodd" d="M43.8847 14.3946H37.3687V13.3946H43.8847V14.3946Z" fill="#062846"/>
<path fill-rule="evenodd" clip-rule="evenodd" d="M43.8847 19.6644H37.3687V18.6644H43.8847V19.6644Z" fill="#062846"/>
<path fill-rule="evenodd" clip-rule="evenodd" d="M43.8847 24.9342H37.3687V23.9342H43.8847V24.9342Z" fill="#062846"/>
</svg>
