<svg width="52" height="52" viewBox="0 0 52 52" fill="none" xmlns="http://www.w3.org/2000/svg">
<g clip-path="url(#clip0_2231_34413)">
<path fill-rule="evenodd" clip-rule="evenodd" d="M40.3077 9.7756C39.3217 9.7756 38.3937 10.1606 37.6967 10.8576C37.6567 10.8966 37.6177 10.9396 37.5787 10.9806L37.5497 11.0146C36.9767 11.6526 36.5707 12.5136 36.1787 13.3466C35.5137 14.7586 34.6867 16.5156 32.7437 16.5156C32.7437 16.5156 32.7437 16.5156 32.7427 16.5166C31.6827 16.5156 30.6507 15.9556 29.3957 14.7016L24.7947 10.1026C24.5847 9.8906 24.3027 9.7756 24.0007 9.7756C23.6977 9.7756 23.4157 9.8916 23.2057 10.1026L18.5777 14.7286C17.3357 15.9646 16.3107 16.5166 15.2577 16.5156H15.2567C13.3137 16.5156 12.4867 14.7586 11.8217 13.3476C11.4297 12.5136 11.0247 11.6526 10.4457 11.0086L10.4257 10.9866C10.3837 10.9396 10.3447 10.8986 10.3047 10.8576C9.6067 10.1606 8.6797 9.7756 7.6927 9.7756C6.7067 9.7756 5.7787 10.1616 5.0817 10.8576C3.6417 12.2986 3.6417 14.6406 5.0817 16.0796C5.1227 16.1206 5.1637 16.1596 5.2057 16.1966L5.2357 16.2236C5.8767 16.7996 6.7387 17.2046 7.5717 17.5986C8.9057 18.2266 10.4167 18.9366 10.6997 20.5576C10.9637 22.0696 9.9407 23.3556 8.9897 24.3166L8.8807 24.4516L8.8057 24.5006L4.3257 28.9806C4.1157 29.1906 4.0007 29.4736 4.0007 29.7756C4.0007 30.0786 4.1157 30.3606 4.3257 30.5696L8.9247 35.1696C9.8927 36.1376 10.9697 37.4456 10.6997 38.9936C10.4167 40.6146 8.9047 41.3236 7.5717 41.9526C6.7407 42.3446 5.8817 42.7486 5.2377 43.3246L5.2037 43.3556C5.1647 43.3916 5.1227 43.4306 5.0827 43.4696C3.6417 44.9116 3.6417 47.2526 5.0817 48.6926C5.7787 49.3896 6.7067 49.7756 7.6927 49.7756C8.6787 49.7756 9.6067 49.3896 10.3037 48.6926C10.3447 48.6516 10.3837 48.6106 10.4217 48.5696L10.4477 48.5406C11.0257 47.8966 11.4307 47.0356 11.8217 46.2036C12.4867 44.7926 13.3147 43.0346 15.2577 43.0346C16.3177 43.0346 17.3497 43.5946 18.6047 44.8486L23.2057 49.4486C23.4157 49.6596 23.6977 49.7756 24.0007 49.7756C24.3027 49.7756 24.5847 49.6596 24.7947 49.4486L29.4467 44.7726C30.3967 43.8106 31.4207 42.5256 31.1557 41.0126C30.8737 39.3916 29.3617 38.6816 28.0287 38.0536C27.1947 37.6596 26.3337 37.2556 25.6917 36.6796L25.6617 36.6516C25.6207 36.6146 25.5787 36.5756 25.5387 36.5346C24.0987 35.0966 24.0987 32.7536 25.5387 31.3126C26.2357 30.6166 27.1637 30.2306 28.1497 30.2306C29.1357 30.2306 30.0637 30.6166 30.7607 31.3136C30.8007 31.3546 30.8397 31.3956 30.8827 31.4416L30.9027 31.4636C31.4807 32.1076 31.8867 32.9686 32.2787 33.8026C32.9427 35.2136 33.7697 36.9716 35.7137 36.9716H35.7147C36.7667 36.9716 37.7927 36.4196 39.0347 35.1846L43.6747 30.5696C44.1057 30.1396 44.1057 29.4116 43.6747 28.9806L39.0717 24.3776C38.1057 23.4106 37.0307 22.1036 37.3017 20.5576C37.5837 18.9366 39.0957 18.2246 40.4287 17.5986C41.2617 17.2046 42.1227 16.7996 42.7677 16.2226L42.7967 16.1946C42.8377 16.1576 42.8787 16.1206 42.9177 16.0796C43.6157 15.3826 44.0007 14.4556 44.0007 13.4686C44.0007 12.4826 43.6157 11.5546 42.9187 10.8576C42.2217 10.1606 41.2937 9.7756 40.3077 9.7756" fill="#FF492C"/>
<path fill-rule="evenodd" clip-rule="evenodd" d="M52.0186 10.8709L47.6066 11.9129L47.3768 10.9397L51.7888 9.89769L52.0186 10.8709Z" fill="#062846"/>
<path fill-rule="evenodd" clip-rule="evenodd" d="M45.9529 2.89984L44.4729 7.18484L43.5277 6.85837L45.0077 2.57337L45.9529 2.89984Z" fill="#062846"/>
<path fill-rule="evenodd" clip-rule="evenodd" d="M38.0301 6.55977L37.5971 2.04777L38.5925 1.95224L39.0255 6.46424L38.0301 6.55977Z" fill="#062846"/>
<path fill-rule="evenodd" clip-rule="evenodd" d="M36.3781 12.9241C36.6117 13.0342 36.7118 13.3128 36.6017 13.5463L36.5881 13.5751C36.2638 14.2634 35.8682 15.1028 35.2941 15.7665C34.6955 16.4585 33.8826 16.9835 32.7438 16.9835H32.7428C31.4975 16.9835 30.3521 16.3184 29.0654 15.0327C28.8827 14.8502 28.8826 14.5542 29.0651 14.3716C29.2476 14.1889 29.5436 14.1888 29.7262 14.3713C30.9495 15.5936 31.8681 16.0485 32.7428 16.0485H32.7438C33.548 16.0485 34.1201 15.6945 34.587 15.1548C35.0703 14.596 35.4178 13.8651 35.7559 13.1477C35.866 12.9141 36.1446 12.814 36.3781 12.9241Z" fill="#062846"/>
<path fill-rule="evenodd" clip-rule="evenodd" d="M44.0007 13.0008C44.2589 13.0008 44.4682 13.2101 44.4682 13.4683C44.4682 14.5777 44.0352 15.622 43.252 16.4061C43.2086 16.4514 43.1631 16.4933 43.1299 16.524C43.1245 16.5289 43.1195 16.5335 43.1148 16.5379C43.1147 16.538 43.1146 16.5381 43.1145 16.5382L43.0863 16.5645C43.0842 16.5664 43.0821 16.5683 43.08 16.5702C42.393 17.1868 41.4917 17.6129 40.6902 17.9918C40.6696 18.0015 40.6491 18.0112 40.6286 18.0209L40.6274 18.0215C39.9513 18.339 39.2912 18.6518 38.7612 19.0713C38.2438 19.4807 37.8783 19.9705 37.7623 20.6374L37.7622 20.6377C37.5378 21.9227 38.426 23.0695 39.4024 24.0469L44.0053 28.6497C44.6188 29.2633 44.6188 30.2873 44.0053 30.9009L44.0043 30.9018L39.3643 35.5158C38.0897 36.7832 36.9506 37.4388 35.7147 37.4388H35.7137C35.4555 37.4388 35.2462 37.2295 35.2462 36.9713C35.2462 36.7131 35.4555 36.5038 35.7137 36.5038H35.7147C36.5828 36.5038 37.4957 36.0554 38.7051 34.8528L43.3441 30.2397C43.3443 30.2396 43.3444 30.2395 43.3445 30.2393C43.5926 29.9908 43.5924 29.5592 43.3441 29.3109L38.741 24.7077C37.7854 23.7512 36.5256 22.2839 36.8412 20.4769C37.0072 19.5229 37.5386 18.8464 38.181 18.3381C38.8049 17.8443 39.5591 17.4902 40.2118 17.1837L40.2288 17.1757C40.229 17.1756 40.2292 17.1755 40.2294 17.1754C41.0771 16.7745 41.8694 16.3991 42.4524 15.8771L42.4789 15.8524C42.4861 15.8457 42.4929 15.8395 42.4992 15.8336C42.5344 15.8011 42.5569 15.7803 42.579 15.7571C42.5817 15.7542 42.5845 15.7513 42.5874 15.7485C43.1977 15.1391 43.5332 14.331 43.5332 13.4683C43.5332 13.2101 43.7425 13.0008 44.0007 13.0008Z" fill="#062846"/>
<path fill-rule="evenodd" clip-rule="evenodd" d="M25.8692 30.9824C26.0518 31.1649 26.0519 31.4609 25.8694 31.6436C24.6117 32.9021 24.612 34.9481 25.8692 36.2044L25.8693 36.2045C25.905 36.2402 25.9387 36.2722 25.9717 36.3013C25.9749 36.3041 25.9781 36.307 25.9813 36.3099L26.007 36.3339C26.5881 36.8541 27.3802 37.2307 28.228 37.6302L28.2593 37.645C28.9084 37.9512 29.6568 38.3043 30.2764 38.7943C30.9188 39.3022 31.4506 39.978 31.6172 40.9317L31.6172 40.9317C31.926 42.7015 30.7231 44.1459 29.7792 45.1008L29.7781 45.1018L25.1261 49.7778L25.1261 49.7779C24.8267 50.0786 24.4248 50.2426 24.0007 50.2426C23.5772 50.2426 23.1748 50.0807 22.8744 49.778C22.8741 49.7777 22.8739 49.7774 22.8736 49.7771L18.2741 45.1797C17.0521 43.9576 16.1325 43.5026 15.2577 43.5026C14.4534 43.5026 13.881 43.8564 13.4139 44.3961C12.9304 44.9546 12.5827 45.6855 12.2447 46.4031C12.2447 46.4032 12.2447 46.4032 12.2446 46.4033L12.2291 46.4364C11.8495 47.2432 11.4208 48.1545 10.7984 48.8493L10.775 48.8763C10.7716 48.8802 10.7681 48.8841 10.7646 48.8879C10.7238 48.9318 10.6806 48.9773 10.6343 49.0237L10.634 49.0239C9.84979 49.807 8.80316 50.2426 7.6927 50.2426C6.58253 50.2426 5.53567 49.8082 4.75113 49.0237C4.56856 48.8411 4.56856 48.5451 4.75113 48.3625C4.9337 48.18 5.2297 48.18 5.41227 48.3625C6.02173 48.972 6.83087 49.3076 7.6927 49.3076C8.55413 49.3076 9.3634 48.9713 9.97313 48.3625C10.007 48.3286 10.0401 48.2939 10.0736 48.2579L10.0944 48.2339C10.0962 48.2319 10.098 48.2299 10.0998 48.2278C10.6233 47.6445 11.0007 46.8509 11.3987 46.0051L11.3988 46.0049L11.4104 45.9801C11.7353 45.2904 12.1314 44.449 12.707 43.7841C13.3059 43.0923 14.119 42.5676 15.2577 42.5676C16.5029 42.5676 17.6493 43.2326 18.9352 44.5185C18.9352 44.5185 18.9352 44.5185 18.9353 44.5185L23.5362 49.1175L23.537 49.1183L23.5378 49.1191C23.6574 49.2398 23.8186 49.3076 24.0007 49.3076C24.1806 49.3076 24.3427 49.2396 24.4633 49.1183L29.1142 44.4434C29.1145 44.4432 29.1147 44.443 29.1149 44.4428C30.0706 43.4758 30.9153 42.3485 30.6962 41.0926C30.5798 40.4262 30.2141 39.937 29.6965 39.5277C29.1661 39.1083 28.506 38.7952 27.8292 38.4759L27.7909 38.4579C26.9817 38.0766 26.0711 37.6476 25.3795 37.0271C25.3774 37.0252 25.3752 37.0232 25.3731 37.0213L25.3486 36.9984C25.2995 36.955 25.253 36.9105 25.2082 36.8658C25.2082 36.8658 25.2082 36.8657 25.2081 36.8657C23.5854 35.2439 23.5858 32.606 25.208 30.9826C25.3905 30.8 25.6865 30.7999 25.8692 30.9824Z" fill="#062846"/>
<path fill-rule="evenodd" clip-rule="evenodd" d="M4.75143 10.5273C5.53568 9.74308 6.5825 9.30734 7.69325 9.3084C8.80333 9.30847 9.85009 9.74284 10.6346 10.5273C10.6822 10.575 10.7251 10.6213 10.7677 10.6678L10.7845 10.6855C10.7876 10.6887 10.7907 10.692 10.7937 10.6953C11.4196 11.3916 11.8494 12.3061 12.231 13.1179L12.2449 13.1476C12.2449 13.1477 12.245 13.1477 12.245 13.1478C12.5831 13.8652 12.9303 14.596 13.4135 15.1547C13.8802 15.6944 14.4522 16.0484 15.257 16.0484H15.258C16.1261 16.0484 17.039 15.6 18.2484 14.3974C18.4314 14.2153 18.7275 14.2162 18.9095 14.3993C19.0916 14.5824 19.0907 14.8784 18.9076 15.0604C17.633 16.3278 16.4939 16.9834 15.258 16.9834H15.257C14.1178 16.9834 13.3048 16.4584 12.7063 15.7663C12.1328 15.1032 11.7377 14.2648 11.4136 13.5769L11.3991 13.5462L11.3989 13.5458C11.0011 12.6993 10.6247 11.908 10.1027 11.3253L10.0875 11.3093C10.0853 11.3071 10.0832 11.3048 10.0811 11.3025C10.0387 11.2562 10.0066 11.2217 9.97343 11.1885C9.36398 10.579 8.55483 10.2434 7.693 10.2434H7.69253C6.83136 10.2425 6.02227 10.5788 5.41257 11.1885C4.15502 12.446 4.15535 14.4929 5.41234 15.7481L5.41257 15.7483C5.44813 15.7839 5.48349 15.8175 5.51965 15.8502C5.5213 15.8517 5.52294 15.8532 5.52456 15.8547L5.55032 15.8787C6.13139 16.3989 6.92312 16.7743 7.7717 17.1752L7.80261 17.1898C8.45173 17.496 9.20007 17.8491 9.81972 18.3391C10.4621 18.847 10.9939 19.5228 11.1605 20.4765L11.1605 20.4765C11.4675 22.2359 10.2805 23.6737 9.33909 24.6287L9.24474 24.7456C9.21405 24.7836 9.1776 24.8166 9.1367 24.8433L9.10229 24.8658L4.65578 29.3123C4.53621 29.4313 4.4675 29.595 4.4675 29.7749C4.4675 29.9575 4.53606 30.1194 4.65578 30.2385C4.83879 30.4207 4.8395 30.7167 4.65736 30.8997C4.47523 31.0827 4.17922 31.0834 3.99622 30.9013C3.69594 30.6024 3.5325 30.2003 3.5325 29.7749C3.5325 29.353 3.69557 28.9491 3.99563 28.6501C3.99582 28.6499 3.99602 28.6497 3.99622 28.6495L8.47543 24.1703C8.49822 24.1475 8.52331 24.1272 8.5503 24.1095L8.56358 24.1009L8.62626 24.0232C8.63609 24.011 8.64653 23.9994 8.65753 23.9882C9.61354 23.0212 10.4586 21.8936 10.2395 20.6374C10.1231 19.971 9.75739 19.4818 9.23978 19.0725C8.70936 18.6531 8.04927 18.34 7.3725 18.0207L7.37231 18.0206C7.35419 18.012 7.33601 18.0035 7.31779 17.9949C6.51336 17.615 5.60988 17.1883 4.9228 16.5719C4.92066 16.57 4.91854 16.568 4.91644 16.5661L4.88981 16.5413C4.84294 16.4988 4.79721 16.4552 4.75166 16.4097C3.12866 14.789 3.12899 12.1498 4.75143 10.5273Z" fill="#062846"/>
</g>
<defs>
<clipPath id="clip0_2231_34413">
<rect width="52" height="52" fill="white"/>
</clipPath>
</defs>
</svg>
