<svg width="160" height="160" viewBox="0 0 160 160" fill="none" xmlns="http://www.w3.org/2000/svg">
<path d="M80 148.98C118.097 148.98 148.98 118.097 148.98 80C148.98 41.9034 118.097 11.02 80 11.02C41.9034 11.02 11.02 41.9034 11.02 80C11.02 118.097 41.9034 148.98 80 148.98Z" fill="#FFD8D1"/>
<path d="M72.14 99.95L103.73 73.44C109.96 75.46 116.94 74.2 122.1 69.87C127.06 65.7 129.6 59.36 128.87 52.91C128.81 52.35 128.44 51.86 127.91 51.65C127.38 51.44 126.78 51.53 126.34 51.9L116.04 60.55L111.52 60.15L105.01 52.39L105.41 47.87L115.71 39.22C116.15 38.85 116.35 38.28 116.23 37.72C116.11 37.16 115.71 36.72 115.16 36.56C108.93 34.72 102.25 36.12 97.28 40.28C92.19 44.55 89.66 51.2 90.57 57.75L56.24 86.56C50.16 84.62 43.32 85.77 38.25 89.82C33.42 93.67 30.72 99.66 31.01 105.83C31.05 106.65 31.54 107.36 32.29 107.69C33.03 108.02 33.88 107.89 34.5 107.37L43.89 99.49C43.89 99.49 43.97 99.44 44.02 99.45L48.39 99.83C48.39 99.83 48.48 99.86 48.51 99.89L54.92 107.53C54.92 107.53 54.97 107.61 54.96 107.66L54.58 112.03C54.58 112.03 54.55 112.12 54.52 112.15L45.13 120.03C44.51 120.55 44.24 121.37 44.43 122.16C44.52 122.55 44.72 122.89 44.99 123.16C45.26 123.43 45.61 123.63 46.01 123.72C51.96 125.07 58.04 123.6 62.7 119.69C66.78 116.27 69.21 111.46 69.56 106.14C69.65 104.74 69.59 103.36 69.39 102.02L72.14 99.94V99.95Z" fill="white"/>
<path d="M70.6099 84.65C69.7899 85.34 69.6799 86.56 70.3699 87.38L71.0598 88.2C71.7498 89.02 72.9699 89.13 73.7899 88.44L89.3999 75.35C90.2199 74.66 90.3299 73.44 89.6399 72.62L88.9498 71.8C88.2598 70.98 87.0399 70.87 86.2199 71.56L70.6099 84.65Z" fill="black"/>
<path d="M94.9099 67.49C94.9099 67.49 94.9499 67.53 94.9699 67.55C95.3199 67.9 95.8899 67.93 96.2799 67.61C96.6899 67.27 96.7399 66.65 96.3999 66.24C95.9099 65.65 95.4499 65.03 95.0399 64.4C94.7499 63.95 94.1499 63.81 93.6999 64.1C93.2499 64.39 93.1099 64.99 93.3999 65.44C93.8499 66.15 94.3599 66.84 94.8999 67.49H94.9099Z" fill="black"/>
<path d="M70.78 99.83C70.78 99.83 70.82 99.87 70.84 99.89C71.19 100.24 71.76 100.27 72.15 99.94L103.74 73.43C109.97 75.45 116.95 74.19 122.11 69.86C127.07 65.69 129.61 59.35 128.88 52.9C128.82 52.34 128.45 51.85 127.92 51.64C127.39 51.43 126.79 51.52 126.35 51.89L116.05 60.54L111.53 60.14L105.02 52.38L105.42 47.86L115.72 39.21C116.16 38.84 116.36 38.27 116.24 37.71C116.12 37.15 115.72 36.71 115.17 36.55C108.94 34.71 102.26 36.11 97.29 40.27C92.2 44.54 89.67 51.19 90.58 57.74L56.25 86.55C50.17 84.61 43.33 85.76 38.26 89.81C33.43 93.66 30.73 99.65 31.02 105.82C31.06 106.64 31.55 107.35 32.3 107.68C33.04 108.01 33.89 107.88 34.51 107.36L43.9 99.48C43.9 99.48 43.98 99.43 44.03 99.44L48.4 99.82C48.4 99.82 48.49 99.85 48.52 99.88L54.93 107.52C54.93 107.52 54.98 107.6 54.97 107.65L54.59 112.02C54.59 112.02 54.56 112.11 54.53 112.14L45.14 120.02C44.52 120.54 44.25 121.36 44.44 122.15C44.53 122.54 44.73 122.88 45 123.15C45.27 123.42 45.62 123.62 46.02 123.71C51.97 125.06 58.05 123.59 62.71 119.68C66.79 116.26 69.22 111.45 69.57 106.13C69.91 100.82 68.11 95.73 64.49 91.8C64.13 91.41 63.51 91.38 63.12 91.74C62.73 92.1 62.7 92.72 63.06 93.11C66.32 96.64 67.94 101.22 67.63 106C67.32 110.78 65.13 115.11 61.46 118.19C57.27 121.71 51.79 123.03 46.44 121.82C46.41 121.82 46.34 121.8 46.31 121.69C46.29 121.61 46.31 121.55 46.37 121.5L55.76 113.62C56.19 113.26 56.46 112.74 56.51 112.18L56.89 107.81C56.94 107.25 56.77 106.7 56.4 106.26L49.99 98.62C49.63 98.19 49.11 97.92 48.55 97.87L44.18 97.49C43.62 97.44 43.07 97.61 42.63 97.98L33.24 105.86C33.24 105.86 33.16 105.93 33.06 105.89C33.01 105.87 32.95 105.82 32.94 105.72C32.68 100.17 35.11 94.78 39.45 91.31C44.96 86.91 52.8 86.32 58.96 89.84C59.43 90.11 60.02 89.95 60.28 89.48C60.55 89.01 60.39 88.42 59.92 88.16C59.39 87.86 58.84 87.58 58.29 87.33L91.99 59.05C92.15 58.98 92.29 58.87 92.39 58.72C92.54 58.51 92.6 58.25 92.55 58C91.51 51.93 93.79 45.7 98.5 41.74C102.78 38.15 108.47 36.85 113.86 38.2L104.01 46.47C103.7 46.73 103.5 47.11 103.46 47.52L103.04 52.36C103 52.77 103.13 53.17 103.4 53.49L110.12 61.5C110.38 61.82 110.76 62.01 111.17 62.05L116.01 62.47C116.42 62.51 116.82 62.38 117.14 62.11L126.99 53.84C127.38 59.38 125.11 64.77 120.83 68.35C115.19 73.08 107.15 73.74 100.82 70C100.36 69.73 99.76 69.88 99.49 70.34C99.22 70.8 99.37 71.4 99.83 71.67C100.42 72.02 101.03 72.33 101.64 72.61L70.86 98.44C70.45 98.78 70.4 99.4 70.74 99.81L70.78 99.83Z" fill="black"/>
<path d="M59.9499 72.26C60.1399 71.76 59.8999 71.2 59.3999 71L52.6699 68.4C52.1699 68.21 51.6099 68.45 51.4099 68.95C51.2699 69.32 51.3599 69.72 51.6299 69.99C51.7199 70.08 51.8399 70.16 51.9599 70.21L58.6899 72.81C59.1899 73 59.7499 72.76 59.9499 72.26Z" fill="black"/>
<path d="M72.5399 50.73L74.5699 57.65C74.6199 57.81 74.6999 57.95 74.8099 58.06C75.0499 58.3 75.4199 58.41 75.7699 58.3C76.2899 58.15 76.5799 57.61 76.4299 57.1L74.3999 50.18C74.2499 49.66 73.7099 49.37 73.1999 49.52C72.6899 49.67 72.3899 50.21 72.5399 50.72V50.73Z" fill="black"/>
<path d="M109.41 91.88C109.61 91.38 109.36 90.82 108.86 90.62L102.15 87.98C101.65 87.78 101.09 88.03 100.89 88.53C100.74 88.9 100.84 89.31 101.11 89.57C101.2 89.66 101.31 89.74 101.44 89.79L108.15 92.43C108.65 92.63 109.21 92.38 109.41 91.88Z" fill="black"/>
<path d="M88.18 109.98L86.19 103.05C86.04 102.54 85.4999 102.24 84.9899 102.39C84.4799 102.54 84.18 103.08 84.33 103.59L86.32 110.52C86.37 110.68 86.4499 110.83 86.5599 110.94C86.7999 111.18 87.1599 111.29 87.5199 111.19C88.0399 111.04 88.33 110.5 88.18 109.99V109.98Z" fill="black"/>
</svg>
