<svg width="20" height="20" viewBox="0 0 20 20" fill="none" xmlns="http://www.w3.org/2000/svg"><path fill="currentColor" fill-rule="evenodd" clip-rule="evenodd" d="M4 2C2.89543 2 2 2.89543 2 4V16C2 17.1046 2.89543 18 4 18H16C17.1046 18 18 17.1046 18 16V4C18 2.89543 17.1046 2 16 2H4ZM15.4353 9.13305L15.3787 8.89231H10.1618V11.1077H13.2784C12.9549 12.6495 11.4532 13.461 10.2265 13.461C9.33407 13.461 8.39314 13.085 7.77034 12.4791C7.13137 11.857 6.72426 10.94 6.72426 9.99594C6.72426 9.06273 7.14216 8.12951 7.75147 7.51548C8.35809 6.90415 9.27745 6.55792 10.1914 6.55792C11.2375 6.55792 11.987 7.11514 12.2674 7.36941L13.8365 5.80323C13.3755 5.39748 12.111 4.375 10.1402 4.375C8.61961 4.375 7.16103 4.95927 6.09608 6.02504C5.04461 7.07457 4.5 8.59206 4.5 9.99865C4.5 11.4052 5.01495 12.8497 6.03407 13.9073C7.12328 15.0353 8.66544 15.625 10.2534 15.625C11.6985 15.625 13.0681 15.057 14.0441 14.0264C15.0039 13.012 15.5 11.6081 15.5 10.1366C15.5 9.52175 15.4389 9.15475 15.4354 9.13347L15.4353 9.13305Z"/></svg>