<svg width="52" height="52" viewBox="0 0 52 52" fill="none" xmlns="http://www.w3.org/2000/svg">
<g clip-path="url(#clip0_2231_34462)">
<path d="M22.7149 5.5C20.1049 5.2 16.2049 5.45 15.3249 9.28C15.3249 9.28 4.77493 12.84 7.84493 22.41C7.84493 22.41 2.56493 28.05 8.09493 31.86C8.09493 31.86 6.99493 38.49 12.1449 38C12.1449 38 12.7549 46.1 19.5049 44.87C19.5049 44.87 23.9449 49.41 26.5149 43.77V6.71C25.3349 6.07 24.0549 5.65 22.7249 5.5H22.7149Z" fill="#D7D3EC"/>
<path d="M29.9949 5.54001C32.5949 5.19001 36.7649 5.30001 37.6849 9.29001C37.6849 9.29001 48.2349 12.85 45.1649 22.42C45.1649 22.42 50.4449 28.06 44.9149 31.87C44.9149 31.87 46.0149 38.5 40.8649 38.01C40.8649 38.01 40.2549 46.11 33.5049 44.88C33.5049 44.88 29.0649 49.42 26.4949 43.78V6.71001L26.6049 6.65001C27.6549 6.08001 28.8049 5.69001 29.9949 5.54001Z" fill="#D7D3EC"/>
<path d="M19.0749 13.28C19.9917 13.28 20.7349 12.5368 20.7349 11.62C20.7349 10.7032 19.9917 9.95999 19.0749 9.95999C18.1582 9.95999 17.4149 10.7032 17.4149 11.62C17.4149 12.5368 18.1582 13.28 19.0749 13.28Z" fill="#F1F0F9"/>
<path d="M33.645 14.25C34.5617 14.25 35.305 13.5068 35.305 12.59C35.305 11.6732 34.5617 10.93 33.645 10.93C32.7282 10.93 31.985 11.6732 31.985 12.59C31.985 13.5068 32.7282 14.25 33.645 14.25Z" fill="#F1F0F9"/>
<path d="M17.8549 41.69C18.7717 41.69 19.5149 40.9468 19.5149 40.03C19.5149 39.1132 18.7717 38.37 17.8549 38.37C16.9382 38.37 16.1949 39.1132 16.1949 40.03C16.1949 40.9468 16.9382 41.69 17.8549 41.69Z" fill="#F1F0F9"/>
<path d="M17.6949 32.67C18.6117 32.67 19.3549 31.9268 19.3549 31.01C19.3549 30.0932 18.6117 29.35 17.6949 29.35C16.7781 29.35 16.0349 30.0932 16.0349 31.01C16.0349 31.9268 16.7781 32.67 17.6949 32.67Z" fill="#F1F0F9"/>
<path d="M35.8349 38.46C36.7517 38.46 37.4949 37.7168 37.4949 36.8C37.4949 35.8832 36.7517 35.14 35.8349 35.14C34.9181 35.14 34.1749 35.8832 34.1749 36.8C34.1749 37.7168 34.9181 38.46 35.8349 38.46Z" fill="#F1F0F9"/>
<path d="M37.4949 28.16C38.4117 28.16 39.1549 27.4168 39.1549 26.5C39.1549 25.5832 38.4117 24.84 37.4949 24.84C36.5781 24.84 35.8349 25.5832 35.8349 26.5C35.8349 27.4168 36.5781 28.16 37.4949 28.16Z" fill="#F1F0F9"/>
<path fill-rule="evenodd" clip-rule="evenodd" d="M7.47003 22.0683C7.65875 21.8667 7.97516 21.8563 8.17675 22.045C8.37824 22.2336 8.38876 22.5498 8.20035 22.7514C8.20025 22.7515 8.20045 22.7513 8.20035 22.7514L7.83504 22.41L7.47003 22.0683ZM7.83504 22.41C7.47003 22.0683 7.47021 22.0681 7.47003 22.0683L7.46921 22.0692L7.46792 22.0706L7.4639 22.0749L7.45034 22.0897C7.43891 22.1023 7.42276 22.1202 7.40241 22.1432C7.3617 22.1893 7.30407 22.2559 7.23352 22.3413C7.09254 22.5119 6.89922 22.7583 6.68578 23.0656C6.26088 23.6773 5.74641 24.5448 5.41195 25.5482C5.07735 26.552 4.91464 27.7176 5.22976 28.9044C5.52874 30.0305 6.24478 31.1256 7.55047 32.0926C7.52943 32.2828 7.50575 32.5508 7.49398 32.8699C7.47042 33.5082 7.49372 34.3696 7.69162 35.2263C7.88873 36.0795 8.26976 36.9736 8.9972 37.6209C9.65078 38.2025 10.5367 38.5429 11.6949 38.5252C11.7272 38.7441 11.7757 39.0273 11.8475 39.3537C12.0161 40.121 12.3159 41.1423 12.8424 42.1312C13.3689 43.12 14.1347 44.1002 15.2457 44.7475C16.313 45.3694 17.6585 45.6603 19.3324 45.4042C19.3405 45.4115 19.3489 45.419 19.3574 45.4267C19.4933 45.5482 19.6888 45.7137 19.9317 45.8933C20.4129 46.2491 21.1008 46.676 21.8924 46.9139C22.6896 47.1534 23.6193 47.208 24.5391 46.7733C25.4561 46.34 26.2858 45.457 26.96 43.9773C27.0745 43.7261 26.9637 43.4295 26.7124 43.315C26.4611 43.2005 26.1646 43.3114 26.0501 43.5627C25.4393 44.903 24.7503 45.5675 24.1119 45.8692C23.4764 46.1695 22.8142 46.1466 22.1802 45.9562C21.5406 45.764 20.9578 45.4084 20.5262 45.0892C20.3127 44.9313 20.1413 44.7862 20.0243 44.6815C19.9659 44.6292 19.9213 44.5873 19.8921 44.5592C19.8775 44.5452 19.8668 44.5347 19.8601 44.528L19.8532 44.5211L19.8523 44.5202L19.6668 44.3305L19.4054 44.3781C17.8221 44.6666 16.6415 44.4035 15.7491 43.8835C14.8472 43.358 14.195 42.5438 13.7251 41.6613C13.2554 40.779 12.9809 39.8521 12.8242 39.1391C12.7462 38.7841 12.6982 38.486 12.6699 38.2781C12.6557 38.1743 12.6465 38.0932 12.6409 38.0392C12.6381 38.0121 12.6362 37.9919 12.635 37.9789L12.6338 37.965L12.6336 37.9625L12.5953 37.454L12.0877 37.5023C10.9133 37.614 10.1617 37.3185 9.66195 36.8738C9.1472 36.4158 8.83761 35.7442 8.66596 35.0012C8.49512 34.2617 8.47154 33.4962 8.4933 32.9067C8.5041 32.614 8.52588 32.3694 8.54478 32.1991C8.55422 32.1141 8.56291 32.0479 8.56909 32.0039C8.57218 31.9818 8.57464 31.9654 8.57625 31.9549L8.578 31.9437L8.5783 31.9419L8.63029 31.6285L8.36872 31.4483C7.06948 30.5531 6.44397 29.5807 6.19626 28.6478C5.94607 27.7055 6.06648 26.7468 6.36063 25.8644C6.65492 24.9815 7.11482 24.2008 7.50711 23.636C7.70227 23.355 7.87825 23.131 8.00441 22.9783C8.06743 22.902 8.11785 22.8438 8.15178 22.8054C8.16875 22.7862 8.18158 22.7719 8.18979 22.7629L8.19857 22.7533L8.20035 22.7514" fill="#062846"/>
<path fill-rule="evenodd" clip-rule="evenodd" d="M17.1574 5.86151C18.8853 4.82256 21.1372 4.8205 22.7706 5.00311L22.7711 5.00316C24.1692 5.16085 25.5108 5.60195 26.7434 6.2705C26.9862 6.40215 27.0762 6.70566 26.9446 6.9484C26.8129 7.19113 26.5094 7.28118 26.2667 7.14953C25.1394 6.53812 23.921 6.13923 22.6593 5.9969C21.0727 5.81953 19.1047 5.8575 17.6727 6.71852C17.436 6.86082 17.1288 6.78432 16.9865 6.54766C16.8442 6.311 16.9207 6.0038 17.1574 5.86151Z" fill="#062846"/>
<path fill-rule="evenodd" clip-rule="evenodd" d="M26.2877 43.315C26.539 43.2005 26.8355 43.3114 26.95 43.5627C27.5608 44.903 28.2498 45.5675 28.8882 45.8692C29.5236 46.1695 30.1859 46.1466 30.8199 45.9561C31.4595 45.764 32.0422 45.4084 32.4738 45.0892C32.6874 44.9313 32.8588 44.7862 32.9758 44.6815C33.0342 44.6292 33.0788 44.5873 33.108 44.5592C33.1226 44.5452 33.1333 44.5346 33.1399 44.528L33.1469 44.5211L33.1478 44.5201C33.3409 44.323 33.6573 44.3195 33.8546 44.5125C34.052 44.7056 34.0556 45.0222 33.8625 45.2196L33.505 44.87C33.8625 45.2196 33.8627 45.2194 33.8625 45.2196L33.8604 45.2217L33.8567 45.2254L33.8445 45.2377C33.8342 45.2479 33.8197 45.2622 33.8011 45.28C33.764 45.3157 33.7107 45.3658 33.6426 45.4267C33.5068 45.5482 33.3112 45.7137 33.0684 45.8933C32.5872 46.2491 31.8993 46.676 31.1076 46.9139C30.3104 47.1534 29.3808 47.208 28.4609 46.7733C27.544 46.34 26.7143 45.457 26.04 43.9773C25.9255 43.726 26.0364 43.4295 26.2877 43.315Z" fill="#062846"/>
<path fill-rule="evenodd" clip-rule="evenodd" d="M34.3253 6.26298C32.948 5.81473 31.3434 5.86438 30.0717 6.03555L30.0676 6.03612C28.9445 6.17768 27.854 6.54644 26.8541 7.0892C26.8539 7.08928 26.8542 7.08911 26.8541 7.0892L26.7445 7.14897C26.502 7.2812 26.1983 7.19188 26.0661 6.94945C25.9339 6.70703 26.0232 6.40331 26.2656 6.27108L26.3765 6.2106C27.4758 5.61382 28.6844 5.20283 29.9404 5.04421C31.2686 4.8656 33.0479 4.79559 34.6348 5.31207C36.1878 5.81751 37.5591 6.8902 38.1153 8.91242C38.1777 8.93664 38.2504 8.96552 38.3323 8.99918C38.6259 9.11978 39.0391 9.30205 39.5239 9.55103C40.4914 10.0479 41.7558 10.8162 42.9259 11.8993C44.0966 12.983 45.1853 14.3935 45.776 16.1736C46.3473 17.8952 46.4423 19.9313 45.7351 22.3015C45.7484 22.3173 45.7622 22.3339 45.7766 22.3513C45.9175 22.522 46.1109 22.7683 46.3243 23.0756C46.7492 23.6873 47.2637 24.5548 47.5981 25.5582C47.9327 26.562 48.0954 27.7277 47.7803 28.9144C47.4813 30.0405 46.7653 31.1356 45.4596 32.1026C45.4807 32.2928 45.5043 32.5608 45.5161 32.8799C45.5397 33.5182 45.5164 34.3796 45.3185 35.2363C45.1214 36.0896 44.7403 36.9836 44.0129 37.6309C43.2705 38.2915 42.2283 38.641 40.8277 38.5078C40.5528 38.4816 40.3511 38.2376 40.3773 37.9627C40.4034 37.6878 40.6475 37.4861 40.9224 37.5123C42.0968 37.624 42.8484 37.3285 43.3481 36.8838C43.8629 36.4258 44.1725 35.7542 44.3441 35.0112C44.515 34.2717 44.5385 33.5063 44.5168 32.9168C44.506 32.624 44.4842 32.3794 44.4653 32.2091C44.4559 32.1241 44.4472 32.0579 44.441 32.0139C44.4379 31.9919 44.4354 31.9754 44.4338 31.9649L44.4321 31.9538L44.4318 31.9519L44.3798 31.6385L44.6414 31.4583C45.9406 30.5632 46.5661 29.5907 46.8138 28.6578C47.064 27.7155 46.9436 26.7568 46.6494 25.8744C46.3552 24.9915 45.8953 24.2108 45.503 23.646C45.3078 23.3651 45.1318 23.141 45.0057 22.9883C44.9426 22.912 44.8922 22.8538 44.8583 22.8154C44.8479 22.8036 44.839 22.7937 44.8319 22.7857C44.8273 22.7807 44.8235 22.7764 44.8203 22.7729L44.8115 22.7633L44.81 22.7617L44.6092 22.5472L44.6989 22.2673C45.4363 19.9688 45.3486 18.0608 44.8269 16.4886C44.3029 14.9097 43.3297 13.6358 42.2466 12.6332C41.163 11.6301 39.9818 10.9103 39.0671 10.4406C38.6108 10.2063 38.2238 10.0357 37.9524 9.92419C37.8168 9.86848 37.7103 9.82764 37.6387 9.80108C37.603 9.7878 37.576 9.7781 37.5585 9.77191L37.5394 9.76524L37.5354 9.76386L37.2706 9.67449L37.2078 9.40237C36.7938 7.60686 35.6708 6.70088 34.3253 6.26298Z" fill="#062846"/>
<path fill-rule="evenodd" clip-rule="evenodd" d="M26.505 18.2C26.7812 18.2 27.005 18.4239 27.005 18.7V43.76C27.005 44.0362 26.7812 44.26 26.505 44.26C26.2289 44.26 26.005 44.0362 26.005 43.76V18.7C26.005 18.4239 26.2289 18.2 26.505 18.2Z" fill="#062846"/>
<path fill-rule="evenodd" clip-rule="evenodd" d="M26.505 6.21C26.7812 6.21 27.005 6.43386 27.005 6.71V11.62C27.005 11.8961 26.7812 12.12 26.505 12.12C26.2289 12.12 26.005 11.8961 26.005 11.62V6.71C26.005 6.43386 26.2289 6.21 26.505 6.21Z" fill="#062846"/>
<path fill-rule="evenodd" clip-rule="evenodd" d="M19.075 12.82C19.3512 12.82 19.575 13.0439 19.575 13.32V21.03H26.355C26.6312 21.03 26.855 21.2539 26.855 21.53C26.855 21.8062 26.6312 22.03 26.355 22.03H18.575V13.32C18.575 13.0439 18.7989 12.82 19.075 12.82Z" fill="#062846"/>
<path fill-rule="evenodd" clip-rule="evenodd" d="M19.075 10.46C18.4344 10.46 17.915 10.9794 17.915 11.62C17.915 12.2607 18.4344 12.78 19.075 12.78C19.7157 12.78 20.235 12.2607 20.235 11.62C20.235 10.9794 19.7157 10.46 19.075 10.46ZM16.915 11.62C16.915 10.4271 17.8821 9.46001 19.075 9.46001C20.268 9.46001 21.235 10.4271 21.235 11.62C21.235 12.8129 20.268 13.78 19.075 13.78C17.8821 13.78 16.915 12.8129 16.915 11.62Z" fill="#062846"/>
<path fill-rule="evenodd" clip-rule="evenodd" d="M33.6451 11.43C33.0044 11.43 32.4851 11.9494 32.4851 12.59C32.4851 13.2307 33.0044 13.75 33.6451 13.75C34.2857 13.75 34.8051 13.2307 34.8051 12.59C34.8051 11.9494 34.2857 11.43 33.6451 11.43ZM31.4851 12.59C31.4851 11.3971 32.4521 10.43 33.6451 10.43C34.838 10.43 35.8051 11.3971 35.8051 12.59C35.8051 13.7829 34.838 14.75 33.6451 14.75C32.4521 14.75 31.4851 13.7829 31.4851 12.59Z" fill="#062846"/>
<path fill-rule="evenodd" clip-rule="evenodd" d="M17.855 38.87C17.2144 38.87 16.695 39.3894 16.695 40.03C16.695 40.6707 17.2144 41.19 17.855 41.19C18.4957 41.19 19.015 40.6707 19.015 40.03C19.015 39.3894 18.4957 38.87 17.855 38.87ZM15.695 40.03C15.695 38.8371 16.6621 37.87 17.855 37.87C19.048 37.87 20.015 38.8371 20.015 40.03C20.015 41.2229 19.048 42.19 17.855 42.19C16.6621 42.19 15.695 41.2229 15.695 40.03Z" fill="#062846"/>
<path fill-rule="evenodd" clip-rule="evenodd" d="M17.695 29.85C17.0544 29.85 16.535 30.3694 16.535 31.01C16.535 31.6507 17.0544 32.17 17.695 32.17C18.3357 32.17 18.855 31.6507 18.855 31.01C18.855 30.3694 18.3357 29.85 17.695 29.85ZM15.535 31.01C15.535 29.8171 16.5021 28.85 17.695 28.85C18.888 28.85 19.855 29.8171 19.855 31.01C19.855 32.203 18.888 33.17 17.695 33.17C16.5021 33.17 15.535 32.203 15.535 31.01Z" fill="#062846"/>
<path fill-rule="evenodd" clip-rule="evenodd" d="M35.835 35.64C35.1944 35.64 34.675 36.1594 34.675 36.8C34.675 37.4407 35.1944 37.96 35.835 37.96C36.4757 37.96 36.995 37.4407 36.995 36.8C36.995 36.1594 36.4757 35.64 35.835 35.64ZM33.675 36.8C33.675 35.6071 34.6421 34.64 35.835 34.64C37.028 34.64 37.995 35.6071 37.995 36.8C37.995 37.993 37.028 38.96 35.835 38.96C34.6421 38.96 33.675 37.993 33.675 36.8Z" fill="#062846"/>
<path fill-rule="evenodd" clip-rule="evenodd" d="M37.495 25.34C36.8544 25.34 36.335 25.8594 36.335 26.5C36.335 27.1407 36.8544 27.66 37.495 27.66C38.1357 27.66 38.655 27.1407 38.655 26.5C38.655 25.8594 38.1357 25.34 37.495 25.34ZM35.335 26.5C35.335 25.3071 36.3021 24.34 37.495 24.34C38.688 24.34 39.655 25.3071 39.655 26.5C39.655 27.6929 38.688 28.66 37.495 28.66C36.3021 28.66 35.335 27.6929 35.335 26.5Z" fill="#062846"/>
<path fill-rule="evenodd" clip-rule="evenodd" d="M26.005 31.94C26.005 31.6639 26.2289 31.44 26.505 31.44H36.335V34.83C36.335 35.1062 36.1112 35.33 35.835 35.33C35.5589 35.33 35.335 35.1062 35.335 34.83V32.44H26.505C26.2289 32.44 26.005 32.2162 26.005 31.94Z" fill="#062846"/>
<path fill-rule="evenodd" clip-rule="evenodd" d="M21.345 28.43H26.355C26.6312 28.43 26.855 28.6539 26.855 28.93C26.855 29.2061 26.6312 29.43 26.355 29.43H22.345V40.53H19.765C19.4889 40.53 19.265 40.3061 19.265 40.03C19.265 39.7539 19.4889 39.53 19.765 39.53H21.345V28.43Z" fill="#062846"/>
<path fill-rule="evenodd" clip-rule="evenodd" d="M11.635 24.35H26.355C26.6312 24.35 26.855 24.5739 26.855 24.85C26.855 25.1262 26.6312 25.35 26.355 25.35H12.635V30.51H16.035C16.3112 30.51 16.535 30.7339 16.535 31.01C16.535 31.2862 16.3112 31.51 16.035 31.51H11.635V24.35Z" fill="#062846"/>
<path fill-rule="evenodd" clip-rule="evenodd" d="M33.645 13.75C33.9212 13.75 34.145 13.9739 34.145 14.25V21.91H45.165C45.4412 21.91 45.665 22.1339 45.665 22.41C45.665 22.6862 45.4412 22.91 45.165 22.91H33.145V14.25C33.145 13.9739 33.3689 13.75 33.645 13.75Z" fill="#062846"/>
<path fill-rule="evenodd" clip-rule="evenodd" d="M25.975 26.5C25.975 26.2239 26.1989 26 26.475 26H35.835C36.1112 26 36.335 26.2239 36.335 26.5C36.335 26.7762 36.1112 27 35.835 27H26.475C26.1989 27 25.975 26.7762 25.975 26.5Z" fill="#062846"/>
</g>
<defs>
<clipPath id="clip0_2231_34462">
<rect width="42.87" height="42.18" fill="white" transform="translate(5.06494 4.91)"/>
</clipPath>
</defs>
</svg>
