<svg width="52" height="52" viewBox="0 0 52 52" fill="none" xmlns="http://www.w3.org/2000/svg">
<path fill-rule="evenodd" clip-rule="evenodd" d="M4 47.7554H25.563V16.1344H4V47.7554Z" fill="#288DFF"/>
<path fill-rule="evenodd" clip-rule="evenodd" d="M4 47.7554H25.563V16.1344H4V47.7554Z" fill="#1E6ABF"/>
<path fill-rule="evenodd" clip-rule="evenodd" d="M25.623 47.7554H47.186V16.1344H25.623V47.7554Z" fill="#A9D1FF"/>
<path fill-rule="evenodd" clip-rule="evenodd" d="M44.4928 5L25.6238 15.008V46.63L44.4928 36.622V5Z" fill="#288DFF"/>
<mask id="mask0_2231_34463" style="mask-type:luminance" maskUnits="userSpaceOnUse" x="25" y="5" width="20" height="42">
<path fill-rule="evenodd" clip-rule="evenodd" d="M25.6237 5.0004H44.4927V46.6291H25.6237V5.0004Z" fill="white"/>
</mask>
<g mask="url(#mask0_2231_34463)">
<path fill-rule="evenodd" clip-rule="evenodd" d="M44.9927 5.00009V36.6211C44.9927 36.8062 44.8905 36.9761 44.727 37.0628L25.858 47.0708L25.3894 46.1874L43.9927 36.3203V5.00009H44.9927Z" fill="#062846"/>
</g>
<path fill-rule="evenodd" clip-rule="evenodd" d="M28.5456 18.1053L40.7036 11.7703L40.7916 21.7843L28.5456 28.2283V18.1053Z" fill="#A9D1FF"/>
<path fill-rule="evenodd" clip-rule="evenodd" d="M6.6937 5V36.622L25.5627 46.63V15.008L6.6937 5Z" fill="#A9D1FF"/>
<path fill-rule="evenodd" clip-rule="evenodd" d="M7.194 36.3206V5.0004H6.194V36.6214C6.194 36.8065 6.29622 36.9764 6.45972 37.0631L25.3287 47.0711C25.4837 47.1533 25.6704 47.1483 25.8207 47.0578C25.9711 46.9674 26.063 46.8048 26.063 46.6294V15.0084H25.063V45.7982L7.194 36.3206Z" fill="#062846"/>
<path fill-rule="evenodd" clip-rule="evenodd" d="M22.3379 17.9445L10.3199 11.5705L10.3959 22.0545L22.3379 28.3895V17.9445Z" fill="#288DFF"/>
<path fill-rule="evenodd" clip-rule="evenodd" d="M41.4708 26.4592C41.6002 26.7032 41.5073 27.0058 41.2634 27.1352L29.3214 33.4692C29.0774 33.5986 28.7748 33.5057 28.6454 33.2618C28.516 33.0178 28.6089 32.7152 28.8528 32.5858L40.7948 26.2518C41.0388 26.1224 41.3414 26.2153 41.4708 26.4592Z" fill="#062846"/>
<path fill-rule="evenodd" clip-rule="evenodd" d="M41.2326 31.7109C41.362 31.9549 41.2692 32.2575 41.0252 32.3869L29.0832 38.7209C28.8392 38.8503 28.5366 38.7574 28.4072 38.5135C28.2778 38.2695 28.3707 37.9669 28.6146 37.8375L40.5566 31.5035C40.8006 31.3741 41.1032 31.467 41.2326 31.7109Z" fill="#062846"/>
<path fill-rule="evenodd" clip-rule="evenodd" d="M9.71601 26.4592C9.8454 26.2153 10.1481 26.1224 10.392 26.2518L22.334 32.5858C22.578 32.7152 22.6708 33.0178 22.5414 33.2618C22.412 33.5057 22.1094 33.5986 21.8654 33.4692L9.92344 27.1352C9.67949 27.0058 9.58662 26.7032 9.71601 26.4592Z" fill="#062846"/>
<path fill-rule="evenodd" clip-rule="evenodd" d="M9.95419 31.7109C10.0836 31.467 10.3862 31.3741 10.6302 31.5035L22.5722 37.8375C22.8161 37.9669 22.909 38.2695 22.7796 38.5135C22.6502 38.7574 22.3476 38.8503 22.1036 38.7209L10.1616 32.3869C9.91767 32.2575 9.8248 31.9549 9.95419 31.7109Z" fill="#062846"/>
</svg>
