<svg width="52" height="52" viewBox="0 0 52 52" fill="none" xmlns="http://www.w3.org/2000/svg">
<path fill-rule="evenodd" clip-rule="evenodd" d="M40.6982 10.888H32.1922V6H40.6982L38.6962 8.444L40.6982 10.888Z" fill="#FF492C"/>
<path fill-rule="evenodd" clip-rule="evenodd" d="M32.1924 9.6165C32.4506 9.6165 32.6599 9.82581 32.6599 10.084V18.254C32.6599 18.5122 32.4506 18.7215 32.1924 18.7215C31.9342 18.7215 31.7249 18.5122 31.7249 18.254V10.084C31.7249 9.82581 31.9342 9.6165 32.1924 9.6165Z" fill="#062846"/>
<path fill-rule="evenodd" clip-rule="evenodd" d="M31.7247 6C31.7247 5.74181 31.934 5.5325 32.1922 5.5325H40.6982C40.8789 5.5325 41.0434 5.63662 41.1207 5.79992C41.1981 5.96323 41.1744 6.15647 41.0599 6.29625L39.3005 8.444L41.0599 10.5918C41.1744 10.7315 41.1981 10.9248 41.1207 11.0881C41.0434 11.2514 40.8789 11.3555 40.6982 11.3555H32.1922C31.934 11.3555 31.7247 11.1462 31.7247 10.888V6ZM32.6597 6.4675V10.4205H39.7109L38.3345 8.74025C38.1934 8.56796 38.1934 8.32004 38.3345 8.14775L39.7109 6.4675H32.6597Z" fill="#062846"/>
<path fill-rule="evenodd" clip-rule="evenodd" d="M23.0234 29.7972L14.0374 45.3602H32.0084H49.9794L40.9934 29.7972L32.0084 14.2342L23.0234 29.7972Z" fill="#27D3BC"/>
<mask id="mask0_2231_34419" style="mask-type:luminance" maskUnits="userSpaceOnUse" x="14" y="14" width="36" height="32">
<path fill-rule="evenodd" clip-rule="evenodd" d="M23.0232 29.797L14.0382 45.36H32.0082H49.9792L40.9932 29.797L32.0082 14.234" fill="white"/>
</mask>
<g mask="url(#mask0_2231_34419)">
<path fill-rule="evenodd" clip-rule="evenodd" d="M36.6977 22.3559L36.3727 23.2429L34.2267 21.3519L31.7917 23.4299L29.4417 21.3519L25.9687 23.9749L30.2257 13.6899L31.9277 12.7709L33.8527 12.9409C33.8527 12.9409 35.5207 18.4749 35.5207 18.5259C35.5207 18.5769 36.6977 22.3559 36.6977 22.3559Z" fill="#E5FAF7"/>
</g>
<mask id="mask1_2231_34419" style="mask-type:luminance" maskUnits="userSpaceOnUse" x="14" y="14" width="36" height="32">
<path fill-rule="evenodd" clip-rule="evenodd" d="M23.0232 29.797L14.0382 45.36H32.0082H49.9792L40.9932 29.797L32.0082 14.234" fill="white"/>
</mask>
<g mask="url(#mask1_2231_34419)">
<path fill-rule="evenodd" clip-rule="evenodd" d="M24.8127 20.934C24.9804 20.7377 25.2755 20.7145 25.4718 20.8823L27.5092 22.6229L29.5475 20.8822C29.7225 20.7327 29.9802 20.7329 30.1551 20.8825L32.1881 22.6224L34.2211 20.8825C34.3961 20.7328 34.6541 20.7328 34.8291 20.8825L37.1661 22.8825C37.3622 23.0504 37.3852 23.3455 37.2173 23.5417C37.0494 23.7378 36.7543 23.7608 36.5581 23.5929L34.5251 21.853L32.4921 23.5929C32.3171 23.7426 32.0591 23.7426 31.8841 23.5929L29.8508 21.8527L27.8127 23.5932C27.6378 23.7426 27.3803 23.7425 27.2054 23.5931L24.8644 21.5931C24.6681 21.4254 24.6449 21.1303 24.8127 20.934Z" fill="#062846"/>
</g>
<path fill-rule="evenodd" clip-rule="evenodd" d="M10.004 33.2298L3 45.3598H17.008H31.015L24.012 33.2298L17.008 21.0988L10.004 33.2298Z" fill="#E5FAF7"/>
<path fill-rule="evenodd" clip-rule="evenodd" d="M12.3717 29.1287L12.4477 29.4387L13.8547 30.7967L16.1957 28.7977L18.5337 30.7967L20.8707 28.7977L21.6277 29.1017L17.0077 21.0987L12.3717 29.1287Z" fill="#27D3BC"/>
<mask id="mask2_2231_34419" style="mask-type:luminance" maskUnits="userSpaceOnUse" x="3" y="21" width="29" height="25">
<path fill-rule="evenodd" clip-rule="evenodd" d="M10.0042 33.23L3.00021 45.36H17.0082H31.0152L24.0112 33.23L17.0082 21.099" fill="white"/>
</mask>
<g mask="url(#mask2_2231_34419)">
<path fill-rule="evenodd" clip-rule="evenodd" d="M11.1583 28.4935C11.326 28.2972 11.6211 28.274 11.8174 28.4418L13.8548 30.1824L15.8931 28.4417C16.0681 28.2922 16.3258 28.2924 16.5007 28.442L18.5337 30.1819L20.5667 28.442C20.7417 28.2923 20.9997 28.2923 21.1747 28.442L23.5117 30.442C23.7078 30.6099 23.7308 30.905 23.5629 31.1012C23.395 31.2973 23.0999 31.3203 22.9037 31.1524L20.8707 29.4125L18.8377 31.1524C18.6627 31.3021 18.4047 31.3021 18.2297 31.1524L16.1964 29.4122L14.1583 31.1527C13.9834 31.3021 13.7259 31.302 13.551 31.1526L11.21 29.1526C11.0137 28.9849 10.9906 28.6898 11.1583 28.4935Z" fill="#062846"/>
</g>
<path fill-rule="evenodd" clip-rule="evenodd" d="M31.7745 13.8294C31.9981 13.7003 32.2841 13.7769 32.4132 14.0005L50.3842 45.1266C50.5133 45.3502 50.4367 45.6361 50.2131 45.7652C49.9895 45.8943 49.7035 45.8176 49.5744 45.594L31.6034 14.4681C31.4743 14.2445 31.5509 13.9585 31.7745 13.8294Z" fill="#062846"/>
<path fill-rule="evenodd" clip-rule="evenodd" d="M16.7685 20.6968C16.9902 20.5645 17.2772 20.6371 17.4095 20.8588L24.4302 32.628L31.423 45.1321C31.5491 45.3575 31.4685 45.6423 31.2432 45.7683C31.0179 45.8943 30.733 45.8138 30.607 45.5885L23.6172 33.0902L16.6065 21.3378C16.4742 21.1161 16.5468 20.8291 16.7685 20.6968Z" fill="#062846"/>
</svg>
