<svg width="20" height="20" viewBox="0 0 20 20" fill="none" xmlns="http://www.w3.org/2000/svg"><path fill="currentColor" d="M10 17.9583C8.90278 17.9583 7.86806 17.75 6.89583 17.3333C5.92361 16.9167 5.07292 16.3438 4.34375 15.6146C3.61458 14.8854 3.04167 14.0347 2.625 13.0625C2.20833 12.0903 2 11.0556 2 9.95833C2 7.86111 2.69792 6.05903 4.09375 4.55208C5.48958 3.04514 7.20833 2.19444 9.25 2V4C7.76389 4.19444 6.51736 4.85417 5.51042 5.97917C4.50347 7.10417 4 8.43056 4 9.95833C4 11.625 4.58333 13.0417 5.75 14.2083C6.91667 15.375 8.33333 15.9583 10 15.9583C10.9861 15.9583 11.8889 15.7431 12.7083 15.3125C13.5278 14.8819 14.2153 14.3056 14.7708 13.5833L16.5208 14.5833C15.7847 15.6111 14.8507 16.4306 13.7188 17.0417C12.5868 17.6528 11.3472 17.9583 10 17.9583ZM17.2708 13.2917L15.5208 12.2917C15.6736 11.9306 15.7917 11.5521 15.875 11.1562C15.9583 10.7604 16 10.3611 16 9.95833C16 8.43056 15.4965 7.10417 14.4896 5.97917C13.4826 4.85417 12.2361 4.19444 10.75 4V2C12.7917 2.19444 14.5104 3.04514 15.9062 4.55208C17.3021 6.05903 18 7.86111 18 9.95833C18 10.5556 17.9375 11.1319 17.8125 11.6875C17.6875 12.2431 17.5069 12.7778 17.2708 13.2917Z"/></svg>