<svg width="52" height="52" viewBox="0 0 52 52" fill="none" xmlns="http://www.w3.org/2000/svg">
<path fill-rule="evenodd" clip-rule="evenodd" d="M38.0198 26.3349L36.0989 24.4064L37.0384 23.466L38.9683 25.3956L38.0198 26.3349ZM34.546 22.8617L32.6172 20.9332L33.5646 19.9849L35.4945 21.9133L34.546 22.8617ZM31.0722 19.3794L29.1423 17.451L30.0829 16.5117L32.0117 18.4401L31.0722 19.3794ZM27.5893 15.9062L25.6606 13.9778L26.6091 13.0294L28.5379 14.9589L27.5893 15.9062ZM42.4421 28.8688L51.0003 20.3119L46.578 15.8903C43.643 17.5822 39.8421 17.1737 37.3327 14.6647C34.8324 12.1636 34.4237 8.34638 36.1069 5.42091L31.6845 0.999329L23.1263 9.55617L25.0562 11.4846L24.1156 12.433L22.1868 10.5045L1 31.6799L5.35666 36.0438C8.32336 34.1312 12.3212 34.4832 14.92 37.0816C17.511 39.6811 17.863 43.6772 15.958 46.6434L20.3147 51.0005L41.5015 29.816L39.5727 27.8876L40.5213 26.9392L42.4421 28.8688Z" fill="#FF492C"/>
<path fill-rule="evenodd" clip-rule="evenodd" d="M31.6859 4.91586L32.8155 6.04529L32.7332 6.32915C31.6918 9.92052 32.6452 13.892 35.3751 16.6215C37.3496 18.5956 39.9685 19.6812 42.7525 19.6812C43.744 19.6812 44.7271 19.5397 45.6713 19.2654L45.9549 19.1829L47.0854 20.311L20.3149 47.0828L19.3108 46.0788L19.4061 45.787C20.6034 42.1222 19.6932 37.9471 16.8823 35.1267C14.9034 33.1483 12.2812 32.0617 9.49172 32.0617C8.36784 32.0617 7.26197 32.241 6.21165 32.5896L5.91796 32.6871L4.91666 31.6807L31.6859 4.91586ZM31.6859 6.32996L6.57234 31.4394C7.51905 31.1894 8.49946 31.0617 9.49172 31.0617C12.5472 31.0617 15.4236 32.2542 17.5897 34.4199C20.5041 37.3438 21.5521 41.5873 20.5519 45.4316L45.6704 20.3117L45.6636 20.3049C44.7177 20.5534 43.739 20.6812 42.7525 20.6812C39.7026 20.6812 36.8296 19.4898 34.6681 17.3287C31.7477 14.4088 30.6836 10.1954 31.6936 6.33765L31.6859 6.32996Z" fill="#062846"/>
</svg>
