<svg width="20" height="20" viewBox="0 0 20 20" fill="none" xmlns="http://www.w3.org/2000/svg"><path fill="currentColor" d="M2.5 17C2.09722 17 1.74653 16.8507 1.44792 16.5521C1.14931 16.2535 1 15.9028 1 15.5V5.5H2.5V15.5H16V17H2.5ZM5.5 14C5.09722 14 4.74653 13.8507 4.44792 13.5521C4.14931 13.2535 4 12.9028 4 12.5V3.5C4 3.08333 4.14931 2.72917 4.44792 2.4375C4.74653 2.14583 5.09722 2 5.5 2H9.02083L11.0208 4H16.5C16.9167 4 17.2708 4.14583 17.5625 4.4375C17.8542 4.72917 18 5.08333 18 5.5V12.5C18 12.9028 17.8542 13.2535 17.5625 13.5521C17.2708 13.8507 16.9167 14 16.5 14H5.5ZM7 11H15L12.375 7.5L10.5 10L9.125 8.16667L7 11Z"/></svg>