<svg xmlns="http://www.w3.org/2000/svg" width="60" height="60" viewBox="0 0 60 60" fill="none">
  <path d="M33.1206 12.7715C40.4952 12.7715 46.608 18.1691 47.7266 25.2291C52.7214 26.0266 56.5384 30.3536 56.5384 35.5731C56.5384 41.1521 52.1773 45.7112 46.6782 46.0302V46.0495H13.4003C7.27397 46.0495 2.30762 41.0831 2.30762 34.9568C2.30762 30.1272 5.39468 26.0202 9.70272 24.4973C9.70271 24.4916 9.70272 24.486 9.70272 24.4804C9.70272 19.3751 13.8413 15.2365 18.9466 15.2365C20.5727 15.2365 22.1003 15.6572 23.4277 16.3944C26.0238 14.1392 29.4117 12.7715 33.1206 12.7715Z" fill="#201F23"/>
  <path d="M33.1201 13.2715C36.7616 13.2715 40.0839 14.6334 42.6074 16.876L13.8105 45.5498H13.4004C7.55031 45.5498 2.80774 40.8071 2.80762 34.957C2.80762 30.3461 5.7546 26.4234 9.86914 24.9688L10.2031 24.8506V24.4805C10.2031 19.6515 14.1173 15.7365 18.9463 15.7363C20.4849 15.7363 21.9294 16.1341 23.1846 16.8311L23.4912 17.002L23.7559 16.7715C26.2646 14.5923 29.5369 13.2716 33.1201 13.2715Z" fill="white" stroke="#201F23"/>
  <line x1="6.54537" y1="54.9785" x2="49.4436" y2="12.0802" stroke="white"/>
  <line x1="5.65182" y1="54.0839" x2="48.55" y2="11.1857" stroke="#201F23"/>
</svg>
