<svg width="20" height="20" viewBox="0 0 20 20" fill="none" xmlns="http://www.w3.org/2000/svg"><path fill="currentColor" d="M11.8542 9.75L6.125 4H15.5C15.8194 4 16.0139 4.07292 16.0833 4.21875C16.1528 4.36458 16.0903 4.5625 15.8958 4.8125L11.8542 9.75ZM16 18.125L11 13.125V15.5C11 15.6389 10.9514 15.7569 10.8542 15.8542C10.7569 15.9514 10.6389 16 10.5 16H9.5C9.36111 16 9.24306 15.9514 9.14583 15.8542C9.04861 15.7569 9 15.6389 9 15.5V11.125L1.875 4L2.9375 2.9375L17.0625 17.0625L16 18.125Z"/></svg>