<svg width="52" height="52" viewBox="0 0 52 52" fill="none" xmlns="http://www.w3.org/2000/svg">
<path fill-rule="evenodd" clip-rule="evenodd" d="M42.9424 29.3691L39.1134 33.1981L36.7764 35.5351L16.6764 15.4341L22.8414 9.26805L42.9424 29.3691Z" fill="#CBE3FF"/>
<path fill-rule="evenodd" clip-rule="evenodd" d="M3 29.1095L6.121 32.2305L9.493 30.2115L8.14 34.2495L16.305 42.4145L24.334 40.1555L19.189 45.2995L23.101 49.2115L36.597 35.7145L16.496 15.6145L3 29.1095Z" fill="#DDDDDD"/>
<path fill-rule="evenodd" clip-rule="evenodd" d="M44.9251 7.28566C44.0091 6.36965 42.5231 6.36965 41.6071 7.28566C40.6901 8.20165 40.6901 9.68765 41.6071 10.6037C42.5231 11.5207 44.0091 11.5207 44.9251 10.6037C45.8411 9.68765 45.8411 8.20165 44.9251 7.28566ZM35.6111 21.9997L30.2111 16.5997L38.6601 5.34266C40.8011 2.49065 44.9721 2.19566 47.4941 4.71666C50.0151 7.23866 49.7201 11.4097 46.8681 13.5507L35.6111 21.9997Z" fill="#CBE3FF"/>
<path fill-rule="evenodd" clip-rule="evenodd" d="M9.5621 22.5487L3.0001 29.1107L6.9251 33.0357L9.8991 30.1107L8.1391 34.2497L16.3041 42.4147L24.3331 40.1557L19.1891 45.2997L23.1011 49.2117L29.6631 42.6497C27.5551 34.3737 15.8651 32.1057 9.5621 22.5487Z" fill="#288DFF"/>
<path fill-rule="evenodd" clip-rule="evenodd" d="M36.105 36.2064L15.812 15.9134L16.5192 15.2063L36.8122 35.4993L36.105 36.2064Z" fill="#062846"/>
<path fill-rule="evenodd" clip-rule="evenodd" d="M19.246 45.3764L30.398 34.2244L31.1052 34.9315L19.9532 46.0835L19.246 45.3764Z" fill="#062846"/>
<path fill-rule="evenodd" clip-rule="evenodd" d="M14.8859 41.0164L26.0379 29.8644L26.7451 30.5715L15.5931 41.7235L14.8859 41.0164Z" fill="#062846"/>
<path fill-rule="evenodd" clip-rule="evenodd" d="M10.5259 36.6564L21.6779 25.5044L22.3851 26.2115L11.2331 37.3635L10.5259 36.6564Z" fill="#062846"/>
<path fill-rule="evenodd" clip-rule="evenodd" d="M6.16595 32.2964L17.3179 21.1444L18.0251 21.8515L6.87305 33.0035L6.16595 32.2964Z" fill="#062846"/>
<path fill-rule="evenodd" clip-rule="evenodd" d="M46.5674 13.1503C49.1762 11.1919 49.4469 7.37757 47.14 5.07071L47.8472 4.3636C50.5843 7.10074 50.263 11.6264 47.1678 13.95L36.3726 22.0531L43.3152 28.9966L42.608 29.7037L34.8506 21.9452L46.5674 13.1503V13.1503Z" fill="#062846"/>
<path fill-rule="evenodd" clip-rule="evenodd" d="M41.7301 7.1255C42.6564 6.19924 44.159 6.19924 45.0853 7.1255C46.0115 8.05176 46.0115 9.55435 45.0853 10.4806L44.3781 9.7735C44.9139 9.23776 44.9139 8.36835 44.3781 7.83261C43.8424 7.29687 42.973 7.29687 42.4373 7.83261L41.7301 7.1255Z" fill="#062846"/>
</svg>
