<svg xmlns="http://www.w3.org/2000/svg" width="60" height="60" viewBox="0 0 60 60" fill="none">
  <path d="M13.4694 46.0482V11.1855H47.2252V23.5929L52.2056 18.3794L56.0793 22.2531L47.2252 31.1071V46.0482C47.2252 47.819 45.0117 48.9995 43.905 49.3684H11.2559L13.4694 46.0482Z" fill="white"/>
  <path d="M16.9519 16.2704H43.9046V15.1877H16.9519V16.2704Z" fill="#201F23"/>
  <path d="M16.9519 21.8395H43.9046V20.7568H16.9519V21.8395Z" fill="#201F23"/>
  <path d="M16.9519 27.4087H26.5715V26.326H16.9519V27.4087Z" fill="#201F23"/>
  <path fill-rule="evenodd" clip-rule="evenodd" d="M47.644 10.0781H12.7297V39.7504H4.61523V45.5693C4.61523 47.8057 6.29304 49.6462 8.44959 49.893C8.64994 49.906 8.84956 49.9239 9.05052 49.9206H43.1443C45.6295 49.9206 47.644 47.901 47.644 45.4096V31.3052L56.6622 22.0658L56.4649 21.8723L58.846 19.4321L54.6099 15.2774L52.2284 17.7168L52.0621 17.5537L47.644 22.0801V10.0781ZM46.533 23.2184V11.192H13.8408V45.5698C13.8408 46.8557 13.2874 48.0107 12.4047 48.8067H43.1443C45.0159 48.8067 46.533 47.2858 46.533 45.4096V32.4436L36.558 42.6632C36.4724 42.751 36.3706 42.8025 36.2606 42.851L28.9122 46.0914L31.7756 38.4704C31.8199 38.3527 31.8681 38.243 31.9579 38.151L46.533 23.2184ZM33.1028 38.5707L52.0792 19.1287L55.0907 22.0832L36.1136 41.526L33.1028 38.5707ZM35.1369 42.1297L32.5446 39.5836L31.5163 42.3205L32.5516 43.2697L35.1369 42.1297Z" fill="#201F23"/>
</svg>
