<svg width="52" height="52" viewBox="0 0 52 52" fill="none" xmlns="http://www.w3.org/2000/svg">
<path d="M26.1702 44.02C36.3929 44.02 44.6802 35.7328 44.6802 25.51C44.6802 15.2872 36.3929 7 26.1702 7C15.9474 7 7.66016 15.2872 7.66016 25.51C7.66016 35.7328 15.9474 44.02 26.1702 44.02Z" fill="#FFC800"/>
<path fill-rule="evenodd" clip-rule="evenodd" d="M26.1702 7.5C16.2261 7.5 8.16016 15.5563 8.16016 25.51C8.16016 35.4633 16.2358 43.52 26.1802 43.52C36.1242 43.52 44.1902 35.4637 44.1902 25.51C44.1902 25.2339 44.414 25.01 44.6902 25.01C44.9663 25.01 45.1902 25.2339 45.1902 25.51C45.1902 36.0163 36.6761 44.52 26.1802 44.52C15.6845 44.52 7.16016 36.0167 7.16016 25.51C7.16016 15.0037 15.6742 6.5 26.1702 6.5C26.4463 6.5 26.6702 6.72386 26.6702 7C26.6702 7.27614 26.4463 7.5 26.1702 7.5Z" fill="#062846"/>
<path d="M37.6102 24.8967L25.7702 18.1267C25.1402 17.7667 24.3502 18.2167 24.3502 18.9367V23.4567H15.6102C15.0902 23.4567 14.6602 23.8767 14.6602 24.3967V27.0267C14.6602 27.5467 15.0802 27.9667 15.6102 27.9667H24.3502V32.4867C24.3502 33.2067 25.1402 33.6567 25.7702 33.2967L37.6102 26.5267C38.2402 26.1667 38.2402 25.2667 37.6102 24.9067V24.8967Z" fill="#E0A000"/>
<path fill-rule="evenodd" clip-rule="evenodd" d="M38.0442 26.2685C38.1813 26.5083 38.0981 26.8137 37.8583 26.9508L26.0183 33.7208C25.0639 34.2662 23.8502 33.5908 23.8502 32.4767C23.8502 32.2006 24.074 31.9767 24.3502 31.9767C24.6263 31.9767 24.8502 32.2006 24.8502 32.4767C24.8502 32.8026 25.2165 33.0271 25.522 32.8527V32.8527L37.362 26.0827C37.6017 25.9456 37.9071 26.0288 38.0442 26.2685Z" fill="#062846"/>
<path fill-rule="evenodd" clip-rule="evenodd" d="M14.6702 26.6367C14.9463 26.6367 15.1702 26.8606 15.1702 27.1367C15.1702 27.3771 15.3628 27.5767 15.6202 27.5767H24.3602C24.6363 27.5767 24.8602 27.8006 24.8602 28.0767C24.8602 28.3529 24.6363 28.5767 24.3602 28.5767H15.6202C14.8175 28.5767 14.1702 27.9363 14.1702 27.1367C14.1702 26.8606 14.394 26.6367 14.6702 26.6367Z" fill="#062846"/>
<path fill-rule="evenodd" clip-rule="evenodd" d="M24.3502 20.3267C24.6264 20.3267 24.8502 20.5506 24.8502 20.8267V23.3367C24.8502 23.6129 24.6264 23.8367 24.3502 23.8367H22.4002C22.1241 23.8367 21.9002 23.6129 21.9002 23.3367C21.9002 23.0606 22.1241 22.8367 22.4002 22.8367H23.8502V20.8267C23.8502 20.5506 24.0741 20.3267 24.3502 20.3267Z" fill="#062846"/>
</svg>
