<svg width="52" height="52" viewBox="0 0 52 52" fill="none" xmlns="http://www.w3.org/2000/svg">
<path fill-rule="evenodd" clip-rule="evenodd" d="M46.5 7.0005V39.0595C46.5 41.9105 44.193 44.2315 41.342 44.2315H10.695V31.9335H14.726V7.0005H46.5Z" fill="#FFC800"/>
<path fill-rule="evenodd" clip-rule="evenodd" d="M10.6129 44.2287C8.34091 44.2287 6.49991 42.3877 6.49991 40.1157V13.3527H14.7259V40.1157C14.7259 42.3877 12.8849 44.2287 10.6129 44.2287Z" fill="#AB7823"/>
<path fill-rule="evenodd" clip-rule="evenodd" d="M18.037 24.076H28.761V13.352H18.037V24.076Z" fill="#5746B2"/>
<path fill-rule="evenodd" clip-rule="evenodd" d="M32.353 38.91H43.077V28.186H32.353V38.91Z" fill="#5746B2"/>
<path fill-rule="evenodd" clip-rule="evenodd" d="M5.99991 12.8527H15.2259V40.1157C15.2259 42.6639 13.1611 44.7287 10.6129 44.7287C8.06477 44.7287 5.99991 42.6639 5.99991 40.1157V12.8527ZM6.99991 13.8527V40.1157C6.99991 42.1116 8.61705 43.7287 10.6129 43.7287C12.6088 43.7287 14.2259 42.1116 14.2259 40.1157V13.8527H6.99991Z" fill="#062846"/>
<path fill-rule="evenodd" clip-rule="evenodd" d="M28.8829 29.2905H17.4959V28.2905H28.8829V29.2905Z" fill="#062846"/>
<path fill-rule="evenodd" clip-rule="evenodd" d="M28.8829 34.0052H17.4959V33.0052H28.8829V34.0052Z" fill="#062846"/>
<path fill-rule="evenodd" clip-rule="evenodd" d="M28.8829 38.7198H17.4959V37.7198H28.8829V38.7198Z" fill="#062846"/>
<path fill-rule="evenodd" clip-rule="evenodd" d="M43.408 14.4994H32.021V13.4994H43.408V14.4994Z" fill="#062846"/>
<path fill-rule="evenodd" clip-rule="evenodd" d="M43.408 19.2141H32.021V18.2141H43.408V19.2141Z" fill="#062846"/>
<path fill-rule="evenodd" clip-rule="evenodd" d="M43.408 23.9288H32.021V22.9288H43.408V23.9288Z" fill="#062846"/>
<path fill-rule="evenodd" clip-rule="evenodd" d="M15.2259 7.0009V31.9339H14.2259V7.0009H15.2259Z" fill="#062846"/>
<path fill-rule="evenodd" clip-rule="evenodd" d="M41.342 43.7306C43.9152 43.7306 46 41.6352 46 39.0596H47C47 42.184 44.4708 44.7306 41.342 44.7306H10.695V43.7306H41.342Z" fill="#062846"/>
</svg>
