<svg width="52" height="52" viewBox="0 0 52 52" fill="none" xmlns="http://www.w3.org/2000/svg">
<g clip-path="url(#clip0_2231_34404)">
<path d="M7.14273 12.6432C5.96303 12.6432 5 13.6062 5 14.7859C5 15.9656 5.96303 16.9286 7.14273 16.9286V16.9888C5.96303 16.9888 5 17.9519 5 19.1316C5 20.3113 5.96303 21.2743 7.14273 21.2743H14.4256C14.1247 21.9484 13.6311 23.1883 13.258 24.9097C12.8366 26.8237 13.3422 29.2193 15.3766 29.2193C15.7739 29.2193 16.123 28.9304 16.1831 28.5331C16.3396 27.5701 17.3267 24.8375 18.9278 23.1763C21.2752 20.7446 26.632 17.7111 26.632 17.7111H31.2064L31.1462 6.72056H25.9458C25.9458 6.72056 23.5503 3.98798 19.0482 3.98798H9.76698C8.58727 3.98798 7.62425 4.951 7.62425 6.13071C7.62425 7.31042 8.58727 8.27344 9.76698 8.27344H7.99742C6.81771 8.27344 5.85469 9.23647 5.85469 10.4162C5.85469 11.5959 6.81771 12.5589 7.99742 12.5589L7.14273 12.6191V12.6432Z" fill="#E8AD8F"/>
<path fill-rule="evenodd" clip-rule="evenodd" d="M8.14746 8.28546C8.14746 8.00932 8.37132 7.78546 8.64746 7.78546H12.2227C12.4988 7.78546 12.7227 8.00932 12.7227 8.28546C12.7227 8.5616 12.4988 8.78546 12.2227 8.78546H8.64746C8.37132 8.78546 8.14746 8.5616 8.14746 8.28546Z" fill="#062846"/>
<path fill-rule="evenodd" clip-rule="evenodd" d="M6.17325 12.5709C6.17325 12.2948 6.39711 12.0709 6.67325 12.0709H10.742C11.0182 12.0709 11.242 12.2948 11.242 12.5709C11.242 12.8471 11.0182 13.0709 10.742 13.0709H6.67325C6.39711 13.0709 6.17325 12.8471 6.17325 12.5709Z" fill="#062846"/>
<path fill-rule="evenodd" clip-rule="evenodd" d="M6.01675 16.9286C6.01675 16.6525 6.24061 16.4286 6.51675 16.4286H9.67067C9.94681 16.4286 10.1707 16.6525 10.1707 16.9286C10.1707 17.2048 9.94681 17.4286 9.67067 17.4286H6.51675C6.24061 17.4286 6.01675 17.2048 6.01675 16.9286Z" fill="#062846"/>
<path d="M25.669 20.4557H31.2184V4.65004H25.669V20.4557Z" fill="#288DFF"/>
<path fill-rule="evenodd" clip-rule="evenodd" d="M28.9377 14.9183V17.6148H27.9377V14.9183H28.9377Z" fill="#062846"/>
<path fill-rule="evenodd" clip-rule="evenodd" d="M25.6569 4.15005H31.2064V5.15005H25.6569V4.15005Z" fill="#062846"/>
<path d="M44.8573 39.4514C46.037 39.4514 47 38.4884 47 37.3087C47 36.129 46.037 35.166 44.8573 35.166V35.1058C46.037 35.1058 47 34.1427 47 32.963C47 31.7833 46.037 30.8203 44.8573 30.8203H37.5744C37.8753 30.1462 38.3689 28.9063 38.7421 27.1849C39.1634 25.2709 38.6578 22.8753 36.6234 22.8753C36.2261 22.8753 35.877 23.1642 35.8169 23.5615C35.6604 24.5245 34.6733 27.2571 33.0722 28.9183C30.7249 31.35 25.368 34.3835 25.368 34.3835H20.7936L20.8538 45.374H26.0542C26.0542 45.374 28.4497 48.1066 32.9519 48.1066H42.233C43.4127 48.1066 44.3758 47.1436 44.3758 45.9639C44.3758 44.7842 43.4127 43.8212 42.233 43.8212H44.0026C45.1823 43.8212 46.1453 42.8581 46.1453 41.6784C46.1453 40.4987 45.1823 39.5357 44.0026 39.5357L44.8573 39.4755V39.4514Z" fill="#824D2A"/>
<path fill-rule="evenodd" clip-rule="evenodd" d="M39.2773 43.8091C39.2773 43.533 39.5012 43.3091 39.7773 43.3091H43.3526C43.6287 43.3091 43.8526 43.533 43.8526 43.8091C43.8526 44.0853 43.6287 44.3091 43.3526 44.3091H39.7773C39.5012 44.3091 39.2773 44.0853 39.2773 43.8091Z" fill="#062846"/>
<path fill-rule="evenodd" clip-rule="evenodd" d="M40.758 39.5237C40.758 39.2475 40.9818 39.0237 41.258 39.0237H45.3268C45.6029 39.0237 45.8268 39.2475 45.8268 39.5237C45.8268 39.7998 45.6029 40.0237 45.3268 40.0237H41.258C40.9818 40.0237 40.758 39.7998 40.758 39.5237Z" fill="#062846"/>
<path fill-rule="evenodd" clip-rule="evenodd" d="M41.8293 35.166C41.8293 34.8898 42.0532 34.666 42.3293 34.666H45.4832C45.7594 34.666 45.9832 34.8898 45.9832 35.166C45.9832 35.4421 45.7594 35.666 45.4832 35.666H42.3293C42.0532 35.666 41.8293 35.4421 41.8293 35.166Z" fill="#062846"/>
<path d="M26.3431 31.6268H20.7936V47.4325H26.3431V31.6268Z" fill="#FFC800"/>
<path fill-rule="evenodd" clip-rule="evenodd" d="M23.0623 37.1763V34.4798H24.0623V37.1763H23.0623Z" fill="#062846"/>
<path fill-rule="evenodd" clip-rule="evenodd" d="M26.3431 47.9445H20.7936V46.9445H26.3431V47.9445Z" fill="#062846"/>
</g>
<defs>
<clipPath id="clip0_2231_34404">
<rect width="42" height="44.0946" fill="white" transform="translate(5 4)"/>
</clipPath>
</defs>
</svg>
