<svg width="52" height="52" viewBox="0 0 52 52" fill="none" xmlns="http://www.w3.org/2000/svg">
<path fill-rule="evenodd" clip-rule="evenodd" d="M18.8593 7.46201C17.4933 8.06769 16.1571 8.6601 13.9147 8.6601V7.6601C15.9406 7.6601 17.1059 7.14433 18.4596 6.54517C18.5887 6.48804 18.7194 6.43016 18.8528 6.3719C20.4198 5.68747 22.2561 5.0001 25.6597 5.0001C29.0667 5.0001 30.7449 5.68918 32.1839 6.37926C32.2899 6.4301 32.3942 6.48067 32.4973 6.5307C33.7412 7.13417 34.8253 7.6601 36.9707 7.6601V8.6601C34.5935 8.6601 33.3373 8.05021 32.0636 7.43182C31.9599 7.38147 31.856 7.33107 31.7515 7.28094C30.4171 6.64102 28.8867 6.0001 25.6597 6.0001C22.4294 6.0001 20.7311 6.64273 19.2531 7.2883C19.121 7.34599 18.99 7.40406 18.8593 7.46201Z" fill="#062846"/>
<path fill-rule="evenodd" clip-rule="evenodd" d="M7 45.786H44.927V8.203H7V45.786Z" fill="#5746B2"/>
<path fill-rule="evenodd" clip-rule="evenodd" d="M38.5751 29.8243C38.5751 22.8593 32.9291 17.2123 25.9631 17.2123C18.9981 17.2123 13.3521 22.8593 13.3521 29.8243" fill="#796BC1"/>
<path fill-rule="evenodd" clip-rule="evenodd" d="M13.3517 29.8243C13.3517 36.7893 18.9977 42.4363 25.9637 42.4363C32.9287 42.4363 38.5747 36.7893 38.5747 29.8243" fill="#796BC1"/>
<path fill-rule="evenodd" clip-rule="evenodd" d="M13.028 8.222H16.723V6.634H13.028V8.222Z" fill="#062846"/>
<path fill-rule="evenodd" clip-rule="evenodd" d="M34.827 8.222H38.522V6.634H34.827V8.222Z" fill="#062846"/>
<path fill-rule="evenodd" clip-rule="evenodd" d="M10.146 46.839H13.841V45.583H10.146V46.839Z" fill="#062846"/>
<path fill-rule="evenodd" clip-rule="evenodd" d="M38.227 46.839H41.922V45.583H38.227V46.839Z" fill="#062846"/>
<path fill-rule="evenodd" clip-rule="evenodd" d="M20.2002 13.3666C20.2002 12.2675 21.0921 11.3756 22.1912 11.3756C23.2903 11.3756 24.1822 12.2675 24.1822 13.3666C24.1822 14.4657 23.2903 15.3576 22.1912 15.3576C21.0921 15.3576 20.2002 14.4657 20.2002 13.3666ZM22.1912 12.3756C21.6443 12.3756 21.2002 12.8197 21.2002 13.3666C21.2002 13.9135 21.6443 14.3576 22.1912 14.3576C22.7381 14.3576 23.1822 13.9135 23.1822 13.3666C23.1822 12.8197 22.7381 12.3756 22.1912 12.3756Z" fill="#062846"/>
<path fill-rule="evenodd" clip-rule="evenodd" d="M26.9857 13.3666C26.9857 12.2675 27.8776 11.3756 28.9767 11.3756C30.0758 11.3756 30.9677 12.2675 30.9677 13.3666C30.9677 14.4657 30.0758 15.3576 28.9767 15.3576C27.8776 15.3576 26.9857 14.4657 26.9857 13.3666ZM28.9767 12.3756C28.4298 12.3756 27.9857 12.8197 27.9857 13.3666C27.9857 13.9135 28.4298 14.3576 28.9767 14.3576C29.5236 14.3576 29.9677 13.9135 29.9677 13.3666C29.9677 12.8197 29.5236 12.3756 28.9767 12.3756Z" fill="#062846"/>
<path fill-rule="evenodd" clip-rule="evenodd" d="M33.7711 13.3666C33.7711 12.2675 34.663 11.3756 35.7621 11.3756C36.8612 11.3756 37.7531 12.2675 37.7531 13.3666C37.7531 14.4657 36.8612 15.3576 35.7621 15.3576C34.663 15.3576 33.7711 14.4657 33.7711 13.3666ZM35.7621 12.3756C35.2152 12.3756 34.7711 12.8197 34.7711 13.3666C34.7711 13.9135 35.2152 14.3576 35.7621 14.3576C36.309 14.3576 36.7531 13.9135 36.7531 13.3666C36.7531 12.8197 36.309 12.3756 35.7621 12.3756Z" fill="#062846"/>
<path fill-rule="evenodd" clip-rule="evenodd" d="M11.0327 13.3666C11.0327 14.9826 12.3427 16.2916 13.9577 16.2916C15.5737 16.2916 16.8837 14.9826 16.8837 13.3666C16.8837 11.7506 15.5737 10.4416 13.9577 10.4416C12.3427 10.4416 11.0327 11.7506 11.0327 13.3666Z" fill="#BCB5E0"/>
<mask id="mask0_2231_34401" style="mask-type:luminance" maskUnits="userSpaceOnUse" x="34" y="25" width="2" height="8">
<path fill-rule="evenodd" clip-rule="evenodd" d="M34.335 25.757V32.267H35.639C35.836 31.485 35.94 30.667 35.94 29.825V29.825C35.94 28.376 35.632 27 35.077 25.757V25.757" fill="white"/>
</mask>
<g mask="url(#mask0_2231_34401)">
<path fill-rule="evenodd" clip-rule="evenodd" d="M35.6178 30.4328C35.6178 30.7828 35.3348 31.0658 34.9848 31.0658C34.6358 31.0658 34.3518 30.7828 34.3518 30.4328C34.3518 30.0828 34.6358 29.7998 34.9848 29.7998C35.3348 29.7998 35.6178 30.0828 35.6178 30.4328" fill="#062846"/>
</g>
<mask id="mask1_2231_34401" style="mask-type:luminance" maskUnits="userSpaceOnUse" x="34" y="25" width="2" height="8">
<path fill-rule="evenodd" clip-rule="evenodd" d="M34.335 25.757V32.267H35.639C35.836 31.485 35.94 30.667 35.94 29.825V29.825C35.94 28.376 35.632 27 35.077 25.757V25.757" fill="white"/>
</mask>
<g mask="url(#mask1_2231_34401)">
<path fill-rule="evenodd" clip-rule="evenodd" d="M37.1263 27.4157C37.1263 27.7657 36.8433 28.0487 36.4933 28.0487C36.1443 28.0487 35.8603 27.7657 35.8603 27.4157C35.8603 27.0657 36.1443 26.7827 36.4933 26.7827C36.8433 26.7827 37.1263 27.0657 37.1263 27.4157" fill="#062846"/>
</g>
<path fill-rule="evenodd" clip-rule="evenodd" d="M35.6178 42.5012C35.6178 42.8512 35.3348 43.1342 34.9848 43.1342C34.6358 43.1342 34.3518 42.8512 34.3518 42.5012C34.3518 42.1512 34.6358 41.8682 34.9848 41.8682C35.3348 41.8682 35.6178 42.1512 35.6178 42.5012" fill="#062846"/>
<path fill-rule="evenodd" clip-rule="evenodd" d="M38.6349 42.5012C38.6349 42.8512 38.3519 43.1342 38.0019 43.1342C37.6529 43.1342 37.3689 42.8512 37.3689 42.5012C37.3689 42.1512 37.6529 41.8682 38.0019 41.8682C38.3519 41.8682 38.6349 42.1512 38.6349 42.5012" fill="#062846"/>
<path fill-rule="evenodd" clip-rule="evenodd" d="M34.1092 39.4841C34.1092 39.8341 33.8262 40.1171 33.4762 40.1171C33.1272 40.1171 32.8432 39.8341 32.8432 39.4841C32.8432 39.1341 33.1272 38.8511 33.4762 38.8511C33.8262 38.8511 34.1092 39.1341 34.1092 39.4841" fill="#062846"/>
<path fill-rule="evenodd" clip-rule="evenodd" d="M37.1263 39.4841C37.1263 39.8341 36.8433 40.1171 36.4933 40.1171C36.1443 40.1171 35.8603 39.8341 35.8603 39.4841C35.8603 39.1341 36.1443 38.8511 36.4933 38.8511C36.8433 38.8511 37.1263 39.1341 37.1263 39.4841" fill="#062846"/>
<path fill-rule="evenodd" clip-rule="evenodd" d="M40.1434 39.4841C40.1434 39.8341 39.8604 40.1171 39.5104 40.1171C39.1614 40.1171 38.8774 39.8341 38.8774 39.4841C38.8774 39.1341 39.1614 38.8511 39.5104 38.8511C39.8604 38.8511 40.1434 39.1341 40.1434 39.4841" fill="#062846"/>
<path fill-rule="evenodd" clip-rule="evenodd" d="M35.6178 36.467C35.6178 36.817 35.3348 37.1 34.9848 37.1C34.6358 37.1 34.3518 36.817 34.3518 36.467C34.3518 36.117 34.6358 35.834 34.9848 35.834C35.3348 35.834 35.6178 36.117 35.6178 36.467" fill="#062846"/>
<path fill-rule="evenodd" clip-rule="evenodd" d="M38.6349 36.467C38.6349 36.817 38.3519 37.1 38.0019 37.1C37.6529 37.1 37.3689 36.817 37.3689 36.467C37.3689 36.117 37.6529 35.834 38.0019 35.834C38.3519 35.834 38.6349 36.117 38.6349 36.467" fill="#062846"/>
<mask id="mask2_2231_34401" style="mask-type:luminance" maskUnits="userSpaceOnUse" x="28" y="20" width="7" height="6">
<path fill-rule="evenodd" clip-rule="evenodd" d="M28.075 25.757H34.585V24.8C33.196 22.421 30.85 20.669 28.075 20.071V20.071" fill="white"/>
</mask>
<g mask="url(#mask2_2231_34401)">
<path fill-rule="evenodd" clip-rule="evenodd" d="M29.5836 24.3986C29.5836 24.7486 29.3006 25.0316 28.9506 25.0316C28.6016 25.0316 28.3176 24.7486 28.3176 24.3986C28.3176 24.0486 28.6016 23.7656 28.9506 23.7656C29.3006 23.7656 29.5836 24.0486 29.5836 24.3986" fill="#062846"/>
</g>
<mask id="mask3_2231_34401" style="mask-type:luminance" maskUnits="userSpaceOnUse" x="28" y="20" width="7" height="6">
<path fill-rule="evenodd" clip-rule="evenodd" d="M28.075 25.757H34.585V24.8C33.196 22.421 30.85 20.669 28.075 20.071V20.071" fill="white"/>
</mask>
<g mask="url(#mask3_2231_34401)">
<path fill-rule="evenodd" clip-rule="evenodd" d="M32.6007 24.3986C32.6007 24.7486 32.3177 25.0316 31.9677 25.0316C31.6187 25.0316 31.3347 24.7486 31.3347 24.3986C31.3347 24.0486 31.6187 23.7656 31.9677 23.7656C32.3177 23.7656 32.6007 24.0486 32.6007 24.3986" fill="#062846"/>
</g>
<mask id="mask4_2231_34401" style="mask-type:luminance" maskUnits="userSpaceOnUse" x="28" y="20" width="7" height="6">
<path fill-rule="evenodd" clip-rule="evenodd" d="M28.075 25.757H34.585V24.8C33.196 22.421 30.85 20.669 28.075 20.071V20.071" fill="white"/>
</mask>
<g mask="url(#mask4_2231_34401)">
<path fill-rule="evenodd" clip-rule="evenodd" d="M28.0751 21.3815C28.0751 21.7315 27.7921 22.0145 27.4421 22.0145C27.0931 22.0145 26.8091 21.7315 26.8091 21.3815C26.8091 21.0315 27.0931 20.7485 27.4421 20.7485C27.7921 20.7485 28.0751 21.0315 28.0751 21.3815" fill="#062846"/>
</g>
<mask id="mask5_2231_34401" style="mask-type:luminance" maskUnits="userSpaceOnUse" x="28" y="20" width="7" height="6">
<path fill-rule="evenodd" clip-rule="evenodd" d="M28.075 25.757H34.585V24.8C33.196 22.421 30.85 20.669 28.075 20.071V20.071" fill="white"/>
</mask>
<g mask="url(#mask5_2231_34401)">
<path fill-rule="evenodd" clip-rule="evenodd" d="M31.0921 21.3815C31.0921 21.7315 30.8091 22.0145 30.4591 22.0145C30.1101 22.0145 29.8261 21.7315 29.8261 21.3815C29.8261 21.0315 30.1101 20.7485 30.4591 20.7485C30.8091 20.7485 31.0921 21.0315 31.0921 21.3815" fill="#062846"/>
</g>
<mask id="mask6_2231_34401" style="mask-type:luminance" maskUnits="userSpaceOnUse" x="28" y="20" width="7" height="6">
<path fill-rule="evenodd" clip-rule="evenodd" d="M28.075 25.757H34.585V24.8C33.196 22.421 30.85 20.669 28.075 20.071V20.071" fill="white"/>
</mask>
<g mask="url(#mask6_2231_34401)">
<path fill-rule="evenodd" clip-rule="evenodd" d="M34.1092 21.3815C34.1092 21.7315 33.8262 22.0145 33.4762 22.0145C33.1272 22.0145 32.8432 21.7315 32.8432 21.3815C32.8432 21.0315 33.1272 20.7485 33.4762 20.7485C33.8262 20.7485 34.1092 21.0315 34.1092 21.3815" fill="#062846"/>
</g>
<path fill-rule="evenodd" clip-rule="evenodd" d="M29.5836 30.4328C29.5836 30.7828 29.3006 31.0658 28.9506 31.0658C28.6016 31.0658 28.3176 30.7828 28.3176 30.4328C28.3176 30.0828 28.6016 29.7998 28.9506 29.7998C29.3006 29.7998 29.5836 30.0828 29.5836 30.4328" fill="#062846"/>
<path fill-rule="evenodd" clip-rule="evenodd" d="M32.6007 30.4328C32.6007 30.7828 32.3177 31.0658 31.9677 31.0658C31.6187 31.0658 31.3347 30.7828 31.3347 30.4328C31.3347 30.0828 31.6187 29.7998 31.9677 29.7998C32.3177 29.7998 32.6007 30.0828 32.6007 30.4328" fill="#062846"/>
<mask id="mask7_2231_34401" style="mask-type:luminance" maskUnits="userSpaceOnUse" x="28" y="26" width="1" height="3">
<path fill-rule="evenodd" clip-rule="evenodd" d="M28.075 26.7827H28.0751V28.0487H28.075V26.7827Z" fill="white"/>
</mask>
<g mask="url(#mask7_2231_34401)">
<path fill-rule="evenodd" clip-rule="evenodd" d="M28.0751 27.4157C28.0751 27.7657 27.7921 28.0487 27.4421 28.0487C27.0931 28.0487 26.8091 27.7657 26.8091 27.4157C26.8091 27.0657 27.0931 26.7827 27.4421 26.7827C27.7921 26.7827 28.0751 27.0657 28.0751 27.4157" fill="#062846"/>
</g>
<path fill-rule="evenodd" clip-rule="evenodd" d="M31.0921 27.4157C31.0921 27.7657 30.8091 28.0487 30.4591 28.0487C30.1101 28.0487 29.8261 27.7657 29.8261 27.4157C29.8261 27.0657 30.1101 26.7827 30.4591 26.7827C30.8091 26.7827 31.0921 27.0657 31.0921 27.4157" fill="#062846"/>
<path fill-rule="evenodd" clip-rule="evenodd" d="M34.1092 27.4157C34.1092 27.7657 33.8262 28.0487 33.4762 28.0487C33.1272 28.0487 32.8432 27.7657 32.8432 27.4157C32.8432 27.0657 33.1272 26.7827 33.4762 26.7827C33.8262 26.7827 34.1092 27.0657 34.1092 27.4157" fill="#062846"/>
<mask id="mask8_2231_34401" style="mask-type:luminance" maskUnits="userSpaceOnUse" x="28" y="32" width="7" height="7">
<path fill-rule="evenodd" clip-rule="evenodd" d="M28.075 32.267V38.778H30.371C32.132 37.909 33.599 36.537 34.585 34.848V34.848V32.267" fill="white"/>
</mask>
<g mask="url(#mask8_2231_34401)">
<path fill-rule="evenodd" clip-rule="evenodd" d="M29.5836 36.467C29.5836 36.817 29.3006 37.1 28.9506 37.1C28.6016 37.1 28.3176 36.817 28.3176 36.467C28.3176 36.117 28.6016 35.834 28.9506 35.834C29.3006 35.834 29.5836 36.117 29.5836 36.467" fill="#062846"/>
</g>
<mask id="mask9_2231_34401" style="mask-type:luminance" maskUnits="userSpaceOnUse" x="28" y="32" width="7" height="7">
<path fill-rule="evenodd" clip-rule="evenodd" d="M28.075 32.267V38.778H30.371C32.132 37.909 33.599 36.537 34.585 34.848V34.848V32.267" fill="white"/>
</mask>
<g mask="url(#mask9_2231_34401)">
<path fill-rule="evenodd" clip-rule="evenodd" d="M32.6007 36.467C32.6007 36.817 32.3177 37.1 31.9677 37.1C31.6187 37.1 31.3347 36.817 31.3347 36.467C31.3347 36.117 31.6187 35.834 31.9677 35.834C32.3177 35.834 32.6007 36.117 32.6007 36.467" fill="#062846"/>
</g>
<mask id="mask10_2231_34401" style="mask-type:luminance" maskUnits="userSpaceOnUse" x="28" y="32" width="7" height="7">
<path fill-rule="evenodd" clip-rule="evenodd" d="M28.075 32.267V38.778H30.371C32.132 37.909 33.599 36.537 34.585 34.848V34.848V32.267" fill="white"/>
</mask>
<g mask="url(#mask10_2231_34401)">
<path fill-rule="evenodd" clip-rule="evenodd" d="M28.0751 33.4499C28.0751 33.7999 27.7921 34.0829 27.4421 34.0829C27.0931 34.0829 26.8091 33.7999 26.8091 33.4499C26.8091 33.0999 27.0931 32.8169 27.4421 32.8169C27.7921 32.8169 28.0751 33.0999 28.0751 33.4499" fill="#062846"/>
</g>
<mask id="mask11_2231_34401" style="mask-type:luminance" maskUnits="userSpaceOnUse" x="28" y="32" width="7" height="7">
<path fill-rule="evenodd" clip-rule="evenodd" d="M28.075 32.267V38.778H30.371C32.132 37.909 33.599 36.537 34.585 34.848V34.848V32.267" fill="white"/>
</mask>
<g mask="url(#mask11_2231_34401)">
<path fill-rule="evenodd" clip-rule="evenodd" d="M31.0921 33.4499C31.0921 33.7999 30.8091 34.0829 30.4591 34.0829C30.1101 34.0829 29.8261 33.7999 29.8261 33.4499C29.8261 33.0999 30.1101 32.8169 30.4591 32.8169C30.8091 32.8169 31.0921 33.0999 31.0921 33.4499" fill="#062846"/>
</g>
<mask id="mask12_2231_34401" style="mask-type:luminance" maskUnits="userSpaceOnUse" x="28" y="32" width="7" height="7">
<path fill-rule="evenodd" clip-rule="evenodd" d="M28.075 32.267V38.778H30.371C32.132 37.909 33.599 36.537 34.585 34.848V34.848V32.267" fill="white"/>
</mask>
<g mask="url(#mask12_2231_34401)">
<path fill-rule="evenodd" clip-rule="evenodd" d="M34.1092 33.4499C34.1092 33.7999 33.8262 34.0829 33.4762 34.0829C33.1272 34.0829 32.8432 33.7999 32.8432 33.4499C32.8432 33.0999 33.1272 32.8169 33.4762 32.8169C33.8262 32.8169 34.1092 33.0999 34.1092 33.4499" fill="#062846"/>
</g>
<mask id="mask13_2231_34401" style="mask-type:luminance" maskUnits="userSpaceOnUse" x="28" y="38" width="3" height="2">
<path fill-rule="evenodd" clip-rule="evenodd" d="M28.075 38.778V39.578C28.881 39.404 29.651 39.133 30.371 38.778V38.778" fill="white"/>
</mask>
<g mask="url(#mask13_2231_34401)">
<path fill-rule="evenodd" clip-rule="evenodd" d="M28.0751 39.4841C28.0751 39.8341 27.7921 40.1171 27.4421 40.1171C27.0931 40.1171 26.8091 39.8341 26.8091 39.4841C26.8091 39.1341 27.0931 38.8511 27.4421 38.8511C27.7921 38.8511 28.0751 39.1341 28.0751 39.4841" fill="#062846"/>
</g>
<mask id="mask14_2231_34401" style="mask-type:luminance" maskUnits="userSpaceOnUse" x="28" y="38" width="3" height="2">
<path fill-rule="evenodd" clip-rule="evenodd" d="M28.075 38.778V39.578C28.881 39.404 29.651 39.133 30.371 38.778V38.778" fill="white"/>
</mask>
<g mask="url(#mask14_2231_34401)">
<path fill-rule="evenodd" clip-rule="evenodd" d="M31.0921 39.4841C31.0921 39.8341 30.8091 40.1171 30.4591 40.1171C30.1101 40.1171 29.8261 39.8341 29.8261 39.4841C29.8261 39.1341 30.1101 38.8511 30.4591 38.8511C30.8091 38.8511 31.0921 39.1341 31.0921 39.4841" fill="#062846"/>
</g>
<mask id="mask15_2231_34401" style="mask-type:luminance" maskUnits="userSpaceOnUse" x="21" y="19" width="8" height="7">
<path fill-rule="evenodd" clip-rule="evenodd" d="M21.566 20.866V25.757H28.075V20.071C27.394 19.924 26.688 19.847 25.963 19.847V19.847C24.385 19.847 22.892 20.214 21.566 20.866" fill="white"/>
</mask>
<g mask="url(#mask15_2231_34401)">
<path fill-rule="evenodd" clip-rule="evenodd" d="M23.5494 24.3986C23.5494 24.7486 23.2664 25.0316 22.9164 25.0316C22.5674 25.0316 22.2834 24.7486 22.2834 24.3986C22.2834 24.0486 22.5674 23.7656 22.9164 23.7656C23.2664 23.7656 23.5494 24.0486 23.5494 24.3986" fill="#062846"/>
</g>
<mask id="mask16_2231_34401" style="mask-type:luminance" maskUnits="userSpaceOnUse" x="21" y="19" width="8" height="7">
<path fill-rule="evenodd" clip-rule="evenodd" d="M21.566 20.866V25.757H28.075V20.071C27.394 19.924 26.688 19.847 25.963 19.847V19.847C24.385 19.847 22.892 20.214 21.566 20.866" fill="white"/>
</mask>
<g mask="url(#mask16_2231_34401)">
<path fill-rule="evenodd" clip-rule="evenodd" d="M26.5665 24.3986C26.5665 24.7486 26.2835 25.0316 25.9335 25.0316C25.5845 25.0316 25.3005 24.7486 25.3005 24.3986C25.3005 24.0486 25.5845 23.7656 25.9335 23.7656C26.2835 23.7656 26.5665 24.0486 26.5665 24.3986" fill="#062846"/>
</g>
<mask id="mask17_2231_34401" style="mask-type:luminance" maskUnits="userSpaceOnUse" x="21" y="19" width="8" height="7">
<path fill-rule="evenodd" clip-rule="evenodd" d="M21.566 20.866V25.757H28.075V20.071C27.394 19.924 26.688 19.847 25.963 19.847V19.847C24.385 19.847 22.892 20.214 21.566 20.866" fill="white"/>
</mask>
<g mask="url(#mask17_2231_34401)">
<path fill-rule="evenodd" clip-rule="evenodd" d="M22.0409 21.3815C22.0409 21.7315 21.7579 22.0145 21.4079 22.0145C21.0589 22.0145 20.7749 21.7315 20.7749 21.3815C20.7749 21.0315 21.0589 20.7485 21.4079 20.7485C21.7579 20.7485 22.0409 21.0315 22.0409 21.3815" fill="#062846"/>
</g>
<mask id="mask18_2231_34401" style="mask-type:luminance" maskUnits="userSpaceOnUse" x="21" y="19" width="8" height="7">
<path fill-rule="evenodd" clip-rule="evenodd" d="M21.566 20.866V25.757H28.075V20.071C27.394 19.924 26.688 19.847 25.963 19.847V19.847C24.385 19.847 22.892 20.214 21.566 20.866" fill="white"/>
</mask>
<g mask="url(#mask18_2231_34401)">
<path fill-rule="evenodd" clip-rule="evenodd" d="M25.058 21.3815C25.058 21.7315 24.775 22.0145 24.425 22.0145C24.076 22.0145 23.792 21.7315 23.792 21.3815C23.792 21.0315 24.076 20.7485 24.425 20.7485C24.775 20.7485 25.058 21.0315 25.058 21.3815" fill="#062846"/>
</g>
<mask id="mask19_2231_34401" style="mask-type:luminance" maskUnits="userSpaceOnUse" x="21" y="19" width="8" height="7">
<path fill-rule="evenodd" clip-rule="evenodd" d="M21.566 20.866V25.757H28.075V20.071C27.394 19.924 26.688 19.847 25.963 19.847V19.847C24.385 19.847 22.892 20.214 21.566 20.866" fill="white"/>
</mask>
<g mask="url(#mask19_2231_34401)">
<path fill-rule="evenodd" clip-rule="evenodd" d="M28.0751 21.3815C28.0751 21.7315 27.7921 22.0145 27.4421 22.0145C27.0931 22.0145 26.8091 21.7315 26.8091 21.3815C26.8091 21.0315 27.0931 20.7485 27.4421 20.7485C27.7921 20.7485 28.0751 21.0315 28.0751 21.3815" fill="#062846"/>
</g>
<path fill-rule="evenodd" clip-rule="evenodd" d="M23.5494 30.4328C23.5494 30.7828 23.2664 31.0658 22.9164 31.0658C22.5674 31.0658 22.2834 30.7828 22.2834 30.4328C22.2834 30.0828 22.5674 29.7998 22.9164 29.7998C23.2664 29.7998 23.5494 30.0828 23.5494 30.4328" fill="#062846"/>
<path fill-rule="evenodd" clip-rule="evenodd" d="M26.5665 30.4328C26.5665 30.7828 26.2835 31.0658 25.9335 31.0658C25.5845 31.0658 25.3005 30.7828 25.3005 30.4328C25.3005 30.0828 25.5845 29.7998 25.9335 29.7998C26.2835 29.7998 26.5665 30.0828 26.5665 30.4328" fill="#062846"/>
<mask id="mask20_2231_34401" style="mask-type:luminance" maskUnits="userSpaceOnUse" x="21" y="26" width="2" height="3">
<path fill-rule="evenodd" clip-rule="evenodd" d="M21.566 26.7827H22.0409V28.0487H21.566V26.7827Z" fill="white"/>
</mask>
<g mask="url(#mask20_2231_34401)">
<path fill-rule="evenodd" clip-rule="evenodd" d="M22.0409 27.4157C22.0409 27.7657 21.7579 28.0487 21.4079 28.0487C21.0589 28.0487 20.7749 27.7657 20.7749 27.4157C20.7749 27.0657 21.0589 26.7827 21.4079 26.7827C21.7579 26.7827 22.0409 27.0657 22.0409 27.4157" fill="#062846"/>
</g>
<path fill-rule="evenodd" clip-rule="evenodd" d="M25.058 27.4157C25.058 27.7657 24.775 28.0487 24.425 28.0487C24.076 28.0487 23.792 27.7657 23.792 27.4157C23.792 27.0657 24.076 26.7827 24.425 26.7827C24.775 26.7827 25.058 27.0657 25.058 27.4157" fill="#062846"/>
<path fill-rule="evenodd" clip-rule="evenodd" d="M28.0751 27.4157C28.0751 27.7657 27.7921 28.0487 27.4421 28.0487C27.0931 28.0487 26.8091 27.7657 26.8091 27.4157C26.8091 27.0657 27.0931 26.7827 27.4421 26.7827C27.7921 26.7827 28.0751 27.0657 28.0751 27.4157" fill="#062846"/>
<path fill-rule="evenodd" clip-rule="evenodd" d="M23.5494 36.467C23.5494 36.817 23.2664 37.1 22.9164 37.1C22.5674 37.1 22.2834 36.817 22.2834 36.467C22.2834 36.117 22.5674 35.834 22.9164 35.834C23.2664 35.834 23.5494 36.117 23.5494 36.467" fill="#062846"/>
<path fill-rule="evenodd" clip-rule="evenodd" d="M26.5665 36.467C26.5665 36.817 26.2835 37.1 25.9335 37.1C25.5845 37.1 25.3005 36.817 25.3005 36.467C25.3005 36.117 25.5845 35.834 25.9335 35.834C26.2835 35.834 26.5665 36.117 26.5665 36.467" fill="#062846"/>
<mask id="mask21_2231_34401" style="mask-type:luminance" maskUnits="userSpaceOnUse" x="21" y="32" width="2" height="3">
<path fill-rule="evenodd" clip-rule="evenodd" d="M21.566 32.8169H22.0409V34.0829H21.566V32.8169Z" fill="white"/>
</mask>
<g mask="url(#mask21_2231_34401)">
<path fill-rule="evenodd" clip-rule="evenodd" d="M22.0409 33.4499C22.0409 33.7999 21.7579 34.0829 21.4079 34.0829C21.0589 34.0829 20.7749 33.7999 20.7749 33.4499C20.7749 33.0999 21.0589 32.8169 21.4079 32.8169C21.7579 32.8169 22.0409 33.0999 22.0409 33.4499" fill="#062846"/>
</g>
<path fill-rule="evenodd" clip-rule="evenodd" d="M25.058 33.4499C25.058 33.7999 24.775 34.0829 24.425 34.0829C24.076 34.0829 23.792 33.7999 23.792 33.4499C23.792 33.0999 24.076 32.8169 24.425 32.8169C24.775 32.8169 25.058 33.0999 25.058 33.4499" fill="#062846"/>
<path fill-rule="evenodd" clip-rule="evenodd" d="M28.0751 33.4499C28.0751 33.7999 27.7921 34.0829 27.4421 34.0829C27.0931 34.0829 26.8091 33.7999 26.8091 33.4499C26.8091 33.0999 27.0931 32.8169 27.4421 32.8169C27.7921 32.8169 28.0751 33.0999 28.0751 33.4499" fill="#062846"/>
<mask id="mask22_2231_34401" style="mask-type:luminance" maskUnits="userSpaceOnUse" x="21" y="38" width="8" height="2">
<path fill-rule="evenodd" clip-rule="evenodd" d="M21.566 38.778V38.783C22.892 39.435 24.385 39.802 25.963 39.802V39.802C26.688 39.802 27.394 39.725 28.075 39.578V39.578V38.778" fill="white"/>
</mask>
<g mask="url(#mask22_2231_34401)">
<path fill-rule="evenodd" clip-rule="evenodd" d="M22.0409 39.4841C22.0409 39.8341 21.7579 40.1171 21.4079 40.1171C21.0589 40.1171 20.7749 39.8341 20.7749 39.4841C20.7749 39.1341 21.0589 38.8511 21.4079 38.8511C21.7579 38.8511 22.0409 39.1341 22.0409 39.4841" fill="#062846"/>
</g>
<mask id="mask23_2231_34401" style="mask-type:luminance" maskUnits="userSpaceOnUse" x="21" y="38" width="8" height="2">
<path fill-rule="evenodd" clip-rule="evenodd" d="M21.566 38.778V38.783C22.892 39.435 24.385 39.802 25.963 39.802V39.802C26.688 39.802 27.394 39.725 28.075 39.578V39.578V38.778" fill="white"/>
</mask>
<g mask="url(#mask23_2231_34401)">
<path fill-rule="evenodd" clip-rule="evenodd" d="M25.058 39.4841C25.058 39.8341 24.775 40.1171 24.425 40.1171C24.076 40.1171 23.792 39.8341 23.792 39.4841C23.792 39.1341 24.076 38.8511 24.425 38.8511C24.775 38.8511 25.058 39.1341 25.058 39.4841" fill="#062846"/>
</g>
<mask id="mask24_2231_34401" style="mask-type:luminance" maskUnits="userSpaceOnUse" x="21" y="38" width="8" height="2">
<path fill-rule="evenodd" clip-rule="evenodd" d="M21.566 38.778V38.783C22.892 39.435 24.385 39.802 25.963 39.802V39.802C26.688 39.802 27.394 39.725 28.075 39.578V39.578V38.778" fill="white"/>
</mask>
<g mask="url(#mask24_2231_34401)">
<path fill-rule="evenodd" clip-rule="evenodd" d="M28.0751 39.4841C28.0751 39.8341 27.7921 40.1171 27.4421 40.1171C27.0931 40.1171 26.8091 39.8341 26.8091 39.4841C26.8091 39.1341 27.0931 38.8511 27.4421 38.8511C27.7921 38.8511 28.0751 39.1341 28.0751 39.4841" fill="#062846"/>
</g>
<mask id="mask25_2231_34401" style="mask-type:luminance" maskUnits="userSpaceOnUse" x="16" y="20" width="6" height="6">
<path fill-rule="evenodd" clip-rule="evenodd" d="M16.85 25.757H21.566V20.866C19.478 21.893 17.802 23.628 16.85 25.757" fill="white"/>
</mask>
<g mask="url(#mask25_2231_34401)">
<path fill-rule="evenodd" clip-rule="evenodd" d="M20.5323 24.3986C20.5323 24.7486 20.2493 25.0316 19.8993 25.0316C19.5503 25.0316 19.2663 24.7486 19.2663 24.3986C19.2663 24.0486 19.5503 23.7656 19.8993 23.7656C20.2493 23.7656 20.5323 24.0486 20.5323 24.3986" fill="#062846"/>
</g>
<mask id="mask26_2231_34401" style="mask-type:luminance" maskUnits="userSpaceOnUse" x="16" y="20" width="6" height="6">
<path fill-rule="evenodd" clip-rule="evenodd" d="M16.85 25.757H21.566V20.866C19.478 21.893 17.802 23.628 16.85 25.757" fill="white"/>
</mask>
<g mask="url(#mask26_2231_34401)">
<path fill-rule="evenodd" clip-rule="evenodd" d="M19.0238 21.3815C19.0238 21.7315 18.7408 22.0145 18.3908 22.0145C18.0418 22.0145 17.7578 21.7315 17.7578 21.3815C17.7578 21.0315 18.0418 20.7485 18.3908 20.7485C18.7408 20.7485 19.0238 21.0315 19.0238 21.3815" fill="#062846"/>
</g>
<mask id="mask27_2231_34401" style="mask-type:luminance" maskUnits="userSpaceOnUse" x="16" y="20" width="6" height="6">
<path fill-rule="evenodd" clip-rule="evenodd" d="M16.85 25.757H21.566V20.866C19.478 21.893 17.802 23.628 16.85 25.757" fill="white"/>
</mask>
<g mask="url(#mask27_2231_34401)">
<path fill-rule="evenodd" clip-rule="evenodd" d="M22.0409 21.3815C22.0409 21.7315 21.7579 22.0145 21.4079 22.0145C21.0589 22.0145 20.7749 21.7315 20.7749 21.3815C20.7749 21.0315 21.0589 20.7485 21.4079 20.7485C21.7579 20.7485 22.0409 21.0315 22.0409 21.3815" fill="#062846"/>
</g>
<mask id="mask28_2231_34401" style="mask-type:luminance" maskUnits="userSpaceOnUse" x="15" y="25" width="7" height="8">
<path fill-rule="evenodd" clip-rule="evenodd" d="M16.85 25.757C16.295 27 15.986 28.376 15.986 29.825V29.825C15.986 30.667 16.091 31.485 16.288 32.267V32.267H21.566V25.757" fill="white"/>
</mask>
<g mask="url(#mask28_2231_34401)">
<path fill-rule="evenodd" clip-rule="evenodd" d="M17.5152 30.4328C17.5152 30.7828 17.2322 31.0658 16.8822 31.0658C16.5332 31.0658 16.2492 30.7828 16.2492 30.4328C16.2492 30.0828 16.5332 29.7998 16.8822 29.7998C17.2322 29.7998 17.5152 30.0828 17.5152 30.4328" fill="#062846"/>
</g>
<mask id="mask29_2231_34401" style="mask-type:luminance" maskUnits="userSpaceOnUse" x="15" y="25" width="7" height="8">
<path fill-rule="evenodd" clip-rule="evenodd" d="M16.85 25.757C16.295 27 15.986 28.376 15.986 29.825V29.825C15.986 30.667 16.091 31.485 16.288 32.267V32.267H21.566V25.757" fill="white"/>
</mask>
<g mask="url(#mask29_2231_34401)">
<path fill-rule="evenodd" clip-rule="evenodd" d="M20.5323 30.4328C20.5323 30.7828 20.2493 31.0658 19.8993 31.0658C19.5503 31.0658 19.2663 30.7828 19.2663 30.4328C19.2663 30.0828 19.5503 29.7998 19.8993 29.7998C20.2493 29.7998 20.5323 30.0828 20.5323 30.4328" fill="#062846"/>
</g>
<mask id="mask30_2231_34401" style="mask-type:luminance" maskUnits="userSpaceOnUse" x="15" y="25" width="7" height="8">
<path fill-rule="evenodd" clip-rule="evenodd" d="M16.85 25.757C16.295 27 15.986 28.376 15.986 29.825V29.825C15.986 30.667 16.091 31.485 16.288 32.267V32.267H21.566V25.757" fill="white"/>
</mask>
<g mask="url(#mask30_2231_34401)">
<path fill-rule="evenodd" clip-rule="evenodd" d="M16.0067 27.4157C16.0067 27.7657 15.7237 28.0487 15.3737 28.0487C15.0247 28.0487 14.7407 27.7657 14.7407 27.4157C14.7407 27.0657 15.0247 26.7827 15.3737 26.7827C15.7237 26.7827 16.0067 27.0657 16.0067 27.4157" fill="#062846"/>
</g>
<mask id="mask31_2231_34401" style="mask-type:luminance" maskUnits="userSpaceOnUse" x="15" y="25" width="7" height="8">
<path fill-rule="evenodd" clip-rule="evenodd" d="M16.85 25.757C16.295 27 15.986 28.376 15.986 29.825V29.825C15.986 30.667 16.091 31.485 16.288 32.267V32.267H21.566V25.757" fill="white"/>
</mask>
<g mask="url(#mask31_2231_34401)">
<path fill-rule="evenodd" clip-rule="evenodd" d="M19.0238 27.4157C19.0238 27.7657 18.7408 28.0487 18.3908 28.0487C18.0418 28.0487 17.7578 27.7657 17.7578 27.4157C17.7578 27.0657 18.0418 26.7827 18.3908 26.7827C18.7408 26.7827 19.0238 27.0657 19.0238 27.4157" fill="#062846"/>
</g>
<mask id="mask32_2231_34401" style="mask-type:luminance" maskUnits="userSpaceOnUse" x="15" y="25" width="7" height="8">
<path fill-rule="evenodd" clip-rule="evenodd" d="M16.85 25.757C16.295 27 15.986 28.376 15.986 29.825V29.825C15.986 30.667 16.091 31.485 16.288 32.267V32.267H21.566V25.757" fill="white"/>
</mask>
<g mask="url(#mask32_2231_34401)">
<path fill-rule="evenodd" clip-rule="evenodd" d="M22.0409 27.4157C22.0409 27.7657 21.7579 28.0487 21.4079 28.0487C21.0589 28.0487 20.7749 27.7657 20.7749 27.4157C20.7749 27.0657 21.0589 26.7827 21.4079 26.7827C21.7579 26.7827 22.0409 27.0657 22.0409 27.4157" fill="#062846"/>
</g>
<mask id="mask33_2231_34401" style="mask-type:luminance" maskUnits="userSpaceOnUse" x="16" y="32" width="6" height="7">
<path fill-rule="evenodd" clip-rule="evenodd" d="M16.288 32.267C17.008 35.129 18.964 37.499 21.555 38.778V38.778H21.566V32.267" fill="white"/>
</mask>
<g mask="url(#mask33_2231_34401)">
<path fill-rule="evenodd" clip-rule="evenodd" d="M17.5152 36.467C17.5152 36.817 17.2322 37.1 16.8822 37.1C16.5332 37.1 16.2492 36.817 16.2492 36.467C16.2492 36.117 16.5332 35.834 16.8822 35.834C17.2322 35.834 17.5152 36.117 17.5152 36.467" fill="#062846"/>
</g>
<mask id="mask34_2231_34401" style="mask-type:luminance" maskUnits="userSpaceOnUse" x="16" y="32" width="6" height="7">
<path fill-rule="evenodd" clip-rule="evenodd" d="M16.288 32.267C17.008 35.129 18.964 37.499 21.555 38.778V38.778H21.566V32.267" fill="white"/>
</mask>
<g mask="url(#mask34_2231_34401)">
<path fill-rule="evenodd" clip-rule="evenodd" d="M20.5323 36.467C20.5323 36.817 20.2493 37.1 19.8993 37.1C19.5503 37.1 19.2663 36.817 19.2663 36.467C19.2663 36.117 19.5503 35.834 19.8993 35.834C20.2493 35.834 20.5323 36.117 20.5323 36.467" fill="#062846"/>
</g>
<mask id="mask35_2231_34401" style="mask-type:luminance" maskUnits="userSpaceOnUse" x="16" y="32" width="6" height="7">
<path fill-rule="evenodd" clip-rule="evenodd" d="M16.288 32.267C17.008 35.129 18.964 37.499 21.555 38.778V38.778H21.566V32.267" fill="white"/>
</mask>
<g mask="url(#mask35_2231_34401)">
<path fill-rule="evenodd" clip-rule="evenodd" d="M19.0238 33.4499C19.0238 33.7999 18.7408 34.0829 18.3908 34.0829C18.0418 34.0829 17.7578 33.7999 17.7578 33.4499C17.7578 33.0999 18.0418 32.8169 18.3908 32.8169C18.7408 32.8169 19.0238 33.0999 19.0238 33.4499" fill="#062846"/>
</g>
<mask id="mask36_2231_34401" style="mask-type:luminance" maskUnits="userSpaceOnUse" x="16" y="32" width="6" height="7">
<path fill-rule="evenodd" clip-rule="evenodd" d="M16.288 32.267C17.008 35.129 18.964 37.499 21.555 38.778V38.778H21.566V32.267" fill="white"/>
</mask>
<g mask="url(#mask36_2231_34401)">
<path fill-rule="evenodd" clip-rule="evenodd" d="M22.0409 33.4499C22.0409 33.7999 21.7579 34.0829 21.4079 34.0829C21.0589 34.0829 20.7749 33.7999 20.7749 33.4499C20.7749 33.0999 21.0589 32.8169 21.4079 32.8169C21.7579 32.8169 22.0409 33.0999 22.0409 33.4499" fill="#062846"/>
</g>
<path fill-rule="evenodd" clip-rule="evenodd" d="M12.8521 29.8243C12.8521 22.5832 18.7219 16.7123 25.9631 16.7123C33.2053 16.7123 39.0751 22.5832 39.0751 29.8243H38.0751C38.0751 23.1354 32.6529 17.7123 25.9631 17.7123C19.2743 17.7123 13.8521 23.1354 13.8521 29.8243H12.8521Z" fill="#062846"/>
</svg>
