<svg width="52" height="52" viewBox="0 0 52 52" fill="none" xmlns="http://www.w3.org/2000/svg">
<path fill-rule="evenodd" clip-rule="evenodd" d="M18.553 2L1 42.092L19.71 50.284L37.263 10.192L18.553 2Z" fill="#146A5E"/>
<path fill-rule="evenodd" clip-rule="evenodd" d="M19.4526 49.6251L36.3181 11.1041L37.2341 11.5051L19.9676 50.9421L0.799583 42.5506L1.20062 41.6346L19.4526 49.6251Z" fill="#062846"/>
<path fill-rule="evenodd" clip-rule="evenodd" d="M49.7986 20.1954L19.7106 50.2834L5.2676 35.8414L35.3566 5.7534L49.7986 20.1954Z" fill="#146A5E"/>
<path fill-rule="evenodd" clip-rule="evenodd" d="M4.73981 36.3692L19.1818 50.8112L50.3268 19.6672L35.8848 5.2242L4.73981 36.3692Z" fill="#27D3BC"/>
<path fill-rule="evenodd" clip-rule="evenodd" d="M33.0601 12.2322L33.4495 12.6216C34.7816 13.9677 36.9492 13.9907 38.3104 12.6749C38.3105 12.6749 38.3104 12.675 38.3104 12.6749L38.7616 12.2376L43.3117 16.7878L42.8822 17.2362L42.8801 17.2383C41.5496 18.6108 41.5853 20.8029 42.9597 22.1319L42.6121 22.4913L42.9656 22.8449L22.0105 43.799L21.5598 43.362C20.2233 42.0718 18.1058 42.0681 16.7647 43.3537C16.7645 43.3538 16.7649 43.3535 16.7647 43.3537L16.3035 43.7978L11.747 39.2413L12.1651 38.8232C12.1655 38.8228 12.1659 38.8224 12.1663 38.822C13.4888 37.4799 13.4936 35.3263 12.1774 33.9787L11.7513 33.542L33.0601 12.2322ZM41.9192 22.477C40.5705 20.8405 40.5629 18.4576 41.9212 16.8115L38.7404 13.6307C37.0959 14.9871 34.7131 14.9831 33.0746 13.6319L13.1458 33.5617C14.5002 35.2037 14.4993 37.5855 13.1466 39.2267L16.3263 42.4063C17.9685 41.0535 20.3481 41.0542 21.9893 42.406L41.9192 22.477Z" fill="#062846"/>
<path fill-rule="evenodd" clip-rule="evenodd" d="M27.1794 25.9873C26.7169 25.5241 25.9656 25.5237 25.5018 25.9876C25.039 26.4503 25.039 27.2017 25.5018 27.6644C25.7324 27.8951 25.9927 27.9866 26.2706 27.9791C26.5611 27.9712 26.899 27.8529 27.2455 27.6091C27.7667 27.2429 28.2989 27.0201 28.8353 27.0215C29.3882 27.0229 29.8683 27.2616 30.2715 27.6642C31.1242 28.5182 31.1252 29.9031 30.2718 30.7566C29.4177 31.6093 28.0331 31.61 27.1796 30.7566C26.9844 30.5613 26.9844 30.2447 27.1796 30.0494C27.3749 29.8542 27.6915 29.8542 27.8868 30.0494C28.3493 30.512 29.1009 30.5124 29.5649 30.0492C29.5649 30.0492 29.5649 30.0492 29.5649 30.0492M29.5646 28.3715C30.0275 28.8354 30.0271 29.5867 29.5649 30.0492ZM29.5646 28.3715C29.3089 28.1163 29.0706 28.0221 28.8328 28.0215C28.5785 28.0209 28.2474 28.1273 27.8208 28.427M24.7946 25.2804C25.6488 24.4263 27.0336 24.4259 27.887 25.2807C28.0821 25.4761 28.0819 25.7927 27.8865 25.9878C27.6911 26.1829 27.3745 26.1827 27.1794 25.9873M24.7946 25.2804C23.9414 26.1337 23.9414 27.5183 24.7946 28.3716ZM24.7946 28.3716C25.223 28.7999 25.7502 28.9934 26.2976 28.9787ZM26.2976 28.9787C26.8322 28.9643 27.3573 28.7531 27.8208 28.427Z" fill="#062846"/>
<path fill-rule="evenodd" clip-rule="evenodd" d="M24.1058 24.591C24.3011 24.3958 24.6177 24.3958 24.813 24.591L25.502 25.28C25.6972 25.4753 25.697 25.7923 25.5018 25.9876C25.3065 26.1828 24.9901 26.1824 24.7948 25.9872L24.1058 25.2982C23.9106 25.1029 23.9106 24.7863 24.1058 24.591Z" fill="#062846"/>
<path fill-rule="evenodd" clip-rule="evenodd" d="M29.5649 30.0492C29.7601 29.854 30.0761 29.8542 30.2714 30.0494L30.9604 30.7384C31.1556 30.9337 31.1556 31.2503 30.9604 31.4456C30.7651 31.6408 30.4485 31.6408 30.2532 31.4456L29.5642 30.7566C29.369 30.5613 29.3696 30.2445 29.5649 30.0492Z" fill="#062846"/>
<path fill-rule="evenodd" clip-rule="evenodd" d="M19.4607 49.9706L49.9722 19.3147L50.681 20.0201L19.4725 51.3762L4.39124 36.7281L5.08797 36.0107L19.4607 49.9706Z" fill="#062846"/>
</svg>
