<svg width="88" height="88" viewBox="0 0 88 88" fill="none" xmlns="http://www.w3.org/2000/svg">
<path d="M16.2837 12.655H74.873V71.2444H16.2837V12.655Z" fill="white"/>
<path fill-rule="evenodd" clip-rule="evenodd" d="M15.5485 11.8511H76.1525V72.4997L76.1539 72.522L76.1525 72.5227V72.5268H76.1483L72.0767 76.1539H11.8462V15.9279L15.4728 11.8462L15.5485 11.8511ZM62.189 20.6803H67.7011V46.0676L58.2111 36.5783L16.9237 70.949V71.076H30.3124V62.7049L31.7224 61.5311V71.076H45.5457V50.0237L46.9557 48.8499V71.076H60.779V42.047L62.189 43.4568V71.076H74.7016V13.3019H62.189V20.6803ZM16.9237 70.9385L30.3124 54.858V13.3019H16.9237V70.9385ZM31.7224 53.1642L45.5457 36.5609V26.8147L46.9557 28.2246V34.8678L51.2918 29.6587L42.3127 20.6803H45.5457V13.3019H31.7224V53.1642ZM46.9557 20.6803H60.779V13.3019H46.9557V20.6803Z" fill="#201F23"/>
</svg>
