<svg width="159" height="159" viewBox="0 0 159 159" fill="none" xmlns="http://www.w3.org/2000/svg">
<rect width="158.476" height="158.476" rx="79.2381" fill="#EBE9F6"/>
<path d="M123.238 32.1016H35.238V69.8158H123.238V32.1016Z" fill="white"/>
<path d="M98.9931 57.4327H72.653V55.4036H98.9931V57.4327Z" fill="#201F23"/>
<path d="M72.653 48.3018H118.242V46.2728H72.653V48.3018Z" fill="#201F23"/>
<path fill-rule="evenodd" clip-rule="evenodd" d="M122.294 71.6361H54.4176V81.883C56.7297 82.353 58.4699 84.4001 58.4699 86.8542C58.4699 89.3083 56.7297 91.3554 54.4176 91.8254V99.1301C56.7297 99.6001 58.4699 101.647 58.4699 104.101C58.4699 106.555 56.7297 108.602 54.4176 109.072V119.319H61.5091L53.4044 127.436L45.2998 119.319H52.3914V109.072C50.0793 108.603 48.3391 106.555 48.3391 104.101C48.3391 101.647 50.0793 99.6001 52.3914 99.1301V91.8254C50.0793 91.3554 48.3391 89.3083 48.3391 86.8542C48.3391 84.4 50.0793 82.353 52.3914 81.883V71.6361H36.1821C34.5035 71.6361 33.1428 70.2735 33.1428 68.5925V34.0983C33.1428 32.4174 34.5035 31.0547 36.1821 31.0547H122.294C123.973 31.0547 125.333 32.4174 125.333 34.0983V68.5925C125.333 70.2735 123.973 71.6361 122.294 71.6361ZM36.1821 33.0838H122.294C122.854 33.0838 123.307 33.538 123.307 34.0983V68.5925C123.307 69.1528 122.854 69.6071 122.294 69.6071H54.4176V64.4959C61.2178 63.9778 66.5745 58.288 66.5745 51.3454C66.5745 44.0613 60.6781 38.1564 53.4044 38.1564C46.1308 38.1564 40.2344 44.0613 40.2344 51.3454C40.2344 58.2881 45.5911 63.9779 52.3914 64.4959V69.6071H36.1821C35.6226 69.6071 35.169 69.1528 35.169 68.5925V34.0983C35.169 33.538 35.6226 33.0838 36.1821 33.0838ZM46.4548 60.0699C47.1116 56.8289 49.9743 54.389 53.4046 54.389C56.8349 54.389 59.6974 56.8288 60.3544 60.0696C58.4488 61.594 56.0329 62.5053 53.4044 62.5053C50.7761 62.5053 48.3603 61.5941 46.4548 60.0699ZM44.8065 58.4456C43.216 56.5163 42.2605 54.0426 42.2605 51.3454C42.2605 45.1819 47.2498 40.1855 53.4044 40.1855C59.559 40.1855 64.5483 45.1819 64.5483 51.3454C64.5483 54.0424 63.593 56.516 62.0026 58.4453C61.1647 56.0731 59.3762 54.1511 57.0953 53.1389C58.5468 52.0264 59.483 50.2736 59.483 48.3018C59.483 44.9399 56.7616 42.2146 53.4045 42.2146C50.0475 42.2146 47.326 44.9399 47.326 48.3018C47.326 50.2736 48.2622 52.0265 49.7138 53.1389C47.4329 54.1513 45.6443 56.0733 44.8065 58.4456ZM53.4045 44.2437C51.1665 44.2437 49.3522 46.0605 49.3522 48.3018C49.3522 50.5431 51.1665 52.3599 53.4045 52.3599C55.6426 52.3599 57.4568 50.5431 57.4568 48.3018C57.4568 46.0605 55.6426 44.2437 53.4045 44.2437Z" fill="#201F23"/>
<path d="M65.3528 104.101H112.968V102.072H65.3528V104.101Z" fill="#201F23"/>
<path d="M112.968 86.8542H65.3528V84.8251H112.968V86.8542Z" fill="#201F23"/>
</svg>
