<svg width="52" height="52" viewBox="0 0 52 52" fill="none" xmlns="http://www.w3.org/2000/svg">
<path fill="currentColor" d="M10.755 10.7547C11.35 10.1597 9.90297 7.74668 7.52197 5.36668C5.14097 2.98568 2.72897 1.53868 2.13397 2.13368" stroke="#062846" stroke-linejoin="round"/>
<path fill-rule="evenodd" clip-rule="evenodd" d="M32.3648 49.0399L5.30977 21.9849L5.28177 10.4289L10.8088 4.91388L22.3258 4.96988L49.3808 32.0239L32.3648 49.0399ZM10.1308 9.79088C9.12877 10.7929 9.12877 12.4179 10.1308 13.4209C11.1338 14.4229 12.7588 14.4229 13.7608 13.4209C14.7638 12.4179 14.7638 10.7929 13.7608 9.79088C12.7588 8.78788 11.1338 8.78788 10.1308 9.79088Z" fill="#27D3BC"/>
<path fill-rule="evenodd" clip-rule="evenodd" d="M15.553 7.68122C15.6334 7.49949 15.8138 7.38264 16.0125 7.38358L21.1025 7.40758C21.2343 7.4082 21.3605 7.46083 21.4537 7.55402L45.5707 31.671C45.6645 31.7648 45.7172 31.892 45.7172 32.0246C45.7172 32.1572 45.6645 32.2844 45.5707 32.3781L32.7187 45.2301C32.5235 45.4254 32.2069 45.4254 32.0116 45.2301L7.89762 21.1161C7.80414 21.0226 7.75149 20.896 7.75117 20.7638L7.73917 15.6848C7.73871 15.4866 7.85533 15.3068 8.03649 15.2265C8.21766 15.1462 8.42917 15.1804 8.57573 15.3138C10.5392 17.1009 13.5924 17.0454 15.4897 15.1489C17.3905 13.247 17.4414 10.184 15.6417 8.22152C15.5074 8.07506 15.4725 7.86295 15.553 7.68122ZM17.0244 8.38836C18.4969 10.7113 18.2208 13.8311 16.1968 15.856C14.1757 17.8762 11.0635 18.1555 8.74156 16.692L8.75068 20.555L32.3652 44.1695L44.5101 32.0246L20.8921 8.4066L17.0244 8.38836Z" fill="#062846"/>
<path fill-rule="evenodd" clip-rule="evenodd" d="M1.56872 3.01612C1.47206 2.63998 1.42918 2.13086 1.78012 1.77992L2.48723 2.48703C2.50157 2.47269 2.50593 2.46332 2.50621 2.46344C2.50698 2.46377 2.47747 2.53458 2.53725 2.76724C2.60928 3.04755 2.78167 3.43205 3.06293 3.90088C3.62138 4.83174 4.54991 5.99809 5.72015 7.16785C6.89045 8.33815 8.05691 9.26677 8.98767 9.82523C9.45645 10.1065 9.84086 10.2789 10.1211 10.3509C10.3536 10.4107 10.4244 10.3812 10.4247 10.3819C10.4248 10.3822 10.4155 10.3866 10.4011 10.4009L11.1082 11.108C10.7573 11.459 10.2483 11.4161 9.87214 11.3194C9.45837 11.2131 8.9794 10.9865 8.47318 10.6827C7.45396 10.0712 6.22387 9.08577 5.01319 7.8751C3.80244 6.66486 2.81697 5.43471 2.20541 4.41532C1.90167 3.90903 1.67506 3.42997 1.56872 3.01612Z" fill="#062846"/>
<path fill-rule="evenodd" clip-rule="evenodd" d="M21.9805 24.6399C21.1035 25.5169 21.1035 26.9389 21.9805 27.8159C22.8575 28.6929 24.2795 28.6929 25.1565 27.8159C26.0335 26.9389 26.0445 25.9019 25.1565 24.6399C24.3985 23.5609 24.2795 22.3409 25.1565 21.4639C26.0335 20.5869 27.4555 20.5869 28.3335 21.4639C29.2105 22.3409 29.2105 23.7629 28.3325 24.6399" fill="#27D3BC"/>
<path fill="currentColor" d="M21.9805 24.6399C21.1035 25.5169 21.1035 26.9389 21.9805 27.8159C22.8575 28.6929 24.2795 28.6929 25.1565 27.8159C26.0335 26.9389 26.0445 25.9019 25.1565 24.6399C24.3985 23.5609 24.2795 22.3409 25.1565 21.4639C26.0335 20.5869 27.4555 20.5869 28.3335 21.4639C29.2105 22.3409 29.2105 23.7629 28.3325 24.6399" stroke="#062846" stroke-linejoin="round"/>
<path fill-rule="evenodd" clip-rule="evenodd" d="M27.9794 21.1101L28.8974 20.1921L29.6045 20.8992L28.6865 21.8172L27.9794 21.1101Z" fill="#062846"/>
<path fill-rule="evenodd" clip-rule="evenodd" d="M20.7089 28.3805L21.6269 27.4625L22.334 28.1696L21.416 29.0876L20.7089 28.3805Z" fill="#062846"/>
<path fill-rule="evenodd" clip-rule="evenodd" d="M4.92842 10.0753L10.4554 4.56034L11.1618 5.26821L5.78209 10.6362L5.80908 21.7771L32.7685 48.6351L32.0627 49.3435L4.9567 22.3395C4.86282 22.246 4.80991 22.119 4.80959 21.9865L4.78159 10.4305C4.78126 10.2973 4.83412 10.1694 4.92842 10.0753Z" fill="#062846"/>
<path fill-rule="evenodd" clip-rule="evenodd" d="M10.2861 9.72472C11.3615 8.64935 13.1059 8.64964 14.182 9.72452C15.2158 10.7583 15.2562 12.4101 14.3028 13.4919L13.5526 12.8307C14.1591 12.1426 14.1334 11.0903 13.4753 10.432C12.7894 9.74691 11.6779 9.7472 10.9932 10.4318L10.2861 9.72472Z" fill="#062846"/>
</svg>
