<svg xmlns="http://www.w3.org/2000/svg" width="28" height="28" fill="none"><g clip-path="url(#a)"><path fill="#fff" d="M14 5.905a7.944 7.944 0 0 1 3.367 15.14h.807V26H9.849v-4.955h.784A7.944 7.944 0 0 1 14 5.905"/><path fill="#201f23" d="M17.886 24.576a.29.29 0 0 1 .315.29v1.383a.29.29 0 0 1-.29.292h-.622L16.253 28h-4.484l-1.038-1.459h-.622a.29.29 0 0 1-.29-.292v-.665a.29.29 0 0 1 .264-.29zM17.886 22.83a.29.29 0 0 1 .315.29v.575a.29.29 0 0 1-.263.29l-7.804.718a.29.29 0 0 1-.315-.29v-.575a.29.29 0 0 1 .263-.29z"/><path fill="#201f23" fill-rule="evenodd" d="M14 5.495c4.62 0 8.367 3.78 8.367 8.445a8.46 8.46 0 0 1-4.166 7.303v.705a.29.29 0 0 1-.263.291l-7.804.718a.29.29 0 0 1-.315-.29v-1.413a8.46 8.46 0 0 1-4.186-7.314c0-4.664 3.746-8.445 8.367-8.445m0 .584c-4.301 0-7.788 3.519-7.788 7.86a7.87 7.87 0 0 0 3.822 6.767h2.258v-6.264h-1.078c-.683 0-1.237-.56-1.237-1.25v-.422c0-.69.554-1.25 1.237-1.25h.419c.684 0 1.237.56 1.237 1.25v1.088h2.26V12.77c0-.69.553-1.25 1.237-1.25h.419c.683 0 1.237.56 1.237 1.25v.422c0 .69-.554 1.25-1.237 1.25h-1.079v6.264h2.259a7.87 7.87 0 0 0 3.823-6.766c0-4.342-3.488-7.861-7.789-7.861m-1.13 14.627h2.26v-6.264h-2.26zm-1.656-8.602a.66.66 0 0 0-.66.666v.422c0 .368.296.666.66.666h1.078V12.77a.66.66 0 0 0-.66-.666zm5.153 0a.66.66 0 0 0-.66.666v1.088h1.079c.364 0 .66-.298.66-.666v-.422a.663.663 0 0 0-.66-.666z" clip-rule="evenodd"/><path fill="#201f23" d="M2.554 15.84a.284.284 0 0 1 .09.56l-2.304.498-.029.004a.284.284 0 0 1-.09-.56l2.305-.497zM25.584 15.023l2.174.304.028.006a.283.283 0 0 1-.077.559l-.029-.003-2.174-.304-.028-.006a.284.284 0 0 1 .077-.559zM1.345 6.954a.28.28 0 0 1 .353-.13l.026.012 2.11 1.128.024.015c.119.08.16.239.092.368a.28.28 0 0 1-.354.13l-.026-.012-2.108-1.127-.025-.015a.285.285 0 0 1-.092-.369M25.572 5.957a.28.28 0 0 1 .387.09.285.285 0 0 1-.088.39l-1.896 1.2a.28.28 0 0 1-.388-.09.285.285 0 0 1 .089-.39zM8.563.372a.28.28 0 0 1 .354.13l.012.026.888 2.208.01.028a.284.284 0 0 1-.165.342.28.28 0 0 1-.354-.13l-.012-.027L8.408.741l-.01-.027a.284.284 0 0 1 .165-.342M17.94.17a.28.28 0 0 1 .344-.156.284.284 0 0 1 .181.357l-.707 2.21a.28.28 0 0 1-.354.182.284.284 0 0 1-.18-.357l.706-2.21z"/></g><defs><clipPath id="a"><path fill="#fff" d="M0 0h28v28H0z"/></clipPath></defs></svg>