<svg width="52" height="52" viewBox="0 0 52 52" fill="none" xmlns="http://www.w3.org/2000/svg">
<path fill-rule="evenodd" clip-rule="evenodd" d="M8 45.333H43.591V9.741H8V45.333Z" fill="#288DFF"/>
<path fill-rule="evenodd" clip-rule="evenodd" d="M12.029 15.249H16.197V7H12.029V15.249Z" fill="#FFC800"/>
<path fill-rule="evenodd" clip-rule="evenodd" d="M35.045 15.249H39.213V7H35.045V15.249Z" fill="#FFC800"/>
<path fill-rule="evenodd" clip-rule="evenodd" d="M16.547 29.397H25.796V21.281H16.547V29.397Z" fill="#A9D1FF"/>
<path fill-rule="evenodd" clip-rule="evenodd" d="M43.592 21.781H8V20.781H43.592V21.781Z" fill="#062846"/>
<path fill-rule="evenodd" clip-rule="evenodd" d="M43.592 29.8973H8V28.8973H43.592V29.8973Z" fill="#062846"/>
<path fill-rule="evenodd" clip-rule="evenodd" d="M43.592 38.0136H8V37.0136H43.592V38.0136Z" fill="#062846"/>
<path fill-rule="evenodd" clip-rule="evenodd" d="M17.047 20.842V45.52H16.047V20.842H17.047Z" fill="#062846"/>
<path fill-rule="evenodd" clip-rule="evenodd" d="M26.2959 20.842V45.52H25.2959V20.842H26.2959Z" fill="#062846"/>
<path fill-rule="evenodd" clip-rule="evenodd" d="M35.5447 20.842V45.52H34.5447V20.842H35.5447Z" fill="#062846"/>
<path fill-rule="evenodd" clip-rule="evenodd" d="M11.5295 15.2487V7.02271H12.5295V15.2487H11.5295Z" fill="#062846"/>
<path fill-rule="evenodd" clip-rule="evenodd" d="M34.5447 15.2487V7.02271H35.5447V15.2487H34.5447Z" fill="#062846"/>
</svg>
