<svg xmlns="http://www.w3.org/2000/svg" width="69" height="68" fill="none" viewBox="0 0 69 68">
  <rect width="68" height="68" x=".5" fill="#DEDAF1" rx="34"/>
  <g clip-path="url(#a)">
    <path fill="#fff" d="M32.959 15.724 15.424 41.457c-.61.894-2.94 3.897 0 7.904 1.99 2.71 5.355 2.23 6.69 1.727l28.894-12.057s-6.286-10.845-7.72-12.61c-1.433-1.764-10.33-10.697-10.33-10.697Z"/>
    <path fill="#201F23" fill-rule="evenodd" d="M35.99 13.932c.975.273 2.104.858 3.307 1.68 3.237 2.209 5.936 5.153 8.365 8.203 2.411 3.077 4.249 6.144 5.289 8.683.65 1.59 1.843 4.68.154 6.059-.2.163-.425.278-.665.352l-19.574 8.196 2.546 3.147a2.306 2.306 0 0 1-.334 3.234c-.981.8-2.422.65-3.219-.336l-3.397-4.202-5.518 2.311a6.541 6.541 0 0 1-7.788-1.54l-.188-.224a6.615 6.615 0 0 1-.193-8.06l18.173-26.64c.606-1.096 1.941-1.17 3.041-.863Zm-20.4 28.064-.005.007-.006.008a5.621 5.621 0 0 0 .155 6.86l.16.188a5.558 5.558 0 0 0 6.636 1.3l.015-.007.015-.006 2.7-1.131c-1.377-.989-2.972-2.531-4.487-4.405-1.546-1.912-2.74-3.835-3.414-5.409l-1.77 2.595Zm2.443-3.583c.753 2.117 2.106 4.04 3.506 5.772 1.379 1.704 2.946 3.393 4.814 4.572l18.386-7.699c-3.115-1.986-6.246-5.045-9.121-8.602-2.866-3.544-5.096-7.103-6.353-10.507L18.033 38.413Zm11.923-17.477c1.144 3.45 3.4 7.15 6.428 10.894 3.039 3.759 6.31 6.883 9.48 8.757l4.382-1.834c-1.39-.461-3.042-1.493-4.817-2.95-2.247-1.847-4.23-3.983-6.071-6.227-1.964-2.429-3.578-4.873-4.734-7.077-1.108-2.113-1.807-4.01-1.976-5.51l-2.692 3.947Zm12.73 6.218a3.027 3.027 0 0 0-4.269-.443c.533.741 1.102 1.49 1.708 2.24.7.853 1.421 1.697 2.14 2.475a3.057 3.057 0 0 0 .42-4.272Z" clip-rule="evenodd"/>
    <path fill="#201F23" d="M54.315 28.326a.448.448 0 0 1 .601-.016l1.855 1.965a.453.453 0 0 1-.047.602.447.447 0 0 1-.6.015l-1.856-1.964a.453.453 0 0 1 .047-.602Zm5.809-6.596a.45.45 0 0 1-.1.894l-2.594-.161a.45.45 0 0 1 .054-.895l2.64.161Zm-2.409-8.666a.447.447 0 0 1 .592.104.452.452 0 0 1-.043.603l-2.147 1.69a.447.447 0 0 1-.63-.078.452.452 0 0 1 .077-.633l2.15-1.686ZM42.527 9.112a.448.448 0 0 1 .57.195l1.094 2.559a.448.448 0 0 1-.82.354l-1.095-2.56a.451.451 0 0 1 .251-.548Zm8.153-.817a.448.448 0 0 1 .865.222l-.715 2.81a.449.449 0 0 1-.857-.267l.707-2.765Z"/>
  </g>
  <defs>
    <clipPath id="a">
      <path fill="#fff" d="M8.5 8h52v52h-52z"/>
    </clipPath>
  </defs>
</svg>
