<svg width="52" height="52" viewBox="0 0 52 52" fill="none" xmlns="http://www.w3.org/2000/svg">
<path fill-rule="evenodd" clip-rule="evenodd" d="M25.9647 24.5823L9.35571 19.1153L25.9287 13.4233L42.5467 19.1163L25.9647 24.5823Z" fill="#734D00"/>
<path fill-rule="evenodd" clip-rule="evenodd" d="M32.3689 7L25.9289 13.423L42.5309 19.116L48.9289 12.521L32.3689 7Z" fill="#FFC800"/>
<path fill-rule="evenodd" clip-rule="evenodd" d="M42.511 39.8016L25.928 45.2676C25.93 44.7176 25.964 24.7666 25.965 24.5826L25.967 24.5816L42.546 19.1156H42.547V19.1166L42.511 39.8016Z" fill="#FFE466"/>
<path fill-rule="evenodd" clip-rule="evenodd" d="M9.35559 19.1162L25.9356 24.5812L25.9376 24.5822C25.9386 24.7672 25.9726 44.7172 25.9736 45.2682L9.39159 39.8012L9.35559 19.1162Z" fill="#FFC800"/>
<path fill-rule="evenodd" clip-rule="evenodd" d="M25.9284 13.4233L20.0394 7.0183L3.4594 12.4813L9.3554 19.1163" fill="#FFC800"/>
<path fill-rule="evenodd" clip-rule="evenodd" d="M25.9647 24.5823L32.3477 30.9893L48.9277 25.5253L42.5467 19.1163L25.9647 24.5823Z" fill="#FFC800"/>
<path fill-rule="evenodd" clip-rule="evenodd" d="M9.381 19.1159L3 25.5259L19.58 30.9889L25.963 24.5819L9.381 19.1159Z" fill="#FFE466"/>
<path fill-rule="evenodd" clip-rule="evenodd" d="M26.4285 13.4322L26.2295 24.5912L25.2297 24.5734L25.4287 13.4144L26.4285 13.4322Z" fill="#062846"/>
<path fill-rule="evenodd" clip-rule="evenodd" d="M49.2878 12.8695L42.7028 19.6665L41.9846 18.9707L48.5696 12.1737L49.2878 12.8695Z" fill="#062846"/>
<path fill-rule="evenodd" clip-rule="evenodd" d="M25.963 23.8741L32.4835 30.4181L48.7715 25.0506L49.0845 26.0004L32.2105 31.5609L25.963 25.2909L19.7165 31.5609L2.84351 26.0004L3.1565 25.0506L19.4435 30.4181L25.963 23.8741Z" fill="#062846"/>
<path fill-rule="evenodd" clip-rule="evenodd" d="M9.23498 40.2765L9.54803 39.3267L25.9743 44.7411L42.3536 39.3269L42.6674 40.2763L25.9747 45.7941L9.23498 40.2765Z" fill="#062846"/>
<path fill-rule="evenodd" clip-rule="evenodd" d="M9.00757 19.4485L3.08657 12.8145L3.83263 12.1487L9.75363 18.7827L9.00757 19.4485Z" fill="#062846"/>
</svg>
