<svg width="41" height="42" viewBox="0 0 41 42" fill="none" xmlns="http://www.w3.org/2000/svg">
<path d="M2.83008 8.875H37.9904V27.0135H13.5169L7.0772 34.0986V27.0135H2.83008V8.875Z" fill="white"/>
<path d="M12.882 16.0783L16.4657 16.6595L13.8221 19.1326L14.3733 22.6987L11.1895 20.964L7.94669 22.587L8.62269 19.0422L6.06726 16.4794L9.66904 16.0226L11.3327 12.8159L12.882 16.0783Z" fill="#201F23"/>
<path d="M34.2915 20.1366H19.4369V19.4044H34.2915V20.1366Z" fill="#201F23"/>
<path d="M34.2915 16.4762H19.4369V15.7441H34.2915V16.4762Z" fill="#201F23"/>
<path fill-rule="evenodd" clip-rule="evenodd" d="M38.4389 29.5181H13.831L6.61922 37.4725V29.5181H2.35352V8.44727H38.4389V29.5181ZM3.09633 26.5899H7.36168V33.3585L13.4986 26.5899H37.6961V9.1794H3.09633V26.5899Z" fill="#201F23"/>
</svg>
