<svg width="52" height="52" viewBox="0 0 52 52" fill="none" xmlns="http://www.w3.org/2000/svg">
<path fill-rule="evenodd" clip-rule="evenodd" d="M19.2504 36.7165C11.3734 33.2675 7.78339 24.0865 11.2324 16.2105C14.6814 8.3335 23.8624 4.7435 31.7394 8.1925C39.6164 11.6405 43.2064 20.8215 39.7574 28.6985C36.3084 36.5755 27.1274 40.1655 19.2504 36.7165Z" fill="#27D3BC"/>
<mask id="mask0_2231_34442" style="mask-type:luminance" maskUnits="userSpaceOnUse" x="9" y="6" width="33" height="33">
<path fill-rule="evenodd" clip-rule="evenodd" d="M11.233 16.21C7.784 24.087 11.373 33.268 19.251 36.716C27.128 40.165 36.308 36.575 39.757 28.698C43.206 20.821 39.616 11.641 31.739 8.193C29.706 7.303 27.588 6.881 25.502 6.882C19.506 6.882 13.791 10.366 11.233 16.21Z" fill="white"/>
</mask>
<g mask="url(#mask0_2231_34442)">
<path fill-rule="evenodd" clip-rule="evenodd" d="M24.3679 6.66195C21.1532 9.14211 18.0472 13.19 15.8412 18.2277C13.6358 23.2654 12.768 28.2935 13.1259 32.3379C13.4856 36.4033 15.063 39.3481 17.6097 40.4632C20.157 41.5783 23.391 40.74 26.6223 38.2468C29.8369 35.7666 32.9427 31.7184 35.1482 26.6807C37.3536 21.643 38.2214 16.6149 37.8635 12.5705C37.5038 8.50515 35.9264 5.56037 33.3797 4.44525M24.3679 6.66195C27.5992 4.16892 30.833 3.33064 33.3797 4.44525ZM23.757 5.8702C27.1117 3.282 30.7434 2.19981 33.7807 3.52915C36.818 4.85905 38.4861 8.26179 38.8596 12.4824C39.235 16.724 38.3238 21.9204 36.0642 27.0817C33.8047 32.243 30.6045 36.4373 27.2331 39.0386C23.8784 41.6269 20.2464 42.7091 17.2087 41.3792C14.1714 40.0493 12.5033 36.6466 12.1298 32.426C11.7544 28.1844 12.6656 22.988 14.9252 17.8267C17.1852 12.6654 20.3857 8.47128 23.757 5.8702Z" fill="#062846"/>
<path fill-rule="evenodd" clip-rule="evenodd" d="M16.9512 40.7202L33.1222 3.78716L34.0382 4.18824L17.8672 41.1212L16.9512 40.7202Z" fill="#062846"/>
<path fill-rule="evenodd" clip-rule="evenodd" d="M15.6111 10.0862C11.5457 10.4459 8.60092 12.0233 7.48583 14.57C6.37073 17.1167 7.209 20.3505 9.70217 23.5817C12.1824 26.7962 16.2306 29.902 21.2683 32.1075C26.306 34.3129 31.3341 35.1807 35.3785 34.8228C39.4439 34.4631 42.3887 32.8857 43.5038 30.339C44.6189 27.7923 43.7806 24.5585 41.2874 21.3273C38.8072 18.1128 34.759 15.007 29.7213 12.8015C24.6836 10.5961 19.6555 9.72828 15.6111 10.0862ZM15.523 9.09007C19.7646 8.71472 24.961 9.62591 30.1223 11.8855C35.2836 14.145 39.4779 17.3452 42.0792 20.7164C44.6675 24.071 45.7497 27.7027 44.4198 30.74C43.0899 33.7773 39.6872 35.4454 35.4666 35.8189C31.225 36.1943 26.0286 35.2831 20.8673 33.0235C15.706 30.764 11.5117 27.5638 8.91045 24.1926C6.32211 20.838 5.23988 17.2063 6.56979 14.169C7.89969 11.1317 11.3024 9.46356 15.523 9.09007Z" fill="#062846"/>
<path fill-rule="evenodd" clip-rule="evenodd" d="M7.22762 13.9115L44.1626 30.0815L43.7616 30.9975L6.82657 14.8275L7.22762 13.9115Z" fill="#062846"/>
</g>
<path fill="currentColor" fill-rule="evenodd" clip-rule="evenodd" d="M17.578 40.536L33.412 4.373C43.398 8.745 47.949 20.385 43.577 30.371C39.205 40.357 27.565 44.908 17.578 40.536Z" stroke="#062846"/>
<path fill="currentColor" d="M34.8003 1.201L33.4113 4.373" stroke="#062846"/>
<path fill="currentColor" d="M17.578 40.536L16.189 43.708" stroke="#062846"/>
<path fill-rule="evenodd" clip-rule="evenodd" d="M23.209 48.055H36.571V45.139H23.209V48.055Z" fill="#146A5E"/>
<path fill-rule="evenodd" clip-rule="evenodd" d="M17.938 51.201H41.842V48.055H17.938V51.201Z" fill="#146A5E"/>
<path fill-rule="evenodd" clip-rule="evenodd" d="M41.3422 51.2011V48.0551H42.3422V51.2011H41.3422Z" fill="#062846"/>
<path fill-rule="evenodd" clip-rule="evenodd" d="M36.0711 48.055V45.139H37.0711V48.055H36.0711Z" fill="#062846"/>
<path fill-rule="evenodd" clip-rule="evenodd" d="M29.3904 45.1526V41.6986H30.3904V45.1526H29.3904Z" fill="#062846"/>
</svg>
