<svg width="20" height="20" viewBox="0 0 20 20" fill="none" xmlns="http://www.w3.org/2000/svg"><path fill="currentColor" d="M4.72917 12.7917C4.50694 12.375 4.32986 11.934 4.19792 11.4688C4.06597 11.0035 4 10.5139 4 10C4 8.31944 4.59028 6.88889 5.77083 5.70833C6.95139 4.52778 8.40278 3.95833 10.125 4L8.9375 2.8125L10 1.75L13 4.75L10 7.75L8.9375 6.6875L10.125 5.5C8.81944 5.47222 7.72222 5.90278 6.83333 6.79167C5.94444 7.68056 5.5 8.75 5.5 10C5.5 10.3056 5.52778 10.5972 5.58333 10.875C5.63889 11.1528 5.72222 11.4236 5.83333 11.6875L4.72917 12.7917ZM10 18.25L7 15.25L10 12.25L11.0625 13.3125L9.875 14.5C11.1806 14.5278 12.2778 14.0972 13.1667 13.2083C14.0556 12.3194 14.5 11.25 14.5 10C14.5 9.69444 14.4722 9.40278 14.4167 9.125C14.3611 8.84722 14.2778 8.57639 14.1667 8.3125L15.2708 7.20833C15.4931 7.625 15.6701 8.06597 15.8021 8.53125C15.934 8.99653 16 9.48611 16 10C16 11.6667 15.4097 13.0938 14.2292 14.2812C13.0486 15.4688 11.5972 16.0417 9.875 16L11.0625 17.1875L10 18.25Z"/></svg>