<svg width="52" height="52" viewBox="0 0 52 52" fill="none" xmlns="http://www.w3.org/2000/svg">
<g clip-path="url(#clip0_2231_34408)">
<path fill-rule="evenodd" clip-rule="evenodd" d="M1 11V37.524H6.908V48.702L16.897 37.524H50.98V11H1Z" fill="#5746B2"/>
<path fill-rule="evenodd" clip-rule="evenodd" d="M6.907 38.0236H1V37.0236H6.907V38.0236Z" fill="#062846"/>
<path fill-rule="evenodd" clip-rule="evenodd" d="M16.6726 37.0237H50.9803V38.0237H17.12L7.28013 49.0349L6.53447 48.3685L16.6726 37.0237Z" fill="#062846"/>
<path fill-rule="evenodd" clip-rule="evenodd" d="M10.7909 21.5388L13.2599 16.7498L15.5589 21.6218L20.8769 22.4898L16.9539 26.1828L17.7719 31.5088L13.0469 28.9178L8.23489 31.3418L9.23789 26.0478L5.44589 22.2208L10.7909 21.5388Z" fill="#FFC800"/>
<path fill-rule="evenodd" clip-rule="evenodd" d="M22.675 31.5449H46.534V16.7489H22.675V31.5449Z" fill="#796BC1"/>
<path fill-rule="evenodd" clip-rule="evenodd" d="M42.5832 22.0911H26.6252V21.0911H42.5832V22.0911Z" fill="#062846"/>
<path fill-rule="evenodd" clip-rule="evenodd" d="M42.5832 27.1219H26.6252V26.1219H42.5832V27.1219Z" fill="#062846"/>
<path fill-rule="evenodd" clip-rule="evenodd" d="M10.7909 21.5388L13.2599 16.7498L15.5589 21.6218L20.8769 22.4898L16.9539 26.1828L17.7719 31.5088L13.0469 28.9178L8.23489 31.3418L9.23789 26.0478L5.44589 22.2208L10.7909 21.5388Z" fill="#FFC800"/>
</g>
<defs>
<clipPath id="clip0_2231_34408">
<rect width="52" height="52" fill="white"/>
</clipPath>
</defs>
</svg>
