<svg width="52" height="52" viewBox="0 0 52 52" fill="none" xmlns="http://www.w3.org/2000/svg">
<path fill-rule="evenodd" clip-rule="evenodd" d="M19.621 13.5439C17.8292 16.7297 16.7064 21.1645 16.7064 26.09C16.7064 31.0153 17.8316 35.45 19.6258 38.6359C21.4288 41.8372 23.8419 43.68 26.3964 43.68C28.1544 43.68 29.8376 42.812 31.3121 41.2202C32.7881 39.6268 34.0291 37.332 34.8784 34.5634C34.9594 34.2994 35.239 34.151 35.503 34.232C35.767 34.313 35.9154 34.5926 35.8344 34.8566C34.9537 37.728 33.6497 40.1682 32.0457 41.8998C30.4403 43.633 28.5084 44.68 26.3964 44.68C23.3209 44.68 20.639 42.4728 18.7545 39.1266C16.8612 35.765 15.7064 31.1547 15.7064 26.09C15.7064 21.0255 16.8587 16.4153 18.7494 13.0536C20.6314 9.70744 23.3107 7.5 26.3864 7.5C29.8383 7.5 32.7887 10.2728 34.6894 14.3382C34.8063 14.5884 34.6983 14.886 34.4482 15.0029C34.198 15.1199 33.9004 15.0119 33.7835 14.7618C31.9441 10.8272 29.2545 8.5 26.3864 8.5C23.8321 8.5 21.4215 10.3426 19.621 13.5439Z" fill="#062846"/>
<path fill-rule="evenodd" clip-rule="evenodd" d="M38.3516 14.6379C38.3915 14.3646 38.6453 14.1754 38.9186 14.2153C41.3825 14.5746 43.4064 15.4808 44.5588 17.0432C46.301 19.4134 45.5449 22.5696 43.3008 25.6013C41.0363 28.6604 37.1483 31.7731 32.1897 34.2474C27.2283 36.7231 22.0921 38.1149 17.7865 38.353C15.6339 38.472 13.671 38.3036 12.0345 37.8251C10.3994 37.3469 9.05832 36.549 8.20355 35.3862C7.14167 33.9422 7.0068 32.1818 7.58319 30.3488C8.15599 28.5272 9.43615 26.604 11.259 24.7404C11.4521 24.543 11.7686 24.5395 11.966 24.7326C12.1634 24.9257 12.1669 25.2422 11.9739 25.4396C10.2167 27.2361 9.04684 29.0278 8.53714 30.6488C8.03104 32.2582 8.18115 33.6678 9.00922 34.7938C9.69445 35.726 10.816 36.4269 12.3152 36.8653C13.8131 37.3033 15.6564 37.4693 17.7313 37.3545C21.8808 37.1251 26.8846 35.777 31.7432 33.3526C36.6045 30.9269 40.3516 27.9046 42.497 25.0063C44.6626 22.0808 45.0912 19.4567 43.754 17.6368C42.8265 16.3792 41.1103 15.5455 38.7743 15.2048C38.501 15.1649 38.3118 14.9111 38.3516 14.6379Z" fill="#062846"/>
<path fill-rule="evenodd" clip-rule="evenodd" d="M12.4101 15.0497C10.8974 15.4424 9.75405 16.1086 9.03978 17.0187C8.07079 18.2496 7.94432 19.8817 8.64538 21.7765C8.74121 22.0355 8.60894 22.3231 8.34996 22.4189C8.09097 22.5148 7.80334 22.3825 7.70752 22.1235C6.92858 20.0183 7.00257 17.9898 8.25358 16.4007C9.14433 15.2661 10.5096 14.51 12.1588 14.0818C13.8097 13.6532 15.7772 13.5441 17.9254 13.7281C22.222 14.096 27.3127 15.6424 32.1934 18.2697C37.0712 20.8954 40.865 24.1251 43.0382 27.2508C45.1917 30.3481 45.8562 33.5243 44.0398 35.8387C43.1521 36.9705 41.7816 37.7359 40.132 38.164C39.8647 38.2333 39.5918 38.0729 39.5225 37.8056C39.4531 37.5383 39.6136 37.2654 39.8809 37.196C41.3913 36.8041 42.5407 36.1296 43.253 35.2214C44.6466 33.4459 44.2962 30.8119 42.2172 27.8217C40.1579 24.8599 36.5017 21.7246 31.7195 19.1503C26.9402 16.5776 21.9809 15.079 17.84 14.7244C15.7695 14.5471 13.9214 14.6574 12.4101 15.0497Z" fill="#062846"/>
<path d="M10.6064 28.4C11.9484 28.4 13.0364 27.312 13.0364 25.97C13.0364 24.6279 11.9484 23.54 10.6064 23.54C9.26434 23.54 8.17639 24.6279 8.17639 25.97C8.17639 27.312 9.26434 28.4 10.6064 28.4Z" fill="#5746B2"/>
<path d="M26.3864 31.09C29.1478 31.09 31.3864 28.8515 31.3864 26.09C31.3864 23.3286 29.1478 21.09 26.3864 21.09C23.6249 21.09 21.3864 23.3286 21.3864 26.09C21.3864 28.8515 23.6249 31.09 26.3864 31.09Z" fill="#FF492C"/>
<path d="M34.1064 17.68C35.4484 17.68 36.5364 16.5921 36.5364 15.25C36.5364 13.908 35.4484 12.82 34.1064 12.82C32.7643 12.82 31.6764 13.908 31.6764 15.25C31.6764 16.5921 32.7643 17.68 34.1064 17.68Z" fill="#5746B2"/>
<path d="M39.8464 40.15C41.1884 40.15 42.2764 39.062 42.2764 37.72C42.2764 36.3779 41.1884 35.29 39.8464 35.29C38.5043 35.29 37.4164 36.3779 37.4164 37.72C37.4164 39.062 38.5043 40.15 39.8464 40.15Z" fill="#5746B2"/>
</svg>
