<svg width="52" height="52" viewBox="0 0 52 52" fill="none" xmlns="http://www.w3.org/2000/svg">
<path fill-rule="evenodd" clip-rule="evenodd" d="M3 4.46069V21.1877H6.47V28.2267L12.797 21.0607L32.36 21.0997V4.46069H3Z" fill="#062846"/>
<path fill-rule="evenodd" clip-rule="evenodd" d="M18.9246 24.3462V40.9852L38.4866 40.9462L44.8136 48.1132V41.0732H48.2846V24.3462H18.9246Z" fill="#062846"/>
<path fill-rule="evenodd" clip-rule="evenodd" d="M18.9246 23.1573V39.8843H38.9456L44.8136 46.4503V39.8843H48.2846V23.1573H18.9246Z" fill="#A9EDE4"/>
<path fill-rule="evenodd" clip-rule="evenodd" d="M3.01169 3V19.727H6.48169V26.293L12.3487 19.727H32.3717V3H3.01169Z" fill="#27D3BC"/>
<path fill-rule="evenodd" clip-rule="evenodd" d="M29.4149 9.142H6.32089V8.142H29.4149V9.142Z" fill="#062846"/>
<path fill-rule="evenodd" clip-rule="evenodd" d="M22.3789 13.2998H6.32089V12.2998H22.3789V13.2998Z" fill="#062846"/>
<path fill-rule="evenodd" clip-rule="evenodd" d="M45.1811 29.663H22.0871V28.663H45.1811V29.663Z" fill="#062846"/>
<path fill-rule="evenodd" clip-rule="evenodd" d="M38.1451 33.8208H22.0871V32.8208H38.1451V33.8208Z" fill="#062846"/>
</svg>
