<svg width="52" height="52" viewBox="0 0 52 52" fill="none" xmlns="http://www.w3.org/2000/svg">
<path fill-rule="evenodd" clip-rule="evenodd" d="M31.691 49.1907H48.821V32.0607H31.691V49.1907Z" fill="#FFC800"/>
<path fill-rule="evenodd" clip-rule="evenodd" d="M24.0666 12.033C24.0666 6.492 19.5746 2 14.0336 2C8.4916 2 3.9996 6.492 3.9996 12.033C3.9996 17.574 8.4916 22.066 14.0336 22.066C19.5746 22.066 24.0666 17.574 24.0666 12.033Z" fill="#FF492C"/>
<path fill-rule="evenodd" clip-rule="evenodd" d="M48.0301 20.1792C48.2318 20.3679 48.2424 20.6843 48.0538 20.886L44.3238 24.874C44.1351 25.0756 43.8187 25.0862 43.6171 24.8976L39.6291 21.1676C39.4274 20.9789 39.4168 20.6625 39.6054 20.4609C39.7941 20.2592 40.1105 20.2486 40.3121 20.4372L43.935 23.8257L47.3234 20.2029C47.5121 20.0012 47.8285 19.9906 48.0301 20.1792Z" fill="#062846"/>
<path fill-rule="evenodd" clip-rule="evenodd" d="M29.8708 9.89331C29.8708 9.61717 30.0947 9.39331 30.3708 9.39331C38.1689 9.39331 44.4908 15.7152 44.4908 23.5133C44.4908 23.7895 44.2669 24.0133 43.9908 24.0133C43.7147 24.0133 43.4908 23.7895 43.4908 23.5133C43.4908 16.2675 37.6167 10.3933 30.3708 10.3933C30.0947 10.3933 29.8708 10.1695 29.8708 9.89331Z" fill="#062846"/>
<path fill-rule="evenodd" clip-rule="evenodd" d="M10.7767 28.1136C10.9654 27.9119 11.2818 27.9013 11.4834 28.0899L15.4714 31.8199C15.6731 32.0086 15.6837 32.325 15.4951 32.5267C15.3064 32.7283 14.99 32.7389 14.7884 32.5503L11.1655 29.1618L7.77707 32.7847C7.58844 32.9863 7.27203 32.9969 7.07035 32.8083C6.86868 32.6196 6.8581 32.3032 7.04673 32.1016L10.7767 28.1136Z" fill="#062846"/>
<path fill-rule="evenodd" clip-rule="evenodd" d="M11.1096 29.1231C11.3857 29.1231 11.6096 29.347 11.6096 29.6231C11.6096 36.869 17.4837 42.7431 24.7296 42.7431C25.0057 42.7431 25.2296 42.967 25.2296 43.2431C25.2296 43.5193 25.0057 43.7431 24.7296 43.7431C16.9315 43.7431 10.6096 37.4213 10.6096 29.6231C10.6096 29.347 10.8335 29.1231 11.1096 29.1231Z" fill="#062846"/>
</svg>
