<svg width="52" height="52" viewBox="0 0 52 52" fill="none" xmlns="http://www.w3.org/2000/svg">
<path fill-rule="evenodd" clip-rule="evenodd" d="M32.8356 38.1765C37.2776 35.7315 40.2896 31.0065 40.2896 25.5765C40.2896 17.6375 33.8536 11.2025 25.9146 11.2025C17.9756 11.2025 11.5396 17.6375 11.5396 25.5765C11.5396 31.0065 14.5516 35.7315 18.9936 38.1765" fill="#FFC800"/>
<path fill-rule="evenodd" clip-rule="evenodd" d="M18.994 45.994H32.836V38.176H18.994V45.994Z" fill="#AB7823"/>
<path fill="currentColor" d="M23.39 38.1819V25.9469H28.439V38.1819" stroke="#062846" stroke-width="0.935" stroke-linejoin="round"/>
<path fill="currentColor" fill-rule="evenodd" clip-rule="evenodd" d="M20.9567 25.9471H23.3897V23.5141C23.3897 22.5811 22.6347 21.8261 21.7017 21.8261H20.9567C20.0247 21.8261 19.2687 22.5811 19.2687 23.5141V24.2591C19.2687 25.1911 20.0247 25.9471 20.9567 25.9471Z" stroke="#062846" stroke-linecap="round" stroke-linejoin="round"/>
<path fill="currentColor" fill-rule="evenodd" clip-rule="evenodd" d="M30.8726 25.9471H28.4396V23.5141C28.4396 22.5811 29.1946 21.8261 30.1276 21.8261H30.8726C31.8046 21.8261 32.5606 22.5811 32.5606 23.5141V24.2591C32.5606 25.1911 31.8046 25.9471 30.8726 25.9471Z" stroke="#062846" stroke-linecap="round" stroke-linejoin="round"/>
<path fill-rule="evenodd" clip-rule="evenodd" d="M32.8356 42.5953H18.9936V41.6603H32.8356V42.5953Z" fill="#062846"/>
<path fill-rule="evenodd" clip-rule="evenodd" d="M40.2896 25.0765C40.5657 25.0765 40.7896 25.3004 40.7896 25.5765C40.7896 31.1962 37.6718 36.0852 33.0767 38.6145C32.8348 38.7477 32.5307 38.6595 32.3976 38.4176C32.2644 38.1757 32.3526 37.8716 32.5945 37.7385C36.8834 35.3777 39.7896 30.8168 39.7896 25.5765C39.7896 25.3004 40.0135 25.0765 40.2896 25.0765Z" fill="#062846"/>
<path fill-rule="evenodd" clip-rule="evenodd" d="M11.0396 25.5771C11.0396 17.362 17.6995 10.7021 25.9146 10.7021C26.1907 10.7021 26.4146 10.926 26.4146 11.2021C26.4146 11.4782 26.1907 11.7021 25.9146 11.7021C18.2517 11.7021 12.0396 17.9142 12.0396 25.5771C12.0396 30.8164 14.9458 35.3773 19.2347 37.7381C19.4766 37.8712 19.5648 38.1753 19.4316 38.4172C19.2985 38.6591 18.9944 38.7473 18.7525 38.6141C14.1574 36.0849 11.0396 31.1958 11.0396 25.5771Z" fill="#062846"/>
<path fill-rule="evenodd" clip-rule="evenodd" d="M33.5388 1.02432C33.8016 1.10923 33.9458 1.39108 33.8609 1.65384L32.6019 5.54984C32.517 5.81261 32.2351 5.95678 31.9724 5.87187C31.7096 5.78696 31.5654 5.50511 31.6503 5.24235L32.9093 1.34635C32.9942 1.08359 33.2761 0.939409 33.5388 1.02432Z" fill="#062846"/>
<path fill-rule="evenodd" clip-rule="evenodd" d="M47.1976 11.6599C47.3443 11.8939 47.2736 12.2025 47.0397 12.3492L43.6657 14.4652C43.4317 14.6119 43.1231 14.5412 42.9764 14.3073C42.8297 14.0733 42.9004 13.7647 43.1343 13.618L46.5083 11.502C46.7423 11.3553 47.0509 11.426 47.1976 11.6599Z" fill="#062846"/>
<path fill-rule="evenodd" clip-rule="evenodd" d="M45.9647 27.9125C46.0027 27.6389 46.2552 27.448 46.5287 27.4859L50.3977 28.0229C50.6713 28.0609 50.8622 28.3134 50.8242 28.5869C50.7863 28.8605 50.5338 29.0514 50.2603 29.0135L46.3913 28.4764C46.1177 28.4385 45.9268 28.186 45.9647 27.9125Z" fill="#062846"/>
<path fill-rule="evenodd" clip-rule="evenodd" d="M6.08871 29.32C6.14654 29.59 5.97452 29.8558 5.7045 29.9136L1.6045 30.7916C1.33448 30.8494 1.06871 30.6774 1.01088 30.4074C0.953059 30.1374 1.12508 29.8716 1.3951 29.8138L5.4951 28.9358C5.76512 28.878 6.03089 29.05 6.08871 29.32Z" fill="#062846"/>
<path fill-rule="evenodd" clip-rule="evenodd" d="M3.39286 13.2607C3.52212 13.0166 3.82472 12.9236 4.06874 13.0529L7.82175 15.0409C8.06577 15.1701 8.1588 15.4727 8.02954 15.7167C7.90028 15.9608 7.59767 16.0538 7.35365 15.9245L3.60065 13.9365C3.35663 13.8073 3.2636 13.5047 3.39286 13.2607Z" fill="#062846"/>
<path fill-rule="evenodd" clip-rule="evenodd" d="M16.2389 1.6558C16.4947 1.55195 16.7863 1.67519 16.8902 1.93106L18.4702 5.82406C18.574 6.07994 18.4508 6.37155 18.1949 6.47539C17.9391 6.57924 17.6474 6.456 17.5436 6.20013L15.9636 2.30713C15.8598 2.05126 15.983 1.75965 16.2389 1.6558Z" fill="#062846"/>
<path fill-rule="evenodd" clip-rule="evenodd" d="M29.8918 50.3291H21.9378L18.9938 45.9941H32.8358L29.8918 50.3291Z" fill="#734D00"/>
<mask id="mask0_2231_34435" style="mask-type:luminance" maskUnits="userSpaceOnUse" x="18" y="45" width="15" height="6">
<path fill-rule="evenodd" clip-rule="evenodd" d="M18.994 45.994L21.938 50.329H29.892L32.836 45.994" fill="white"/>
</mask>
<g mask="url(#mask0_2231_34435)">
<path fill-rule="evenodd" clip-rule="evenodd" d="M30.6357 50.3348H21.1937V49.3998H30.6357V50.3348Z" fill="#062846"/>
</g>
</svg>
