<svg xmlns="http://www.w3.org/2000/svg" width="28" height="28" fill="none"><path fill="#fff" d="M5.178 4.045h18.767v18.768H5.178z"/><path fill="#201f23" fill-rule="evenodd" d="M4.947 3.77h19.284v19.307h-.002l-1.296 1.154H3.77V5.068l1.154-1.299zm.438 18.845h5.86V18.61H8.173v-1.855H5.385zm7.58-4.005h-1.27v4.005h5.765V19.91h-1.149v-3.155h-3.346zm8.139 1.3h-3.195v2.705h5.86v-5.86h-2.665zm-12.47-1.762h3.87V14.28h-3.87zm-3.249-1.842h2.788v-2.488h3.072V10.54h-5.86zm15.047-4.526h-2.523v3.338h3.195v1.188h2.665v-5.765h-3.337zm-8.738 2.038h1.271v2.488h3.346v-1.188h1.15V11.78h-1.822v-1.24h-3.945zm4.407-2.5h3.869V7.45H16.1zM5.385 10.093h5.86v-5.86h-5.86zm6.31 0h3.944V6.988h1.821V4.232h-5.766zm6.214-3.104h2.523v3.104h3.337v-5.86h-5.86z" clip-rule="evenodd"/></svg>