<svg width="20" height="20" viewBox="0 0 20 20" fill="none" xmlns="http://www.w3.org/2000/svg">
<path d="M13.7393 1C16.0925 1.00008 17.9999 2.90843 18 5.26172C17.9998 7.61493 16.0925 9.52238 13.7393 9.52246C13.1132 9.52244 12.5188 9.38702 11.9834 9.14453L7.15918 13.9893L8.89355 15.7852L8.125 16.5527L6.27441 14.7334L5.57031 15.3984L7.41992 17.2578L6.6582 18.0205L4.82031 16.2031L4.06836 16.9346L2 14.8037L9.86035 7.02539C9.61553 6.48786 9.47856 5.8909 9.47852 5.26172C9.47857 2.90843 11.386 1.00008 13.7393 1ZM13.8096 3.29199C12.7677 3.29199 11.9229 4.13686 11.9229 5.17871C11.9229 6.22051 12.7678 7.06543 13.8096 7.06543C14.8513 7.06534 15.6962 6.22046 15.6963 5.17871C15.6963 4.13691 14.8513 3.29208 13.8096 3.29199Z" fill="white"/>
</svg>
