<svg width="20" height="20" viewBox="0 0 20 20" fill="none" xmlns="http://www.w3.org/2000/svg"><path fill="currentColor" d="M8.22917 10C7.90708 10 7.64257 9.875 7.43563 9.625C7.22854 9.375 7.16667 9.09722 7.25 8.79167L7.60417 6.95833C7.71528 6.375 7.99653 5.90278 8.44792 5.54167C8.89931 5.18056 9.41333 5 9.99 5C10.58 5 11.1007 5.18056 11.5521 5.54167C12.0035 5.90278 12.2847 6.375 12.3958 6.95833L12.75 8.79167C12.8194 9.11389 12.7535 9.39583 12.5521 9.6375C12.3507 9.87917 12.0903 10 11.7708 10H8.22917ZM2.75187 11C2.44507 11.0139 2.18403 10.9514 1.96875 10.8125C1.75347 10.6736 1.61111 10.4681 1.54167 10.1958C1.51389 10.0792 1.50694 9.95486 1.52083 9.82292C1.53472 9.69097 1.56944 9.57639 1.625 9.47917L1.60417 9.41667C1.5625 9.375 1.49722 9.21035 1.40833 8.92271C1.38611 8.7659 1.40625 8.61806 1.46875 8.47917C1.53125 8.34028 1.61806 8.21528 1.72917 8.10417L1.77083 8.04167C1.79861 7.80556 1.90278 7.59722 2.08333 7.41667C2.26389 7.23611 2.47917 7.14583 2.72917 7.14583C2.79861 7.14583 2.93278 7.18056 3.13167 7.25L3.1875 7.22917C3.25694 7.15972 3.34257 7.10417 3.44438 7.0625C3.54632 7.02083 3.65458 7 3.76917 7C3.90917 7 4.03819 7.02431 4.15625 7.07292C4.27431 7.12153 4.36806 7.19444 4.4375 7.29167C4.45139 7.29167 4.46181 7.29514 4.46875 7.30208C4.47569 7.30903 4.48611 7.3125 4.5 7.3125C4.67778 7.32639 4.83333 7.38542 4.96667 7.48958C5.1 7.59375 5.20632 7.7316 5.28563 7.90312C5.31743 7.99549 5.32986 8.08681 5.32292 8.17708C5.31597 8.26736 5.29861 8.34924 5.27083 8.42271C5.27083 8.43507 5.27778 8.45958 5.29167 8.49625C5.375 8.58208 5.44444 8.68403 5.5 8.80208C5.55556 8.92014 5.58333 9.04167 5.58333 9.16667C5.58333 9.19444 5.54861 9.32639 5.47917 9.5625C5.46528 9.59028 5.46528 9.61806 5.47917 9.64583L5.52083 9.97917C5.52083 10.2594 5.39931 10.4997 5.15625 10.6998C4.91319 10.8999 4.63194 11 4.3125 11H2.75187ZM16.5104 11C16.0868 11 15.7292 10.8527 15.4375 10.5581C15.1458 10.2635 15 9.90938 15 9.49563C15 9.34521 15.0243 9.20417 15.0729 9.0725C15.1215 8.94083 15.1806 8.8125 15.25 8.6875L14.5833 8.10417C14.4722 7.99306 14.4479 7.86458 14.5104 7.71875C14.5729 7.57292 14.6944 7.5 14.875 7.5H16.5C16.9125 7.5 17.2656 7.64688 17.5594 7.94063C17.8531 8.23438 18 8.5875 18 9V9.375C18 9.82181 17.8576 10.2044 17.5729 10.5227C17.2882 10.8409 16.934 11 16.5104 11ZM0 15V13.75C0 13.0139 0.34375 12.4722 1.03125 12.125C1.71875 11.7778 2.54167 11.6042 3.5 11.6042C3.70833 11.6042 3.91667 11.6146 4.125 11.6354C4.33333 11.6563 4.54167 11.6875 4.75 11.7292C4.5 11.9792 4.3125 12.2951 4.1875 12.6771C4.0625 13.059 4 13.4167 4 13.75V15H0ZM5 15V13.7604C5 12.934 5.42361 12.2674 6.27083 11.7604C7.11806 11.2535 8.36111 11 10 11C11.6389 11 12.8819 11.2528 13.7292 11.7585C14.5764 12.2644 15 12.9282 15 13.75V15H5ZM16.5 11.6042C17.4583 11.6042 18.2812 11.7778 18.9688 12.125C19.6562 12.4722 20 13.0139 20 13.75V15H16V13.75C16 13.4167 15.941 13.059 15.8229 12.6771C15.7049 12.2951 15.5139 11.9792 15.25 11.7292C15.4583 11.6875 15.6652 11.6563 15.8706 11.6354C16.0759 11.6146 16.2857 11.6042 16.5 11.6042Z"/></svg>