<svg xmlns="http://www.w3.org/2000/svg" width="20" height="15" viewBox="0 0 20 15" fill="none">
  <path d="M2 14.0215C1.45 14.0215 0.98 13.8215 0.59 13.4315C0.2 13.0415 0 12.5715 0 12.0215V2.02148C0 1.47148 0.2 1.00148 0.59 0.611484C0.98 0.221484 1.45 0.0214844 2 0.0214844H18C18.55 0.0214844 19.02 0.221484 19.41 0.611484C19.8 1.00148 20 1.47148 20 2.02148V12.0215C20 12.5715 19.8 13.0415 19.41 13.4315C19.02 13.8215 18.55 14.0215 18 14.0215H2ZM2 12.0215H18V2.02148H2V12.0215ZM6 11.0215H14V9.02148H6V11.0215ZM3 8.02148H5V6.02148H3V8.02148ZM6 8.02148H8V6.02148H6V8.02148ZM9 8.02148H11V6.02148H9V8.02148ZM12 8.02148H14V6.02148H12V8.02148ZM15 8.02148H17V6.02148H15V8.02148ZM3 5.02148H5V3.02148H3V5.02148ZM6 5.02148H8V3.02148H6V5.02148ZM9 5.02148H11V3.02148H9V5.02148ZM12 5.02148H14V3.02148H12V5.02148ZM15 5.02148H17V3.02148H15V5.02148Z" fill="#201F23"/>
</svg>