<svg width="20" height="20" viewBox="0 0 20 20" fill="none" xmlns="http://www.w3.org/2000/svg"><path fill="currentColor" d="M5.5 16.3542V9.00002H6.39583C6.60417 9.00002 6.81597 9.01738 7.03125 9.0521C7.24653 9.08683 7.45139 9.13891 7.64583 9.20835L12.5625 10.9792C12.8958 11.1042 13.1736 11.3021 13.3958 11.5729C13.6181 11.8438 13.7292 12.1597 13.7292 12.5209C13.7292 12.6597 13.6771 12.7743 13.5729 12.8646C13.4688 12.9549 13.3403 13 13.1875 13H11.2917C11.1389 13 10.9896 12.9931 10.8438 12.9792C10.6979 12.9653 10.5486 12.9306 10.3958 12.875L9.33333 12.5L9 13.4375L10 13.7917C10.2083 13.8611 10.4201 13.9132 10.6354 13.9479C10.8507 13.9827 11.0694 14 11.2917 14H16.7292C17.1042 14 17.4097 14.1493 17.6458 14.4479C17.8819 14.7465 18 15.0972 18 15.5L11.5208 18L5.5 16.3542ZM1 18V9.00002H4V18H1ZM11 8.97919L8.1875 6.16669L9.22917 5.10419L11 6.87502L14.8958 2.97919L15.9583 4.04169L11 8.97919Z"/></svg>