<svg width="20" height="20" viewBox="0 0 20 20" fill="none" xmlns="http://www.w3.org/2000/svg"><path fill="currentColor" d="M14.3054 2.23741C14.2636 2.25927 14.2346 2.33462 14.1766 2.48533L13.6316 3.90227C13.5291 4.1689 13.4778 4.30223 13.398 4.41437C13.3274 4.51376 13.2405 4.60059 13.1411 4.67126C13.029 4.751 12.8957 4.80228 12.629 4.90483L11.212 5.4498C11.0613 5.50777 10.986 5.53675 10.9641 5.57859C10.9452 5.61485 10.9452 5.65809 10.9641 5.69436C10.986 5.7362 11.0613 5.76518 11.212 5.82314L12.629 6.36811C12.8957 6.47066 13.029 6.52194 13.1411 6.60168C13.2405 6.67235 13.3274 6.75919 13.398 6.85858C13.4778 6.97072 13.5291 7.10403 13.6316 7.37067L14.1766 8.78762C14.2346 8.93832 14.2636 9.01367 14.3054 9.03553C14.3417 9.05447 14.3849 9.05447 14.4212 9.03553C14.463 9.01367 14.492 8.93832 14.55 8.78762L15.095 7.37067C15.1975 7.10405 15.2488 6.97071 15.3285 6.85858C15.3992 6.75919 15.486 6.67235 15.5854 6.60168C15.6976 6.52194 15.8309 6.47066 16.0975 6.36811L17.5145 5.82314C17.6652 5.76518 17.7406 5.7362 17.7625 5.69436C17.7814 5.65809 17.7814 5.61485 17.7625 5.57859C17.7406 5.53675 17.6652 5.50777 17.5145 5.4498L16.0975 4.90483C15.8309 4.80228 15.6976 4.751 15.5854 4.67126C15.486 4.60059 15.3992 4.51376 15.3285 4.41437C15.2488 4.30223 15.1975 4.16891 15.095 3.90227L14.55 2.48533C14.492 2.33462 14.463 2.25927 14.4212 2.23741C14.3849 2.21847 14.3417 2.21847 14.3054 2.23741Z"/><path fill="currentColor" d="M7.72595 6.7432C7.65901 6.77817 7.61264 6.89874 7.51989 7.13986L6.64789 9.40697C6.4838 9.83359 6.40176 10.0469 6.27417 10.2263C6.16109 10.3853 6.02215 10.5243 5.86312 10.6374C5.68369 10.7649 5.47037 10.847 5.04374 11.0111L2.77657 11.883C2.53543 11.9758 2.41486 12.0221 2.37988 12.0891C2.34957 12.1471 2.34957 12.2163 2.37988 12.2743C2.41486 12.3413 2.53543 12.3876 2.77657 12.4804L5.04374 13.3523C5.47037 13.5164 5.68369 13.5984 5.86312 13.726C6.02215 13.8391 6.16109 13.978 6.27417 14.1371C6.40176 14.3165 6.4838 14.5298 6.64789 14.9564L7.5199 17.2235C7.61264 17.4647 7.65901 17.5852 7.72595 17.6202C7.78397 17.6505 7.85316 17.6505 7.91118 17.6202C7.97812 17.5852 8.02449 17.4647 8.11723 17.2235L8.98923 14.9564C9.15332 14.5298 9.23537 14.3165 9.36296 14.1371C9.47604 13.978 9.61498 13.8391 9.77401 13.726C9.95344 13.5984 10.1668 13.5164 10.5934 13.3523L12.8606 12.4804C13.1017 12.3876 13.2223 12.3413 13.2572 12.2743C13.2876 12.2163 13.2876 12.1471 13.2572 12.0891C13.2223 12.0221 13.1017 11.9758 12.8606 11.883L10.5934 11.0111C10.1668 10.847 9.95344 10.7649 9.77401 10.6374C9.61498 10.5243 9.47603 10.3854 9.36296 10.2263C9.23537 10.0469 9.15333 9.8336 8.98924 9.40698L8.11723 7.13986C8.02449 6.89874 7.97812 6.77817 7.91117 6.7432C7.85315 6.71289 7.78397 6.71289 7.72595 6.7432Z"/></svg>