<svg width="52" height="52" viewBox="0 0 52 52" fill="none" xmlns="http://www.w3.org/2000/svg">
<path fill-rule="evenodd" clip-rule="evenodd" d="M30.1143 4.54708C30.3644 4.61108 30.5153 4.86573 30.4513 5.11587L29.7293 7.93787C29.6653 8.188 29.4107 8.3389 29.1605 8.2749C28.9104 8.21091 28.7595 7.95625 28.8235 7.70612L29.5455 4.88412C29.6095 4.63398 29.8641 4.48308 30.1143 4.54708Z" fill="#062846"/>
<path fill-rule="evenodd" clip-rule="evenodd" d="M21.0661 5.68559C21.3033 5.58363 21.5782 5.69326 21.6802 5.93047L22.7832 8.49647C22.8852 8.73368 22.7755 9.00863 22.5383 9.11059C22.3011 9.21256 22.0262 9.10292 21.9242 8.86571L20.8212 6.29971C20.7192 6.06251 20.8289 5.78755 21.0661 5.68559Z" fill="#062846"/>
<path fill-rule="evenodd" clip-rule="evenodd" d="M33.3461 25.6117C33.5335 25.434 33.8294 25.4418 34.0071 25.6291L35.8741 27.5971C36.0518 27.7845 36.044 28.0804 35.8567 28.2581C35.6693 28.4358 35.3734 28.428 35.1957 28.2406L33.3287 26.2726C33.151 26.0853 33.1588 25.7894 33.3461 25.6117Z" fill="#062846"/>
<path fill-rule="evenodd" clip-rule="evenodd" d="M36.2005 19.0415C36.2162 18.7838 36.4379 18.5876 36.6956 18.6034L39.3506 18.7654C39.6083 18.7811 39.8045 19.0027 39.7887 19.2605C39.773 19.5182 39.5513 19.7143 39.2936 19.6986L36.6386 19.5366C36.3809 19.5209 36.1847 19.2992 36.2005 19.0415Z" fill="#062846"/>
<path fill-rule="evenodd" clip-rule="evenodd" d="M37.5045 9.89233C37.6635 10.0957 37.6276 10.3895 37.4242 10.5486L35.2232 12.2696C35.0198 12.4286 34.726 12.3927 34.5669 12.1893C34.4079 11.9859 34.4438 11.692 34.6472 11.533L36.8482 9.81201C37.0516 9.65297 37.3454 9.68893 37.5045 9.89233Z" fill="#062846"/>
<path fill-rule="evenodd" clip-rule="evenodd" d="M38.657 37.14H37.749L34.085 36.394L28.244 27.653C25.741 23.906 25.611 19.055 27.91 15.18V15.179L14.521 9.605L4.71199 24.102C3.68599 25.246 3.78199 27.005 4.92499 28.031L27.162 46.918L37.749 46.95H47.559V46.042C47.559 41.126 43.573 37.14 38.657 37.14Z" fill="#6EE0D1"/>
<path fill-rule="evenodd" clip-rule="evenodd" d="M19.7983 22.1358C19.7983 24.3988 17.9633 26.2338 15.7003 26.2338C13.4373 26.2338 11.6033 24.3988 11.6033 22.1358C11.6033 19.8728 13.4373 18.0378 15.7003 18.0378C17.9633 18.0378 19.7983 19.8728 19.7983 22.1358Z" fill="#1D9E8D"/>
<mask id="mask0_2231_34426" style="mask-type:luminance" maskUnits="userSpaceOnUse" x="4" y="9" width="44" height="38">
<path fill-rule="evenodd" clip-rule="evenodd" d="M4.71089 24.1022C3.68589 25.2462 3.78189 27.0042 4.92589 28.0302V28.0302L27.1619 46.9192L37.7489 46.9502H47.5589V46.0422C47.5589 41.1252 43.5729 37.1402 38.6569 37.1402V37.1402H37.7489L34.0859 36.3942L28.2449 27.6532C25.7409 23.9062 25.6109 19.0552 27.9099 15.1802V15.1802L27.9109 15.1792L14.5209 9.60519" fill="white"/>
</mask>
<g mask="url(#mask0_2231_34426)">
<path fill-rule="evenodd" clip-rule="evenodd" d="M47.5595 46.0395V46.9505H37.7525L27.1635 46.9155L4.92349 28.0255C3.77949 27.0095 3.68549 25.2465 4.71349 24.1025L5.36649 23.3675L28.2615 42.9105L46.9995 42.9455C47.3615 43.9025 47.5595 44.9535 47.5595 46.0395Z" fill="#1D9E8D"/>
<path fill-rule="evenodd" clip-rule="evenodd" d="M36.9752 36.9825L37.2432 42.9775L47.9862 43.0235V36.6875L39.9262 34.4215L36.9752 36.9825Z" fill="#1D9E8D"/>
<path fill-rule="evenodd" clip-rule="evenodd" d="M4.53891 22.0573L28.4398 42.4452L47.7504 42.4756L47.749 43.4106L28.2665 43.3799C28.1555 43.3797 28.0482 43.3401 27.9638 43.2681L3.93211 22.7687L4.53891 22.0573Z" fill="#062846"/>
<path fill-rule="evenodd" clip-rule="evenodd" d="M37.4427 36.0998V43.2598H36.5077V36.0998H37.4427Z" fill="#062846"/>
<path fill-rule="evenodd" clip-rule="evenodd" d="M29.6558 29.385L25.1931 31.2219L24.8372 30.3572L29.2999 28.5203L29.6558 29.385Z" fill="#062846"/>
<path fill-rule="evenodd" clip-rule="evenodd" d="M27.2111 25.3671L22.8037 26.2097L22.6281 25.2913L27.0355 24.4487L27.2111 25.3671Z" fill="#062846"/>
<path fill-rule="evenodd" clip-rule="evenodd" d="M22.3694 19.7017L26.7042 20.5453L26.5256 21.4631L22.1908 20.6195L22.3694 19.7017Z" fill="#062846"/>
<path fill-rule="evenodd" clip-rule="evenodd" d="M32.4794 33.5126L28.5358 35.6323L28.0932 34.8087L32.0367 32.6891L32.4794 33.5126Z" fill="#062846"/>
<path fill-rule="evenodd" clip-rule="evenodd" d="M13.4596 10.9264L27.6713 16.6803L27.3204 17.547L13.1087 11.7931L13.4596 10.9264Z" fill="#062846"/>
</g>
</svg>
