<svg width="52" height="52" viewBox="0 0 52 52" fill="none" xmlns="http://www.w3.org/2000/svg">
<path fill-rule="evenodd" clip-rule="evenodd" d="M22.8248 43.1679L28.3328 34.5664L38.6855 48.7616L43.3258 45.3762L33.4235 31.8028L43.7411 29.3568L15.4082 11.8833L22.8248 43.1679Z" fill="#FFC800"/>
<path fill-rule="evenodd" clip-rule="evenodd" d="M15.8948 11.7683L23.3115 43.0529L22.3384 43.2836L14.9218 11.999L15.8948 11.7683Z" fill="#062846"/>
<path fill-rule="evenodd" clip-rule="evenodd" d="M28.7369 34.2714L39.0897 48.4666L38.281 49.0564L27.9282 34.8612L28.7369 34.2714Z" fill="#062846"/>
<path fill-rule="evenodd" clip-rule="evenodd" d="M14.0686 4.48803C14.3373 4.42425 14.6068 4.59036 14.6706 4.85904L15.0844 6.60256C15.1482 6.87123 14.9821 7.14074 14.7134 7.20451C14.4447 7.26829 14.1752 7.10218 14.1115 6.8335L13.6976 5.08998C13.6338 4.8213 13.7999 4.5518 14.0686 4.48803Z" fill="#062846"/>
<path fill-rule="evenodd" clip-rule="evenodd" d="M20.2133 5.20527C20.4601 5.32917 20.5598 5.62966 20.4359 5.87645L19.6388 7.46425C19.5149 7.71104 19.2144 7.81066 18.9676 7.68677C18.7208 7.56287 18.6212 7.26238 18.7451 7.01559L19.5422 5.42779C19.6661 5.181 19.9666 5.08138 20.2133 5.20527Z" fill="#062846"/>
<path fill-rule="evenodd" clip-rule="evenodd" d="M24.4595 9.70338C24.569 9.9569 24.4522 10.2512 24.1987 10.3606L22.5667 11.0652C22.3132 11.1747 22.0189 11.0579 21.9095 10.8044C21.8 10.5509 21.9168 10.2566 22.1703 10.1472L23.8023 9.44254C24.0558 9.33308 24.35 9.44986 24.4595 9.70338Z" fill="#062846"/>
<path fill-rule="evenodd" clip-rule="evenodd" d="M11.5985 17.589C11.788 17.7898 11.7789 18.1063 11.5781 18.2958L10.2866 19.5151C10.0858 19.7046 9.7693 19.6955 9.57974 19.4947C9.39018 19.2939 9.3993 18.9775 9.6001 18.7879L10.8917 17.5687C11.0925 17.3791 11.4089 17.3882 11.5985 17.589Z" fill="#062846"/>
<path fill-rule="evenodd" clip-rule="evenodd" d="M9.90019 13.6529C9.91629 13.9286 9.70587 14.1651 9.4302 14.1812L7.65697 14.2848C7.38129 14.3009 7.14476 14.0905 7.12866 13.8148C7.11256 13.5392 7.32298 13.3026 7.59865 13.2865L9.37188 13.1829C9.64755 13.1668 9.88409 13.3773 9.90019 13.6529Z" fill="#062846"/>
<path fill-rule="evenodd" clip-rule="evenodd" d="M8.90175 7.88811C9.06667 7.66661 9.37991 7.62075 9.6014 7.78566L11.0264 8.84662C11.2479 9.01153 11.2937 9.32477 11.1288 9.54626C10.9639 9.76776 10.6507 9.81362 10.4292 9.64871L9.0042 8.58775C8.78271 8.42284 8.73684 8.1096 8.90175 7.88811Z" fill="#062846"/>
</svg>
