<svg width="52" height="52" viewBox="0 0 52 52" fill="none" xmlns="http://www.w3.org/2000/svg">
<path fill-rule="evenodd" clip-rule="evenodd" d="M32.0069 39.5905C32.0069 39.5905 27.4849 40.8015 20.4419 38.0285C13.3979 35.2565 10.9149 31.2875 10.9149 31.2875L17.2939 15.0825L38.3859 23.3855L32.0069 39.5905Z" fill="#5746B2"/>
<path fill-rule="evenodd" clip-rule="evenodd" d="M32 40C32 40 27.3927 40.8268 20.3707 38.0008C13.3477 35.1748 10.5 31.5 10.5 31.5L17.3967 15.0308L38.4257 23.4938L32 40Z" fill="#BCB5E0"/>
<path fill-rule="evenodd" clip-rule="evenodd" d="M50.896 29.46L24.074 28.801L4 11L30.822 11.658L50.896 29.46Z" fill="#5746B2"/>
<path fill-rule="evenodd" clip-rule="evenodd" d="M11.291 17.3833C11.4744 17.1765 11.7908 17.1575 11.9976 17.3409L24.3507 28.2955L50.2869 28.939C50.5632 28.9459 50.7817 29.1754 50.7748 29.4518C50.768 29.7281 50.5384 29.9466 50.2621 29.9397L23.9603 29.2872L11.3334 18.0898C11.1266 17.9064 11.1076 17.5901 11.291 17.3833Z" fill="#062846"/>
<path fill-rule="evenodd" clip-rule="evenodd" d="M4.04468 11.0362C4.22661 10.8281 4.54279 10.8069 4.7509 10.9888L12.3295 17.6232C12.5376 17.8051 12.5588 18.1213 12.3769 18.3294C12.1949 18.5375 11.8787 18.5587 11.6706 18.3768L4.09208 11.7424C3.88397 11.5605 3.86275 11.2443 4.04468 11.0362Z" fill="#062846"/>
<path fill-rule="evenodd" clip-rule="evenodd" d="M30.0261 21.2447C29.7651 21.9067 28.4001 21.9887 26.9761 21.4287C25.5521 20.8677 24.6091 19.8767 24.8691 19.2147C25.1301 18.5527 26.4961 18.4707 27.9201 19.0307C29.3441 19.5917 30.2871 20.5827 30.0261 21.2447Z" fill="#062846"/>
<path fill-rule="evenodd" clip-rule="evenodd" d="M27.9873 20.2042C28.0014 20.5021 27.7713 20.7551 27.4734 20.7692L15.6075 21.3309L15.5589 38.5313C15.5581 38.8295 15.3156 39.0706 15.0174 39.0698C14.7191 39.0689 14.4781 38.8265 14.4789 38.5282L14.5289 20.8142C14.5297 20.5265 14.756 20.29 15.0434 20.2764L27.4224 19.6904C27.7203 19.6763 27.9732 19.9063 27.9873 20.2042Z" fill="#FFC800"/>
<path fill-rule="evenodd" clip-rule="evenodd" d="M14.9799 38.9923L12.0079 43.9273L17.9989 43.8993L14.9799 38.9923Z" fill="#FFC800"/>
<path fill-rule="evenodd" clip-rule="evenodd" d="M16.5357 39.5066C16.5397 40.3646 15.8477 41.0636 14.9897 41.0676C14.1317 41.0716 13.4337 40.3796 13.4287 39.5216C13.4247 38.6636 14.1167 37.9646 14.9747 37.9606C15.8327 37.9566 16.5317 38.6486 16.5357 39.5066Z" fill="#FFC800"/>
<path fill-rule="evenodd" clip-rule="evenodd" d="M14.133 42.3798C14.3455 42.411 14.4926 42.6086 14.4614 42.8212L14.2924 43.9732C14.2612 44.1857 14.0636 44.3328 13.8511 44.3016C13.6385 44.2704 13.4915 44.0728 13.5226 43.8602L13.6916 42.7082C13.7228 42.4957 13.9204 42.3486 14.133 42.3798Z" fill="#062846"/>
<path fill-rule="evenodd" clip-rule="evenodd" d="M15.8144 42.3757C16.0266 42.3425 16.2256 42.4876 16.2588 42.6998L16.4388 43.8498C16.4721 44.0621 16.3269 44.2611 16.1147 44.2943C15.9024 44.3275 15.7034 44.1824 15.6702 43.9702L15.4902 42.8202C15.457 42.6079 15.6021 42.4089 15.8144 42.3757Z" fill="#062846"/>
</svg>
