<svg width="52" height="52" viewBox="0 0 52 52" fill="none" xmlns="http://www.w3.org/2000/svg">
<path fill-rule="evenodd" clip-rule="evenodd" d="M9.0004 5V47.931H42.8364V16.876L30.9594 5H9.0004Z" fill="#FFC800"/>
<path fill-rule="evenodd" clip-rule="evenodd" d="M30.9595 5V16.876H42.8355L30.9595 5Z" fill="#FFE99A"/>
<path fill-rule="evenodd" clip-rule="evenodd" d="M31.46 16.3763V5.0003H30.46V16.8763C30.46 17.1524 30.6839 17.3763 30.96 17.3763H42.836V16.3763H31.46Z" fill="#062846"/>
<path fill-rule="evenodd" clip-rule="evenodd" d="M8.5 47.9312V5.0002H9.5V47.4312H42.836V48.4312H9C8.72386 48.4312 8.5 48.2073 8.5 47.9312Z" fill="#062846"/>
<path fill-rule="evenodd" clip-rule="evenodd" d="M21.7311 26.7409C21.9264 26.5457 22.243 26.5457 22.4383 26.7409L25.9857 30.2884L29.3981 26.8759C29.5934 26.6807 29.91 26.6807 30.1053 26.8759C30.3005 27.0712 30.3005 27.3878 30.1053 27.5831L26.3393 31.3491C26.2455 31.4428 26.1183 31.4955 25.9857 31.4955C25.8531 31.4955 25.7259 31.4428 25.6321 31.3491L21.7311 27.4481C21.5359 27.2528 21.5359 26.9362 21.7311 26.7409Z" fill="#062846"/>
<path fill-rule="evenodd" clip-rule="evenodd" d="M25.9852 22.458C26.2613 22.458 26.4852 22.6819 26.4852 22.958V30.995C26.4852 31.2711 26.2618 31.4955 25.9857 31.4955C25.7096 31.4955 25.4852 31.2711 25.4852 30.995V22.958C25.4852 22.6819 25.7091 22.458 25.9852 22.458Z" fill="#062846"/>
<path fill-rule="evenodd" clip-rule="evenodd" d="M17.8612 36.22V28.436H18.8612V35.72H32.9752V28.436H33.9752V36.22C33.9752 36.4961 33.7513 36.72 33.4752 36.72H18.3612C18.0851 36.72 17.8612 36.4961 17.8612 36.22Z" fill="#062846"/>
</svg>
