<svg width="20" height="20" viewBox="0 0 20 20" fill="none" xmlns="http://www.w3.org/2000/svg"><path fill="currentColor" d="M4 15.5V14H5V9C5 7.79167 5.37153 6.72917 6.11458 5.8125C6.85764 4.89583 7.81944 4.32639 9 4.10417V3C9 2.72222 9.09722 2.48611 9.29167 2.29167C9.48611 2.09722 9.72222 2 10 2C10.2778 2 10.5139 2.09722 10.7083 2.29167C10.9028 2.48611 11 2.72222 11 3V4.10417C12.1806 4.32639 13.1424 4.89583 13.8854 5.8125C14.6285 6.72917 15 7.79167 15 9V14H16V15.5H4ZM9.99563 18C9.58188 18 9.22917 17.8531 8.9375 17.5594C8.64583 17.2656 8.5 16.9125 8.5 16.5H11.5C11.5 16.9167 11.3527 17.2708 11.0581 17.5625C10.7635 17.8542 10.4094 18 9.99563 18Z"/></svg>