<svg width="52" height="52" viewBox="0 0 52 52" fill="none" xmlns="http://www.w3.org/2000/svg">
<ellipse cx="26" cy="46" rx="9" ry="2" fill="#E0A000"/>
<path fill-rule="evenodd" clip-rule="evenodd" d="M19.2897 18.122C19.2897 21.871 22.3287 24.909 26.0767 24.909C29.8257 24.909 32.8647 21.871 32.8647 18.122C32.8647 14.373 29.8257 11.335 26.0767 11.335C22.3287 11.335 19.2897 14.373 19.2897 18.122ZM26.0767 5C33.2997 5 39.1537 10.854 39.1537 18.077C39.1537 25.299 26.0767 46.001 26.0767 46.001C26.0767 46.001 12.9997 25.299 12.9997 18.077C12.9997 10.854 18.8547 5 26.0767 5Z" fill="#FFC800"/>
<path fill-rule="evenodd" clip-rule="evenodd" d="M31.231 23.1079C28.1054 25.9623 23.3978 26.0184 20.7266 23.0934C18.0553 20.1683 18.5373 15.4852 21.6629 12.6308C21.8668 12.4446 22.183 12.4589 22.3693 12.6628C22.5555 12.8667 22.5411 13.183 22.3372 13.3692C19.5524 15.9124 19.2246 19.9658 21.465 22.419C23.7054 24.8722 27.7718 24.9127 30.5566 22.3695C30.7605 22.1833 31.0768 22.1976 31.263 22.4015C31.4492 22.6054 31.4349 22.9217 31.231 23.1079Z" fill="#062846"/>
<path fill-rule="evenodd" clip-rule="evenodd" d="M18.7481 33.5681C18.5095 33.7073 18.429 34.0134 18.5681 34.2519L25.5681 46.2519C25.6572 46.4046 25.8202 46.4989 25.9969 46.5C26.1736 46.5011 26.3378 46.4088 26.4288 46.2572L27.9288 43.7572C28.0708 43.5205 27.994 43.2133 27.7573 43.0713C27.5205 42.9292 27.2133 43.006 27.0713 43.2428L26.0061 45.0181L19.4319 33.7481C19.2928 33.5095 18.9866 33.429 18.7481 33.5681Z" fill="#062846"/>
</svg>
