<svg width="52" height="52" viewBox="0 0 52 52" fill="none" xmlns="http://www.w3.org/2000/svg">
<path fill-rule="evenodd" clip-rule="evenodd" d="M37.8999 29.1999H14.0999C6.8649 29.1999 0.999901 23.3349 0.999901 16.0999C0.999901 8.86491 6.8649 2.99991 14.0999 2.99991H37.8999C45.1349 2.99991 50.9999 8.86491 50.9999 16.0999C50.9999 23.3349 45.1349 29.1999 37.8999 29.1999Z" fill="#146A5E"/>
<path fill-rule="evenodd" clip-rule="evenodd" d="M28.4664 18.7952L34.1154 9.72919L37.5324 13.1462L28.4664 18.7952Z" fill="#D4F3EF"/>
<path fill-rule="evenodd" clip-rule="evenodd" d="M23.6335 18.7952L17.9845 9.72919L14.5675 13.1462L23.6335 18.7952Z" fill="#D4F3EF"/>
<path fill-rule="evenodd" clip-rule="evenodd" d="M26.05 17.3794L23.634 6.9744H28.466L26.05 17.3794Z" fill="#D4F3EF"/>
<path fill-rule="evenodd" clip-rule="evenodd" d="M23.3686 19.2196L14.3026 13.5706L14.8314 12.7218L23.8974 18.3708L23.3686 19.2196Z" fill="#062846"/>
<path fill-rule="evenodd" clip-rule="evenodd" d="M25.5763 23.2842L37.4833 48.7082L40.8053 38.5132L51.0003 35.1912L25.5763 23.2842Z" fill="#27D3BC"/>
<path fill-rule="evenodd" clip-rule="evenodd" d="M37.0305 48.9203L25.1235 23.4963L26.0291 23.0721L37.9361 48.4961L37.0305 48.9203Z" fill="#062846"/>
</svg>
