<svg width="20" height="20" viewBox="0 0 20 20" fill="none" xmlns="http://www.w3.org/2000/svg"><path fill="currentColor" d="M5.49417 18C5.08139 18 4.72917 17.8531 4.4375 17.5594C4.14583 17.2656 4 16.9125 4 16.5V3.5C4 3.0875 4.14687 2.73438 4.44062 2.44063C4.73437 2.14688 5.0875 2 5.5 2H12L16 6V16.5C16 16.9125 15.8531 17.2656 15.5592 17.5594C15.2653 17.8531 14.9119 18 14.4992 18H5.49417ZM9.25 16H10.75V15H11C11.2833 15 11.5208 14.9042 11.7125 14.7125C11.9042 14.5208 12 14.2833 12 14V12.5C12 12.2167 11.9042 11.9792 11.7125 11.7875C11.5208 11.5958 11.2833 11.5 11 11.5H9V10H12V9H10.75V8H9.25V9H9C8.71667 9 8.47917 9.09583 8.2875 9.2875C8.09583 9.47917 8 9.71667 8 10V11.5C8 11.7833 8.09583 12.0208 8.2875 12.2125C8.47917 12.4042 8.71667 12.5 9 12.5H11V14H8V15H9.25V16ZM11 7H14.5L11 3.5V7Z"/></svg>