<svg width="52" height="52" viewBox="0 0 52 52" fill="none" xmlns="http://www.w3.org/2000/svg">
<path fill-rule="evenodd" clip-rule="evenodd" d="M13.494 12.8604C9.74 16.6144 9.62 22.5804 13.225 26.1854C16.831 29.7914 22.797 29.6704 26.551 25.9174C30.304 22.1634 30.425 16.1974 26.819 12.5914C23.214 8.9864 17.248 9.1064 13.494 12.8604ZM36.045 19.3884C36.045 27.8874 28.871 34.7774 20.022 34.7774C11.173 34.7774 4 27.8874 4 19.3884C4 10.8894 11.173 3.9994 20.022 3.9994C28.871 3.9994 36.045 10.8894 36.045 19.3884Z" fill="#FFC800"/>
<path fill-rule="evenodd" clip-rule="evenodd" d="M44.8924 45.4141L30.1604 31.2651L30.853 30.5439L45.585 44.6929L44.8924 45.4141Z" fill="#062846"/>
<path fill-rule="evenodd" clip-rule="evenodd" d="M30.5185 29.7298C36.2217 24.0265 36.3829 14.9904 30.9394 9.54695L31.6466 8.83984C37.5071 14.7004 37.2923 24.3702 31.2256 30.437C25.1589 36.5026 15.489 36.7185 9.62845 30.858L10.3356 30.1508C15.779 35.5943 24.8151 35.4322 30.5185 29.7298C30.5185 29.7298 30.5185 29.7298 30.5185 29.7298Z" fill="#062846"/>
<path fill-rule="evenodd" clip-rule="evenodd" d="M43.3545 47.2825L47.3665 43.2705L40.6795 36.5845L36.6685 40.5965L43.3545 47.2825Z" fill="#288DFF"/>
<path fill-rule="evenodd" clip-rule="evenodd" d="M13.3235 12.6899C17.0482 8.96425 22.997 8.82341 26.6095 12.4359L25.9024 13.1431C22.707 9.94763 17.3919 10.0348 14.0306 13.397L14.0305 13.3971C10.6682 16.7584 10.5811 22.0735 13.7765 25.2689L13.0694 25.9761C9.4569 22.3635 9.59773 16.4147 13.3234 12.69C13.3234 12.69 13.3234 12.6899 13.3235 12.6899Z" fill="#062846"/>
<path fill-rule="evenodd" clip-rule="evenodd" d="M47.7201 43.6241L43.7081 47.6361L43.0009 46.9289L47.0129 42.9169L47.7201 43.6241Z" fill="#062846"/>
</svg>
