<svg width="29" height="29" xmlns="http://www.w3.org/2000/svg"><g clip-path="url(#clip0_1996_6847)" fill-rule="evenodd" clip-rule="evenodd" fill="#fff"><path d="M28.284 24.332l-5.081-5.081a2.384 2.384 0 00-2.878-.386l-1.418-1.418a10.643 10.643 0 002.437-6.775C21.344 4.778 16.565 0 10.672 0 4.778 0 0 4.778 0 10.672c0 5.893 4.778 10.672 10.672 10.672 2.575 0 4.93-.91 6.775-2.438l1.418 1.419a2.424 2.424 0 00.386 2.878l5.08 5.081a2.44 2.44 0 001.722.716 2.44 2.44 0 001.721-.716l.496-.496a2.44 2.44 0 00.716-1.721 2.44 2.44 0 00-.716-1.721l.014-.014zM2.066 10.672a8.61 8.61 0 018.606-8.606 8.61 8.61 0 018.606 8.606 8.61 8.61 0 01-8.606 8.606 8.61 8.61 0 01-8.606-8.606zm24.758 15.657l-.495.495a.376.376 0 01-.262.11.376.376 0 01-.262-.11l-5.08-5.08a.333.333 0 010-.483l.536-.537a.333.333 0 01.482 0l5.081 5.081c.07.07.11.166.11.262a.376.376 0 01-.11.262z"/><path d="M5.508 9.64a1.04 1.04 0 00-1.033 1.032v2.754a1.04 1.04 0 001.033 1.033 1.04 1.04 0 001.033-1.033v-2.754a1.04 1.04 0 00-1.033-1.033zM8.95 5.508a1.04 1.04 0 00-1.032 1.033v6.885a1.04 1.04 0 001.033 1.033 1.04 1.04 0 001.032-1.033V6.54a1.04 1.04 0 00-1.032-1.033zm3.443 2.754a1.04 1.04 0 00-1.033 1.033v4.13a1.04 1.04 0 001.033 1.034 1.04 1.04 0 001.033-1.033V9.295a1.04 1.04 0 00-1.033-1.033zm4.475-.344a1.04 1.04 0 00-1.032-1.033 1.04 1.04 0 00-1.033 1.033v5.508a1.04 1.04 0 001.032 1.033 1.04 1.04 0 001.033-1.033V7.918z"/></g><defs><clipPath id="clip0_1996_6847"><path fill="#fff" d="M0 0h29v29H0z"/></clipPath></defs></svg>