<svg xmlns="http://www.w3.org/2000/svg" id="Layer_1" data-name="Layer 1" viewBox="0 0 1200 1200"><defs><style>.cls-2{fill:#e01e5a}.cls-3{fill:#36c5f0}.cls-4{fill:#2eb67d}.cls-5{fill:#ecb22e}</style></defs><path fill="#4a164b" d="M0 0h1200v1200H0z"/><path d="M362.63 707.89a86.32 86.32 0 1 1-86.31-86.31h86.31zM405.79 707.89a86.32 86.32 0 0 1 172.63 0v215.79a86.32 86.32 0 1 1-172.63 0z" class="cls-2"/><path d="M492.11 362.63a86.32 86.32 0 1 1 86.31-86.31v86.31zM492.11 405.79a86.32 86.32 0 0 1 0 172.63H276.32a86.32 86.32 0 1 1 0-172.63z" class="cls-3"/><path d="M837.37 492.11a86.32 86.32 0 1 1 86.31 86.31h-86.31zM794.21 492.11a86.32 86.32 0 0 1-172.63 0V276.32a86.32 86.32 0 1 1 172.63 0z" class="cls-4"/><path d="M707.89 837.37a86.32 86.32 0 1 1-86.31 86.31v-86.31zM707.89 794.21a86.32 86.32 0 0 1 0-172.63h215.79a86.32 86.32 0 1 1 0 172.63z" class="cls-5"/></svg>