<svg width="52" height="52" viewBox="0 0 52 52" fill="none" xmlns="http://www.w3.org/2000/svg">
<path fill-rule="evenodd" clip-rule="evenodd" d="M19.7263 4L22.2573 13.445H29.1723L31.6953 4.032L19.7263 4Z" fill="#1E6ABF"/>
<path fill-rule="evenodd" clip-rule="evenodd" d="M37.4718 44.82C37.6077 44.5524 37.9348 44.4456 38.2025 44.5815L39.8705 45.4285C40.1381 45.5644 40.2449 45.8916 40.109 46.1592C39.9731 46.4268 39.646 46.5336 39.3783 46.3977L37.7103 45.5507C37.4427 45.4148 37.3359 45.0877 37.4718 44.82Z" fill="#062846"/>
<path fill-rule="evenodd" clip-rule="evenodd" d="M39.9384 39.2988C39.9695 39.0002 40.2367 38.7834 40.5352 38.8144L44.4772 39.2244C44.7758 39.2555 44.9926 39.5227 44.9616 39.8212C44.9305 40.1198 44.6633 40.3367 44.3648 40.3056L40.4228 39.8956C40.1242 39.8645 39.9074 39.5973 39.9384 39.2988Z" fill="#062846"/>
<path fill-rule="evenodd" clip-rule="evenodd" d="M42.1222 32.4798C42.215 32.7652 42.0588 33.0719 41.7733 33.1647L39.7923 33.8087C39.5069 33.9015 39.2002 33.7453 39.1074 33.4598C39.0146 33.1744 39.1708 32.8677 39.4563 32.7749L41.4373 32.1309C41.7227 32.0381 42.0294 32.1943 42.1222 32.4798Z" fill="#062846"/>
<path fill-rule="evenodd" clip-rule="evenodd" d="M9.29862 32.4798C9.39142 32.1943 9.69806 32.0381 9.98352 32.1309L11.9645 32.7749C12.25 32.8677 12.4062 33.1744 12.3134 33.4598C12.2206 33.7453 11.9139 33.9015 11.6285 33.8087L9.64746 33.1647C9.362 33.0719 9.20582 32.7652 9.29862 32.4798Z" fill="#062846"/>
<path fill-rule="evenodd" clip-rule="evenodd" d="M11.4826 39.2988C11.5136 39.5973 11.2968 39.8645 10.9982 39.8956L7.05622 40.3056C6.75766 40.3367 6.49046 40.1198 6.45941 39.8212C6.42836 39.5227 6.64521 39.2555 6.94377 39.2244L10.8858 38.8144C11.1843 38.7834 11.4515 39.0002 11.4826 39.2988Z" fill="#062846"/>
<path fill-rule="evenodd" clip-rule="evenodd" d="M13.9324 44.7894C14.0852 45.0478 13.9996 45.3811 13.7413 45.5339L12.3093 46.3809C12.0509 46.5337 11.7176 46.4482 11.5648 46.1898C11.412 45.9315 11.4975 45.5981 11.7559 45.4453L13.1879 44.5983C13.4463 44.4455 13.7796 44.5311 13.9324 44.7894Z" fill="#062846"/>
<path fill-rule="evenodd" clip-rule="evenodd" d="M22.2569 12.9012H29.1729V13.9882H22.2569V12.9012Z" fill="#062846"/>
<path fill-rule="evenodd" clip-rule="evenodd" d="M19.7263 4L12.0143 11.711L17.2283 31.173L25.7153 26.906L19.7263 4Z" fill="#288DFF"/>
<path fill-rule="evenodd" clip-rule="evenodd" d="M25.7149 26.9059L34.1999 31.1749L39.4069 11.7439L31.6949 4.03189L25.7149 26.9059Z" fill="#288DFF"/>
<path fill-rule="evenodd" clip-rule="evenodd" d="M36.2869 37.478C36.2869 43.317 31.5539 48.05 25.7149 48.05C19.8759 48.05 15.1429 43.317 15.1429 37.478C15.1429 31.639 19.8759 26.906 25.7149 26.906C31.5539 26.906 36.2869 31.639 36.2869 37.478Z" fill="#FFC800"/>
<path fill-rule="evenodd" clip-rule="evenodd" d="M25.7148 41.349L22.4428 42.512L22.5388 39.041L20.4218 36.29L23.7518 35.308L25.7148 32.444L27.6778 35.308L31.0078 36.29L28.8908 39.041L28.9868 42.512L25.7148 41.349Z" fill="white"/>
<path fill-rule="evenodd" clip-rule="evenodd" d="M33.1105 44.3552C37.0163 40.4505 37.0163 34.1184 33.1104 30.2125L33.8791 29.4439C38.2094 33.7742 38.2095 40.7946 33.879 45.124L33.4947 44.7396L33.879 45.124C29.5486 49.4543 22.5283 49.4543 18.199 45.1239L18.9677 44.3553C22.8725 48.2611 29.2045 48.2612 33.1104 44.3553L33.1105 44.3552Z" fill="#062846"/>
</svg>
