<svg width="52" height="52" viewBox="0 0 52 52" fill="none" xmlns="http://www.w3.org/2000/svg">
<path fill-rule="evenodd" clip-rule="evenodd" d="M11.985 32.5414L3 48.1044H20.971H38.942L29.956 32.5414L20.971 16.9784L11.985 32.5414Z" fill="#27D3BC"/>
<mask id="mask0_2231_34434" style="mask-type:luminance" maskUnits="userSpaceOnUse" x="3" y="16" width="36" height="33">
<path fill-rule="evenodd" clip-rule="evenodd" d="M11.9853 32.5412L3.00031 48.1042H20.9703H38.9423L29.9563 32.5412L20.9703 16.9782" fill="white"/>
</mask>
<g mask="url(#mask0_2231_34434)">
<path fill-rule="evenodd" clip-rule="evenodd" d="M16.2816 25.1001L16.6066 25.9871L18.7526 24.0961L21.1876 26.1741L23.5376 24.0961L27.0106 26.7191L22.7536 16.4341L21.0516 15.5151L19.1266 15.6851C19.1266 15.6851 17.4586 21.2191 17.4586 21.2701C17.4586 21.3211 16.2816 25.1001 16.2816 25.1001" fill="#6EE0D1"/>
</g>
<mask id="mask1_2231_34434" style="mask-type:luminance" maskUnits="userSpaceOnUse" x="3" y="16" width="36" height="33">
<path fill-rule="evenodd" clip-rule="evenodd" d="M11.9853 32.5412L3.00031 48.1042H20.9703H38.9423L29.9563 32.5412L20.9703 16.9782" fill="white"/>
</mask>
<g mask="url(#mask1_2231_34434)">
<path fill-rule="evenodd" clip-rule="evenodd" d="M13.8147 23.6779C13.9826 23.4818 14.2777 23.4588 14.4739 23.6267L16.5069 25.3666L18.5399 23.6267C18.7149 23.477 18.9729 23.477 19.1479 23.6267L21.1812 25.3669L23.2193 23.6264C23.3942 23.477 23.6517 23.4771 23.8266 23.6265L26.1676 25.6265C26.3639 25.7942 26.3871 26.0893 26.2193 26.2856C26.0516 26.4819 25.7565 26.5051 25.5602 26.3373L23.5228 24.5967L21.4845 26.3374C21.3095 26.4868 21.0518 26.4867 20.8769 26.3371L18.8439 24.5972L16.8109 26.3371C16.6359 26.4868 16.3779 26.4868 16.2029 26.3371L13.8659 24.3371C13.6698 24.1692 13.6468 23.8741 13.8147 23.6779Z" fill="#062846"/>
</g>
<path fill-rule="evenodd" clip-rule="evenodd" d="M28.968 35.974L21.964 48.104H35.972H49.979L42.976 35.974L35.972 23.843L28.968 35.974Z" fill="#6EE0D1"/>
<path fill-rule="evenodd" clip-rule="evenodd" d="M30.9873 32.4764L32.1083 33.5414L34.4453 31.5414L36.7823 33.5414L39.1243 31.5414L40.8233 32.2464L35.9713 23.8424L30.9873 32.4764Z" fill="#27D3BC"/>
<mask id="mask2_2231_34434" style="mask-type:luminance" maskUnits="userSpaceOnUse" x="21" y="23" width="29" height="26">
<path fill-rule="evenodd" clip-rule="evenodd" d="M28.9683 35.9742L21.9643 48.1042H35.9713H49.9793L42.9753 35.9742L35.9713 23.8432" fill="white"/>
</mask>
<g mask="url(#mask2_2231_34434)">
<path fill-rule="evenodd" clip-rule="evenodd" d="M34.1416 31.1862C34.3166 31.0365 34.5746 31.0365 34.7496 31.1862L36.7829 32.9264L38.821 31.1859C38.9959 31.0365 39.2534 31.0366 39.4283 31.186L41.7693 33.186C41.9656 33.3537 41.9888 33.6488 41.821 33.8451C41.6533 34.0414 41.3582 34.0646 41.1619 33.8968L39.1245 32.1562L37.0862 33.8969C36.9112 34.0464 36.6535 34.0462 36.4786 33.8966L34.4456 32.1567L32.4126 33.8966C32.2376 34.0463 31.9796 34.0463 31.8046 33.8966L30.6361 32.8966C30.44 32.7287 30.417 32.4336 30.5849 32.2374C30.7528 32.0413 31.0479 32.0183 31.2441 32.1862L32.1086 32.9261L34.1416 31.1862Z" fill="#062846"/>
</g>
<path fill-rule="evenodd" clip-rule="evenodd" d="M41.4658 14.0804C41.4658 17.1144 39.0058 19.5744 35.9718 19.5744C32.9368 19.5744 30.4778 17.1144 30.4778 14.0804C30.4778 11.0464 32.9368 8.5864 35.9718 8.5864C39.0058 8.5864 41.4658 11.0464 41.4658 14.0804Z" fill="#FFC800"/>
<path fill-rule="evenodd" clip-rule="evenodd" d="M21.2048 16.5736C21.4284 16.7027 21.505 16.9887 21.3759 17.2123L3.40487 48.3382C3.27578 48.5618 2.98986 48.6385 2.76626 48.5094C2.54266 48.3803 2.46604 48.0944 2.59513 47.8708L20.5661 16.7447C20.6952 16.5211 20.9812 16.4445 21.2048 16.5736Z" fill="#062846"/>
<path fill-rule="evenodd" clip-rule="evenodd" d="M36.2108 23.441C36.4325 23.5733 36.5051 23.8603 36.3728 24.082L29.3621 35.8344L22.3723 48.3327C22.2463 48.558 21.9615 48.6385 21.7361 48.5125C21.5108 48.3865 21.4303 48.1017 21.5563 47.8763L28.5557 35.3609L35.5698 23.603C35.7021 23.3813 35.9891 23.3087 36.2108 23.441Z" fill="#062846"/>
<path fill-rule="evenodd" clip-rule="evenodd" d="M44.3052 14.8283C44.3657 14.5773 44.6183 14.423 44.8693 14.4836L47.1313 15.0296C47.3823 15.0901 47.5366 15.3427 47.4761 15.5937C47.4155 15.8447 47.1629 15.999 46.9119 15.9384L44.6499 15.3924C44.3989 15.3319 44.2446 15.0793 44.3052 14.8283Z" fill="#062846"/>
<path fill-rule="evenodd" clip-rule="evenodd" d="M41.2696 19.1384C41.4708 18.9767 41.7651 19.0087 41.9269 19.2099L43.3249 20.9489C43.4866 21.1501 43.4546 21.4444 43.2534 21.6062C43.0522 21.7679 42.7579 21.7359 42.5961 21.5347L41.1981 19.7957C41.0364 19.5945 41.0684 19.3002 41.2696 19.1384Z" fill="#062846"/>
<path fill-rule="evenodd" clip-rule="evenodd" d="M32.7682 2.55684C33.013 2.47462 33.278 2.60637 33.3603 2.85113L34.0503 4.90513C34.1325 5.14988 34.0007 5.41494 33.756 5.49716C33.5112 5.57938 33.2462 5.44762 33.1639 5.20287L32.4739 3.14887C32.3917 2.90412 32.5235 2.63906 32.7682 2.55684Z" fill="#062846"/>
<path fill-rule="evenodd" clip-rule="evenodd" d="M40.6586 3.15136C40.8936 3.25814 40.9976 3.53528 40.8908 3.77035L40.0118 5.70535C39.9051 5.94043 39.6279 6.04443 39.3928 5.93764C39.1578 5.83085 39.0538 5.55372 39.1606 5.31865L40.0396 3.38365C40.1463 3.14857 40.4235 3.04457 40.6586 3.15136Z" fill="#062846"/>
<path fill-rule="evenodd" clip-rule="evenodd" d="M46.463 8.31787C46.5681 8.55367 46.4622 8.83008 46.2264 8.93525L44.1884 9.84425C43.9526 9.94943 43.6762 9.84353 43.571 9.60773C43.4659 9.37193 43.5718 9.09552 43.8076 8.99034L45.8456 8.08134C46.0814 7.97617 46.3578 8.08206 46.463 8.31787Z" fill="#062846"/>
</svg>
