<svg width="52" height="52" viewBox="0 0 52 52" fill="none" xmlns="http://www.w3.org/2000/svg">
<path d="M25.1741 21.7075C27.0541 17.6175 26.3141 12.6175 22.9441 9.2475C18.6141 4.9175 11.5941 4.9175 7.2641 9.2475C2.9341 13.5775 2.9341 20.5975 7.2641 24.9275C10.6341 28.2975 15.6341 29.0375 19.7241 27.1575L39.2741 46.7075L44.7241 41.2575L42.7741 39.3075L47.3141 34.7675L41.5641 29.0175L37.0241 33.5575L25.1641 21.6975L25.1741 21.7075Z" fill="#FFC800"/>
<path d="M13.4042 19.6075C15.7348 19.6075 17.6242 17.7181 17.6242 15.3875C17.6242 13.0568 15.7348 11.1675 13.4042 11.1675C11.0736 11.1675 9.1842 13.0568 9.1842 15.3875C9.1842 17.7181 11.0736 19.6075 13.4042 19.6075Z" fill="#E0A000"/>
<path fill-rule="evenodd" clip-rule="evenodd" d="M23.2978 8.89395C26.8207 12.4169 27.5929 17.6428 25.6285 21.9163L24.7199 21.4987C26.5155 17.5922 25.8077 12.8181 22.5907 9.60106L23.2978 8.89395Z" fill="#062846"/>
<path fill-rule="evenodd" clip-rule="evenodd" d="M41.9281 28.6743L47.6681 34.4243C47.7618 34.5182 47.8143 34.6454 47.8142 34.778C47.8141 34.9107 47.7613 35.0378 47.6674 35.1315L43.1274 39.6615L42.4211 38.9536L46.607 34.7768L41.2204 29.3808L41.9281 28.6743Z" fill="#062846"/>
<path fill-rule="evenodd" clip-rule="evenodd" d="M6.91055 25.2811C2.38529 20.7558 2.38529 13.4192 6.91055 8.89395L7.61765 9.60106C3.48292 13.7358 3.48292 20.4392 7.61765 24.574C10.8347 27.791 15.6088 28.4988 19.5153 26.7032C19.7054 26.6158 19.9297 26.656 20.0777 26.804L39.2741 46.0004L44.3705 40.9039L45.0777 41.6111L39.6277 47.0611C39.4324 47.2563 39.1158 47.2563 38.9205 47.0611L19.6127 27.7532C15.4007 29.5361 10.346 28.7165 6.91055 25.2811Z" fill="#062846"/>
<path fill-rule="evenodd" clip-rule="evenodd" d="M10.7677 12.7511C9.31295 14.2058 9.31295 16.5592 10.7677 18.014C12.2224 19.4687 14.5758 19.4687 16.0306 18.014C17.4853 16.5592 17.4853 14.2058 16.0306 12.7511L16.7377 12.044C18.583 13.8892 18.583 16.8758 16.7377 18.7211C14.8924 20.5663 11.9058 20.5663 10.0606 18.7211C8.21532 16.8758 8.21532 13.8892 10.0606 12.044L10.7677 12.7511Z" fill="#062846"/>
<path fill-rule="evenodd" clip-rule="evenodd" d="M39.5506 36.084L44.0906 31.544L44.7977 32.2511L40.2577 36.7911L39.5506 36.084Z" fill="#062846"/>
</svg>
