<svg width="52" height="52" viewBox="0 0 52 52" fill="none" xmlns="http://www.w3.org/2000/svg">
<path fill-rule="evenodd" clip-rule="evenodd" d="M25.9996 39.594L13.1457 44.2L13.5189 30.4585L5.1996 19.5592L18.2879 15.672L25.9996 4.33334L33.7113 15.672L46.7996 19.5592L38.4803 30.4585L38.8535 44.2L25.9996 39.594Z" fill="#FF492C"/>
<path fill-rule="evenodd" clip-rule="evenodd" d="M26.3579 4.57706L18.6463 15.9157C18.5901 15.9983 18.5071 16.059 18.4113 16.0874L5.92528 19.7957L13.8634 30.1956C13.9235 30.2743 13.9548 30.3713 13.9521 30.4703L13.5961 43.5783L25.8534 39.1861C25.9479 39.1522 26.0513 39.1522 26.1458 39.1861L38.4031 43.5783L38.0471 30.4703C38.0444 30.3713 38.0757 30.2743 38.1358 30.1956L46.4551 19.2963L47.1441 19.8221L38.9176 30.5998L39.2866 44.1883C39.2905 44.3313 39.2236 44.467 39.1077 44.551C38.9918 44.6349 38.842 44.6562 38.7073 44.608L25.9996 40.0543L13.2919 44.608C13.1572 44.6562 13.0074 44.6349 12.8915 44.551C12.7757 44.467 12.7087 44.3313 12.7126 44.1883L13.0816 30.5998L4.85515 19.8221C4.76871 19.7088 4.74345 19.5603 4.7876 19.4249C4.83175 19.2894 4.93966 19.1843 5.07623 19.1438L18.0165 15.3006L25.6413 4.08966L26.3579 4.57706Z" fill="#062846"/>
</svg>
