<svg xmlns="http://www.w3.org/2000/svg" width="28" height="28" fill="none"><path fill="#fff" d="M13.56 24.805h-2.883v-7.55h2.883zM10.596 3.14c.568-.004 1.9.148 2.69.786s1.084.623 1.131.536V9.96c-.821.508-2.511 1.564-2.702 1.726-.238.203-1.666 1.25-2.071 2.37-.135.277-.424.935-.5 1.344s-.429.409-.596.357c-.29-.083-.809-.273-.88-1.25-.072-.976.119-1.083.262-1.737.09-.274.311-.872.369-.977H4.656c-.354-.051-1.057-.338-1.048-1.071.01-.733.505-1.044.75-1.107-.25-.139-.685-.237-.75-1.06-.065-.822.698-.991 1.048-1.166-.207-.123-.617-.507-.607-1.06.01-.552.504-.92.75-1.035h.988c-.346-.135-1-.557-.857-1.167.142-.61.63-.912.857-.988z"/><path fill="#201f23" fill-rule="evenodd" d="M19.448 12.374c1.043 0 1.302 1.228 1.086 2.21a9.5 9.5 0 0 1-.599 1.863h3.735c.605 0 1.1.494 1.1 1.098s-.495 1.098-1.1 1.098v.031c.605 0 1.1.494 1.1 1.099 0 .604-.495 1.098-1.1 1.098v.013l-.438.03a1.1 1.1 0 0 1 1.099 1.099c0 .604-.494 1.098-1.099 1.098h-.907c.605 0 1.098.494 1.098 1.099 0 .604-.494 1.098-1.098 1.098h-4.76c-2.309 0-3.537-1.401-3.537-1.401h-.116v1.319h-3.637V16.86h3.637v1.276c.692-.407 2.725-1.64 3.715-2.664.82-.852 1.327-2.252 1.407-2.746a.42.42 0 0 1 .414-.352M10.803 24.7h2.582v-7.311h-2.582zM10.699 2.692c1.21 0 2.14.368 2.768.737.262.154.47.31.627.438v-.835h3.373v8.63h-3.373v-1.073c-.25.151-.556.341-.886.556-.837.544-1.802 1.23-2.381 1.83-.382.397-.7.931-.932 1.435-.233.505-.37.955-.405 1.17a.68.68 0 0 1-.674.573c-.316 0-.586-.094-.802-.262a1.5 1.5 0 0 1-.46-.642c-.191-.49-.198-1.098-.082-1.625.14-.65.315-1.17.461-1.543h-3.34a1.362 1.362 0 0 1-.797-2.466 1.42 1.42 0 0 1-.565-1.124c0-.369.136-.732.45-.998q.182-.156.433-.254l.009-.018c-.254-.236-.454-.576-.454-.97 0-.696.527-1.273 1.203-1.352a1.35 1.35 0 0 1-.295-.844c0-.75.612-1.363 1.362-1.363zm-4.76.528a.837.837 0 0 0-.835.835c0 .459.376.834.835.834l1.287.002a.264.264 0 0 1 0 .525l-.027.001H5.032a.84.84 0 0 0-.835.834c0 .21.108.42.284.583.156.145.34.229.489.248l1.497.005a.264.264 0 0 1 0 .525l-1.45.002c-.5.002-.812.125-.995.28a.75.75 0 0 0-.263.597c0 .454.36.84.793.865l1.365.002a.264.264 0 0 1 0 .525H4.594a.84.84 0 0 0-.835.836c0 .459.375.835.835.835h4.141l-.166.37a9.3 9.3 0 0 0-.582 1.813c-.1.454-.085.951.06 1.32a.96.96 0 0 0 .29.417.75.75 0 0 0 .479.152.154.154 0 0 0 .153-.127v-.003c.046-.28.202-.777.447-1.307.29-.63.663-1.21 1.153-1.702.628-.613 1.565-1.273 2.351-1.784a34 34 0 0 1 1.174-.729v-5.38a3.6 3.6 0 0 0-.895-.71 4.9 4.9 0 0 0-2.5-.664z" clip-rule="evenodd"/></svg>