<svg width="20" height="20" viewBox="0 0 20 20" fill="none" xmlns="http://www.w3.org/2000/svg"><path fill="currentColor" d="M9.99919 17C8.05528 17 6.40278 16.3194 5.04167 14.9583C3.68056 13.5972 3 11.9444 3 10C3 8.05556 3.68007 6.40278 5.04021 5.04167C6.40035 3.68056 8.05195 3 9.99502 3C10.1764 3 10.3545 3.00694 10.5294 3.02083C10.7042 3.03472 10.8819 3.05556 11.0625 3.08333C10.5208 3.48611 10.0903 3.98611 9.77083 4.58333C9.45139 5.18056 9.29167 5.81944 9.29167 6.5C9.29167 7.68056 9.69792 8.67708 10.5104 9.48958C11.3229 10.3021 12.3194 10.7083 13.5 10.7083C14.1806 10.7083 14.8194 10.5486 15.4167 10.2292C16.0139 9.90972 16.5139 9.47917 16.9167 8.9375C16.9444 9.11806 16.9653 9.29577 16.9792 9.47065C16.9931 9.64552 17 9.82363 17 10.005C17 11.948 16.3192 13.5997 14.9575 14.9598C13.5959 16.3199 11.9431 17 9.99919 17Z"/></svg>