<svg width="20" height="20" viewBox="0 0 20 20" fill="none" xmlns="http://www.w3.org/2000/svg"><path fill="currentColor" d="M10.0019 13C10.6256 13 11.1806 12.8125 11.6667 12.4375C12.1528 12.0625 12.5139 11.5833 12.75 11H7.25C7.48611 11.5833 7.84785 12.0625 8.33521 12.4375C8.82257 12.8125 9.37812 13 10.0019 13ZM8 9.99996C8.27778 9.99996 8.51389 9.90274 8.70833 9.70829C8.90278 9.51385 9 9.27774 9 8.99996C9 8.72218 8.90278 8.48607 8.70833 8.29163C8.51389 8.09718 8.27778 7.99996 8 7.99996C7.72222 7.99996 7.48611 8.09718 7.29167 8.29163C7.09722 8.48607 7 8.72218 7 8.99996C7 9.27774 7.09722 9.51385 7.29167 9.70829C7.48611 9.90274 7.72222 9.99996 8 9.99996ZM12 9.99996C12.2778 9.99996 12.5139 9.90274 12.7083 9.70829C12.9028 9.51385 13 9.27774 13 8.99996C13 8.72218 12.9028 8.48607 12.7083 8.29163C12.5139 8.09718 12.2778 7.99996 12 7.99996C11.7222 7.99996 11.4861 8.09718 11.2917 8.29163C11.0972 8.48607 11 8.72218 11 8.99996C11 9.27774 11.0972 9.51385 11.2917 9.70829C11.4861 9.90274 11.7222 9.99996 12 9.99996ZM6.54167 5.45829L8.83333 2.49996C8.98347 2.29926 9.16188 2.15183 9.36854 2.05767C9.57507 1.96364 9.79097 1.91663 10.0163 1.91663C10.2415 1.91663 10.4549 1.96524 10.6562 2.06246C10.8576 2.15968 11.0347 2.30551 11.1875 2.49996L13.4792 5.45829L16.9792 6.60413C17.2986 6.71524 17.5486 6.90065 17.7292 7.16038C17.9097 7.41996 18 7.70677 18 8.02079C18 8.16968 17.979 8.31864 17.9369 8.46767C17.8947 8.61656 17.8254 8.75926 17.7292 8.89579L15.4792 12.0416L15.5625 15.4166C15.5625 15.8472 15.4167 16.2118 15.125 16.5104C14.8333 16.809 14.4849 16.9583 14.0796 16.9583C14.0543 16.9583 13.9236 16.9375 13.6875 16.8958L10 15.875L6.31146 16.8966C6.24271 16.9238 6.17708 16.9409 6.11458 16.9479C6.05208 16.9548 5.98938 16.9583 5.92646 16.9583C5.52382 16.9583 5.17153 16.809 4.86958 16.5104C4.56764 16.2118 4.42361 15.8472 4.4375 15.4166L4.52083 12.0416L2.27083 8.89579C2.17361 8.7569 2.10417 8.61801 2.0625 8.47913C2.02083 8.34024 2 8.19419 2 8.041C2 7.72197 2.09153 7.43038 2.27458 7.16621C2.45764 6.90204 2.71333 6.71468 3.04167 6.60413L6.54167 5.45829Z"/></svg>