<svg width="20" height="20" viewBox="0 0 20 20" fill="none" xmlns="http://www.w3.org/2000/svg"><path fill="currentColor" d="M3.5 10H16.5V7H3.5V10ZM16 18V15.5H13.5V14H16V11.5H17.5V14H20V15.5H17.5V18H16ZM3.5 16C3.09722 16 2.74653 15.853 2.44792 15.5591C2.14931 15.2652 2 14.9119 2 14.4992V5.4941C2 5.08137 2.14931 4.72917 2.44792 4.4375C2.74653 4.14583 3.09722 4 3.5 4H16.5C16.9028 4 17.2535 4.14688 17.5521 4.44063C17.8507 4.73438 18 5.0875 18 5.5V10H15.8125C14.7014 10 13.7882 10.3924 13.0729 11.1771C12.3576 11.9618 12 12.8889 12 13.9583V16H3.5Z"/></svg>