<svg width="20" height="20" viewBox="0 0 20 20" fill="none" xmlns="http://www.w3.org/2000/svg"><path fill="currentColor" d="M2.5 16C2.0875 16 1.73438 15.8531 1.44063 15.5594C1.14688 15.2656 1 14.9125 1 14.5V6H2.5V14.5H16.5V16H2.5ZM5.5 13C5.0875 13 4.73438 12.8531 4.44062 12.5594C4.14687 12.2656 4 11.9125 4 11.5V5.5C4 5.09722 4.14687 4.74653 4.44062 4.44792C4.73438 4.14931 5.0875 4 5.5 4H17.5C17.9028 4 18.2535 4.14931 18.5521 4.44792C18.8507 4.74653 19 5.09722 19 5.5V11.5C19 11.9125 18.8507 12.2656 18.5521 12.5594C18.2535 12.8531 17.9028 13 17.5 13H5.5ZM7 11.5C7 11.0972 6.85069 10.7465 6.55208 10.4479C6.25347 10.1493 5.90278 10 5.5 10V11.5H7ZM16 11.5H17.5V10C17.0833 10 16.7292 10.1493 16.4375 10.4479C16.1458 10.7465 16 11.0972 16 11.5ZM11.4896 11C12.191 11 12.7847 10.7604 13.2708 10.2812C13.7569 9.80208 14 9.21181 14 8.51042C14 7.80903 13.7569 7.21528 13.2708 6.72917C12.7847 6.24306 12.1944 6 11.5 6C10.7917 6 10.1979 6.24306 9.71875 6.72917C9.23958 7.21528 9 7.80556 9 8.5C9 9.20833 9.23958 9.80208 9.71875 10.2812C10.1979 10.7604 10.7882 11 11.4896 11ZM5.5 7C5.90278 7 6.25347 6.85312 6.55208 6.55937C6.85069 6.26562 7 5.9125 7 5.5H5.5V7ZM17.5 7V5.5H16C16 5.91667 16.1469 6.27083 16.4406 6.5625C16.7344 6.85417 17.0875 7 17.5 7Z"/></svg>