<svg width="159" height="159" viewBox="0 0 159 159" fill="none" xmlns="http://www.w3.org/2000/svg">
<rect width="158.476" height="158.476" rx="79.2381" fill="#EBE9F6"/>
<path d="M66.6668 57.2376C70.8572 53.0471 81.3334 49.9042 81.3334 49.9042C88.0382 47.3899 94.6032 50.6026 97.0477 53.0471C99.143 59.682 103.752 75.0471 105.429 83.428C107.105 91.809 97.0477 95.9995 91.8096 97.0471V105.428L98.0953 107.523C98.0953 112.063 94.5334 121.352 80.2858 122.19C66.0382 123.028 62.4762 112.761 62.4762 107.523L68.7619 105.428V92.8566C64.4661 94.084 61.2271 90.7305 59.3334 89.7137C54.7616 87.259 56.1905 83.2483 56.1905 80.2852C56.1905 76.9328 60.3809 73.9995 62.4762 72.9518C62.4762 72.9518 62.4763 61.428 66.6668 57.2376Z" fill="white"/>
<path d="M94.6414 84.2289C94.9074 83.7326 95.524 83.5478 96.0205 83.8176C96.5171 84.0858 96.7 84.7043 96.4318 85.1987C95.1746 87.518 92.7799 88.8367 90.3118 88.8368C89.195 88.8368 88.061 88.5678 87.0134 87.9979C86.5171 87.7296 86.3341 87.1111 86.6021 86.6167C86.8681 86.1204 87.4889 85.9337 87.9833 86.2054C90.3656 87.494 93.3528 86.6091 94.6414 84.2289Z" fill="#201F23"/>
<path d="M92.54 72.0646C92.9842 71.7189 93.6246 71.7985 93.9703 72.2426C94.9779 73.5333 95.183 75.2606 94.5084 76.7544C93.8338 78.2459 92.4021 79.2337 90.766 79.3325C90.7472 79.3346 90.7255 79.3345 90.7046 79.3345C90.1684 79.3345 89.7193 78.9153 89.6877 78.3749C89.6542 77.8135 90.0819 77.3324 90.6453 77.2986C91.5334 77.2442 92.2837 76.728 92.6526 75.9155C93.0192 75.1047 92.9109 74.1988 92.362 73.4969C92.0185 73.0508 92.0961 72.4125 92.54 72.0646Z" fill="#201F23"/>
<path d="M83.0398 68.8911C83.9321 68.8591 84.6793 69.558 84.7115 70.4502C84.7434 71.3423 84.0445 72.0923 83.1524 72.1219C82.2599 72.1542 81.5129 71.4573 81.4807 70.5648C81.4486 69.6725 82.1475 68.9233 83.0398 68.8911Z" fill="#201F23"/>
<path d="M76.0482 65.783C77.3054 63.8324 80.8116 60.6719 85.0901 62.677C85.5992 62.9158 85.82 63.5223 85.5811 64.0336C85.3422 64.5425 84.7357 64.7593 84.2245 64.5226C80.5085 62.781 77.8756 66.7126 77.7629 66.8879C77.5659 67.1875 77.2387 67.3524 76.9055 67.3524C76.7152 67.3523 76.5246 67.2974 76.3531 67.1887C75.882 66.883 75.7452 66.2543 76.0482 65.783Z" fill="#201F23"/>
<path fill-rule="evenodd" clip-rule="evenodd" d="M79.2381 26.8574C108.167 26.8574 131.619 50.3094 131.619 79.2384C131.619 93.7991 125.675 106.97 116.085 116.464L116.087 116.466C106.623 125.834 93.6062 131.619 79.2381 131.619C66.1102 131.619 54.1106 126.789 44.9184 118.811C33.8547 109.207 26.8572 95.0391 26.8572 79.2384C26.8572 50.3094 50.3092 26.8574 79.2381 26.8574ZM97.0354 58.9448C95.3886 53.0764 89.2991 49.6542 83.4306 51.3005L77.3884 52.9967C68.654 55.4482 63.4215 64.2598 65.2937 73.0099C70.1788 73.1569 74.0917 77.1597 74.0921 82.0804C74.0921 84.1767 73.3801 86.1054 72.1872 87.6418C73.715 89.3064 75.435 90.3898 76.8585 91.0752C77.5776 91.4215 78.2145 91.6597 78.6979 91.82C78.9877 91.1169 79.7391 90.6907 80.517 90.8379L85.133 91.7075C86.0219 91.8747 86.6072 92.7339 86.4405 93.6247L85.974 96.0883C85.8048 96.9774 84.948 97.5647 84.0588 97.3957L79.4427 96.5241C78.6937 96.3816 78.1604 95.7508 78.1107 95.0243C77.4747 94.8329 76.54 94.5104 75.4569 93.9889C74.0048 93.2898 72.2633 92.2266 70.6157 90.6517V107.565C66.4957 108.383 63.7167 109.431 63.6671 109.449C63.6854 109.542 65.8379 120.255 79.9072 120.255C94.0217 120.255 96.884 108.184 96.8901 108.158C96.8613 108.153 93.8626 107.592 89.5854 107.146V96.0637L92.6096 95.2146C100.085 93.1149 104.446 85.3553 102.347 77.8777L97.0354 58.9448ZM79.2381 29.012C51.4996 29.012 29.0118 51.4999 29.0118 79.2384C29.0118 94.5943 35.9071 108.337 46.766 117.55C48.5659 116.363 50.4344 115.248 52.3683 114.215C47.7267 109.908 44.8119 103.764 44.7813 96.9333C44.7416 87.6944 49.9878 79.6652 57.6801 75.717C54.3392 72.9965 51.9655 69.0121 51.0486 64.5349C48.8863 53.9896 54.8301 43.9226 64.2543 42.1645L76.4472 39.8892L83.7519 36.863C88.3698 34.948 93.5747 35.0246 98.4063 37.0758C103.986 39.4435 108.537 44.2343 110.894 50.2201C111.099 50.744 110.841 51.3366 110.317 51.5419C110.195 51.59 110.068 51.6136 109.944 51.6136C109.538 51.6135 109.154 51.369 108.995 50.969C106.839 45.488 102.689 41.1082 97.6103 38.9521C94.2221 37.5141 90.6368 37.1588 87.2671 37.8902C96.464 36.6285 105.285 43.712 107.184 54.0607C108.175 59.4608 107.376 64.731 105.24 69.1182C107.65 79.9459 110.615 98.4269 106.268 110.383C106.171 110.648 106.074 110.907 105.979 111.162C108.834 112.358 111.571 113.754 114.186 115.303C123.605 106.174 129.465 93.3918 129.465 79.2384C129.465 51.4999 106.977 29.012 79.2381 29.012ZM65.0155 75.1584C61.1922 75.1585 58.0938 78.2572 58.0934 82.0804C58.0934 85.904 61.1919 89.0024 65.0155 89.0025C68.8391 89.0025 71.9375 85.9041 71.9375 82.0804C71.9371 78.2571 68.8389 75.1584 65.0155 75.1584Z" fill="#201F23"/>
</svg>
