<svg width="28" height="13" viewBox="0 0 28 13" fill="none" xmlns="http://www.w3.org/2000/svg">
  <path fill="currentColor" d="M26.7314 11.8106C24.8813 7.50112 23.3544 4.24752 18.4603 3.32841C16.1243 2.88971 14.0198 3.83407 12.9268 6.01836C10.9379 9.99323 18.0779 10.0671 17.9321 6.52526C17.6647 0.0322185 9.23558 -0.150922 4.84615 1.90253C3.56699 2.50094 2.12305 3.20548 0.928103 3.93349C-0.108395 4.56495 0.899906 3.48981 1.17818 3.11434C1.6937 2.41874 1.96615 1.65508 2.47007 0.975129C3.35185 -0.214681 2.63157 1.00351 2.1983 1.52557C0.955454 3.02313 -0.45969 4.03384 2.10447 4.58746C2.62048 4.69887 5.21166 5.47905 5.03261 5.13735C4.52499 4.1686 4.43346 2.76747 3.90927 1.89499C3.19172 0.700677 3.15426 -0.200997 3.43575 1.85419C3.5276 2.52477 3.70069 3.1282 3.82013 3.77889C4.01697 4.85122 3.50704 3.4848 3.51813 3.33724C3.55033 2.90863 3.13498 2.07731 3.31051 3.03361C3.3557 3.27981 3.68788 4.23715 3.51649 3.98651C2.97536 3.19514 3.0537 1.61334 2.70792 2.27085C2.41735 2.8234 2.56056 3.18424 2.92831 3.65954C3.05349 3.82132 3.95969 4.10147 3.76492 3.81664" stroke="#8E1E0C" stroke-width="0.940491" stroke-linecap="round"/>
</svg>
