<svg width="52" height="52" viewBox="0 0 52 52" fill="none" xmlns="http://www.w3.org/2000/svg">
<path fill-rule="evenodd" clip-rule="evenodd" d="M35.1497 23.6846L32.2007 20.7356L36.9197 16.0166L39.8687 18.9656L35.1497 23.6846Z" fill="#FFAD99"/>
<path fill-rule="evenodd" clip-rule="evenodd" d="M36.3297 27.224L33.9697 24.865L41.0487 17.786L43.4087 20.145C44.0597 20.797 44.0597 21.853 43.4087 22.505L38.6887 27.224C38.0377 27.876 36.9817 27.876 36.3297 27.224Z" fill="#FF492C"/>
<path fill-rule="evenodd" clip-rule="evenodd" d="M14.2584 11.5702C13.4304 11.6302 13.0294 10.5482 13.7054 10.0672C20.2204 5.4412 29.3104 6.0482 35.1494 11.8862L38.0994 14.8362L31.0204 21.9152L26.3014 17.1962L23.3514 14.2462C21.0654 11.9602 16.8334 11.3842 14.2584 11.5702Z" fill="#FF492C"/>
<path fill-rule="evenodd" clip-rule="evenodd" d="M22.7618 30.1739L18.0428 25.4549L26.3008 17.1959L31.0208 21.9149L22.7618 30.1739Z" fill="#FFAD99"/>
<path fill-rule="evenodd" clip-rule="evenodd" d="M6.15209 44.239L3.97709 42.064C2.63909 40.725 2.68009 38.543 4.07009 37.256L17.4521 24.865L23.3521 30.763L10.9601 44.147C9.67409 45.536 7.49109 45.578 6.15209 44.239Z" fill="#FF492C"/>
<path fill-rule="evenodd" clip-rule="evenodd" d="M10.5935 43.8064L22.9845 30.4234L23.7191 31.1034L11.3281 44.4864L10.9608 44.1464L11.3281 44.4864C9.84818 46.0848 7.33774 46.1332 5.79789 44.5933L3.62289 42.4183L4.33071 41.7105L6.50571 43.8855C7.64386 45.0237 9.49942 44.9881 10.5935 43.8064Z" fill="#062846"/>
<path fill-rule="evenodd" clip-rule="evenodd" d="M19.0321 11.4954C20.7457 11.9136 22.4734 12.6603 23.7058 13.8926L23.7058 13.8927L26.6548 16.8427C26.85 17.038 26.85 17.3546 26.6547 17.5498C26.4594 17.745 26.1428 17.745 25.9476 17.5497L22.9986 14.5997C21.945 13.5461 20.4132 12.8618 18.795 12.4669C17.1822 12.0734 15.5324 11.9794 14.2942 12.0689C14.0188 12.0888 13.7794 11.8816 13.7595 11.6062C13.7396 11.3308 13.9468 11.0914 14.2222 11.0715C15.559 10.9749 17.3132 11.076 19.0321 11.4954Z" fill="#062846"/>
<path fill-rule="evenodd" clip-rule="evenodd" d="M34.7955 24.0385L31.8465 21.0895L32.5543 20.3817L35.5033 23.3307L34.7955 24.0385Z" fill="#062846"/>
<path fill-rule="evenodd" clip-rule="evenodd" d="M42.0174 29.9278C42.2903 29.8856 42.5458 30.0726 42.588 30.3455L43.025 33.1705C43.0672 33.4434 42.8802 33.6988 42.6073 33.741C42.3344 33.7832 42.079 33.5962 42.0368 33.3233L41.5998 30.4983C41.5575 30.2254 41.7445 29.97 42.0174 29.9278Z" fill="#062846"/>
<path fill-rule="evenodd" clip-rule="evenodd" d="M46.2691 27.1348C46.4062 26.8951 46.7117 26.812 46.9514 26.9491L49.3284 28.3091C49.5681 28.4463 49.6512 28.7517 49.5141 28.9914C49.3769 29.2311 49.0715 29.3142 48.8318 29.1771L46.4548 27.8171C46.2151 27.68 46.132 27.3745 46.2691 27.1348Z" fill="#062846"/>
<path fill-rule="evenodd" clip-rule="evenodd" d="M50.1084 20.6302C50.2103 20.8868 50.0848 21.1775 49.8282 21.2794L47.3222 22.2744C47.0655 22.3763 46.7749 22.2509 46.673 21.9942C46.5711 21.7376 46.6965 21.4469 46.9532 21.345L49.4592 20.35C49.7158 20.2481 50.0065 20.3735 50.1084 20.6302Z" fill="#062846"/>
</svg>
