<svg width="52" height="52" viewBox="0 0 52 52" fill="none" xmlns="http://www.w3.org/2000/svg">
<g clip-path="url(#clip0_2231_34390)">
<path fill-rule="evenodd" clip-rule="evenodd" d="M43.1561 24.3251C43.1651 34.0331 35.3021 41.9101 25.5941 41.9191C15.8861 41.9281 8.0091 34.0651 8.0001 24.3571C7.9911 14.6491 15.8541 6.7721 25.5621 6.7631C35.2701 6.7541 43.1471 14.6171 43.1561 24.3251Z" fill="#A9D1FF"/>
<path fill-rule="evenodd" clip-rule="evenodd" d="M44.5612 5.855L46.4432 8.353L48.9412 10.235L46.4432 12.116L44.5612 14.614L42.6792 12.116L40.1812 10.235L42.6792 8.353L44.5612 5.855Z" fill="#FFC800"/>
<path fill-rule="evenodd" clip-rule="evenodd" d="M39.6708 3L40.4798 4.073L41.5528 4.882L40.4798 5.69L39.6708 6.764L38.8618 5.69L37.7888 4.882L38.8618 4.073L39.6708 3Z" fill="#062846"/>
<path fill-rule="evenodd" clip-rule="evenodd" d="M25.5784 22.4277L26.3874 23.5007L27.4604 24.3097L26.3874 25.1177L25.5784 26.1917L24.7694 25.1177L23.6964 24.3097L24.7694 23.5007L25.5784 22.4277Z" fill="white"/>
<path fill-rule="evenodd" clip-rule="evenodd" d="M19.3871 13.9786L21.2691 16.4766L23.7671 18.3586L21.2691 20.2396L19.3871 22.7376L17.5051 20.2396L15.0071 18.3586L17.5051 16.4766L19.3871 13.9786Z" fill="white"/>
<path fill-rule="evenodd" clip-rule="evenodd" d="M42.6885 24.3258C42.6797 14.876 35.0122 7.22214 25.5624 7.2309C25.3042 7.23114 25.0947 7.02202 25.0945 6.76383C25.0943 6.50564 25.3034 6.29614 25.5616 6.2959C35.5278 6.28666 43.6143 14.3588 43.6235 24.325C43.6294 30.6687 40.3606 36.2505 35.4154 39.4721C35.1991 39.613 34.9095 39.5519 34.7685 39.3356C34.6276 39.1192 34.6887 38.8296 34.9051 38.6887C39.5963 35.6325 42.6941 30.3399 42.6885 24.3258ZM7.99957 23.8899C8.25776 23.8897 8.46726 24.0988 8.4675 24.357C8.47307 30.3599 11.5688 35.6384 16.2509 38.6887C16.4672 38.8296 16.5283 39.1192 16.3874 39.3356C16.2465 39.5519 15.9568 39.613 15.7405 39.4721C10.805 36.2567 7.53837 30.6897 7.5325 24.3578C7.53226 24.0996 7.74137 23.8901 7.99957 23.8899Z" fill="#062846"/>
<path fill-rule="evenodd" clip-rule="evenodd" d="M38.6788 47.1578H12.4778L15.4798 39.2358H35.6768L38.6788 47.1578Z" fill="#FFC800"/>
<path fill-rule="evenodd" clip-rule="evenodd" d="M12.4778 47.1898H38.6788V48.1248H12.4778V47.1898Z" fill="#062846"/>
<path fill-rule="evenodd" clip-rule="evenodd" d="M42.6885 24.3258C42.6797 14.876 35.0122 7.22214 25.5624 7.2309C25.3042 7.23114 25.0947 7.02202 25.0945 6.76383C25.0943 6.50564 25.3034 6.29614 25.5616 6.2959C35.5278 6.28666 43.6143 14.3588 43.6235 24.325C43.6237 24.5832 43.4146 24.7927 43.1564 24.7929C42.8982 24.7931 42.6887 24.584 42.6885 24.3258Z" fill="#062846"/>
<path fill-rule="evenodd" clip-rule="evenodd" d="M35.2129 14.0269C35.3953 13.8442 35.6913 13.8439 35.874 14.0263C38.5133 16.6604 40.1482 20.3038 40.1523 24.3277C40.1564 28.3517 38.5277 31.9983 35.8926 34.6375C35.7102 34.8202 35.4142 34.8205 35.2315 34.638C35.0488 34.4556 35.0485 34.1596 35.231 33.9769C37.6979 31.5061 39.2212 28.0947 39.2173 24.3287C39.2134 20.5626 37.6843 17.154 35.2136 14.6881C35.0308 14.5057 35.0305 14.2097 35.2129 14.0269Z" fill="#062846"/>
<path fill-rule="evenodd" clip-rule="evenodd" d="M35.676 39.295H15.48V38.36H35.676V39.295Z" fill="#062846"/>
</g>
<defs>
<clipPath id="clip0_2231_34390">
<rect width="52" height="52" fill="white"/>
</clipPath>
</defs>
</svg>
