<svg width="52" height="52" viewBox="0 0 52 52" fill="none" xmlns="http://www.w3.org/2000/svg">
<path fill-rule="evenodd" clip-rule="evenodd" d="M46.282 5L5 46.281H46.282V5Z" fill="#FFC800"/>
<path fill-rule="evenodd" clip-rule="evenodd" d="M4.6282 46.2865V5.7425H5.6282V45.7865H46.2822V46.7865H5.1282C4.85206 46.7865 4.6282 46.5626 4.6282 46.2865Z" fill="#062846"/>
<path fill-rule="evenodd" clip-rule="evenodd" d="M5.6108 35.6509H10.2748V36.6509H5.6108V35.6509Z" fill="#062846"/>
<path fill-rule="evenodd" clip-rule="evenodd" d="M5.6108 25.5148H10.2748V26.5148H5.6108V25.5148Z" fill="#062846"/>
<path fill-rule="evenodd" clip-rule="evenodd" d="M45.8015 26.3703L35.6595 16.3213L36.3633 15.6109L46.5053 25.6599L45.8015 26.3703Z" fill="#062846"/>
<path fill-rule="evenodd" clip-rule="evenodd" d="M5.6108 15.3787H10.2748V16.3787H5.6108V15.3787Z" fill="#062846"/>
<path fill-rule="evenodd" clip-rule="evenodd" d="M15.2455 46.2869V41.8699H16.2455V46.2869H15.2455Z" fill="#062846"/>
<path fill-rule="evenodd" clip-rule="evenodd" d="M25.3816 46.2869V41.8699H26.3816V46.2869H25.3816Z" fill="#062846"/>
<path fill-rule="evenodd" clip-rule="evenodd" d="M35.5177 46.2869V41.8699H36.5177V46.2869H35.5177Z" fill="#062846"/>
<path fill-rule="evenodd" clip-rule="evenodd" d="M36.365 15.6125C36.5602 15.8078 36.5602 16.1244 36.365 16.3197L16.269 36.4157C16.0737 36.6109 15.7571 36.6109 15.5619 36.4157C15.3666 36.2204 15.3666 35.9038 15.5619 35.7085L35.6579 15.6125C35.8531 15.4173 36.1697 15.4173 36.365 15.6125Z" fill="#062846"/>
<path fill-rule="evenodd" clip-rule="evenodd" d="M5.25724 25.5402C5.45321 25.3456 5.76979 25.3468 5.96434 25.5427L16.2253 35.8787C16.4199 36.0747 16.4187 36.3913 16.2228 36.5858C16.0268 36.7804 15.7102 36.7792 15.5157 36.5833L5.25467 26.2473C5.06012 26.0513 5.06127 25.7347 5.25724 25.5402Z" fill="#062846"/>
<path fill-rule="evenodd" clip-rule="evenodd" d="M18.541 36.231C18.541 37.706 17.345 38.902 15.87 38.902C14.395 38.902 13.2 37.706 13.2 36.231C13.2 34.756 14.395 33.56 15.87 33.56C17.345 33.56 18.541 34.756 18.541 36.231Z" fill="#FF492C"/>
<path fill-rule="evenodd" clip-rule="evenodd" d="M28.5952 26.0769C28.5952 27.5519 27.3992 28.7479 25.9242 28.7479C24.4492 28.7479 23.2542 27.5519 23.2542 26.0769C23.2542 24.6019 24.4492 23.4059 25.9242 23.4059C27.3992 23.4059 28.5952 24.6019 28.5952 26.0769Z" fill="#FF492C"/>
<path fill-rule="evenodd" clip-rule="evenodd" d="M38.7355 16.0914C38.7355 17.5664 37.5395 18.7624 36.0645 18.7624C34.5895 18.7624 33.3945 17.5664 33.3945 16.0914C33.3945 14.6164 34.5895 13.4204 36.0645 13.4204C37.5395 13.4204 38.7355 14.6164 38.7355 16.0914Z" fill="#FF492C"/>
</svg>
