<svg width="20" height="20" viewBox="0 0 20 20" fill="none" xmlns="http://www.w3.org/2000/svg"><path fill="currentColor" d="M10 17.125C9.02778 17.125 8.11713 16.9403 7.26806 16.5708C6.41898 16.2014 5.68009 15.7023 5.0514 15.0736C4.42269 14.4449 3.92361 13.706 3.55417 12.8569C3.18472 12.0079 3 11.0972 3 10.125H4.5C4.5 11.6389 5.03819 12.934 6.11458 14.0104C7.19097 15.0868 8.48611 15.625 10 15.625C11.5139 15.625 12.809 15.0868 13.8854 14.0104C14.9618 12.934 15.5 11.6389 15.5 10.125C15.5 8.61111 14.9618 7.31597 13.8854 6.23958C12.809 5.16319 11.5112 4.625 9.99187 4.625H9.875L10.9375 5.6875L9.875 6.75L7 3.875L9.875 1L10.9375 2.0625L9.85417 3.125H10C10.9722 3.125 11.8829 3.30972 12.7319 3.67917C13.581 4.04861 14.3199 4.54769 14.9486 5.1764C15.5773 5.80509 16.0764 6.54398 16.4458 7.39306C16.8153 8.24213 17 9.15278 17 10.125C17 11.0972 16.8153 12.0079 16.4458 12.8569C16.0764 13.706 15.5773 14.4449 14.9486 15.0736C14.3199 15.7023 13.581 16.2014 12.7319 16.5708C11.8829 16.9403 10.9722 17.125 10 17.125Z"/></svg>