<svg xmlns="http://www.w3.org/2000/svg" width="28" height="28" fill="none"><path fill="#fff" d="M4.654 13.27c.616-1.06 1.86-1.723 3.078-1.636l-.076 1.074c-.804-.057-1.66.396-2.071 1.103-.2.344-.294.746-.23 1.184.065.44.296.955.805 1.508l-.793.73c-.626-.68-.975-1.388-1.077-2.081a2.87 2.87 0 0 1 .364-1.882M22.027 2.459a2.494 2.494 0 0 1 3.54 0c.49.494.734 1.14.734 1.786 0 .645-.244 1.29-.734 1.782l-3.542 3.57-3.54-3.568-.002-.002a2.537 2.537 0 0 1 0-3.568 2.493 2.493 0 0 1 3.54 0l.002.003z"/><path fill="#201f23" fill-rule="evenodd" d="M10.888 10.913a5.404 5.404 0 0 1 7.672 0 5.48 5.48 0 0 1 1.59 3.87 5.45 5.45 0 0 1-1.59 3.863l-7.677 7.738-7.672-7.732-.006-.006a5.5 5.5 0 0 1 0-7.733 5.404 5.404 0 0 1 7.671 0l.007.006zm-3.536 1.014c-.725 0-1.45.278-2.005.834a2.873 2.873 0 0 0 0 4.041l.002.003a.295.295 0 0 0 .42 0 .3.3 0 0 0 0-.422l-.004-.003a2.27 2.27 0 0 1 0-3.196c.44-.44 1.013-.66 1.587-.66a.3.3 0 0 0 .297-.298.3.3 0 0 0-.297-.3M20.332 1.615c.598 0 1.197.201 1.686.602a2.67 2.67 0 0 1 3.481.092c.542.545.886 1.221.886 2.006 0 .69-.262 1.382-.786 1.908l-.002.003-3.579 3.607-3.578-3.607-.003-.003c-1.081-1.09-.988-2.876.1-3.914a2.67 2.67 0 0 1 1.795-.694m0 .598a2.08 2.08 0 0 0-1.477.615 2.114 2.114 0 0 0 0 2.973l.004.003 3.159 3.184 3.237-3.266c.358-.398.537-.902.537-1.407 0-1.785-2.263-2.793-3.562-1.487l-.212.213-.212-.214a2.07 2.07 0 0 0-1.474-.614" clip-rule="evenodd"/></svg>