<svg width="20" height="20" viewBox="0 0 20 20" fill="none" xmlns="http://www.w3.org/2000/svg"><path fill="currentColor" d="M12.25 17C11.625 17 11.0938 16.7812 10.6562 16.3438C10.2188 15.9062 10 15.375 10 14.75C10 14.125 10.2188 13.5938 10.6562 13.1562C11.0938 12.7188 11.625 12.5 12.25 12.5C12.875 12.5 13.4062 12.7188 13.8438 13.1562C14.2812 13.5938 14.5 14.125 14.5 14.75C14.5 15.375 14.2812 15.9062 13.8438 16.3438C13.4062 16.7812 12.875 17 12.25 17ZM13.7546 11.5C12.571 11.5 11.566 11.0883 10.7396 10.265C9.91319 9.44167 9.5 8.43819 9.5 7.25458C9.5 6.07097 9.91167 5.06597 10.735 4.23958C11.5583 3.41319 12.5618 3 13.7454 3C14.929 3 15.934 3.41167 16.7604 4.235C17.5868 5.05833 18 6.06181 18 7.24542C18 8.42903 17.5883 9.43403 16.765 10.2604C15.9417 11.0868 14.9382 11.5 13.7546 11.5ZM6.02354 15C5.19215 15 4.48035 14.7083 3.88813 14.125C3.29604 13.5417 3 12.8333 3 12C3 11.1667 3.29167 10.4583 3.875 9.875C4.45833 9.29167 5.16667 9 6 9C6.83333 9 7.54167 9.29167 8.125 9.875C8.70833 10.4583 9 11.1667 9 12C9 12.8333 8.71181 13.5417 8.13542 14.125C7.55903 14.7083 6.85507 15 6.02354 15Z"/></svg>