<svg width="52" height="52" viewBox="0 0 52 52" fill="none" xmlns="http://www.w3.org/2000/svg">
<path fill-rule="evenodd" clip-rule="evenodd" d="M44.3708 47.9278H18.2438C17.3078 47.9278 16.5478 47.1688 16.5478 46.2318V22.0728C16.5478 21.1358 17.3078 20.3768 18.2438 20.3768H44.3708C45.3078 20.3768 46.0668 21.1358 46.0668 22.0728V46.2318C46.0668 47.1688 45.3078 47.9278 44.3708 47.9278Z" fill="#FFC800"/>
<path fill-rule="evenodd" clip-rule="evenodd" d="M21.597 13.107C21.597 7.77214 25.9212 3.448 31.256 3.448C36.5909 3.448 40.915 7.77214 40.915 13.107V20.023H39.811V13.107C39.811 8.38186 35.9812 4.552 31.256 4.552C26.5309 4.552 22.701 8.38186 22.701 13.107H21.597Z" fill="#062846"/>
<path fill-rule="evenodd" clip-rule="evenodd" d="M34.9133 41.5888L33.4843 32.0918C34.0723 31.5238 34.4513 30.7418 34.4513 29.8588C34.4513 28.1228 33.0433 26.7158 31.3073 26.7158C29.5713 26.7158 28.1643 28.1228 28.1643 29.8588C28.1643 30.7418 28.5433 31.5238 29.1303 32.0918L27.7013 41.5888H34.9133Z" fill="white"/>
<path fill-rule="evenodd" clip-rule="evenodd" d="M15.3718 5.24693C15.676 5.22661 15.9391 5.45672 15.9594 5.7609L16.2024 9.3979C16.2227 9.70209 15.9926 9.96515 15.6884 9.98548C15.3842 10.0058 15.1212 9.77568 15.1008 9.4715L14.8578 5.8345C14.8375 5.53032 15.0676 5.26725 15.3718 5.24693Z" fill="#062846"/>
<path fill-rule="evenodd" clip-rule="evenodd" d="M6.1368 10.482C6.31051 10.2314 6.65443 10.1692 6.90495 10.3429L9.77495 12.3329C10.0255 12.5066 10.0878 12.8505 9.91404 13.101C9.74033 13.3516 9.39642 13.4138 9.14589 13.2401L6.27589 11.2501C6.02536 11.0764 5.96309 10.7325 6.1368 10.482Z" fill="#062846"/>
<path fill-rule="evenodd" clip-rule="evenodd" d="M8.82178 19.6607C8.90931 19.9527 8.74353 20.2604 8.4515 20.348L5.1585 21.335C4.86648 21.4225 4.55879 21.2567 4.47126 20.9647C4.38373 20.6727 4.54951 20.365 4.84154 20.2774L8.13454 19.2904C8.42656 19.2029 8.73425 19.3687 8.82178 19.6607Z" fill="#062846"/>
<path fill-rule="evenodd" clip-rule="evenodd" d="M27.6115 29.8597C27.6115 27.8177 29.2668 26.1637 31.3075 26.1637V27.2677C29.8763 27.2677 28.7155 28.4277 28.7155 29.8597C28.7155 30.577 29.0235 31.22 29.5144 31.695L29.7187 31.8927L28.3428 41.0367H34.9135V42.1407H27.0602L28.5444 32.2774C27.9758 31.6375 27.6115 30.7992 27.6115 29.8597Z" fill="#062846"/>
</svg>
