<svg width="52" height="52" viewBox="0 0 52 52" fill="none" xmlns="http://www.w3.org/2000/svg">
<path d="M43.3145 15.7975C43.3145 27.6712 37.5755 38.775 27.9762 45.4863L25.8145 47L23.6527 45.4863C14.0534 38.775 8.31445 27.6712 8.31445 15.7975C15.1772 14.3188 21.3451 10.5125 25.8145 5C30.2838 10.5125 36.4517 14.3188 43.3145 15.7975Z" fill="#144780"/>
<path d="M39.3145 18.2267C39.3145 27.2733 34.8872 35.7333 27.4821 40.8467L25.8145 42L24.1468 40.8467C16.7417 35.7333 12.3145 27.2733 12.3145 18.2267C17.6086 17.1 22.3667 14.2 25.8145 10C29.2622 14.2 34.0203 17.1 39.3145 18.2267Z" fill="#288DFF"/>
<path d="M21.5745 33.27L24.0645 24.89C22.9145 24.3 22.1345 23.1 22.1345 21.72C22.1345 19.74 23.7345 18.14 25.7145 18.14C27.6945 18.14 29.2945 19.74 29.2945 21.72C29.2945 23.1 28.5145 24.3 27.3645 24.89L29.8545 33.27H21.5645H21.5745Z" fill="#FFC800"/>
<path fill-rule="evenodd" clip-rule="evenodd" d="M26.1293 4.6116C26.3438 4.78551 26.3767 5.10038 26.2028 5.31488C21.7489 10.8084 15.6329 14.6356 8.81666 16.198C8.94411 27.7598 14.5838 38.5357 23.9392 45.0765L25.8145 46.3896L27.6894 45.0767C27.9156 44.9183 28.2274 44.9732 28.3858 45.1994C28.5442 45.4256 28.4892 45.7374 28.263 45.8958L26.1012 47.4096C25.9291 47.5301 25.6998 47.5301 25.5277 47.4096L23.3662 45.896C13.631 39.0898 7.81445 27.8319 7.81445 15.7975C7.81445 15.5619 7.97886 15.3583 8.20913 15.3087C14.9591 13.8543 21.0276 10.1101 25.4261 4.68509C25.6 4.4706 25.9148 4.43769 26.1293 4.6116Z" fill="#062846"/>
<path fill-rule="evenodd" clip-rule="evenodd" d="M22.1345 21.22C22.4106 21.22 22.6345 21.4439 22.6345 21.72C22.6345 22.9073 23.3048 23.9383 24.2927 24.4452C24.5068 24.555 24.6123 24.8018 24.5437 25.0324L22.2446 32.77H29.8545C30.1306 32.77 30.3545 32.9939 30.3545 33.27C30.3545 33.5462 30.1306 33.77 29.8545 33.77H21.5645C21.2883 33.77 21.0645 33.5462 21.0645 33.27C21.0645 33.1856 21.0854 33.1062 21.1223 33.0364L23.4733 25.1241C22.3627 24.3992 21.6345 23.143 21.6345 21.72C21.6345 21.4439 21.8583 21.22 22.1345 21.22Z" fill="#062846"/>
</svg>
