<svg width="52" height="52" viewBox="0 0 52 52" fill="none" xmlns="http://www.w3.org/2000/svg">
<path fill-rule="evenodd" clip-rule="evenodd" d="M7.1246 26.148C7.1246 36.655 15.6416 45.172 26.1486 45.172C36.6546 45.172 45.1726 36.655 45.1726 26.148C45.1726 15.641 36.6546 7.124 26.1486 7.124C15.6416 7.124 7.1246 15.641 7.1246 26.148Z" fill="#27D3BC"/>
<path fill-rule="evenodd" clip-rule="evenodd" d="M14.7867 37.5097L28.9127 28.9117L23.3847 23.3837" fill="white"/>
<path fill-rule="evenodd" clip-rule="evenodd" d="M23.3846 23.3841L28.9126 28.9121L37.5106 14.7861" fill="#FF492C"/>
<path fill-rule="evenodd" clip-rule="evenodd" d="M3.5 26.148C3.5 13.6399 13.6399 3.5 26.148 3.5C38.6571 3.5 48.797 13.6398 48.797 26.148C48.797 38.6562 38.6571 48.796 26.148 48.796C13.6399 48.796 3.5 38.6561 3.5 26.148ZM26.148 4.5C14.1921 4.5 4.5 14.1921 4.5 26.148C4.5 38.1039 14.1921 47.796 26.148 47.796C38.1049 47.796 47.797 38.1038 47.797 26.148C47.797 14.1922 38.1049 4.5 26.148 4.5Z" fill="#062846"/>
<path fill-rule="evenodd" clip-rule="evenodd" d="M38.2098 26.148C38.2098 25.8719 38.4337 25.648 38.7098 25.648H42.0928C42.3689 25.648 42.5928 25.8719 42.5928 26.148C42.5928 26.4241 42.3689 26.648 42.0928 26.648H38.7098C38.4337 26.648 38.2098 26.4241 38.2098 26.148Z" fill="#062846"/>
<path fill-rule="evenodd" clip-rule="evenodd" d="M9.3132 26.148C9.3132 25.8719 9.53706 25.648 9.8132 25.648H13.1962C13.4723 25.648 13.6962 25.8719 13.6962 26.148C13.6962 26.4241 13.4723 26.648 13.1962 26.648H9.8132C9.53706 26.648 9.3132 26.4241 9.3132 26.148Z" fill="#062846"/>
<path fill-rule="evenodd" clip-rule="evenodd" d="M26.1254 9.0737C26.4015 9.0737 26.6254 9.29756 26.6254 9.5737V12.9567C26.6254 13.2328 26.4015 13.4567 26.1254 13.4567C25.8493 13.4567 25.6254 13.2328 25.6254 12.9567V9.5737C25.6254 9.29756 25.8493 9.0737 26.1254 9.0737Z" fill="#062846"/>
<path fill-rule="evenodd" clip-rule="evenodd" d="M26.1254 38.7254C26.4015 38.7254 26.6254 38.9493 26.6254 39.2254V42.6084C26.6254 42.8845 26.4015 43.1084 26.1254 43.1084C25.8493 43.1084 25.6254 42.8845 25.6254 42.6084V39.2254C25.6254 38.9493 25.8493 38.7254 26.1254 38.7254Z" fill="#062846"/>
<path fill-rule="evenodd" clip-rule="evenodd" d="M23.7383 23.0301L29.2663 28.5581C29.3747 28.6666 29.4274 28.8189 29.4091 28.9712C29.3909 29.1235 29.3037 29.259 29.1727 29.3388L15.0467 37.9368L14.5267 37.0826L28.1093 28.8154L23.0311 23.7373L23.7383 23.0301Z" fill="#062846"/>
<path fill-rule="evenodd" clip-rule="evenodd" d="M37.9373 15.0464L37.5653 15.6574L36.7111 15.1374L37.0831 14.5264L37.9373 15.0464Z" fill="#062846"/>
<path fill-rule="evenodd" clip-rule="evenodd" d="M37.5653 15.6574L29.3394 29.1718L28.4852 28.6518L36.7111 15.1374L37.5653 15.6574Z" fill="#062846"/>
</svg>
