<svg width="20" height="20" viewBox="0 0 20 20" fill="none" xmlns="http://www.w3.org/2000/svg"><path fill="currentColor" d="M16 18.125L13.2917 15.4167C12.7639 15.5834 12.2257 15.7222 11.6771 15.8334C11.1285 15.9445 10.5694 16 10 16C8.01389 16 6.19792 15.4618 4.55208 14.3854C2.90625 13.309 1.72222 11.8472 1 10C1.23611 9.2778 1.63194 8.57294 2.1875 7.88544C2.74306 7.19794 3.33333 6.5903 3.95833 6.06252L1.875 3.97919L2.9375 2.91669L17.0625 17.0625L16 18.125ZM10 13.5C10.1944 13.5 10.3889 13.4792 10.5833 13.4375C10.7778 13.3959 10.9722 13.3472 11.1667 13.2917L6.70833 8.83335C6.66667 9.0278 6.62153 9.22224 6.57292 9.41669C6.52431 9.61113 6.5 9.80558 6.5 10C6.5 10.9722 6.84028 11.7986 7.52083 12.4792C8.20139 13.1597 9.02778 13.5 10 13.5ZM16.0417 13.9167L13.2708 11.1459C13.3403 10.9653 13.3958 10.7778 13.4375 10.5834C13.4792 10.3889 13.5 10.1945 13.5 10C13.5 9.0278 13.1597 8.20141 12.4792 7.52085C11.7986 6.8403 10.9722 6.50002 10 6.50002C9.80556 6.50002 9.61458 6.51738 9.42708 6.5521C9.23958 6.58683 9.04861 6.63891 8.85417 6.70835L6.70833 4.56252C7.23611 4.35419 7.77431 4.20835 8.32292 4.12502C8.87153 4.04169 9.43056 4.00002 10 4.00002C11.9861 4.00002 13.8021 4.53821 15.4479 5.6146C17.0938 6.69099 18.2778 8.1528 19 10C18.6944 10.7917 18.2882 11.5104 17.7812 12.1563C17.2743 12.8021 16.6944 13.3889 16.0417 13.9167ZM11.9792 9.85419L10.1458 8.00002C10.4236 7.97224 10.6736 8.00349 10.8958 8.09377C11.1181 8.18405 11.3264 8.32641 11.5208 8.52085C11.6875 8.68752 11.8125 8.89238 11.8958 9.13544C11.9792 9.37849 12.0069 9.61808 11.9792 9.85419Z"/></svg>