<svg width="52" height="52" viewBox="0 0 52 52" fill="none" xmlns="http://www.w3.org/2000/svg">
<path fill-rule="evenodd" clip-rule="evenodd" d="M15.9905 13.6419L22.0165 15.0329L26.0735 10.3659L30.1305 15.0329L36.1565 13.6419L36.6955 19.8029L42.3885 22.2189L39.2025 27.5199L42.3885 32.8209L36.6955 35.2369L36.1565 41.3979L30.1305 40.0069L26.0735 44.6739L22.0165 40.0069L15.9905 41.3979L15.4515 35.2369L9.7585 32.8209L12.9445 27.5199L9.7585 22.2189L15.4515 19.8029L15.9905 13.6419Z" fill="#FF492C"/>
<path fill-rule="evenodd" clip-rule="evenodd" d="M44.7377 12.1901L42.2407 14.0721L44.7377 15.9541L46.6197 18.4511L48.5017 15.9541L50.9997 14.0721L48.5017 12.1901L46.6197 9.6921L44.7377 12.1901Z" fill="#FFAD99"/>
<path fill-rule="evenodd" clip-rule="evenodd" d="M39.8921 5L39.0841 6.073L38.0101 6.882L39.0841 7.69L39.8921 8.763L40.7001 7.69L41.7741 6.882L40.7001 6.073L39.8921 5Z" fill="#062846"/>
<path fill-rule="evenodd" clip-rule="evenodd" d="M3.497 41.4086L1 43.2906L3.497 45.1726L5.379 47.6696L7.261 45.1726L9.759 43.2906L7.261 41.4086L5.379 38.9106L3.497 41.4086Z" fill="#FFAD99"/>
<path fill-rule="evenodd" clip-rule="evenodd" d="M16.4891 13.6856L15.9239 20.1462L10.4841 22.4548L13.5284 27.52L10.4841 32.5852L15.9239 34.8938L16.4389 40.7808L22.1969 39.4517L26.0735 43.9111L29.9501 39.4517L36.2691 40.9103L36.0439 41.8857L30.3109 40.5623L26.0735 45.4369L21.8361 40.5623L15.5421 42.0152L14.9791 35.5802L9.03287 33.0568L12.3606 27.52L9.03287 21.9832L14.9791 19.4598L15.4919 13.5984L16.4891 13.6856Z" fill="#062846"/>
<path fill-rule="evenodd" clip-rule="evenodd" d="M24.0403 35.9511C23.6603 35.5711 23.4713 35.0961 23.4713 34.5231C23.4713 33.9501 23.6573 33.4781 24.0273 33.1071C24.3983 32.7361 24.8783 32.5511 25.4683 32.5511C26.0583 32.5511 26.5343 32.7321 26.8973 33.0941C27.2593 33.4571 27.4403 33.9331 27.4403 34.5231C27.4403 35.0961 27.2553 35.5711 26.8843 35.9511C26.5133 36.3311 26.0413 36.5201 25.4683 36.5201C24.8953 36.5201 24.4203 36.3311 24.0403 35.9511ZM23.8883 30.7681C23.8293 30.7091 23.8003 30.6381 23.8003 30.5541V29.7451C23.8003 28.9021 24.0153 28.2241 24.4453 27.7091C24.8743 27.1961 25.4943 26.6521 26.3023 26.0791C26.9603 25.6241 27.4493 25.2191 27.7693 24.8651C28.0893 24.5111 28.2493 24.0811 28.2493 23.5761C28.2493 23.0361 28.0473 22.6021 27.6433 22.2741C27.2383 21.9451 26.7073 21.7811 26.0493 21.7811C25.3423 21.7811 24.7733 21.9581 24.3443 22.3121C23.9143 22.6661 23.6993 23.1211 23.6993 23.6771V24.0811C23.6993 24.2671 23.5983 24.3601 23.3953 24.3601L20.4373 24.2331C20.3533 24.2331 20.2813 24.2041 20.2233 24.1451C20.1633 24.0861 20.1343 24.0151 20.1343 23.9301V23.6771C20.1343 22.6661 20.3873 21.7681 20.8933 20.9851C21.3983 20.2011 22.1023 19.5941 23.0033 19.1651C23.9053 18.7351 24.9453 18.5201 26.1253 18.5201C27.2723 18.5201 28.2783 18.7261 29.1473 19.1391C30.0153 19.5531 30.6853 20.1291 31.1563 20.8701C31.6293 21.6131 31.8653 22.4721 31.8653 23.4501C31.8653 24.1911 31.7343 24.8271 31.4733 25.3591C31.2113 25.8891 30.8953 26.3231 30.5253 26.6601C30.1533 26.9981 29.6823 27.3681 29.1083 27.7731C28.5023 28.1941 28.0553 28.5561 27.7693 28.8601C27.4823 29.1631 27.3393 29.5341 27.3393 29.9721V30.5541C27.3393 30.6381 27.3103 30.7091 27.2513 30.7681C27.1913 30.8271 27.1203 30.8571 27.0353 30.8571H24.1033C24.0193 30.8571 23.9473 30.8271 23.8883 30.7681Z" fill="#FFE6E0"/>
<path fill-rule="evenodd" clip-rule="evenodd" d="M23.2187 19.6172C22.3948 20.009 21.7654 20.5559 21.3132 21.2566C20.864 21.9517 20.6342 22.754 20.6342 23.6772V23.7399L23.7659 23.8601L23.7275 24.8603L20.426 24.7336C20.2184 24.7308 20.0229 24.6525 19.8703 24.5006C19.7121 24.3443 19.6332 24.1437 19.6332 23.9292V23.6772C19.6332 22.5785 19.9095 21.5846 20.4722 20.7138M23.2187 19.6172L22.7887 18.7132ZM22.7887 18.7132C21.8087 19.1793 21.0319 19.8466 20.4722 20.7138ZM30.1877 26.2902C30.5039 26.0022 30.7847 25.6216 31.024 25.1374L31.9214 25.581C31.6367 26.1568 31.2855 26.6442 30.8618 27.0302M30.1877 26.2902C29.8371 26.6095 29.3843 26.9662 28.8216 27.3632ZM26.5591 33.4884C26.2856 33.2123 25.9416 33.0643 25.4881 33.0556L25.5073 32.0548C26.1993 32.0681 26.7992 32.3078 27.2715 32.7852L27.2729 32.7866C27.7466 33.2693 27.9715 33.8776 27.9581 34.5738C27.9448 35.2689 27.6988 35.8706 27.209 36.3416C26.7201 36.8138 26.1094 37.037 25.4141 37.0236C24.7215 37.0113 24.1222 36.77 23.6576 36.2888L23.6567 36.2879C23.1902 35.8021 22.9761 35.1854 22.9893 34.4809L23.9901 34.4995C23.9812 34.9747 24.119 35.3238 24.3782 35.594C24.6414 35.8664 24.9796 36.0149 25.4324 36.0228C25.8829 36.0314 26.2309 35.8947 26.5139 35.6213L26.5148 35.6204C26.7988 35.3474 26.9486 35.0053 26.9573 34.5546C26.9659 34.1052 26.829 33.7637 26.5591 33.4884Z" fill="#062846"/>
</svg>
