<svg width="52" height="52" viewBox="0 0 52 52" fill="none" xmlns="http://www.w3.org/2000/svg">
<g clip-path="url(#clip0_2231_34399)">
<path fill-rule="evenodd" clip-rule="evenodd" d="M51 25.9997C51 39.8067 39.807 50.9997 26 50.9997C12.193 50.9997 1 39.8067 1 25.9997C1 12.1927 12.193 0.999695 26 0.999695C39.807 0.999695 51 12.1927 51 25.9997Z" fill="#FFC800"/>
<path fill-rule="evenodd" clip-rule="evenodd" d="M23.1712 47L29.6135 46.9781C34.2665 46.9614 38.0213 44.0181 37.9999 40.4027L37.8666 17L23 17.0514L23.1712 47Z" fill="#062846"/>
<path fill-rule="evenodd" clip-rule="evenodd" d="M32.1905 34.3443C32.2185 40.5953 27.1735 45.6843 20.9235 45.7123C14.6725 45.7403 9.58251 40.6953 9.55451 34.4453C9.52751 28.1943 14.5715 23.1043 20.8225 23.0773C27.0725 23.0493 32.1625 28.0933 32.1905 34.3443Z" fill="#062846"/>
<path fill-rule="evenodd" clip-rule="evenodd" d="M40.8832 12.1312C40.6892 12.1312 40.5062 12.0142 40.4302 11.8232C39.4012 9.20721 37.4202 7.11721 34.9962 6.08821C32.9322 5.21221 30.7152 5.17721 28.7542 5.98921L17.6832 10.5772C17.4342 10.6802 17.1502 10.5622 17.0472 10.3142C16.9442 10.0652 17.0622 9.78121 17.3112 9.67821L28.3822 5.09121C30.5862 4.17721 33.0702 4.21321 35.3762 5.19221C38.0392 6.32221 40.2112 8.60921 41.3362 11.4662C41.4342 11.7162 41.3112 11.9992 41.0612 12.0972C41.0032 12.1202 40.9422 12.1312 40.8832 12.1312Z" fill="#062846"/>
<path fill-rule="evenodd" clip-rule="evenodd" d="M30.3699 26.6557L31.8249 26.3837C37.0539 25.4087 40.4169 19.8567 39.3389 13.9827H39.3379C38.4069 8.90969 33.9909 5.48069 29.4749 6.32269L18.8489 8.30569C14.3509 9.14469 11.5139 13.9487 12.5459 18.9817C13.0199 21.2967 14.3099 23.3357 16.1189 24.6307L18.3389 26.2207C20.2299 27.5737 21.5479 29.7357 21.9689 32.1697" fill="#062846"/>
<path fill-rule="evenodd" clip-rule="evenodd" d="M60.2473 67.4851C60.2473 74.7091 47.7923 88.4421 27.7873 88.4421C7.7823 88.4421 -4.6727 76.8771 -4.6727 67.4851C-4.6727 58.0931 7.7823 39.0021 27.7873 39.0021C47.7923 39.0021 60.2473 60.2611 60.2473 67.4851Z" fill="#5746B2"/>
<path fill-rule="evenodd" clip-rule="evenodd" d="M34.425 39.8025C34.425 39.8025 33.063 45.5755 26.319 45.5755C19.575 45.5755 18.568 40.4185 18.568 40.4185C18.568 40.4185 22.147 39.0605 26.31 39.0605C30.472 39.0605 34.425 39.8025 34.425 39.8025Z" fill="white"/>
<path fill-rule="evenodd" clip-rule="evenodd" d="M21.8844 41.992H30.9384V28.976H21.8844V41.992Z" fill="white"/>
<path fill-rule="evenodd" clip-rule="evenodd" d="M29.4977 34.434L32.3817 33.625C35.9497 32.623 38.0317 28.919 37.0297 25.35L34.4947 16.314C33.7087 13.513 30.8017 11.88 28.0007 12.666L25.1177 13.475C20.7807 14.692 18.2507 19.195 19.4677 23.532L21.2227 29.785C22.2237 33.354 25.9287 35.435 29.4977 34.434Z" fill="white"/>
<path fill-rule="evenodd" clip-rule="evenodd" d="M27.3706 35.2888C26.2246 35.2888 25.0906 34.9948 24.0636 34.4178C22.4866 33.5318 21.3486 32.0838 20.8596 30.3428L21.8226 30.0718C22.2386 31.5568 23.2086 32.7908 24.5536 33.5458C25.8986 34.3018 27.4576 34.4878 28.9406 34.0708L29.2106 35.0338C28.6026 35.2048 27.9846 35.2888 27.3706 35.2888Z" fill="#062846"/>
<path fill-rule="evenodd" clip-rule="evenodd" d="M31.4726 26.0456C31.2166 26.0456 31.0026 25.8456 30.9876 25.5876C30.9716 25.3196 31.1756 25.0896 31.4446 25.0736C31.8686 25.0476 32.2266 24.8016 32.4026 24.4136C32.5776 24.0266 32.5256 23.5946 32.2636 23.2596C32.0996 23.0466 32.1366 22.7416 32.3486 22.5756C32.5606 22.4106 32.8666 22.4486 33.0316 22.6606C33.5126 23.2766 33.6106 24.1016 33.2886 24.8146C32.9666 25.5266 32.2826 25.9976 31.5016 26.0446C31.4926 26.0456 31.4826 26.0456 31.4726 26.0456Z" fill="#062846"/>
<path fill-rule="evenodd" clip-rule="evenodd" d="M28.2277 21.5904C28.2397 21.9224 27.9797 22.2014 27.6477 22.2124C27.3157 22.2244 27.0377 21.9654 27.0257 21.6334C27.0137 21.3014 27.2737 21.0224 27.6057 21.0104C27.9377 20.9984 28.2157 21.2584 28.2277 21.5904Z" fill="#062846"/>
<path fill-rule="evenodd" clip-rule="evenodd" d="M22.8204 26.3428C23.2784 27.9458 22.3494 29.6168 20.7454 30.0748C19.1424 30.5318 17.4714 29.6038 17.0144 27.9998C16.5564 26.3968 17.4854 24.7258 19.0884 24.2678C20.6924 23.8108 22.3624 24.7398 22.8204 26.3428Z" fill="white"/>
<path fill-rule="evenodd" clip-rule="evenodd" d="M31.2852 30.5804C30.7522 30.5804 30.2112 30.4524 29.7112 30.1804C29.4742 30.0524 29.3872 29.7574 29.5152 29.5214C29.6422 29.2844 29.9382 29.1954 30.1742 29.3254C31.3112 29.9404 32.7362 29.5174 33.3512 28.3814C33.4782 28.1444 33.7732 28.0564 34.0102 28.1854C34.2472 28.3134 34.3342 28.6084 34.2062 28.8444C33.6062 29.9514 32.4632 30.5804 31.2852 30.5804Z" fill="#062846"/>
<path fill-rule="evenodd" clip-rule="evenodd" d="M24.887 20.3265C24.796 20.3265 24.705 20.3005 24.623 20.2485C24.398 20.1025 24.333 19.8025 24.478 19.5775C25.078 18.6465 26.751 17.1385 28.793 18.0955C29.036 18.2095 29.141 18.4985 29.027 18.7425C28.913 18.9855 28.624 19.0895 28.38 18.9765C26.605 18.1445 25.348 20.0245 25.296 20.1055C25.202 20.2485 25.046 20.3265 24.887 20.3265Z" fill="#062846"/>
<path fill-rule="evenodd" clip-rule="evenodd" d="M28.1414 32.4467L18.4384 27.5197L19.0654 26.2857L28.7684 31.2127L28.1414 32.4467Z" fill="#796BC1"/>
<path fill-rule="evenodd" clip-rule="evenodd" d="M29.5117 33.78L27.4867 32.818C27.0967 32.632 26.9307 32.165 27.1157 31.775L27.6297 30.694C27.8147 30.303 28.2817 30.137 28.6727 30.323L30.6977 31.285C31.0877 31.47 31.2537 31.937 31.0687 32.328L30.5547 33.409C30.3687 33.799 29.9017 33.966 29.5117 33.78Z" fill="#FF492C"/>
<path fill-rule="evenodd" clip-rule="evenodd" d="M15.3941 27.3566C15.3941 29.4656 17.1031 31.1746 19.2121 31.1746C21.3211 31.1746 23.0301 29.4656 23.0301 27.3566C23.0301 25.2476 21.3211 23.5386 19.2121 23.5386C17.1031 23.5386 15.3941 25.2476 15.3941 27.3566Z" fill="#FF492C"/>
</g>
<defs>
<clipPath id="clip0_2231_34399">
<rect width="52" height="52" fill="white"/>
</clipPath>
</defs>
</svg>
