<svg width="52" height="52" viewBox="0 0 52 52" fill="none" xmlns="http://www.w3.org/2000/svg">
<path fill-rule="evenodd" clip-rule="evenodd" d="M5.04501 47.0001H14.328V37.7171L5.04501 47.0001Z" fill="#FFC800"/>
<path fill-rule="evenodd" clip-rule="evenodd" d="M22.0982 47.0001H47.4032V21.6961L22.0982 47.0001Z" fill="#FFC800"/>
<path fill-rule="evenodd" clip-rule="evenodd" d="M47.1838 4.71691C47.278 4.81066 47.3309 4.93803 47.331 5.07088L47.3313 5.57052L47.3536 5.59275L47.3314 5.61496L47.335 11.3999L46.335 11.4005L46.332 6.61433L6.06302 46.8833V47.0012H5.06302V41.0882H6.06302V45.4691L45.9578 5.57428L40.5918 5.5932L40.5883 4.5932L46.8293 4.5712C46.9621 4.57073 47.0897 4.62316 47.1838 4.71691ZM13.314 47.0012V41.0882H14.314V47.0012H13.314ZM21.567 47.0012V41.0882H22.567V47.0012H21.567ZM29.819 47.0012V41.0882H30.819V47.0012H29.819ZM38.07 47.0012V41.0882H39.07V47.0012H38.07ZM46.323 47.0012V41.0882H47.323V47.0012H46.323Z" fill="#062846"/>
</svg>
