<svg width="20" height="20" viewBox="0 0 20 20" fill="none" xmlns="http://www.w3.org/2000/svg"><path fill="currentColor" d="M14.4444 16.2222H6V7.33333L11.3333 2L11.9259 2.40741C12.1481 2.5679 12.3117 2.7716 12.4167 3.01852C12.5216 3.26543 12.5432 3.51852 12.4815 3.77778L11.7778 7.33333H16.6667C17.037 7.33333 17.3519 7.46296 17.6111 7.72222C17.8704 7.98148 18 8.2963 18 8.66667V9.72222C18 9.82099 17.9907 9.91049 17.9722 9.99074C17.9537 10.071 17.9259 10.1543 17.8889 10.2407L15.6852 15.4074C15.5741 15.6543 15.4074 15.8519 15.1852 16C14.963 16.1481 14.716 16.2222 14.4444 16.2222ZM4.66667 7.33333V16.2222H2V7.33333H4.66667Z"/></svg>