<svg width="52" height="52" viewBox="0 0 52 52" fill="none" xmlns="http://www.w3.org/2000/svg">
<path fill-rule="evenodd" clip-rule="evenodd" d="M15.9905 13.6419L22.0165 15.0329L26.0735 10.3659L30.1305 15.0329L36.1565 13.6419L36.6955 19.8029L42.3885 22.2189L39.2025 27.5199L42.3885 32.8209L36.6955 35.2369L36.1565 41.3979L30.1305 40.0069L26.0735 44.6739L22.0165 40.0069L15.9905 41.3979L15.4515 35.2369L9.7585 32.8209L12.9445 27.5199L9.7585 22.2189L15.4515 19.8029L15.9905 13.6419Z" fill="#27D3BC"/>
<path fill-rule="evenodd" clip-rule="evenodd" d="M44.7377 12.1901L42.2407 14.0721L44.7377 15.9541L46.6197 18.4511L48.5017 15.9541L50.9997 14.0721L48.5017 12.1901L46.6197 9.69209L44.7377 12.1901Z" fill="#27D3BC"/>
<path fill-rule="evenodd" clip-rule="evenodd" d="M39.8921 5L39.0841 6.073L38.0101 6.882L39.0841 7.69L39.8921 8.763L40.7001 7.69L41.7741 6.882L40.7001 6.073L39.8921 5Z" fill="#062846"/>
<path fill-rule="evenodd" clip-rule="evenodd" d="M3.497 41.4086L1 43.2906L3.497 45.1726L5.379 47.6696L7.261 45.1726L9.759 43.2906L7.261 41.4086L5.379 38.9106L3.497 41.4086Z" fill="#27D3BC"/>
<path fill-rule="evenodd" clip-rule="evenodd" d="M22.5368 36.4893L16.4468 30.4093L18.9998 27.8563L22.4518 31.3183L33.8408 19.9283L36.3848 22.4813L22.5368 36.4893Z" fill="#E5FAF7"/>
<path fill-rule="evenodd" clip-rule="evenodd" d="M16.4891 13.6856L15.9239 20.1462L10.4841 22.4548L13.5284 27.52L10.4841 32.5852L15.9239 34.8938L16.4389 40.7808L22.1969 39.4517L26.0735 43.9111L29.9501 39.4517L36.2691 40.9103L36.0439 41.8857L30.3109 40.5623L26.0735 45.4369L21.8361 40.5623L15.5421 42.0152L14.9791 35.5802L9.03287 33.0568L12.3606 27.52L9.03287 21.9832L14.9791 19.4598L15.4919 13.5984L16.4891 13.6856Z" fill="#062846"/>
<path fill-rule="evenodd" clip-rule="evenodd" d="M22.534 35.7801L36.0284 22.1298L36.7402 22.8336L22.5386 37.1993L16.0927 30.7639L16.7999 30.0555L22.534 35.7801Z" fill="#062846"/>
</svg>
