<svg width="20" height="20" viewBox="0 0 20 20" fill="none" xmlns="http://www.w3.org/2000/svg"><path fill="currentColor" d="M10 17L8.95833 16.0625C7.56944 14.8264 6.42361 13.7674 5.52083 12.8854C4.61806 12.0035 3.90625 11.2188 3.38542 10.5312C2.86458 9.84375 2.50347 9.21528 2.30208 8.64583C2.10069 8.07639 2 7.49306 2 6.89583C2 5.65972 2.42361 4.61806 3.27083 3.77083C4.11806 2.92361 5.15972 2.5 6.39583 2.5C7.07639 2.5 7.73611 2.64583 8.375 2.9375C9.01389 3.22917 9.55556 3.63889 10 4.16667C10.4444 3.63889 10.9861 3.22917 11.625 2.9375C12.2639 2.64583 12.9236 2.5 13.6042 2.5C14.8403 2.5 15.8819 2.92361 16.7292 3.77083C17.5764 4.61806 18 5.65972 18 6.89583C18 7.49306 17.9028 8.06944 17.7083 8.625C17.5139 9.18056 17.1562 9.79861 16.6354 10.4792C16.1146 11.1597 15.3993 11.9479 14.4896 12.8438C13.5799 13.7396 12.4167 14.8264 11 16.1042L10 17Z"/></svg>